<svg width="42" height="80" viewBox="0 0 42 80" fill="none" xmlns="http://www.w3.org/2000/svg">
<path d="M38.4489 48.4426C38.4489 48.4426 38.1046 52.9691 34.2578 56.2273C36.005 57.2517 38.2182 59.9233 38.4489 62.593C38.5645 59.1242 40.2535 57.2449 41.9999 56.2273C39.8506 54.6721 38.3394 52.4167 38.4489 48.4426Z" fill="#F0B000"/>
<path d="M18.1167 71.4533C17.84 73.6783 18.859 77.5301 16.4775 79.9324C16.6155 74.0896 12.1017 71.9831 11.094 67.1099C10.0801 62.2328 13.9017 60.1977 12.9933 55.5097C12.0849 50.8216 7.36054 48.1343 6.33588 44.1033C5.30586 40.0782 7.08956 35.7251 9.44869 32.5079L9.45443 32.4913C10.8223 32.8487 14.1457 33.9691 16.4664 36.9238C16.5049 36.8846 16.544 36.8454 16.588 36.8063C18.8423 34.6879 23.9376 33.8575 26.386 34.0582C26.6297 39.2595 23.2732 38.5289 22.3706 45.6428C21.8829 49.472 25.6879 50.6208 25.1341 57.5555C24.6799 63.3032 19.0419 63.9946 18.1167 71.4533Z" fill="#FF5D89"/>
<path d="M26.386 34.058C23.9375 33.8573 18.8423 34.6878 16.588 36.8061C16.5439 36.8452 16.5048 36.8844 16.4664 36.9236C14.1457 33.9689 10.8222 32.8486 9.45439 32.4911C9.06101 32.3912 8.82837 32.352 8.82837 32.352V31.0025C12.628 31.0809 19.0639 31.2425 22.3811 31.3482C23.8988 31.3991 25.472 31.4099 26.9173 31.4099L26.6627 34.0855C26.5742 34.0747 26.4856 34.0639 26.386 34.058Z" fill="white" fill-opacity="0.2"/>
<path d="M31.1826 27.8366C32.7775 23.8173 37.0974 26.3538 37.0476 29.5759C37.0036 32.7979 33.0875 34.3981 31.4871 31.4102V31.371C31.9245 31.3602 32.2567 31.3543 32.4616 31.3485C33.5307 31.3152 33.8189 29.2301 32.877 28.2998C32.6889 28.1098 32.2792 27.9541 31.1826 27.8366Z" fill="#F0B000"/>
<path d="M5.28913 30.9134L5.28349 30.9477C4.54158 33.5341 -0.61457 32.3971 0.0608261 28.8235C0.731279 25.2666 4.6636 25.7464 5.27279 27.3741C3.7164 27.5474 3.28426 27.8138 3.26221 29.0576C3.24548 30.2112 3.78292 30.7518 5.28913 30.9134Z" fill="#F0B000"/>
<path d="M25.034 27.5964C28.1693 27.6248 30.0412 27.708 31.1825 27.8363C32.2791 27.9539 32.6888 28.1096 32.8769 28.2996C33.8187 29.2299 33.5306 31.315 32.4615 31.3483C32.2566 31.3541 31.9244 31.36 31.487 31.3708C30.4346 31.3933 28.7843 31.4158 26.9173 31.4099C25.4719 31.4099 23.8987 31.3992 22.3811 31.3483C19.0638 31.2425 12.6279 31.0809 8.8283 31.0025C7.72074 30.981 6.83404 30.9692 6.31904 30.9643C5.93704 30.9585 5.59386 30.9477 5.28902 30.9134C3.7828 30.7518 3.24537 30.2112 3.2621 29.0576C3.28414 27.8138 3.71629 27.5474 5.27268 27.3741C5.44986 27.3516 5.63794 27.3349 5.84324 27.3183C6.77323 27.235 9.04995 27.2791 11.9518 27.3516C15.3585 27.4407 19.6399 27.569 23.6274 27.5856C24.1207 27.5856 24.5912 27.5915 25.034 27.5964Z" fill="#DE942C"/>
<path d="M23.8326 24.442C25.223 25.0492 25.7878 26.1137 25.0341 27.5964C24.5913 27.5915 24.1208 27.5857 23.6274 27.5857C19.64 27.569 15.3585 27.4407 11.9519 27.3516V27.2674C9.62009 26.4046 9.49272 22.4735 12.5558 21.4589C12.7386 21.5598 12.9267 21.6538 13.132 21.7439C16.1396 23.0317 20.2714 23.5831 22.5534 24.0454C23.0291 24.1462 23.4614 24.2745 23.8326 24.442Z" fill="#F0B000"/>
<path d="M23.7883 19.5188C25.5716 20.9574 25.5716 22.9641 23.8712 24.3577L23.8328 24.4419C23.4615 24.2744 23.0293 24.1461 22.5535 24.0453C20.2715 23.583 16.1397 23.0316 13.1321 21.7438C12.9268 21.6537 12.7388 21.5597 12.5559 21.4588C10.0694 19.9986 9.83651 16.9098 12.3233 15.667L12.3347 15.6553C12.6502 15.9011 13.0375 16.1293 13.4978 16.3193C16.8485 17.707 21.1243 17.7462 23.3455 19.1956C23.5059 19.3013 23.6553 19.4071 23.7883 19.5188Z" fill="#F0B000"/>
<path d="M22.9297 13.0855C25.4998 14.3342 26.4135 17.7237 23.8495 19.4463L23.7883 19.5188C23.6553 19.4072 23.5059 19.3014 23.3455 19.1956C21.1243 17.7462 16.8485 17.707 13.4978 16.3193C13.0374 16.1293 12.6502 15.9011 12.3347 15.6553C10.3298 14.0727 10.9942 11.4921 12.6 10.6499L12.6558 10.5275C13.1929 10.7449 13.7471 10.8673 14.2453 10.9506C15.63 11.1739 19.4295 11.7086 22.0544 12.7124C22.3649 12.8299 22.6583 12.9523 22.9297 13.0855Z" fill="#F0B000"/>
<path d="M17.9674 0.0240946C24.7355 0.45892 27.5214 7.4279 22.0544 12.7124C19.4296 11.7086 15.63 11.1739 14.2453 10.9506C13.7471 10.8673 13.1929 10.7449 12.6558 10.5275C11.5145 10.0584 10.4572 9.16133 10.2241 7.31038C9.88621 4.58391 11.6202 -0.388206 17.9674 0.0240946Z" fill="#DE942C"/>
<path d="M31.6782 31.365C31.6694 30.9684 32.0773 31.0252 32.4551 31.0154C33.1673 30.9968 33.409 29.2869 32.6455 28.5348C32.5277 28.4182 32.2153 28.3183 31.7158 28.238C31.2886 28.1685 31.3893 27.5162 31.8203 27.5858C32.4916 27.6935 32.8762 27.8365 33.105 28.0617C34.2388 29.1801 33.8704 31.6402 32.4725 31.6765C32.0921 31.6863 31.6869 31.7617 31.6782 31.365Z" fill="#1A1A1A" fill-opacity="0.8"/>
<path d="M4.65329 31.1475C3.44542 30.888 2.91559 30.2426 2.93612 29.0546C2.95702 27.8197 3.39639 27.331 4.67723 27.1185C5.10982 27.0519 5.20819 27.7012 4.78368 27.7717C3.80877 27.9333 3.60847 28.1507 3.59289 29.0654C3.57806 29.9321 3.89163 30.3072 4.7901 30.5011C5.21471 30.5912 5.07781 31.2386 4.65329 31.1475Z" fill="#1A1A1A" fill-opacity="0.8"/>
<path d="M23.1467 24.5369C21.6773 24.0844 16.5428 23.5644 13.0017 22.0464C12.6007 21.875 12.8633 21.2669 13.2589 21.4382C15.6082 22.446 18.7097 23.0062 20.9745 23.4155C23.2363 23.8239 23.6913 23.8748 23.5567 24.3175C23.5035 24.4928 23.3188 24.5897 23.1467 24.5369Z" fill="#1A1A1A" fill-opacity="0.8"/>
<path d="M23.1638 19.4727C20.8332 17.9469 15.2275 17.8637 12.5613 16.2115C12.1907 15.9814 12.5373 15.4193 12.9056 15.6484C15.4201 17.2056 24.5208 17.9773 23.618 19.3758C23.5185 19.5296 23.3147 19.5717 23.1638 19.4727Z" fill="#1A1A1A" fill-opacity="0.8"/>
<path d="M14.192 11.2748C13.5762 11.1749 12.9639 11.1269 13.0799 10.6862C13.1936 10.2553 13.6374 10.5148 14.2976 10.6225C18.2075 11.264 20.4518 11.8418 21.6468 12.214C21.8198 12.2678 21.9167 12.4529 21.8631 12.6272C21.6753 13.2383 21.5883 12.4882 14.192 11.2748Z" fill="#1A1A1A" fill-opacity="0.8"/>
<path d="M16.1244 37.194C13.2848 33.5822 8.80445 32.7958 8.7592 32.789C8.18689 32.693 8.33284 31.8243 8.90175 31.9193C9.09255 31.9506 13.4619 32.7096 16.5124 36.2832C19.1277 34.0758 24.5229 33.3736 26.7171 33.6479C27.2906 33.7203 27.1835 34.5929 26.6088 34.5234C24.3705 34.2452 18.9369 35.0591 16.777 37.2322C16.5934 37.4173 16.2878 37.4017 16.1244 37.194Z" fill="white"/>
<path d="M18.355 53.4951C16.9886 48.5416 11.5121 45.6585 16.3274 36.5996C16.5318 36.2137 17.111 36.5271 16.9062 36.912C15.0103 40.4797 14.0614 43.2092 16.2669 47.7308C17.1544 49.5523 19.7142 53.4589 18.7591 53.7253C18.5854 53.7742 18.4036 53.6724 18.355 53.4951Z" fill="white"/>
<path d="M18.0025 59.1449C17.5145 58.9343 18.0481 58.4877 18.4754 56.9884C18.5958 56.5673 19.2257 56.7523 19.1067 57.1715C18.9318 57.7855 18.6886 58.3732 18.4335 58.9715C18.3617 59.14 18.169 59.2163 18.0025 59.1449Z" fill="white"/>
<path d="M16.2639 79.6218C17.3129 72.7361 14.4156 71.7509 14.3427 68.1626C14.2944 65.7799 15.5467 64.165 16.4262 62.1534C16.6003 61.7519 17.202 62.0192 17.0272 62.4188C16.1587 64.4088 14.9554 65.9669 14.9998 68.1489C15.0668 71.4953 17.9864 72.6764 16.9131 79.7217C16.8474 80.1536 16.1982 80.0537 16.2639 79.6218Z" fill="white"/>
<path d="M15.4903 3.23837C15.536 2.78297 15.2961 2.42649 14.6842 2.37949C14.2007 2.15228 13.588 2.19048 12.9317 2.70365C11.5216 3.80443 12.3877 5.75624 13.7599 5.73568C14.9913 5.71609 15.9008 4.33523 15.4903 3.23837Z" fill="white"/>
<path d="M12.8297 7.56418C12.6632 7.56418 12.6625 7.82568 12.8297 7.82568C12.997 7.82568 12.997 7.56418 12.8297 7.56418Z" fill="white"/>
</svg>
