<svg width="48" height="80" viewBox="0 0 48 80" fill="none" xmlns="http://www.w3.org/2000/svg">
<path d="M37.6557 49.6505C44.9442 52.2097 48.4975 60.1673 46.4138 69.912C45.6555 73.4458 45.553 76.1073 45.0976 76.405C44.6462 76.7026 43.3583 75.5202 39.9486 74.0598C36.5438 72.6045 31.5442 70.1259 29.2275 63.9533C29.6325 63.8231 30.0184 63.6877 30.3859 63.5399C31.7768 66.5952 34.2513 70.2933 39.1024 71.7114C43.395 72.9631 46.4974 67.5719 45.6002 61.4365C44.7023 55.3073 40.2325 51.8923 37.1066 50.4371L37.0792 50.4133C37.279 50.1621 37.4696 49.9068 37.6557 49.6505Z" fill="#1A1A1A"/>
<path d="M45.6001 61.4367C46.4972 67.5721 43.3948 72.9633 39.1022 71.7116C34.2512 70.2936 31.7766 66.5954 30.3857 63.5401C37.4881 60.6739 37.4372 54.1582 35.9578 51.7623C36.3531 51.321 36.7258 50.8703 37.0791 50.4135L37.1065 50.4373C40.2323 51.8926 44.7022 55.3075 45.6001 61.4367Z" fill="#FF5D89"/>
<path d="M37.6558 49.6507C37.4697 49.907 37.2791 50.1623 37.0793 50.4135C36.726 50.8703 36.3533 51.321 35.958 51.7623C35.642 52.1168 35.3161 52.4651 34.9721 52.8093C34.9721 52.8093 32.2282 50.6646 27.5771 48.9726C25.4372 48.1954 22.8884 47.5122 20.0189 47.1763C17.7164 46.9075 15.2047 46.8651 12.5303 47.1763C11.3675 47.3117 10.1769 47.5122 8.95829 47.7902C8.95829 47.7902 10.3908 43.0378 7.11157 38.0507C7.11157 38.0507 13.3116 31.7489 14.656 25.4605C14.7675 24.9448 14.8461 24.428 14.8838 23.9164C14.8838 23.9164 14.9814 23.9298 15.1627 23.9484C15.8838 24.028 17.9348 24.1954 20.5906 23.9815C22.2509 23.8471 24.1484 23.568 26.1067 23.0182C28.6652 22.3029 31.321 21.1401 33.6882 19.2611C33.6882 19.2611 36.321 24.5861 43.521 27.6145C43.521 27.6145 44.6648 39.9205 37.6558 49.6507Z" fill="#1A1A1A" fill-opacity="0.6"/>
<path d="M29.595 3.73949C31.7861 2.62734 31.4744 -3.43323e-05 31.4744 -3.43323e-05C32.8043 3.19996 31.4744 3.99064 31.4744 3.99064C32.5395 3.88315 33.6182 2.82786 33.6182 1.33018C34.0511 6.41855 28.7398 5.77669 28.7398 5.77669C25.5534 10.8971 25.4836 18.5581 26.1066 23.018C24.1484 23.5679 22.2508 23.847 20.5906 23.9813V23.9534C20.4558 21.0511 22.4184 13.2413 24.2001 9.13482C25.9863 5.02837 26.6 4.70693 28.2602 3.74363C29.8651 2.81443 28.8234 0.199459 28.7442 0.00927734C30.8837 2.26974 29.6789 3.64647 29.595 3.73949Z" fill="#1A1A1A"/>
<path d="M26.2882 54.6654L26.3019 54.7294C24.9438 55.4137 23.814 56.3625 23.0558 58.3015C23.0558 56.563 21.0092 54.6653 19.6325 54.3387V54.3346C17.2277 54.2178 14.7907 48.9723 20.0135 47.2142L20.0188 47.1759C22.8883 47.5119 25.4371 48.1951 27.5769 48.9723L27.5297 49.0974C30.0789 52.0183 28.1858 54.2654 26.2882 54.6654Z" fill="#FF5D89"/>
<path d="M20.5906 23.9536V23.9815C17.9348 24.1955 15.8837 24.028 15.1627 23.9484C14.5394 19.0833 12.995 14.2606 11.6928 10.8094C10.5906 7.86991 9.54412 7.57635 7.0882 7.19496C4.6326 6.80943 4.7957 3.4792 4.7957 3.4792C6.0235 5.92985 7.60014 5.32107 7.60014 5.32107C5.75342 3.57637 7.0882 1.64148 7.0882 1.64148C7.02319 4.17274 8.67001 4.32159 8.67001 4.32159C7.4604 2.08801 9.36727 1.0513 9.36727 1.0513C8.4791 2.65543 9.32086 3.79033 10.321 4.32159C11.3211 4.85596 11.7534 4.29781 14.4138 8.54897C17.0744 12.8001 20.2511 20.5355 20.5862 23.9536H20.5906Z" fill="#1A1A1A"/>
<path d="M14.8904 18.5188C16.1795 17.7974 15.0321 16.2956 14.0506 16.738C13.6303 16.9281 13.3432 16.2925 13.7639 16.1023C14.7491 15.6568 16.0297 16.3834 16.15 17.4615C16.2235 18.1095 15.8541 18.7783 15.2315 19.1276C14.829 19.3529 14.4882 18.7452 14.8904 18.5188Z" fill="#1A1A1A" fill-opacity="0.8"/>
<path d="M23.326 17.6681C22.3127 16.3265 23.5748 14.279 25.3694 14.8712C25.807 15.0149 25.5914 15.6774 25.1513 15.5338C24.0184 15.1606 23.2699 16.4361 23.8824 17.2475C24.2026 17.6723 24.8643 17.8066 25.3262 17.5441C25.7283 17.3157 26.0699 17.9224 25.6714 18.1498C24.9075 18.5849 23.8553 18.3689 23.326 17.6681Z" fill="#1A1A1A" fill-opacity="0.8"/>
<path d="M18.437 63.9347C18.8561 64.0928 19.293 64.2365 19.7395 64.3533C19.5349 68.2189 16.7163 72.3439 10.8418 76.4514C4.94432 80.5672 4.90711 80.6881 4.38102 78.9114C3.85575 77.1346 2.70712 72.6881 1.74422 65.2515C0.781228 57.8179 2.03735 51.4138 8.70235 48.0091L8.79517 47.9295C8.99548 48.1579 9.18121 48.3678 9.3532 48.5538C1.03725 53.6236 2.20004 63.6783 3.69264 67.8323C5.53491 72.9724 9.0976 73.9253 13.1722 71.8933C16.3816 70.2933 18.2231 65.7021 18.4092 64.005L18.437 63.9347Z" fill="#1A1A1A"/>
<path d="M18.4368 63.9347L18.409 64.005C18.2229 65.7021 16.3814 70.2933 13.172 71.8933C9.09739 73.9254 5.53471 72.9724 3.69244 67.8324C2.19983 63.6784 1.03704 53.6236 9.353 48.5538C10.1297 49.3952 10.651 49.8282 10.7164 49.8841C8.80913 54.7295 12.0371 61.5068 18.4368 63.9347Z" fill="#FF5D89"/>
<path d="M33.3307 61.8083C33.1264 61.2285 34.0029 60.9174 34.2077 61.4993C35.1496 64.1659 36.9006 65.5478 38.8903 65.2016C40.4099 64.9349 41.9402 63.5406 41.924 61.3887C41.9224 61.1313 42.1287 60.9215 42.3855 60.9194C42.6427 60.9184 42.8526 61.1251 42.8539 61.3825C42.8716 63.737 41.2724 65.7287 39.0506 66.1184C36.3414 66.5928 34.2912 64.5298 33.3307 61.8083Z" fill="#D13B6A"/>
<path d="M34.215 60.9911C33.7959 60.5384 34.4798 59.9089 34.8969 60.3575C37.7474 63.4324 39.953 59.7591 38.7814 57.9689C38.4451 57.4541 39.2235 56.9456 39.5602 57.4593C40.446 58.8133 40.0601 60.8443 38.7176 61.8944C37.2569 63.0366 35.547 62.4267 34.215 60.9911Z" fill="#D13B6A"/>
<path d="M5.95496 63.5873C5.90649 62.9754 6.83351 62.9021 6.88199 63.515C7.15651 66.9858 10.3424 66.4638 9.59713 66.4648C11.4648 66.4638 13.4937 64.7057 13.7577 61.3486C13.7779 61.0933 14.002 60.9052 14.2584 60.9217C14.5143 60.9424 14.7057 61.1667 14.6856 61.422C14.3771 65.3424 11.8924 67.394 9.59754 67.394C7.78793 67.394 6.15072 66.069 5.95496 63.5873Z" fill="#D13B6A"/>
<path d="M10.5207 62.1498C8.71515 61.6888 8.4737 59.1379 9.42254 59.2217C9.67763 59.2444 9.86667 59.4708 9.84279 59.7271C9.77096 60.5167 10.1101 61.0852 10.7508 61.2485C11.3948 61.4139 12.3024 61.0987 12.7703 60.0196C12.8729 59.7839 13.1463 59.6754 13.382 59.7777C13.6178 59.8801 13.7264 60.154 13.6239 60.3896C12.9645 61.9111 11.5959 62.4237 10.5207 62.1498Z" fill="#D13B6A"/>
<path d="M30.3858 63.5398C30.0183 63.6876 29.6324 63.823 29.2274 63.9532C28.0929 64.3067 26.8046 64.5806 25.3394 64.7439C23.3065 64.9713 21.4274 64.809 19.7394 64.3532C19.2929 64.2364 18.856 64.0927 18.4369 63.9346C12.0372 61.5067 8.80917 54.7294 10.7165 49.884C11.1025 48.8928 11.702 47.9863 12.5345 47.209L12.5301 47.176C15.2045 46.8649 17.7162 46.9072 20.0188 47.176L20.0135 47.2142C14.7907 48.9723 17.2277 54.2178 19.6324 54.3346V54.3387C21.0092 54.6654 23.0558 56.563 23.0558 58.3015C23.814 56.3625 24.9437 55.4137 26.3019 54.7294L26.2881 54.6654C28.1858 54.2654 30.0789 52.0183 27.5297 49.0974L27.5769 48.9723C32.228 50.6643 34.9719 52.809 34.9719 52.809C35.3159 52.4648 35.6418 52.1165 35.9579 51.762C37.4372 54.1579 37.4881 60.6736 30.3858 63.5398Z" fill="#1A1A1A"/>
<path d="M9.35316 48.5538C9.18117 48.3678 8.99544 48.1579 8.79513 47.9295C5.79979 44.4463 0.32093 36.1352 0 21.6598C0 21.6598 3.27431 27.4469 11.5584 24.0184C11.5584 24.0184 12.6509 25.4458 14.6559 25.4603C13.3115 31.7487 7.11151 38.0505 7.11151 38.0505C10.3908 43.0375 8.95823 47.79 8.95823 47.79C10.1768 47.5119 11.3674 47.3114 12.5302 47.176L12.5347 47.2091C11.7021 47.9864 11.1026 48.8928 10.7166 49.884C10.6511 49.8282 10.1299 49.3951 9.35316 48.5538Z" fill="#1A1A1A" fill-opacity="0.8"/>
<path d="M34.7294 53.2649C34.4776 53.2132 34.3156 52.9673 34.3673 52.7161C35.7412 46.0463 36.1123 33.7818 33.0322 19.358C32.9037 18.7575 33.8121 18.5611 33.9422 19.1637C37.0518 33.728 36.6715 46.1425 35.2786 52.9032C35.2265 53.1564 34.9786 53.3176 34.7294 53.2649Z" fill="#1A1A1A"/>
<path d="M34.2209 52.9292C31.8828 44.1612 22.7461 31.9173 14.9296 24.3525C14.7447 24.1747 14.7398 23.8791 14.9183 23.6951C15.0963 23.5111 15.3919 23.506 15.576 23.6838C21.9737 29.875 32.4574 42.709 35.1197 52.6894C35.1859 52.9385 35.0386 53.1927 34.7902 53.2589C34.5387 53.3261 34.2859 53.1752 34.2209 52.9292Z" fill="#1A1A1A"/>
<path d="M34.2725 53.0511C34.1997 52.9312 26.7644 41.0552 7.03737 38.8764C6.78218 38.8485 6.59768 38.618 6.6259 38.3627C6.65411 38.1074 6.88708 37.9255 7.13949 37.9524C27.3477 40.1839 34.9931 52.4454 35.0686 52.5684C35.201 52.7875 35.1312 53.0738 34.9115 53.2061C34.6919 53.3394 34.4064 53.2702 34.2725 53.0511Z" fill="#1A1A1A"/>
<path d="M34.686 53.1762C30.9884 50.2874 20.8758 45.539 9.06213 48.244C8.81221 48.3018 8.5627 48.1447 8.50502 47.8946C8.44766 47.6445 8.60394 47.3943 8.85427 47.3375C21.0082 44.552 31.4406 49.4595 35.2588 52.4424C35.4612 52.6016 35.497 52.8941 35.3392 53.0956C35.1805 53.2972 34.8882 53.3344 34.686 53.1762Z" fill="#1A1A1A"/>
<path d="M16.002 55.4935C15.8756 54.339 15.5292 53.9059 15.3265 53.8966C15.0895 53.9048 14.6761 54.3462 14.4968 55.2351C14.3769 55.8335 13.4632 55.6578 13.5852 55.0521C14.1225 52.3803 16.5595 52.034 16.9265 55.3932C16.9545 55.6485 16.77 55.8769 16.5148 55.9059C16.2559 55.9328 16.0298 55.7457 16.002 55.4935Z" fill="#F0B000"/>
<path d="M28.3221 56.5061C29.5999 52.317 31.9485 53.0384 31.8621 55.8281C31.8432 56.4472 30.9134 56.41 30.9327 55.7981C31.0054 53.4529 29.851 54.6798 29.2116 56.7769C29.0326 57.365 28.1428 57.0942 28.3221 56.5061Z" fill="#F0B000"/>
<path d="M10.5853 33.2236C9.93852 28.7378 10.9737 24.1105 11.0181 23.9151C11.0751 23.6639 11.325 23.5079 11.5749 23.5647C11.8252 23.6216 11.9822 23.8717 11.925 24.1218C11.9144 24.1673 10.8845 28.7802 11.5063 33.0913C11.5425 33.3456 11.3665 33.5812 11.1122 33.6174C10.8529 33.6536 10.6216 33.4748 10.5853 33.2236Z" fill="#1A1A1A" fill-opacity="0.8"/>
<path d="M25.2846 55.165C23.5114 54.9118 22.8565 52.9862 23.8424 52.0084C24.8527 51.0069 26.9299 51.287 26.9114 52.8157C26.9082 53.071 26.7002 53.2746 26.4467 53.2746C26.4446 53.2746 26.4426 53.2746 26.4406 53.2746C26.1834 53.2715 25.9775 53.0606 25.9811 52.8043C25.9827 52.6761 25.9549 52.517 25.7264 52.4208C25.2071 52.1996 23.9879 52.5149 24.3935 53.4958C24.8228 54.5335 25.9242 53.9805 25.8111 54.7702C25.7752 55.0224 25.5414 55.2012 25.2846 55.165Z" fill="#D13B6A"/>
<path d="M20.1392 54.3245C19.8416 53.5834 21.1527 53.7891 21.1817 52.771C21.1946 52.3048 20.8527 51.7911 20.3205 52.2604C19.8594 52.6697 19.245 51.971 19.7044 51.5648C21.6021 49.8862 23.4673 53.4945 20.7441 54.5839C20.5026 54.68 20.2337 54.5622 20.1392 54.3245Z" fill="#D13B6A"/>
<path d="M26.3032 31.6993C26.1018 30.5241 25.3637 29.5887 24.5982 28.7143C23.8331 27.8399 23.1103 27.0812 22.0324 26.6296C21.862 26.5572 21.7401 26.7815 21.8107 26.9169C22.3303 27.9133 23.0898 28.675 23.7394 29.5887C24.3499 30.4466 24.8727 31.3675 25.6839 32.06C25.9749 32.3081 26.3666 32.0673 26.3032 31.6993Z" fill="#1A1A1A"/>
<path d="M28.2876 34.8141C28.1294 34.6136 27.7862 34.5847 27.5734 34.6787C27.3336 34.7842 27.1753 35.0095 27.1713 35.2761C27.1653 35.6617 27.3877 35.978 27.7668 36.073C28.0317 36.1402 28.2384 36.0203 28.3939 35.8178C28.6502 35.4839 28.5227 35.1108 28.2876 34.8141Z" fill="#1A1A1A"/>
<path d="M13.1616 37.0324C13.0523 36.741 12.8366 36.6759 12.569 36.5539C12.3287 36.4454 12.0885 36.3358 11.8491 36.2262C11.4231 36.0319 11.0476 36.6345 11.4744 36.866C11.7057 36.9911 11.9363 37.1162 12.1672 37.2412C12.4095 37.3725 12.6323 37.5482 12.9178 37.4624C13.0866 37.4118 13.2291 37.2133 13.1616 37.0324Z" fill="#1A1A1A"/>
<path d="M16.8357 38.2461C16.5438 37.8854 15.8057 37.8523 15.3766 37.8606C14.991 37.8678 14.9538 38.3753 15.2893 38.5024C15.4666 38.5696 15.633 38.6575 15.7908 38.7619C15.9757 38.8838 16.1146 39.0482 16.3387 39.0988C16.8636 39.2187 17.1502 38.6347 16.8357 38.2461Z" fill="#1A1A1A"/>
<path d="M14.394 35.1637C14.1392 35.0562 13.981 35.4686 14.2095 35.602C14.4744 35.758 14.8115 36.0681 15.1268 35.9131C15.2092 35.8728 15.2326 35.7735 15.2172 35.6919C15.1571 35.3735 14.6532 35.2733 14.394 35.1637Z" fill="#1A1A1A"/>
<path d="M20.6093 38.5118C20.5794 38.5118 20.5794 38.5583 20.6093 38.5583C20.6392 38.5583 20.6392 38.5118 20.6093 38.5118Z" fill="#1A1A1A"/>
<path d="M21.6021 39.4656C21.2043 39.0118 20.4857 38.9684 19.9301 38.863C19.7093 38.8206 19.4824 38.8898 19.3636 39.0924C19.2599 39.2702 19.2721 39.5617 19.4424 39.7002C19.9314 40.0971 20.44 40.6397 21.1095 40.6531C21.7462 40.6666 21.9832 39.8986 21.6021 39.4656Z" fill="#1A1A1A"/>
<path d="M30.7454 39.1656C30.5613 39.0065 30.3671 38.8607 30.1652 38.7243C30.0991 38.6788 30.0425 38.7729 30.0862 38.8256C30.244 39.022 30.3921 39.2266 30.5206 39.4437C30.6413 39.6483 30.6845 39.8313 30.9037 39.9522C31.0664 40.0432 31.2154 39.8954 31.1916 39.731C31.1528 39.4602 30.9408 39.3362 30.7454 39.1656Z" fill="#1A1A1A"/>
<path d="M37.9784 27.1155C37.7701 26.4798 36.7728 26.7444 36.969 27.3935C37.1196 27.8907 37.1827 28.3754 37.1823 28.8943C37.1823 29.2695 37.2816 29.8338 37.7999 29.7273C38.6963 29.5413 38.1589 27.6684 37.9784 27.1155Z" fill="#1A1A1A"/>
<path d="M37.9633 32.6925C37.6735 32.4682 37.2669 32.6666 37.344 33.0522C37.3602 33.1349 37.3461 33.2237 37.3489 33.3075C37.3541 33.4491 37.3868 33.5545 37.4418 33.6837C37.5791 34.0041 38.0559 33.9421 38.2105 33.6837C38.4225 33.3312 38.2694 32.9281 37.9633 32.6925Z" fill="#1A1A1A"/>
<path d="M14.2958 45.5213C14.0689 45.3498 13.7762 45.4066 13.5073 45.4097C13.2388 45.4149 12.9707 45.419 12.7022 45.4242C12.141 45.4335 12.1402 46.2872 12.7022 46.2965C12.9707 46.3007 13.2388 46.3058 13.5073 46.31C13.7762 46.3141 14.0689 46.371 14.2958 46.1994C14.5453 46.0102 14.5453 45.7105 14.2958 45.5213Z" fill="#1A1A1A"/>
<path d="M17.7043 45.7518C17.5513 45.6805 17.4398 45.6371 17.2674 45.6526C17.1011 45.6671 16.9351 45.6888 16.7701 45.7084C16.2391 45.7663 16.3348 46.5332 16.8686 46.4361C17.0325 46.4051 17.198 46.3803 17.3611 46.3462C17.529 46.311 17.6268 46.2418 17.7531 46.1291C17.8609 46.0319 17.8412 45.8159 17.7043 45.7518Z" fill="#1A1A1A"/>
<path d="M15.8748 43.7093H15.3766C14.7035 43.7093 14.7024 44.7563 15.3766 44.7563H15.8748C16.5487 44.7563 16.5495 43.7093 15.8748 43.7093Z" fill="#1A1A1A"/>
<path d="M4.30166 28.4496C4.19024 28.1653 4.0784 27.8821 3.96688 27.5968C3.88378 27.385 3.70486 27.233 3.46424 27.2692C3.24946 27.3012 3.05773 27.4883 3.06776 27.7188L3.10652 28.6118C3.12068 28.9333 3.3738 29.2278 3.71499 29.2185C3.8353 29.2175 3.91447 29.1844 4.02186 29.1359C4.24388 29.0377 4.39127 28.678 4.30166 28.4496Z" fill="#1A1A1A" fill-opacity="0.8"/>
<path d="M4.5882 31.9079C4.54582 31.5214 3.96805 31.6196 4.0743 31.9772C4.13559 32.1849 4.16587 32.4485 4.3359 32.5963C4.40453 32.6573 4.52846 32.6604 4.57487 32.5663C4.67667 32.3606 4.61249 32.127 4.5882 31.9079Z" fill="#1A1A1A" fill-opacity="0.8"/>
<path d="M6.49593 29.6971C6.45521 29.3054 5.92663 29.3044 5.8859 29.6971C5.85841 29.9596 5.80838 30.1498 5.99009 30.3628C6.08456 30.4733 6.29769 30.4723 6.39143 30.3628C6.57304 30.1498 6.52301 29.9596 6.49593 29.6971Z" fill="#1A1A1A" fill-opacity="0.8"/>
<path d="M19.2525 58.1157L20.2977 56.3721C20.5347 55.9752 21.1331 56.3359 20.8961 56.7307L19.8504 58.4754C19.615 58.8702 19.0146 58.5116 19.2525 58.1157Z" fill="#F0B000"/>
<path d="M20.9039 60.1176C20.4799 59.8757 20.9281 59.3724 21.2402 58.8287C21.4703 58.4277 22.0747 58.7739 21.8458 59.176L21.3799 59.9884C21.2834 60.1569 21.0694 60.2127 20.9039 60.1176Z" fill="#F0B000"/>
<path d="M18.8462 61.879C18.4042 61.6888 18.7744 61.1617 19.0122 60.6077C19.1943 60.1818 19.8355 60.4599 19.6534 60.8826L19.3041 61.696C19.2278 61.8738 19.0227 61.9544 18.8462 61.879Z" fill="#F0B000"/>
<path d="M21.7441 63.5027C21.2672 63.2949 21.7776 62.93 21.778 62.0236C21.778 61.4572 23.0514 61.3848 22.2036 63.3238C22.1256 63.5016 21.9185 63.5802 21.7441 63.5027Z" fill="#F0B000"/>
<path d="M23.6405 60.4309C23.5246 59.3105 23.3551 58.8175 23.8202 58.7699C24.2853 58.7255 24.2199 59.2423 24.3341 60.3586C24.354 60.5508 24.2146 60.7224 24.0228 60.742C23.8242 60.7606 23.6595 60.617 23.6405 60.4309Z" fill="#F0B000"/>
<path d="M25.3876 57.6079C25.3819 57.0673 24.7065 57.0653 24.9535 56.6239C25.2417 56.1112 26.0771 56.8069 26.0853 57.5996C26.0872 57.7929 25.9326 57.951 25.74 57.9531C25.5486 57.9552 25.3896 57.8012 25.3876 57.6079Z" fill="#F0B000"/>
<path d="M26.3333 61.1791C26.19 60.6499 25.8937 60.0597 26.3579 59.9346C26.8199 59.8085 26.8603 60.4545 27.0068 60.9982C27.0569 61.1832 26.947 61.3755 26.7614 61.4261C26.576 61.4747 26.3838 61.3672 26.3333 61.1791Z" fill="#F0B000"/>
<path d="M24.4147 64.3473C23.889 64.2998 24.267 63.7985 23.994 62.8135C23.8709 62.3711 24.5427 62.182 24.6662 62.6274C24.7934 63.0853 24.8363 63.5577 24.7938 64.0311C24.7768 64.2202 24.6105 64.3639 24.4147 64.3473Z" fill="#F0B000"/>
<path d="M24.7213 49.9483C21.9706 49.3933 20.994 50.3732 20.8453 49.5256C20.8013 49.2734 20.9705 49.0315 21.2241 48.9871C22.4482 48.7742 23.6873 48.7918 24.9051 49.0357C25.157 49.0874 25.3201 49.3313 25.2696 49.5845C25.2192 49.8347 24.9753 49.999 24.7213 49.9483Z" fill="#D13B6A"/>
<path d="M14.7734 67.7103C14.3342 67.0074 13.4653 67.7971 13.104 68.1589C12.5932 68.6715 12.1407 69.2307 11.5992 69.7155C11.3416 69.9459 11.6117 70.4069 11.9387 70.2994C12.6143 70.0751 13.263 69.8023 13.8561 69.4043C14.3293 69.0881 15.1772 68.3552 14.7734 67.7103Z" fill="#F9A6AC"/>
<path d="M17.25 64.6147C17.21 64.3387 16.8463 64.1681 16.6004 64.2457C16.3093 64.3377 16.0832 64.4513 15.9196 64.7232C15.8086 64.9061 15.7133 65.1004 15.6108 65.2886C15.4363 65.609 15.5316 66.0255 15.8534 66.2136C16.1922 66.4121 16.5661 66.2694 16.778 65.9707C16.9024 65.7961 17.0392 65.6255 17.1527 65.4436C17.3211 65.1728 17.2932 64.9154 17.25 64.6147Z" fill="#F9A6AC"/>
<path d="M39.4737 52.7834C39.0139 52.3803 38.5136 52.093 37.9451 51.8729C37.167 51.5711 36.6155 52.8682 37.3738 53.2279C37.7586 53.4108 38.0973 53.6362 38.3925 53.9442C38.696 54.2605 39.1086 54.6294 39.5754 54.6501C39.7288 54.6563 39.9247 54.5571 39.9901 54.4114C40.2513 53.8315 39.9134 53.17 39.4737 52.7834Z" fill="#F9A6AC"/>
<path d="M41.8898 55.8015C41.3851 55.6971 40.8865 55.9079 40.6809 56.3948C40.5284 56.7565 40.5983 57.1462 40.8304 57.4335C40.8368 57.448 40.8408 57.4573 40.8486 57.4718C40.9111 57.5576 40.9761 57.6413 41.0439 57.724C41.5555 58.3462 42.585 57.9617 42.7792 57.265C42.9561 56.6325 42.5407 55.9369 41.8898 55.8015Z" fill="#F9A6AC"/>
<path d="M43.0696 67.2434C42.5823 66.8527 41.9852 67.7395 41.7065 68.0413C41.4853 68.2801 41.497 68.6512 41.7615 68.8548C42.0416 69.0708 42.3646 68.9602 42.5625 68.7018C42.8128 68.3752 43.5703 67.6444 43.0696 67.2434Z" fill="#F9A6AC"/>
<path d="M44.0608 64.7769C44.026 64.6829 43.9905 64.5899 43.9558 64.4958C43.8944 64.3304 43.6812 64.3304 43.619 64.4958C43.5843 64.5899 43.5491 64.6829 43.5141 64.7769C43.3445 65.2307 44.2315 65.2338 44.0608 64.7769Z" fill="#F9A6AC"/>
</svg>
