<svg width="108" height="80" viewBox="0 0 108 80" fill="none" xmlns="http://www.w3.org/2000/svg">
<path d="M103.181 21.6473C104.426 22.1842 105.478 23.3724 104.672 27.1937C103.865 31.0199 96.1889 65.3342 95.5263 67.9047C94.865 70.4702 93.8687 71.6645 91.0047 71.1669C88.1456 70.6693 72.7759 66.7435 69.8896 66.241C67.0034 65.7372 66.8921 64.5761 67.059 63.3154C67.253 61.8225 67.7648 58.3563 67.7648 58.3563V58.3121C68.5386 58.3453 69.2444 58.3625 69.8513 58.3563C73.127 58.3232 74.5015 55.8952 74.6795 52.8493C74.8019 50.726 74.8736 29.8588 74.8241 16.2999H74.8402C74.8958 15.6757 79.5188 15.3882 87.6227 17.0642C95.7327 18.7402 101.934 21.1054 103.181 21.6473Z" fill="#1A1A1A" fill-opacity="0.8"/>
<path d="M88.1579 41.1064C90.9515 38.0653 90.9738 35.3228 89.666 31.171C90.8563 34.1776 94.31 36.2136 93.3433 40.2389C92.1691 45.1267 91.3792 46.4193 92.5201 47.6198C93.6598 48.8251 95.6907 47.2217 95.6005 44.3858C97.5869 46.3542 98.0875 53.3038 94.5164 54.7905C90.9453 56.2724 90.0158 52.612 90.0158 52.612C90.0158 52.612 89.3928 57.522 84.4929 57.2074C79.593 56.8867 80.2543 52.209 80.2543 52.209C80.2543 52.209 77.3507 55.991 74.4249 51.8601L74.3025 51.8551C74.3519 49.1348 74.3915 43.0526 74.4076 36.146H74.4249C75.949 36.8992 76.4879 39.165 76.2877 41.0462C76.0936 42.9261 76.4162 43.7985 77.3569 43.8882C78.2963 43.9815 79.3643 41.0069 77.7846 38.5347C79.4867 39.8457 80.6931 42.4776 80.6659 43.8882C80.6437 45.2975 84.3421 43.6891 83.5745 39.1552C82.8019 34.6212 82.4175 28.4002 89.221 23.9265C87.8143 26.0731 85.8612 28.5489 87.0182 31.8726C88.1752 35.1962 89.1592 38.8173 88.0924 41.0462L88.1579 41.1064Z" fill="#F0B000"/>
<path d="M91.504 54.7389C92.263 54.1614 93.1332 53.4365 93.5201 52.7005C93.7475 52.4449 93.9441 52.1672 94.1085 51.8699C93.7883 50.436 93.1715 49.9887 92.2581 50.5281C91.755 50.6092 91.1678 50.9951 90.682 51.1892C90.3223 51.3305 89.9985 50.9754 89.9775 50.6559C89.7958 47.8753 87.5325 50.146 86.8415 51.2113C86.4978 51.7409 85.6795 51.3993 85.8254 50.7849C86.0516 49.8265 87.7574 44.2162 86.0763 44.36C84.9886 44.4546 83.4632 48.8042 83.1443 49.6963C82.9577 50.2173 82.2543 50.2234 82.0714 49.6963C81.2691 47.3863 77.7191 45.2299 77.7401 49.2736C77.7438 49.8339 76.9898 50.0096 76.703 49.5525C76.3594 48.9443 75.9453 48.3865 75.4607 47.8778C75.0157 47.8839 74.6498 47.9478 74.3482 48.0584C74.3346 49.6373 74.3198 50.9398 74.3025 51.8551L74.4249 51.8601C77.3507 55.991 80.2543 52.209 80.2543 52.209C80.2543 52.209 79.593 56.8867 84.4929 57.2074C89.3928 57.522 90.0158 52.612 90.0158 52.612C90.0158 52.612 90.3767 54.0238 91.504 54.7389Z" fill="white" fill-opacity="0.2"/>
<path d="M79.2751 30.7667C79.798 31.7951 80.1379 34.1125 78.1898 33.8802C75.3085 33.5362 77.1008 28.6054 79.2751 26.9687C78.7523 27.4872 78.6793 29.5896 79.2751 30.7667Z" fill="#F0B000"/>
<path d="M98.4535 38.4056C98.1061 38.8995 97.7588 39.3935 97.4114 39.8874C97.2186 40.1602 97.7093 40.4489 97.8614 40.1491C98.1346 39.611 98.4065 39.074 98.6797 38.537C98.7551 38.3871 98.5499 38.2692 98.4535 38.4056Z" fill="#F0B000"/>
<path d="M97.3062 30.8823C97.1653 30.6033 96.7796 30.4657 96.4867 30.5505C95.6486 30.7925 95.5176 31.7645 95.4051 32.4894C95.3569 32.7904 95.436 33.0878 95.7166 33.25C95.9539 33.3888 96.3544 33.3778 96.5373 33.1455C96.7635 32.8593 97.0479 32.568 97.2234 32.2486C97.4422 31.8456 97.5114 31.2877 97.3062 30.8823Z" fill="#F0B000"/>
<path d="M92.9625 24.3332C92.8834 23.8601 92.3222 23.7741 91.9662 23.9301C91.6683 24.0604 91.4298 24.1722 91.2233 24.4376C90.9613 24.7755 90.8636 25.2215 90.9811 25.6343C91.1071 26.0742 91.6016 26.3827 92.0565 26.2414C92.5052 26.1013 92.8488 25.7621 92.9934 25.3137C93.0997 24.9819 93.0181 24.6637 92.9625 24.3332Z" fill="#F0B000"/>
<path d="M81.2827 23.8565C81.2072 24.0186 81.1158 24.1796 81.0775 24.3553C81.0552 24.4512 81.0713 24.5728 81.1529 24.6404C81.2505 24.7227 81.3136 24.7387 81.4409 24.7166C81.5422 24.6981 81.6176 24.6023 81.6473 24.5114C81.7017 24.3393 81.7042 24.1538 81.7202 23.9744C81.74 23.7484 81.3778 23.65 81.2827 23.8565Z" fill="#F0B000"/>
<path d="M71.0639 62.1124C70.0565 62.1124 70.0552 63.668 71.0639 63.668C72.0701 63.668 72.0713 62.1124 71.0639 62.1124Z" fill="#1A1A1A"/>
<path d="M76.1567 63.9051L76.0763 63.9358C75.7377 64.0624 75.577 64.4789 75.8588 64.7591C76.1406 65.0392 76.5584 64.8795 76.687 64.5416L76.7167 64.4617C76.8341 64.1508 76.4694 63.7884 76.1567 63.9051Z" fill="#1A1A1A"/>
<path d="M82.4187 65.3562C82.4064 65.3464 82.3927 65.3366 82.3791 65.3255C82.0986 65.1093 81.7846 65.0048 81.4397 65.1498C81.1381 65.2751 80.8946 65.5922 80.9107 65.9313C80.9243 66.2237 81.0701 66.5235 81.3371 66.6698C81.708 66.8749 82.0664 66.7779 82.3791 66.5358C82.3927 66.526 82.4064 66.5162 82.4187 66.5051C82.7389 66.2581 82.7376 65.602 82.4187 65.3562Z" fill="#1A1A1A"/>
<path d="M86.4989 66.354C85.9946 66.354 85.5113 66.7951 85.5348 67.3136C85.557 67.8333 85.9587 68.272 86.4989 68.272C87.0032 68.272 87.4866 67.8321 87.4631 67.3136C87.4408 66.7939 87.0403 66.354 86.4989 66.354Z" fill="#1A1A1A"/>
<path d="M91.5053 67.0715C89.7599 67.0715 89.7574 69.7673 91.5053 69.7673C93.2494 69.7673 93.2531 67.0715 91.5053 67.0715Z" fill="#1A1A1A"/>
<path d="M71.3308 7.03411C71.5694 9.92035 71.3852 47.4686 71.3308 51.124C71.2802 54.7844 70.1281 55.6408 66.5916 55.3864C63.0255 55.1321 55.0769 54.1381 54.6486 54.0926C51.7114 47.734 47.657 39.2031 44.2856 31.8934C43.1736 29.4766 42.0548 27.1211 40.9927 24.9156C40.9874 23.9473 40.8927 7.81926 40.9927 6.12118C41.1037 4.36781 42.5895 2.95356 44.8757 2.95847C47.161 2.96339 65.7227 2.88107 67.8821 2.95847C70.0453 3.03588 71.0972 4.14786 71.3308 7.03411Z" fill="#1A1A1A" fill-opacity="0.8"/>
<path d="M46.6507 6.44314C46.6444 6.43331 46.6386 6.42348 46.6324 6.41365C46.3402 5.9406 45.7578 5.68872 45.2112 5.83862C44.698 5.9787 44.2625 6.50091 44.2871 7.04523C44.3097 7.55023 44.5884 7.99009 45.0607 8.18791C45.6415 8.43242 46.3011 8.21249 46.6324 7.67677C46.6386 7.66694 46.6444 7.65589 46.6507 7.64606C46.8703 7.29096 46.8703 6.79824 46.6507 6.44314Z" fill="#1A1A1A"/>
<path d="M51.0466 6.81527L50.9974 6.77963C50.699 6.57075 50.291 6.85335 50.291 7.18265C50.291 7.51317 50.699 7.79578 50.9974 7.58567L51.0466 7.55126C51.3209 7.35836 51.3209 7.00817 51.0466 6.81527Z" fill="#1A1A1A"/>
<path d="M56.1839 6.68998C55.8513 6.68998 55.6407 7.00331 55.7059 7.31418C55.7108 7.33629 55.7146 7.35719 55.7194 7.3793C55.8159 7.83515 56.5514 7.83515 56.6475 7.3793C56.6523 7.35719 56.6571 7.33629 56.6609 7.31418C56.7272 7.00331 56.5181 6.68998 56.1839 6.68998Z" fill="#1A1A1A"/>
<path d="M61.3296 6.67413C59.9526 6.67413 59.9514 8.79858 61.3296 8.79858C62.7054 8.79858 62.7066 6.67413 61.3296 6.67413Z" fill="#1A1A1A"/>
<path d="M66.9093 6.93569C66.8957 6.9062 66.8808 6.87795 66.8672 6.85092C66.5953 6.30537 65.798 6.25867 65.3926 6.66169C64.9871 7.06471 65.0353 7.85722 65.5829 8.12754C65.6114 8.14105 65.6398 8.15458 65.6682 8.16933C66.4939 8.57726 67.3209 7.7577 66.9093 6.93569Z" fill="#1A1A1A"/>
<path d="M66.474 49.7639C65.7014 49.7639 64.961 50.4397 64.9969 51.2322C65.0327 52.0285 65.6458 52.7018 66.474 52.7018C67.2466 52.7018 67.987 52.026 67.9511 51.2322C67.9153 50.4373 67.3022 49.7639 66.474 49.7639Z" fill="#1A1A1A"/>
<path d="M61.3295 50.6387C60.8586 50.6387 60.8586 51.3649 61.3295 51.3649C61.7993 51.3649 61.7993 50.6387 61.3295 50.6387Z" fill="#1A1A1A"/>
<path d="M57.6942 50.1682C57.6756 50.1596 57.6571 50.1522 57.6386 50.1448C57.1835 49.9507 56.6187 50.1669 56.6187 50.726C56.6187 51.2851 57.1835 51.5001 57.6386 51.3072C57.6571 51.2998 57.6756 51.2924 57.6942 51.2838C58.1206 51.1032 58.1206 50.3475 57.6942 50.1682Z" fill="#1A1A1A"/>
<path d="M50.9273 23.3453C50.0264 25.7781 51.0832 29.7149 55.4217 29.9471C59.6658 30.1683 60.4779 26.8508 60.2381 23.301C62.5805 25.6343 62.1689 32.4844 56.1725 32.8555C50.1707 33.2204 47.7125 27.1543 50.7941 23.301L50.9273 23.3453Z" fill="white"/>
<path d="M43.4596 30.7248C43.6714 30.3685 44.1384 30.6818 43.9487 30.989C43.7492 31.3109 43.2823 31.0222 43.4596 30.7248Z" fill="white"/>
<path d="M55.6737 12.7536C55.9571 12.5153 56.354 12.9773 56.0696 13.2181C55.7848 13.4589 55.3897 12.992 55.6737 12.7536ZM54.8282 13.008L55.0508 13.1751L54.8369 12.9969C55.1377 13.1579 55.0339 13.0915 55.3062 13.2967C55.0687 13.6088 54.6201 13.2844 54.8282 13.008ZM56.4085 13.6665C56.7079 13.4503 57.0706 13.9393 56.7692 14.158C56.468 14.3792 56.1073 13.884 56.4085 13.6665ZM54.1407 13.9713L54.1503 13.9578C54.3724 13.6371 54.8215 13.9541 54.6331 14.2355C54.6326 14.2355 54.6007 14.2834 54.6002 14.2834C54.3932 14.5856 53.933 14.2748 54.1407 13.9713ZM57.057 15.0452C56.8248 14.7134 57.2937 14.4136 57.4828 14.6852C57.6163 14.8756 57.5718 15.0292 57.4433 15.1164C57.3163 15.2024 57.1435 15.1705 57.057 15.0452ZM53.5125 14.8965C53.7055 14.6065 54.2043 14.8621 53.9441 15.2491C53.7519 15.5367 53.2463 15.2934 53.5125 14.8965ZM57.7226 16.006C57.4915 15.6755 57.9599 15.3757 58.1491 15.6472C58.2826 15.8389 58.2381 15.9925 58.1095 16.0798C57.9834 16.1645 57.8104 16.1326 57.7226 16.006ZM52.8625 15.8758C53.0518 15.5821 53.5573 15.8303 53.2975 16.2247C53.1044 16.5123 52.6037 16.2677 52.8625 15.8758ZM58.426 16.543C58.5533 16.4582 58.7263 16.4926 58.8116 16.6192L58.5805 16.7727L58.8413 16.6634C58.9278 16.79 58.8944 16.962 58.7671 17.048C58.4581 17.2569 58.1095 16.7531 58.426 16.543ZM52.2237 16.8501C52.4261 16.5466 52.8914 16.8514 52.6868 17.1561C52.4912 17.4608 51.9712 17.2384 52.2237 16.8501ZM59.0292 17.9412C58.8042 17.6058 59.2801 17.3158 59.463 17.5911C59.5928 17.7852 59.5446 17.9388 59.4136 18.0223C59.285 18.1059 59.1132 18.0678 59.0292 17.9412ZM51.5854 17.8331C51.7858 17.5272 52.2521 17.8282 52.0518 18.1354C51.8557 18.4413 51.3377 18.2189 51.5854 17.8331ZM59.6756 18.9144C59.4507 18.5789 59.9253 18.2902 60.1108 18.5654C60.2393 18.762 60.1911 18.9156 60.0588 18.998C59.9291 19.0815 59.7572 19.0422 59.6756 18.9144ZM50.9524 18.8173C51.1528 18.5114 51.6191 18.8124 51.4193 19.1196C51.2227 19.4243 50.7047 19.2031 50.9524 18.8173ZM60.3703 19.4636C60.6831 19.2646 61.0168 19.7708 60.7053 19.9735C60.3913 20.1775 60.0588 19.6651 60.3703 19.4636ZM50.3184 19.8077C50.5038 19.5103 51.0112 19.7524 50.7592 20.148C50.5724 20.4404 50.0654 20.2045 50.3184 19.8077ZM61.0106 20.4429C61.1392 20.3606 61.3122 20.3962 61.3951 20.524C61.3951 20.5252 61.4037 20.5375 61.4037 20.5375C61.4878 20.6653 61.4618 20.8521 61.3345 20.9356C61.0057 21.1506 60.714 20.6358 61.0106 20.4429ZM49.6902 20.7931C49.8766 20.4945 50.383 20.739 50.1305 21.1347C49.9437 21.4259 49.4372 21.19 49.6902 20.7931ZM61.6485 21.4234C61.96 21.2256 62.2925 21.7331 61.9797 21.9346C61.6645 22.1373 61.3345 21.6225 61.6485 21.4234ZM49.0625 21.781C49.2484 21.4849 49.7553 21.7257 49.5028 22.1226C49.3159 22.415 48.8095 22.1791 49.0625 21.781ZM62.2813 22.4052C62.5916 22.2073 62.9266 22.7148 62.6126 22.9175C62.2974 23.1203 61.9674 22.6042 62.2813 22.4052ZM48.4082 22.8155C48.6568 22.4174 49.0996 22.7701 48.9075 23.065C48.6869 23.4016 48.2363 23.0908 48.4082 22.8155ZM62.8574 23.8182C62.6386 23.4766 63.1182 23.1965 63.2974 23.4741C63.4223 23.6683 63.3728 23.8206 63.2406 23.9042C63.1108 23.9841 62.939 23.9472 62.8574 23.8182ZM47.8153 23.7543C48.0147 23.4459 48.4825 23.7432 48.2846 24.0516C48.0929 24.36 47.5699 24.1438 47.8153 23.7543ZM63.4828 24.7999C63.2653 24.4596 63.7461 24.1794 63.9241 24.4583C64.049 24.6549 63.9983 24.8073 63.866 24.8896C63.735 24.9695 63.5644 24.9289 63.4828 24.7999ZM47.1934 24.7434C47.3903 24.4362 47.8602 24.7324 47.6618 25.042C47.47 25.3492 46.9471 25.1329 47.1934 24.7434ZM64.1689 25.3614C64.4841 25.1673 64.8079 25.6785 64.4952 25.8763C64.1775 26.0766 63.8512 25.5568 64.1689 25.3614ZM46.5714 25.735C46.7694 25.4278 47.2373 25.7239 47.0398 26.0323C46.8487 26.3395 46.3252 26.1245 46.5714 25.735ZM64.7931 26.3506C65.1046 26.1576 65.4322 26.6676 65.1182 26.8654C64.8005 27.0669 64.4754 26.5459 64.7931 26.3506ZM45.948 26.729C46.1422 26.4194 46.6144 26.7106 46.4208 27.0202C46.2286 27.3286 45.7076 27.1136 45.948 26.729ZM65.3518 27.7673C65.138 27.4245 65.6201 27.1492 65.7956 27.4306C65.918 27.6284 65.8673 27.7783 65.7338 27.8594C65.6052 27.9381 65.4322 27.9 65.3518 27.7673ZM45.3271 27.7218C45.5097 27.4245 46.0176 27.6616 45.7714 28.0597C45.5878 28.3534 45.0766 28.1236 45.3271 27.7218ZM65.9686 28.7601C65.7548 28.416 66.2381 28.1433 66.4136 28.4234C66.536 28.6212 66.4841 28.7711 66.3518 28.8522C66.222 28.9309 66.0502 28.8915 65.9686 28.7601ZM44.7096 28.7134C44.9056 28.4037 45.3763 28.6974 45.1808 29.007C44.9877 29.3155 44.4682 29.1004 44.7096 28.7134ZM66.5817 29.7516C66.3691 29.4113 66.8512 29.1348 67.028 29.4186C67.1503 29.6177 67.0972 29.7701 66.9624 29.8487C66.8314 29.9261 66.6608 29.8843 66.5817 29.7516ZM44.0891 29.7099C44.2808 29.3965 44.7555 29.6865 44.5642 29.9974L44.5338 30.0465C44.3499 30.3402 43.839 30.1117 44.0891 29.7099ZM67.1936 30.7506C66.9822 30.4041 67.4692 30.135 67.6411 30.4164C67.761 30.6142 67.709 30.7653 67.5755 30.8452C67.447 30.9214 67.2752 30.8833 67.1936 30.7506ZM67.8685 31.3207C68.1837 31.1339 68.5014 31.6475 68.1862 31.8417C67.8648 32.0395 67.5471 31.5111 67.8685 31.3207ZM68.473 32.3233C68.7894 32.1341 69.1071 32.6563 68.7845 32.8468C68.4643 33.036 68.1516 32.5113 68.473 32.3233ZM68.9983 33.7499C68.7919 33.4034 69.2814 33.1404 69.452 33.4255C69.5706 33.627 69.5138 33.7781 69.3778 33.8543C69.2431 33.9305 69.0737 33.8826 68.9983 33.7499ZM69.6658 34.3347C69.9884 34.1553 70.2913 34.6775 69.9711 34.8631C69.646 35.0498 69.3419 34.5178 69.6658 34.3347ZM70.248 35.3509C70.3827 35.2747 70.5508 35.3226 70.6262 35.4541L70.6386 35.475C70.7128 35.6077 70.6744 35.7895 70.5409 35.8645C70.2023 36.0562 69.9377 35.5254 70.248 35.3509ZM70.8215 36.3719C71.1503 36.2012 71.4359 36.7344 71.1071 36.9089C70.7746 37.0834 70.494 36.5427 70.8215 36.3719Z" fill="white"/>
<path d="M71.4595 37.8662L71.4262 37.6008L71.1962 37.704C71.0405 37.3575 71.5399 37.1388 71.6894 37.4472C71.7377 37.5455 71.7463 37.6414 71.6857 37.736C71.6363 37.8146 71.551 37.8625 71.4595 37.8662Z" fill="white"/>
<path d="M70.2628 37.3318C70.6683 37.3269 70.6621 37.8798 70.3271 37.8835L70.2715 37.8847C69.8994 37.8847 69.9007 37.3379 70.2628 37.3318ZM68.8277 37.6304C68.8216 37.2446 69.4062 37.2765 69.4112 37.623C69.4137 37.7926 69.3234 37.9007 69.1096 37.9031C68.9464 37.9031 68.829 37.7766 68.8277 37.6304ZM67.6658 37.65C67.6596 37.2544 68.2443 37.3097 68.2493 37.6414C68.2517 37.8122 68.1615 37.9191 67.9476 37.9216C67.7845 37.9216 67.6671 37.7962 67.6658 37.65ZM66.7783 37.3883L66.8376 37.6635L66.7869 37.9412C66.4136 37.9412 66.4149 37.3945 66.7783 37.3883ZM65.6164 37.4067L65.6757 37.682L65.625 37.9597C65.2517 37.9597 65.2529 37.4129 65.6164 37.4067ZM64.4557 37.4252L64.515 37.7016L64.4631 37.9793C64.0898 37.9793 64.0923 37.4313 64.4557 37.4252ZM63.295 37.4448L63.3531 37.7201L63.3024 37.9978C62.9291 37.9978 62.9303 37.4497 63.295 37.4448ZM62.133 37.4633L62.1924 37.7385L62.1417 38.0162C61.7684 38.0162 61.7696 37.4694 62.133 37.4633ZM60.9723 37.4829L61.0317 37.7582L60.981 38.0359C60.6077 38.0359 60.6089 37.4891 60.9723 37.4829ZM59.8117 37.5026L59.871 37.7778L59.8203 38.0555C59.447 38.0555 59.4482 37.5075 59.8117 37.5026ZM58.6497 37.5222L58.709 37.7975L58.6584 38.074C58.2851 38.074 58.2863 37.5271 58.6497 37.5222ZM57.489 37.5419L57.5484 37.8171L57.4977 38.0948C57.1241 38.0948 57.1256 37.5468 57.489 37.5419ZM56.3835 37.5603C56.5467 37.5407 56.6636 37.6795 56.6659 37.8331C56.6679 37.9855 56.5453 38.112 56.3922 38.1145L56.3878 37.8368L56.3411 38.1145C55.9804 38.1145 55.9171 37.5603 56.3835 37.5603ZM55.1633 37.5812C55.4004 37.5751 55.5022 37.6894 55.5047 37.854C55.5071 38.0064 55.3849 38.1317 55.2309 38.1342L55.2266 37.8577L55.1802 38.1354C54.8016 38.1354 54.8041 37.5923 55.1633 37.5812ZM54.0021 37.6021C54.2334 37.596 54.342 37.7188 54.3434 37.8737C54.3459 38.026 54.2237 38.1513 54.0697 38.1538L54.0653 37.8773L54.0189 38.155C53.6404 38.155 53.6428 37.6132 54.0021 37.6021ZM52.9006 37.623C53.0543 37.6021 53.1807 37.7422 53.1822 37.8945C53.1846 38.0469 53.0624 38.1722 52.9084 38.1747L52.9046 37.8982L52.8572 38.1759C52.4961 38.1759 52.4337 37.623 52.9006 37.623ZM51.7394 37.6439C51.8896 37.6328 52.0195 37.7631 52.0209 37.9154C52.0234 38.0678 51.9012 38.1944 51.7471 38.1956L51.7428 37.9191L51.6959 38.1968C51.3349 38.1968 51.2726 37.6439 51.7394 37.6439ZM50.5183 37.6672C50.7481 37.6599 50.8582 37.7852 50.8597 37.9375C50.8621 38.0899 50.7399 38.2165 50.5859 38.2177L50.5821 37.9425L50.5352 38.2189C50.1566 38.2189 50.1591 37.6783 50.5183 37.6672ZM49.3571 37.6893C49.5801 37.6832 49.697 37.8147 49.6984 37.9609C49.7009 38.1145 49.5786 38.2398 49.4246 38.2423L49.4203 37.9646L49.3739 38.2423C48.9954 38.2423 48.9978 37.7004 49.3571 37.6893ZM47.9253 37.9953C47.9201 37.6046 48.502 37.6463 48.5091 37.9842C48.5125 38.1366 48.4198 38.2619 48.2667 38.2668C48.2658 38.2668 48.2088 38.2681 48.2079 38.2681C48.0446 38.2681 47.9278 38.1403 47.9253 37.9953Z" fill="white"/>
<path d="M47.1003 37.7433C47.1427 38.0812 47.1389 37.9546 47.1176 38.295C46.7652 38.3269 46.7164 37.7556 47.1003 37.7433Z" fill="white"/>
<path d="M71.1911 18.4795L71.4371 18.6098L71.1911 18.4795ZM71.4494 18.8629C71.3011 18.8629 71.1664 18.7474 71.159 18.5988C71.1528 18.4476 71.2566 18.3198 71.4086 18.3112C71.5125 18.3063 71.6163 18.353 71.6695 18.4353C71.7251 18.5189 71.7436 18.6245 71.6967 18.713L71.4507 18.6147L71.4606 18.8617C71.4569 18.8629 71.4532 18.8629 71.4494 18.8629Z" fill="white"/>
<path d="M70.2876 18.8924L70.253 18.616L70.2492 18.3407L70.2814 18.616L70.3049 18.3395C70.4557 18.3248 70.5855 18.4587 70.5867 18.611C70.5892 18.7634 70.4668 18.89 70.3135 18.8912L70.3086 18.6147L70.2876 18.8924ZM69.075 18.917C68.9254 18.917 68.8018 18.799 68.7981 18.6491C68.7931 18.4968 68.9143 18.369 69.0675 18.3641C69.0688 18.3641 69.1256 18.3641 69.1269 18.3641C69.2604 18.3555 69.4062 18.4832 69.4087 18.6368C69.4112 18.788 69.2888 18.9145 69.1355 18.9158L69.1306 18.6393L69.0836 18.917C69.0811 18.917 69.0787 18.917 69.075 18.917ZM67.8994 18.9416C67.7499 18.9416 67.625 18.8224 67.6213 18.6725C67.6164 18.5201 67.7375 18.3923 67.8908 18.3874C67.892 18.3874 67.9489 18.3862 67.9501 18.3862C68.096 18.3849 68.2307 18.5066 68.2319 18.659C68.2344 18.8126 68.112 18.9366 67.9588 18.9391L67.9551 18.6626L67.9081 18.9416C67.9044 18.9416 67.9019 18.9416 67.8994 18.9416ZM66.7239 18.9637C66.5731 18.9637 66.4495 18.8445 66.4445 18.6946C66.4408 18.5422 66.562 18.4145 66.7152 18.4095C66.7165 18.4095 66.7733 18.4095 66.7746 18.4095C66.9328 18.4157 67.0539 18.5287 67.0564 18.6823C67.0589 18.8347 66.9353 18.96 66.782 18.9612L66.7783 18.6848L66.7313 18.9637C66.7288 18.9637 66.7264 18.9637 66.7239 18.9637ZM65.5471 18.9858C65.3976 18.9858 65.274 18.8666 65.269 18.7167C65.2653 18.5644 65.3852 18.4366 65.5397 18.4329C65.541 18.4329 65.5966 18.4317 65.5978 18.4317C65.7375 18.4157 65.8784 18.5508 65.8809 18.7044C65.8821 18.8556 65.7597 18.9821 65.6065 18.9846L65.6028 18.7081L65.5558 18.9858C65.5533 18.9858 65.5508 18.9858 65.5471 18.9858ZM64.3716 19.0067C64.222 19.0067 64.0984 18.8887 64.0935 18.7388C64.0898 18.5865 64.2097 18.4587 64.3629 18.455C64.3654 18.455 64.421 18.4525 64.4223 18.4525C64.5731 18.4464 64.7029 18.5729 64.7053 18.7253C64.7066 18.8777 64.5842 19.0042 64.4309 19.0067L64.4272 18.7302L64.3803 19.0067C64.3778 19.0067 64.3753 19.0067 64.3716 19.0067ZM63.1961 19.0288C63.0465 19.0288 62.9229 18.9108 62.918 18.7597C62.913 18.6086 63.0341 18.4808 63.1874 18.4759L63.248 18.4747C63.4087 18.4771 63.5286 18.5951 63.5311 18.7474C63.5323 18.8998 63.4099 19.0251 63.2554 19.0276L63.2035 19.0288C63.201 19.0288 63.1986 19.0288 63.1961 19.0288ZM62.0205 19.0497C61.871 19.0497 61.7474 18.9317 61.7424 18.7818C61.7375 18.6295 61.8586 18.5017 62.0119 18.4968H62.0725C62.2146 18.4771 62.3518 18.616 62.3543 18.7683C62.3568 18.9207 62.2344 19.0472 62.0811 19.0497H62.0292C62.0255 19.0497 62.023 19.0497 62.0205 19.0497ZM60.845 19.0718C60.6954 19.0718 60.5718 18.9539 60.5669 18.804C60.5632 18.6516 60.6831 18.5238 60.8376 18.5189L60.8969 18.5177C61.0502 18.5066 61.1775 18.6381 61.18 18.7904C61.1812 18.944 61.0589 19.0693 60.9056 19.0706L60.8537 19.0718C60.8512 19.0718 60.8487 19.0718 60.845 19.0718ZM59.6695 19.0927C59.5199 19.0927 59.3963 18.9747 59.3914 18.8248C59.3877 18.6725 59.5088 18.5447 59.6621 18.5398H59.7214C59.8549 18.5373 60.002 18.659 60.0032 18.8126C60.0057 18.9637 59.8833 19.0902 59.7301 19.0927H59.6781C59.6757 19.0927 59.672 19.0927 59.6695 19.0927ZM58.494 19.1148C58.3444 19.1148 58.2208 18.9968 58.2171 18.8469C58.2121 18.6946 58.3333 18.5668 58.4865 18.5619L58.5459 18.5607C58.6905 18.568 58.8265 18.6811 58.8289 18.8334C58.8314 18.9858 58.7078 19.1124 58.5545 19.1136L58.5026 19.1148C58.5001 19.1148 58.4977 19.1148 58.494 19.1148ZM57.3193 19.1369C57.1696 19.1369 57.0465 19.0178 57.0415 18.8679C57.0372 18.7155 57.158 18.5889 57.3115 18.584L57.3718 18.5816C57.5273 18.568 57.6522 18.702 57.6534 18.8543C57.6559 19.0079 57.5323 19.1332 57.3796 19.1357L57.3275 19.1369C57.325 19.1369 57.3221 19.1369 57.3193 19.1369ZM56.144 19.1578C55.9943 19.1578 55.8707 19.0399 55.8659 18.89C55.8616 18.7376 55.9822 18.6098 56.1362 18.6049L56.1962 18.6037C56.3323 18.5987 56.4762 18.7241 56.4786 18.8764C56.4801 19.0288 56.3579 19.1554 56.2043 19.1566L56.1527 19.1578C56.1493 19.1578 56.1469 19.1578 56.144 19.1578ZM54.9687 19.1799C54.819 19.1799 54.6954 19.0607 54.6911 18.9108C54.6873 18.7585 54.8079 18.6319 54.9609 18.627L55.0209 18.6258C55.1681 18.6295 55.3009 18.745 55.3033 18.8986C55.3058 19.0509 55.1826 19.1763 55.0291 19.1787L54.9774 19.1799C54.9745 19.1799 54.9721 19.1799 54.9687 19.1799ZM53.7939 19.2008C53.6442 19.2008 53.5201 19.0829 53.5153 18.933C53.5115 18.7806 53.6326 18.6528 53.7858 18.6479H53.8456C54.004 18.6295 54.1257 18.7671 54.1281 18.9194C54.1305 19.0718 54.0074 19.1984 53.8543 19.2008H53.8021C53.7993 19.2008 53.7968 19.2008 53.7939 19.2008ZM52.6182 19.2229C52.4685 19.2229 52.3454 19.105 52.3405 18.9551C52.3362 18.8027 52.457 18.6749 52.61 18.67L52.6703 18.6688C52.8089 18.659 52.9499 18.7892 52.9523 18.9416C52.9548 19.0951 52.8316 19.2205 52.6786 19.2229H52.6265C52.624 19.2229 52.6211 19.2229 52.6182 19.2229ZM51.4434 19.245C51.2937 19.245 51.1701 19.1259 51.1653 18.9772C51.1609 18.8236 51.2817 18.697 51.4352 18.6921L51.4955 18.6909C51.6442 18.6897 51.7756 18.8101 51.778 18.9637C51.7795 19.1161 51.6573 19.2426 51.5038 19.2438L51.4512 19.245C51.4487 19.245 51.4459 19.245 51.4434 19.245ZM50.2677 19.2684C50.118 19.2684 49.9944 19.1492 49.9901 18.9993C49.9853 18.8469 50.1064 18.7192 50.2599 18.7143L50.3199 18.713C50.4801 18.7204 50.5999 18.8334 50.6023 18.9858C50.6037 19.1394 50.4816 19.2647 50.3281 19.266L50.2764 19.2684C50.273 19.2684 50.2706 19.2684 50.2677 19.2684ZM49.0924 19.2905C48.9428 19.2905 48.8191 19.1726 48.8143 19.0214C48.81 18.8691 48.9306 18.7425 49.0847 18.7376L49.1446 18.7364C49.2855 18.7204 49.4246 18.8556 49.4271 19.0091C49.429 19.1615 49.3063 19.2868 49.1528 19.2893L49.1011 19.2905C49.0983 19.2905 49.0958 19.2905 49.0924 19.2905ZM47.9167 19.3126C47.767 19.3126 47.6439 19.1935 47.639 19.0448C47.6352 18.8912 47.7559 18.7646 47.909 18.7597L47.9693 18.7585C48.1214 18.7511 48.2494 18.8789 48.2513 19.0312C48.2538 19.1836 48.1306 19.3089 47.977 19.3114L47.9253 19.3126C47.923 19.3126 47.9201 19.3126 47.9167 19.3126ZM46.7409 19.336C46.5913 19.336 46.4677 19.218 46.4633 19.0681C46.4594 18.9158 46.5802 18.788 46.7332 18.7831H46.7935C46.9268 18.7818 47.0732 18.9023 47.0755 19.0546C47.078 19.207 46.9549 19.3335 46.8013 19.3348L46.7497 19.336C46.7472 19.336 46.7444 19.336 46.7409 19.336ZM45.5652 19.3606C45.4156 19.3606 45.2919 19.2426 45.2876 19.0927C45.2837 18.9391 45.4044 18.8126 45.5574 18.8076L45.6179 18.8064C45.7621 18.8126 45.8974 18.9256 45.8999 19.0792C45.9022 19.2315 45.7791 19.3569 45.6256 19.3593L45.5739 19.3606C45.5715 19.3606 45.5686 19.3606 45.5652 19.3606ZM44.4175 19.3851C44.2673 19.3851 44.1296 19.266 44.1258 19.1161C44.1215 18.9637 44.2286 18.8371 44.3813 18.8334L44.4373 18.8322C44.5822 18.8224 44.7188 18.9477 44.7236 19.1001C44.7274 19.2524 44.6068 19.379 44.4537 19.3839C44.4508 19.3839 44.4209 19.3851 44.4175 19.3851ZM43.2127 19.4122C43.0611 19.4122 42.937 19.2905 42.9346 19.1394C42.9327 18.987 43.0553 18.8617 43.2084 18.8592C43.362 18.8654 43.5165 18.9747 43.5214 19.1271C43.5252 19.2795 43.4305 19.4072 43.2765 19.4109L43.2171 19.4122C43.2157 19.4122 43.2137 19.4122 43.2127 19.4122ZM42.0356 19.4417C41.8859 19.4417 41.7623 19.3237 41.7574 19.1738C41.7531 19.0202 41.8747 18.8936 42.0279 18.8887L42.0839 18.8863C42.2354 18.8838 42.3654 19.003 42.3702 19.1554C42.3745 19.3077 42.2539 19.4355 42.1002 19.4392L42.0442 19.4417C42.0414 19.4417 42.0389 19.4417 42.0356 19.4417Z" fill="white"/>
<path d="M40.9698 19.2032L40.992 19.4796L40.9698 19.2032ZM40.9442 19.4956C40.8573 19.4956 40.7747 19.4551 40.7231 19.3752C40.6724 19.2953 40.6593 19.1847 40.6993 19.0987C40.74 19.014 40.8148 18.9439 40.909 18.9316L40.9678 19.1933L41.1841 19.0643C41.2619 19.1933 41.2276 19.3715 41.0977 19.4526C41.0494 19.4809 40.9964 19.4956 40.9442 19.4956Z" fill="white"/>
<path d="M41.3322 20.3459L41.3018 20.298C41.2215 20.1678 41.2626 19.997 41.3935 19.9171C41.5234 19.8373 41.6952 19.8778 41.7763 20.008L41.5392 20.153L41.7927 20.0351L41.3322 20.3459ZM42.182 21.4542C42.0888 21.4542 41.9984 21.4075 41.9458 21.3228C41.8652 21.1938 41.8898 20.9996 42.0197 20.9197C42.1491 20.8399 42.307 20.8546 42.3877 20.9836L42.4181 21.0315C42.4992 21.1606 42.4591 21.3314 42.3287 21.4125C42.2829 21.4395 42.2322 21.4542 42.182 21.4542ZM42.7956 22.4311C42.701 22.4311 42.6093 22.3831 42.5566 22.2971C42.4784 22.1669 42.505 21.9764 42.6344 21.8966C42.7638 21.8167 42.9202 21.8327 43.0014 21.9605C43.0023 21.9629 43.0323 22.0108 43.0337 22.0121C43.1124 22.1423 43.0704 22.3131 42.9386 22.3905C42.8941 22.4188 42.8444 22.4311 42.7956 22.4311ZM43.4084 23.4079C43.3143 23.4079 43.2225 23.36 43.1699 23.2752C43.0916 23.1437 43.1182 22.952 43.2476 22.8734C43.377 22.7935 43.5324 22.8095 43.6141 22.9373C43.6155 22.9397 43.6454 22.9877 43.6459 22.9889C43.7256 23.1192 43.6836 23.2899 43.5518 23.3673C43.5073 23.3956 43.4571 23.4079 43.4084 23.4079ZM44.0215 24.3847C43.9275 24.3847 43.8358 24.3368 43.7831 24.2508C43.7049 24.1206 43.7314 23.9301 43.8609 23.8502C43.9906 23.7704 44.1466 23.7863 44.2274 23.9141C44.2287 23.9153 44.2586 23.9645 44.2601 23.9657C44.3389 24.096 44.2968 24.2667 44.1651 24.3442C44.1206 24.3724 44.0704 24.3847 44.0215 24.3847ZM44.6348 25.3615C44.5407 25.3615 44.4489 25.3136 44.3963 25.2276C44.3181 25.0974 44.3447 24.9057 44.4741 24.8258C44.6034 24.7472 44.7599 24.7632 44.841 24.8897C44.8419 24.8922 44.8719 24.9401 44.8733 24.9413C44.9521 25.0728 44.9101 25.2424 44.7783 25.321C44.7338 25.348 44.6836 25.3615 44.6348 25.3615ZM45.2485 26.3372C45.1544 26.3372 45.0626 26.2892 45.0101 26.2032C44.9318 26.073 44.9584 25.8813 45.0882 25.8027C45.2176 25.7216 45.3736 25.7388 45.4542 25.8665C45.4557 25.8678 45.4856 25.9157 45.4871 25.9181C45.5663 26.0484 45.5238 26.218 45.3924 26.2966C45.3475 26.3236 45.2973 26.3372 45.2485 26.3372ZM45.8617 27.3127C45.7675 27.3127 45.6758 27.2648 45.6232 27.1788C45.545 27.0486 45.5716 26.8569 45.7014 26.7782C45.8303 26.6984 45.9863 26.7144 46.0674 26.8421C46.0689 26.8446 46.0983 26.8925 46.0998 26.8937C46.1794 27.024 46.1365 27.1948 46.0056 27.2734C45.9602 27.3004 45.9105 27.3127 45.8617 27.3127ZM46.4754 28.2883C46.3813 28.2883 46.2895 28.2404 46.2374 28.1544C46.1588 28.0254 46.1852 27.8325 46.3151 27.7538C46.4436 27.674 46.6001 27.6899 46.6816 27.8177C46.6821 27.819 46.712 27.8669 46.7135 27.8694C46.7931 27.9996 46.7507 28.1704 46.6193 28.249C46.574 28.276 46.5246 28.2883 46.4754 28.2883ZM47.0902 29.2639C46.9955 29.2639 46.9038 29.216 46.8511 29.13C46.7724 28.9998 46.7989 28.8081 46.9289 28.7295C47.0583 28.6496 47.2143 28.6656 47.2959 28.7934C47.2972 28.7946 47.3268 28.8425 47.3277 28.8449C47.4069 28.9752 47.3648 29.1448 47.2331 29.2246C47.1887 29.2517 47.1389 29.2639 47.0902 29.2639ZM47.7039 30.2383C47.6092 30.2383 47.5175 30.1916 47.4648 30.1056C47.3866 29.9754 47.4132 29.7837 47.5426 29.7038C47.6725 29.6239 47.8275 29.6399 47.9096 29.7677C47.9104 29.7702 47.9405 29.8181 47.9418 29.8205C48.0206 29.9496 47.9785 30.1204 47.8468 30.199C47.8023 30.226 47.7521 30.2383 47.7039 30.2383ZM48.3185 31.2139C48.2253 31.2139 48.134 31.1672 48.0819 31.0837C48.0008 30.9546 48.0264 30.7605 48.1558 30.6806C48.2852 30.5995 48.4421 30.6143 48.5242 30.7433C48.5242 30.7433 48.5537 30.7912 48.5541 30.7925C48.6353 30.9215 48.5951 31.0923 48.4643 31.1721C48.419 31.2004 48.3683 31.2139 48.3185 31.2139ZM48.9322 32.1895C48.84 32.1895 48.7496 32.144 48.6966 32.0605L48.6667 32.0126C48.5855 31.8823 48.6256 31.7115 48.7559 31.6317C48.8868 31.5518 49.0583 31.5911 49.1394 31.7201L48.9028 31.8664L49.1673 31.7656C49.249 31.8946 49.2103 32.0654 49.0804 32.1465C49.0345 32.176 48.9829 32.1895 48.9322 32.1895ZM49.5474 33.1651C49.4542 33.1651 49.3628 33.1184 49.3108 33.0336C49.2296 32.9046 49.2552 32.7117 49.3846 32.6306C49.5145 32.5495 49.6714 32.5655 49.7531 32.6933L49.783 32.7424C49.8641 32.8714 49.824 33.0422 49.6936 33.1221C49.6478 33.1504 49.5971 33.1651 49.5474 33.1651ZM50.162 34.1395C50.0693 34.1395 49.9781 34.0928 49.9254 34.0092C49.8448 33.879 49.8699 33.6861 49.9998 33.605C50.1297 33.5251 50.2866 33.5399 50.3682 33.6689C50.3682 33.6689 50.3976 33.7168 50.3981 33.7168C50.4793 33.847 50.4391 34.0178 50.3083 34.0977C50.263 34.126 50.2122 34.1395 50.162 34.1395ZM50.7777 35.1138C50.685 35.1138 50.5936 35.0671 50.5411 34.9824C50.4604 34.8533 50.4855 34.6604 50.6154 34.5793C50.7453 34.4995 50.9023 34.5142 50.9839 34.6432L51.0138 34.6912C51.0949 34.8202 51.0548 34.991 50.9244 35.0721C50.8786 35.1003 50.8279 35.1138 50.7777 35.1138ZM51.3933 36.0882C51.3001 36.0882 51.2093 36.0403 51.1567 35.9567C51.0761 35.8277 51.1007 35.6336 51.2311 35.5537C51.3605 35.4739 51.5174 35.4886 51.5985 35.6164C51.5985 35.6164 51.6289 35.6643 51.6294 35.6655C51.7106 35.7945 51.6704 35.9654 51.5396 36.0452C51.4943 36.0735 51.4434 36.0882 51.3933 36.0882ZM52.009 37.0626C51.9163 37.0626 51.8254 37.0147 51.7724 36.9311C51.6922 36.8021 51.7168 36.608 51.8467 36.5281C51.9771 36.447 52.1334 36.463 52.2151 36.5908C52.2151 36.592 52.2451 36.6387 52.2451 36.6387C52.3262 36.7689 52.2861 36.9397 52.1557 37.0196C52.1098 37.0478 52.0592 37.0626 52.009 37.0626ZM52.626 38.0357C52.5328 38.0357 52.4425 37.989 52.3894 37.9055C52.3092 37.7752 52.3339 37.5823 52.4637 37.5012C52.5931 37.4214 52.7501 37.4361 52.8317 37.5651L52.8621 37.6131C52.9427 37.7433 52.9032 37.9128 52.7728 37.9939C52.7269 38.0222 52.6762 38.0357 52.626 38.0357ZM53.2441 39.0089C53.1504 39.0089 53.0601 38.9622 53.0075 38.8786C52.9264 38.7496 52.952 38.5555 53.0818 38.4744C53.2107 38.3945 53.3677 38.4092 53.4493 38.5383C53.4498 38.5395 53.4792 38.5862 53.4802 38.5862C53.5608 38.7164 53.5212 38.8872 53.3899 38.9671C53.3449 38.9953 53.2933 39.0089 53.2441 39.0089ZM53.8621 39.982C53.7684 39.982 53.6782 39.9353 53.6255 39.8518C53.5444 39.7228 53.57 39.5286 53.6998 39.4475C53.8292 39.3677 53.9862 39.3824 54.0673 39.5114C54.0678 39.5126 54.0972 39.5593 54.0982 39.5606C54.1788 39.6896 54.1393 39.8604 54.008 39.9402C53.963 39.9685 53.9123 39.982 53.8621 39.982ZM54.482 40.9552C54.3903 40.9552 54.3001 40.9097 54.2469 40.8274L54.2165 40.7794C54.1349 40.6504 54.1735 40.4796 54.3034 40.3985C54.4338 40.3174 54.6053 40.3568 54.6873 40.4845L54.4516 40.632L54.7163 40.53C54.7983 40.659 54.7606 40.8298 54.6309 40.9121C54.5845 40.9416 54.5328 40.9552 54.482 40.9552ZM55.103 41.9271C55.0118 41.9271 54.9225 41.8828 54.8693 41.8005C54.8688 41.8005 54.8384 41.7526 54.8379 41.7514C54.7558 41.6223 54.7945 41.4515 54.9244 41.3704C55.0552 41.2893 55.2262 41.3274 55.3082 41.4564L55.0726 41.6039L55.3358 41.4995C55.4197 41.6285 55.3831 41.7993 55.2546 41.8828C55.2074 41.9123 55.1547 41.9271 55.103 41.9271ZM55.7264 42.8977C55.6342 42.8977 55.5443 42.8523 55.4913 42.7687C55.4096 42.6409 55.4323 42.4468 55.5613 42.3645C55.6907 42.2846 55.8471 42.2969 55.9296 42.4247C55.9306 42.4259 55.9605 42.4726 55.961 42.4738C56.0431 42.6028 56.0045 42.7736 55.8751 42.8547C55.8283 42.8842 55.7771 42.8977 55.7264 42.8977ZM56.3556 43.866C56.2647 43.866 56.1768 43.823 56.1228 43.7419L56.0914 43.694C56.0079 43.5662 56.0446 43.3954 56.173 43.3118C56.3029 43.2283 56.4749 43.2651 56.5583 43.3929L56.3247 43.544L56.5873 43.4384C56.6718 43.5649 56.6365 43.7369 56.5081 43.8205C56.4608 43.8512 56.4077 43.866 56.3556 43.866Z" fill="white"/>
<path d="M56.952 44.7407C56.8877 44.7407 56.8245 44.7235 56.7767 44.6817C56.7675 44.6731 56.742 44.6461 56.7332 44.6375C56.6323 44.522 56.6444 44.3476 56.7603 44.2468C56.8762 44.1473 57.0515 44.1583 57.1528 44.2738L56.9553 44.4446H56.9558L57.1582 44.28L56.9785 44.4557L57.2141 44.5884C57.1726 44.6609 57.0954 44.7211 57.0128 44.7358C56.992 44.7395 56.9722 44.7407 56.952 44.7407Z" fill="white"/>
<path d="M70.9168 19.8655C70.871 19.8655 70.8266 19.8545 70.7845 19.8323C70.6486 19.7598 70.5991 19.5915 70.672 19.4576L70.9168 19.5891L70.6893 19.4269L71.1875 19.6714L71.1615 19.7205C71.1108 19.8127 71.0157 19.8655 70.9168 19.8655ZM70.3754 20.8719C70.3309 20.8719 70.2851 20.862 70.2431 20.8387C70.1084 20.7662 70.0577 20.5978 70.1306 20.4639L70.3754 20.5954L70.1553 20.4197C70.227 20.2845 70.3952 20.2317 70.5311 20.3029C70.6671 20.3742 70.719 20.5413 70.6473 20.6765C70.6473 20.6777 70.6201 20.7268 70.6201 20.7268C70.5694 20.819 70.4743 20.8719 70.3754 20.8719ZM69.8278 21.8474C69.787 21.8474 69.7474 21.8376 69.7116 21.8192C69.5756 21.7455 69.5126 21.6017 69.5855 21.4678L69.6115 21.4199C69.6856 21.2859 69.8537 21.2368 69.9897 21.3093C70.1232 21.3817 70.1739 21.5501 70.101 21.6828C70.0466 21.7811 69.9366 21.8474 69.8278 21.8474ZM69.279 22.8488C69.2394 22.8488 69.1986 22.8402 69.1628 22.8218C69.028 22.7481 68.965 22.6043 69.0379 22.4704L69.0639 22.4225C69.1368 22.2885 69.3062 22.2382 69.4409 22.3119C69.5756 22.3832 69.6263 22.5515 69.5534 22.6854C69.5002 22.7837 69.3877 22.8488 69.279 22.8488ZM68.7289 23.8515C68.6881 23.8515 68.6473 23.8416 68.6102 23.822C68.4767 23.7482 68.4149 23.6045 68.4878 23.4718C68.4891 23.4706 68.5163 23.4202 68.5175 23.4202C68.5929 23.2863 68.7635 23.2396 68.8958 23.3158C69.0293 23.3907 69.0762 23.5603 69.0008 23.693C68.9452 23.7876 68.8364 23.8515 68.7289 23.8515ZM68.1764 24.8516C68.1356 24.8516 68.0948 24.8418 68.0577 24.8222C67.9242 24.7472 67.8624 24.6047 67.9353 24.472C67.9353 24.4707 67.9637 24.4216 67.9637 24.4204C68.0404 24.2864 68.211 24.241 68.3432 24.3159C68.4767 24.3921 68.5237 24.5604 68.4483 24.6931C68.3939 24.7877 68.2839 24.8516 68.1764 24.8516ZM67.6226 25.8506C67.5818 25.8506 67.541 25.842 67.5039 25.8211C67.3704 25.7474 67.3086 25.6048 67.3815 25.4709C67.3828 25.4697 67.41 25.4205 67.4112 25.4181C67.4866 25.2866 67.6572 25.2387 67.7895 25.3161C67.9242 25.3911 67.9699 25.5594 67.8945 25.6921C67.8401 25.7879 67.7301 25.8506 67.6226 25.8506ZM67.0676 26.8495C67.0268 26.8495 66.986 26.8397 66.9489 26.82C66.8166 26.7463 66.7536 26.6025 66.8278 26.4698C66.8278 26.4674 66.855 26.4195 66.8562 26.417C66.9316 26.2831 67.1022 26.2376 67.2357 26.3138C67.3679 26.3888 67.4162 26.5583 67.3395 26.691C67.2851 26.7856 67.1751 26.8495 67.0676 26.8495ZM66.515 27.8755C66.4681 27.8755 66.4223 27.8645 66.3791 27.8411C66.2456 27.7662 66.1974 27.5978 66.2728 27.4639L66.515 27.5991L66.2975 27.4172C66.3729 27.2845 66.541 27.2353 66.6757 27.3091C66.8105 27.384 66.8599 27.5511 66.7858 27.6851C66.7845 27.6851 66.7585 27.733 66.7585 27.733C66.7066 27.8239 66.6127 27.8755 66.515 27.8755ZM65.9576 28.872C65.9118 28.872 65.8649 28.8622 65.8228 28.8376C65.6881 28.7639 65.6399 28.5943 65.7153 28.4616L65.9576 28.5968L65.7412 28.4161C65.8154 28.2822 65.9835 28.233 66.1183 28.3068C66.253 28.3805 66.3024 28.5488 66.2283 28.6828L66.2011 28.7307C66.1491 28.8216 66.0552 28.872 65.9576 28.872ZM65.3988 29.8697C65.3531 29.8697 65.3061 29.8587 65.2629 29.8341C65.1294 29.7604 65.0812 29.592 65.1566 29.4581L65.3988 29.5933L65.1813 29.4114C65.2567 29.2787 65.426 29.2295 65.5608 29.3033C65.6943 29.3782 65.7437 29.5453 65.6696 29.6793L65.6424 29.7284C65.5917 29.8181 65.4965 29.8697 65.3988 29.8697ZM64.8401 30.8662C64.7931 30.8662 64.7462 30.8551 64.7042 30.8305C64.5694 30.7568 64.5224 30.5885 64.5966 30.4546L64.8401 30.5897L64.6226 30.4079C64.6967 30.2752 64.8661 30.2273 65.0008 30.2998C65.1356 30.3735 65.1838 30.5418 65.1096 30.6757C65.1096 30.6757 65.0824 30.7237 65.0824 30.7249C65.0317 30.8158 64.9365 30.8662 64.8401 30.8662ZM64.2802 31.8615C64.2332 31.8615 64.1862 31.8492 64.143 31.8246C64.0095 31.7484 63.9625 31.5801 64.0391 31.4474L64.2802 31.585L64.0626 31.4056C64.1356 31.2717 64.3049 31.2213 64.4396 31.2938C64.5744 31.3663 64.625 31.5346 64.5521 31.6685C64.5509 31.6698 64.5237 31.7189 64.5225 31.7201C64.4705 31.8111 64.3778 31.8615 64.2802 31.8615ZM63.719 32.8567C63.6733 32.8567 63.625 32.8444 63.583 32.8199C63.4483 32.7437 63.4026 32.5753 63.478 32.4426L63.7202 32.5802L63.5027 32.4008C63.5744 32.2657 63.7437 32.2166 63.8784 32.289C64.0144 32.3615 64.0639 32.5299 63.9909 32.6638C63.9897 32.665 63.9625 32.7142 63.9613 32.7166C63.9106 32.8063 63.8154 32.8567 63.719 32.8567ZM63.1578 33.8507C63.1121 33.8507 63.0639 33.8384 63.0206 33.8139C62.8871 33.7389 62.8401 33.5706 62.9168 33.4379L63.1578 33.5743L62.9402 33.3949C63.0132 33.261 63.1825 33.2118 63.3173 33.2843C63.4532 33.3568 63.5027 33.5251 63.4297 33.659C63.4285 33.6603 63.4013 33.7094 63.4001 33.7107C63.3494 33.8004 63.2542 33.8507 63.1578 33.8507ZM62.5966 34.846C62.5496 34.846 62.5014 34.8337 62.4594 34.8104C62.3247 34.7342 62.2789 34.5646 62.3543 34.4319L62.5966 34.5695L62.3778 34.3901C62.4508 34.2562 62.6213 34.2058 62.7561 34.2783C62.8908 34.352 62.9402 34.5192 62.8673 34.6543C62.8661 34.6555 62.8389 34.7047 62.8376 34.7059C62.787 34.7956 62.693 34.846 62.5966 34.846ZM62.0342 35.84C61.986 35.84 61.939 35.829 61.8957 35.8044C61.7622 35.7282 61.7153 35.5587 61.7919 35.4272L62.0342 35.5636L61.8179 35.3805C61.892 35.2478 62.0614 35.1999 62.1961 35.2748C62.3296 35.3498 62.3778 35.5181 62.3037 35.6508C62.3024 35.652 62.2752 35.7 62.2752 35.7C62.2233 35.7897 62.1306 35.84 62.0342 35.84ZM61.4705 36.8341C61.4236 36.8341 61.3753 36.8218 61.3333 36.7972C61.1998 36.7222 61.1528 36.5527 61.2282 36.4212L61.4705 36.5576L61.2542 36.3745C61.3296 36.2418 61.4977 36.1939 61.6325 36.2688C61.7672 36.3438 61.8154 36.5121 61.74 36.6448C61.74 36.6461 61.7128 36.6927 61.7128 36.6927C61.6609 36.7837 61.5669 36.8341 61.4705 36.8341ZM60.9056 37.8281C60.8599 37.8281 60.8117 37.8158 60.7697 37.7912C60.6349 37.7163 60.5892 37.5467 60.6646 37.414L60.9056 37.5504L60.6905 37.3685C60.7659 37.2358 60.9341 37.1879 61.0688 37.2629C61.2035 37.3366 61.2517 37.5049 61.1763 37.6389C61.1751 37.6389 61.1479 37.6868 61.1479 37.688C61.0972 37.7777 61.0033 37.8281 60.9056 37.8281ZM60.3407 38.8209C60.295 38.8209 60.248 38.8098 60.2048 38.7852C60.0713 38.7091 60.0243 38.5407 60.0997 38.408L60.342 38.5444L60.1256 38.3626C60.2011 38.2286 60.3692 38.1807 60.5039 38.2557C60.6386 38.3306 60.6868 38.4989 60.6114 38.6316C60.6114 38.6316 60.5842 38.6808 60.583 38.6808C60.5323 38.7705 60.4384 38.8209 60.3407 38.8209ZM59.7771 39.8149C59.7301 39.8149 59.6831 39.8038 59.6399 39.778C59.5064 39.7031 59.4594 39.5335 59.536 39.4008L59.7771 39.5385L59.562 39.3554C59.6362 39.2227 59.8055 39.1747 59.9402 39.2497C60.0737 39.3234 60.1219 39.493 60.0465 39.6257L60.0193 39.6748C59.9674 39.7645 59.8735 39.8149 59.7771 39.8149ZM59.2109 40.8077C59.1652 40.8077 59.117 40.7967 59.075 40.7721C58.9402 40.6959 58.8945 40.5276 58.9699 40.3949L59.2109 40.5313L58.9959 40.3494C59.0713 40.2155 59.2406 40.1688 59.3741 40.2425C59.5088 40.3175 59.557 40.4858 59.4816 40.6197C59.4804 40.6197 59.4532 40.6676 59.4532 40.6676C59.4025 40.7573 59.3074 40.8077 59.2109 40.8077ZM58.6448 41.8005C58.5978 41.8005 58.5509 41.7894 58.5076 41.7649C58.3741 41.6899 58.3284 41.5204 58.4038 41.3877L58.6448 41.524L58.4297 41.3422C58.5039 41.2095 58.6732 41.1616 58.808 41.2365C58.9427 41.3103 58.9897 41.4786 58.9155 41.6125C58.9143 41.6125 58.8871 41.6604 58.8871 41.6617C58.8364 41.7501 58.7412 41.8005 58.6448 41.8005ZM58.0762 42.7651C58.0329 42.7651 57.9921 42.7552 57.9538 42.7343C57.8203 42.6582 57.761 42.5132 57.8376 42.3817C57.8376 42.3805 57.8648 42.3325 57.8648 42.3325C57.9415 42.1998 58.1108 42.1544 58.2443 42.2306C58.3778 42.3067 58.4235 42.4763 58.3469 42.609C58.2913 42.7024 58.1825 42.7651 58.0762 42.7651ZM57.5113 43.7874C57.4643 43.7874 57.4169 43.7751 57.3734 43.7505C57.2401 43.6755 57.1933 43.5072 57.2695 43.3745L57.5113 43.5109L57.2951 43.329C57.3705 43.1951 57.5397 43.1484 57.6745 43.2221C57.808 43.2971 57.8562 43.4642 57.7808 43.5981C57.7808 43.5994 57.7536 43.646 57.7536 43.646C57.7017 43.737 57.6077 43.7874 57.5113 43.7874Z" fill="white"/>
<path d="M53.9476 59.5444C55.0717 61.9453 56.0282 64.6927 53.0577 66.5788C50.0872 68.4637 32.8272 75.7892 30.6245 76.6248C28.4216 77.4591 26.5864 77.6372 25.034 75.4304C23.4767 73.2188 16.1679 59.2901 12.6517 51.8871C9.13665 44.4779 4.99807 34.2538 3.58534 30.7434C2.17248 27.2379 4.06383 25.9207 6.37224 24.6219C8.71996 23.2949 24.2832 15.1399 27.2204 13.8289C29.7901 12.6899 30.7745 12.5633 32.115 14.6202C33.4612 16.6709 40.6813 30.8429 43.9187 37.5222C47.1558 44.2015 52.8239 57.1448 53.9476 59.5444Z" fill="#1A1A1A" fill-opacity="0.8"/>
<path d="M7.89707 27.6961C7.88458 27.6629 7.87248 27.6285 7.8595 27.5941C7.64318 26.9957 7.01586 26.53 6.35244 26.7426C5.73489 26.9417 5.29509 27.5892 5.49682 28.2417C5.50695 28.2761 5.51758 28.3104 5.52871 28.3461C5.7166 28.9555 6.39546 29.4052 7.03959 29.1988C7.63255 29.0071 8.13082 28.3399 7.89707 27.6961Z" fill="#1A1A1A"/>
<path d="M12.1152 24.3111C11.7474 24.1218 11.0863 24.0211 10.8429 24.4806C10.7319 24.6907 10.6425 24.8922 10.6638 25.1392C10.7246 25.8445 11.4417 26.3593 12.1152 25.9674C12.717 25.6172 12.7686 24.649 12.1152 24.3111Z" fill="#1A1A1A"/>
<path d="M16.9056 21.5146C16.9144 21.318 16.7748 21.1288 16.5517 21.1312C16.4155 21.1312 16.3156 21.1755 16.2194 21.2676C16.0819 21.3991 16.0775 21.5969 16.1563 21.7579C16.1621 21.7702 16.1683 21.7812 16.1736 21.7935C16.2683 21.9876 16.5449 22.038 16.7197 21.936C16.8815 21.8426 16.9264 21.6805 16.9056 21.5146Z" fill="#1A1A1A"/>
<path d="M21.202 18.004C20.4555 18.004 19.7394 18.6576 19.7736 19.4244C19.8085 20.1935 20.4015 20.8435 21.202 20.8435C21.9489 20.8435 22.665 20.1911 22.6308 19.4244C22.5955 18.6552 22.0031 18.004 21.202 18.004Z" fill="#1A1A1A"/>
<path d="M26.2994 15.8268L26.1947 15.7961C25.7104 15.6535 25.1223 15.9681 25.0073 16.4657C24.8832 17.01 25.1739 17.4585 25.6814 17.6453C25.7162 17.6576 25.7504 17.6711 25.7847 17.6846C26.2603 17.8603 26.8668 17.488 26.9764 17.0113C27.0947 16.494 26.8199 15.9804 26.2994 15.8268Z" fill="#1A1A1A"/>
<path d="M29.693 14.3362C28.7534 14.3362 28.7514 15.7886 29.693 15.7886C30.6321 15.7886 30.6341 14.3362 29.693 14.3362Z" fill="#1A1A1A"/>
<path d="M28.3718 71.5723C26.7277 71.5723 26.7243 74.1121 28.3718 74.1121C30.0159 74.1121 30.0183 71.5723 28.3718 71.5723Z" fill="#1A1A1A"/>
<path d="M35.116 69.5241C34.6804 69.5241 34.2617 69.9062 34.2825 70.3535C34.3024 70.8032 34.649 71.1829 35.116 71.1829C35.5524 71.1829 35.9701 70.8007 35.9503 70.3535C35.9296 69.905 35.5833 69.5241 35.116 69.5241Z" fill="#1A1A1A"/>
<path d="M40.47 67.1317C39.161 67.1317 39.1591 69.1542 40.47 69.1542C41.7785 69.1542 41.7805 67.1317 40.47 67.1317Z" fill="#1A1A1A"/>
<path d="M45.4758 64.2725C43.8651 64.2725 43.8626 66.7606 45.4758 66.7606C47.0861 66.7606 47.0896 64.2725 45.4758 64.2725Z" fill="#1A1A1A"/>
<path d="M51.8929 62.6629C51.8818 62.6506 51.8706 62.6383 51.8601 62.626C51.3009 62.0252 50.176 62.4823 50.2125 63.3043C50.228 63.6385 50.3936 63.9604 50.6907 64.1324C51.0474 64.3401 51.5714 64.2934 51.8601 63.9825L51.8929 63.9469C52.2376 63.5758 52.2396 63.0352 51.8929 62.6629Z" fill="#1A1A1A"/>
<path d="M31.4588 41.9394C32.7548 42.9629 33 44.8478 32.9435 46.3911C32.9219 46.971 32.8604 47.5743 32.6321 48.11C31.3975 49.1225 30.0845 49.8351 28.778 50.3229C26.8808 50.6928 24.923 50.0342 23.977 48.2488C23.766 47.8507 23.6269 47.4084 23.5492 46.9599C23.4377 46.2805 23.4377 45.5776 23.5772 44.892C23.7158 44.2064 24.0605 43.5662 24.4835 43.0121C25.6236 42.2994 26.9031 41.6851 28.2826 41.2157C29.3892 41.1334 30.5525 41.2268 31.4588 41.9394Z" fill="#1A1A1A"/>
<path d="M37.2433 41.8289L37.2274 41.8461C35.9753 44.6709 34.379 46.6897 32.6321 48.1101C32.8604 47.5744 32.9218 46.9711 32.9434 46.3911C32.9999 44.8479 32.7547 42.963 31.4587 41.9395C30.5524 41.2269 29.3891 41.1335 28.2825 41.2158C30.4408 40.4859 32.8552 40.1149 35.3857 40.3152C36.0033 40.8116 36.6261 41.3202 37.2433 41.8289Z" fill="white"/>
<path d="M23.9769 48.2488C24.9229 50.0342 26.8808 50.6928 28.7779 50.3229C25.0894 51.7052 21.3908 51.3391 19.2827 50.9029C19.288 50.1337 19.2933 49.3596 19.2995 48.6138C19.9664 46.7449 21.8466 44.6377 24.4835 43.0121C24.0605 43.5662 23.7157 44.2064 23.5772 44.892C23.4376 45.5776 23.4376 46.2804 23.5491 46.9599C23.6269 47.4084 23.7659 47.8507 23.9769 48.2488Z" fill="white"/>
<path d="M32.6322 48.1101C34.3792 46.6897 35.9755 44.6709 37.2275 41.8461L37.2434 41.8289C40.1304 44.2064 42.8396 46.4955 43.4234 46.9489C44.3244 47.6456 45.4431 48.4418 43.4234 49.4149C41.4047 50.3942 25.1842 57.4716 23.0099 58.5554C20.8346 59.6391 19.5164 59.7656 19.3938 58.5554C19.3161 57.8415 19.2712 54.4195 19.2828 50.9029C21.3909 51.3391 25.0895 51.7053 28.778 50.323C30.0846 49.8352 31.3976 49.1225 32.6322 48.1101Z" fill="#FF5D89"/>
<path d="M28.2825 41.2157C26.903 41.6851 25.6236 42.2994 24.4835 43.0121C21.8467 44.6377 19.9664 46.7449 19.2996 48.6138C19.316 46.9771 19.3489 45.4511 19.3937 44.317C19.6111 38.9819 19.8221 30.5222 20.6125 29.9742C21.3079 29.4827 25.7741 32.756 32.7881 38.241C33.5891 38.8652 34.4736 39.5729 35.3858 40.3151C32.8552 40.1148 30.4409 40.4858 28.2825 41.2157Z" fill="#FF5D89"/>
<path d="M19.416 38.5949L19.3247 38.1476C16.2799 38.5703 14.3074 37.1684 13.4305 35.9544C13.331 35.8168 13.1129 35.9654 13.1433 36.1497C13.8019 40.1455 17.1533 41.7588 19.2706 42.4653C19.2663 41.1752 19.3111 39.8838 19.416 38.5949Z" fill="#1A1A1A"/>
<path d="M24.5526 39.4918C24.1358 38.4732 23.6578 37.4779 23.218 36.4495C23.0025 35.9432 23.7694 35.6201 23.9862 36.1239C25.217 39.0064 25.6761 39.4856 25.0962 39.7203C24.8847 39.8051 24.64 39.7056 24.5526 39.4918Z" fill="#1A1A1A"/>
<path d="M21.4556 42.5463C21.1254 42.2072 20.7265 41.8017 20.4247 41.4601C20.0602 41.0485 20.6879 40.5005 21.0509 40.9133C21.825 41.7894 22.4865 42.1408 22.0451 42.561C21.8786 42.7183 21.615 42.7134 21.4556 42.5463Z" fill="#1A1A1A"/>
<path d="M28.9252 37.6622C28.8851 37.1142 29.7189 37.0614 29.7576 37.6033C29.8233 38.4634 29.999 39.1121 29.4423 39.1404C28.886 39.1613 28.9904 38.5125 28.9252 37.6622Z" fill="#1A1A1A"/>
<path d="M19.1509 28.2749C18.3653 26.6752 17.7179 25.3297 17.1075 23.9585C17.0143 23.7483 17.1099 23.5038 17.3205 23.4117C17.8689 23.1696 17.7526 23.537 19.9008 27.9112C20.0022 28.1164 19.9163 28.3658 19.7096 28.4654C19.5024 28.5661 19.2523 28.4801 19.1509 28.2749Z" fill="#1A1A1A"/>
<path d="M28.5539 27.6469C29.27 29.1029 29.748 31.7839 28.2825 34.7611L31.8788 37.8108C32.1115 35.6814 32.5533 30.3537 28.8247 27.4355C28.6789 27.3213 28.4732 27.481 28.5539 27.6469Z" fill="#1A1A1A"/>
<path d="M35.7267 61.8937C35.4977 61.3949 36.2558 61.0484 36.4862 61.5485C37.1631 63.0229 37.7961 64.4863 38.5079 65.8895C38.6117 66.0947 38.5291 66.3441 38.3234 66.4474C37.7667 66.7238 37.6836 66.1574 35.7267 61.8937Z" fill="#1A1A1A"/>
<path d="M27.9203 44.4018C26.2955 44.8909 27.1772 47.1591 28.563 46.702C29.9493 46.2449 29.4708 43.9337 27.9203 44.4018Z" fill="#1A1A1A" fill-opacity="0.8"/>
<path d="M31.0161 51.709C30.2334 51.9449 30.6567 53.0384 31.3251 52.8185C31.9933 52.5985 31.763 51.4841 31.0161 51.709Z" fill="#1A1A1A"/>
<path d="M33.692 56.3596C32.3178 56.7724 33.0638 58.6929 34.2366 58.3058C35.4099 57.9176 35.0053 55.9627 33.692 56.3596Z" fill="white"/>
<path d="M20.9325 30.5075C19.9809 33.0375 19.6285 55.5807 19.9466 58.4952C19.9727 58.7471 20.0548 58.7925 20.0852 58.8097C20.2165 58.881 20.7969 59.0395 22.7597 58.0602C23.9548 57.4655 29.1936 55.1469 34.2608 52.9045C38.379 51.0811 42.2683 49.3597 43.1795 48.9174C43.966 48.5389 43.9994 48.3018 43.9999 48.3005C44.0196 48.1089 43.4335 47.6579 43.1524 47.4392L43.0819 47.3851H43.0809C43.0216 47.3384 42.7299 47.0964 42.2547 46.7007C25.5187 32.7635 21.7674 30.7324 20.9325 30.5075ZM20.3749 59.9672C20.0523 59.9672 19.7785 59.9033 19.5492 59.7779C19.2638 59.6219 18.9089 59.2926 18.8404 58.6107C18.6657 57.0121 18.6767 49.92 18.8636 43.4385C19.2445 30.2483 19.9534 29.7568 20.2937 29.5209C20.9099 29.0847 21.949 28.3499 42.969 45.8529C43.4257 46.2326 43.7063 46.4661 43.7651 46.5128L43.8342 46.5656C44.4387 47.0325 45.1905 47.6124 45.106 48.4148C45.0263 49.1741 44.2461 49.6337 43.6661 49.9126C42.7382 50.3623 38.84 52.0874 34.7127 53.9145C29.8934 56.0476 24.4308 58.4645 23.2585 59.0493C22.0239 59.6649 21.0814 59.9672 20.3749 59.9672Z" fill="#1A1A1A"/>
<path d="M105.451 18.5841C107.197 19.282 108.537 19.8509 107.787 24.5999C107.036 29.3501 98.9923 69.0609 98.1295 71.6424C97.2679 74.2251 95.143 75.7623 90.2543 74.7891C85.3593 73.8098 68.6547 69.658 66.0404 69.0387C63.4211 68.4195 62.9192 66.843 63.0972 65.1793C63.3815 62.5585 64.1602 58.3563 64.1602 58.3563L64.1825 58.0909C65.4569 58.1904 66.6794 58.2679 67.7647 58.3121V58.3563C67.7647 58.3563 67.253 61.8225 67.0589 63.3154C66.892 64.5761 67.0033 65.7372 69.8896 66.241C72.7759 66.7435 88.1455 70.6692 91.0046 71.1669C93.8686 71.6645 94.8649 70.4702 95.5262 67.9046C96.1888 65.3342 103.865 31.0199 104.672 27.1937C105.478 23.3724 104.426 22.1842 103.181 21.6473C101.934 21.1054 95.7327 18.7401 87.6226 17.0642C79.5188 15.3882 74.8958 15.6757 74.8401 16.2999H74.8241C74.8179 15.0122 74.8117 13.7897 74.8018 12.6568H74.8401C75.0626 11.1418 80.1862 12.0658 87.7845 13.5033C95.3828 14.9409 103.704 17.8874 105.451 18.5841Z" fill="#FF5D89"/>
<path d="M37.6049 17.9439C37.3491 16.1513 37.6609 5.82882 37.6049 4.04842C37.5548 2.26801 38.9015 0.238171 42.294 0.0784378C45.6874 -0.0763779 65.389 0.0391197 69.2221 0.0784378C73.0553 0.116528 74.4236 1.64259 74.6795 4.89991C74.7339 5.674 74.7796 8.59835 74.8019 12.6568C74.8117 13.7897 74.8179 15.0122 74.8241 16.2999C74.8735 29.8588 74.8019 50.726 74.6795 52.8492C74.5015 55.8952 73.1269 58.3231 69.8513 58.3563C69.2444 58.3625 68.5385 58.3453 67.7647 58.3121C66.6795 58.2679 65.457 58.1904 64.1825 58.0909C61.4631 57.8808 58.5088 57.5822 56.1614 57.3328L56.1392 57.3439C55.6892 56.3486 55.1879 55.26 54.6486 54.0927C55.0769 54.1381 63.0255 55.1322 66.5917 55.3865C70.1282 55.6409 71.2802 54.7845 71.3309 51.1241C71.3853 47.4687 71.5695 9.92044 71.3309 7.0342C71.0973 4.14795 70.0454 3.03597 67.8822 2.95856C65.7227 2.88116 47.1611 2.96348 44.8758 2.95856C42.5895 2.95365 41.1037 4.3679 40.9927 6.12127C40.8927 7.81936 40.9874 23.9474 40.9927 24.9157C39.7527 22.3501 38.5842 19.9885 37.5664 17.9599L37.6049 17.9439Z" fill="#FF5D89"/>
<path d="M53.0576 66.5789C56.0281 64.6928 55.0716 61.9454 53.9475 59.5445C52.8238 57.1448 47.1557 44.2015 43.9186 37.5222C40.6812 30.8429 33.4611 16.671 32.1149 14.6202C30.7745 12.5634 29.79 12.6899 27.2203 13.829C24.2831 15.14 8.71987 23.295 6.37215 24.622C4.06374 25.9207 2.17239 27.2379 3.58525 30.7434C4.99798 34.2539 9.13656 44.478 12.6517 51.8871C16.1679 59.2901 23.4767 73.2188 25.0339 75.4305C26.5863 77.6373 28.4215 77.4591 30.6244 76.6248C32.8271 75.7893 50.0871 68.4637 53.0576 66.5789ZM54.6486 54.0927C55.1879 55.2599 55.6891 56.3486 56.1392 57.3438C56.6177 58.4005 57.0402 59.3515 57.3965 60.1699C59.9167 65.9915 57.6695 67.3075 54.3314 69.0609C50.9939 70.8081 34.7962 78.1447 30.9803 79.2899C27.1647 80.4338 25.0841 80.5223 22.8538 77.061C20.6178 73.5948 16.7072 66.6059 11.8786 56.3928C7.05645 46.181 3.05163 36.151 0.804028 30.7434C-1.4432 25.342 1.43258 24.5114 4.36448 22.8317C7.46251 21.0501 23.4153 12.2316 27.2256 10.4008C31.0305 8.57128 33.1607 9.50512 34.0622 11.1479C34.4959 11.938 35.8087 14.4482 37.5663 17.9599C38.5841 19.9885 39.7526 22.3501 40.9927 24.9156C42.0548 27.1212 43.1736 29.4766 44.2856 31.8935C47.657 39.2031 51.7114 47.7341 54.6486 54.0927Z" fill="#FF5D89"/>
</svg>
