<svg width="16" height="16" viewBox="0 0 16 16" fill="none" xmlns="http://www.w3.org/2000/svg">
<g clip-path="url(#clip0)">
<path d="M1.06961 12.0044C1.71317 13.1196 2.61675 14.0628 3.70339 14.7536C4.79002 15.4444 6.02752 15.8623 7.31048 15.9718L10.9336 9.69636L8.00004 8.00294L5.06849 9.69556L4.09111 8.00245L3.37538 6.76303L1.44634 3.42175C0.573509 4.66826 0.0744266 6.13792 0.0076952 7.65817C-0.0590362 9.17842 0.309354 10.6862 1.06961 12.0044Z" fill="#00AC47"/>
<path d="M8.00007 2.67259e-07C6.71242 -0.000332754 5.44377 0.310563 4.30217 0.906206C3.16057 1.50185 2.17985 2.36459 1.44354 3.42095L5.06668 9.69636L8.00007 8.00288V4.61758H15.2441C14.601 3.2385 13.5778 2.07151 12.2947 1.2536C11.0116 0.435686 9.52172 0.000802792 8.00007 2.67259e-07Z" fill="#EA4435"/>
<path d="M14.9299 12.0042C15.5739 10.8893 15.9389 9.63523 15.9939 8.34884C16.0488 7.06246 15.792 5.78186 15.2454 4.61609H7.9992V8.00299L10.931 9.69561L9.9536 11.3887L9.23788 12.6284L7.30878 15.9696C8.82474 16.1022 10.3471 15.7995 11.697 15.0971C13.0469 14.3947 14.1685 13.3218 14.9299 12.0042Z" fill="#FFBA00"/>
<path d="M7.99944 11.3898C9.8696 11.3898 11.3857 9.87369 11.3857 8.00353C11.3857 6.13337 9.8696 4.61731 7.99944 4.61731C6.12928 4.61731 4.61322 6.13337 4.61322 8.00353C4.61322 9.87369 6.12928 11.3898 7.99944 11.3898Z" fill="white"/>
<path d="M7.99944 10.6201C9.44456 10.6201 10.6161 9.44859 10.6161 8.00347C10.6161 6.55834 9.44456 5.38684 7.99944 5.38684C6.55432 5.38684 5.38281 6.55834 5.38281 8.00347C5.38281 9.44859 6.55432 10.6201 7.99944 10.6201Z" fill="#4285F4"/>
</g>
<defs>
<clipPath id="clip0">
<rect width="16" height="16" fill="white"/>
</clipPath>
</defs>
</svg>