<svg width="106" height="60" viewBox="0 0 106 60" fill="none" xmlns="http://www.w3.org/2000/svg">
<path d="M79.633 0.00119972C82.4291 -0.0827675 82.3157 4.28141 79.7463 4.08199C79.7085 4.08199 79.6708 4.07148 79.633 4.07148C79.5112 4.05259 79.3979 4.03583 79.2845 3.99804C76.9985 3.40188 77.5086 0.0662742 79.633 0.00119972Z" fill="#FF5D89"/>
<path d="M49.8123 4.9422C49.7367 4.9506 49.6611 4.96106 49.5751 4.96106C49.4995 4.96106 49.4155 4.96105 49.3399 4.95055C46.2227 4.86659 45.8448 -0.18819 49.5751 0.0112319C52.6273 0.181265 52.7217 4.57274 49.8123 4.9422Z" fill="#FF5D89"/>
<path d="M22.3611 6.72633C22.1806 6.76411 22.0022 6.7746 21.8028 6.7641C21.6894 6.7641 21.576 6.75568 21.4627 6.73678C18.2698 6.30225 18.1103 1.51197 21.8028 1.36922C25.3168 1.23697 25.3357 6.2918 22.3611 6.72633Z" fill="#FF5D89"/>
<path d="M83.2978 52.56C83.6295 52.5705 83.8835 52.5705 84.0452 52.5705C85.4138 52.5789 84.952 56.1769 84.8764 57.4154C84.8092 58.5972 84.3558 59.313 82.9956 59.2773C81.2574 59.2207 64.443 58.8512 53.2964 59.2773C42.1413 59.693 24.0611 60.1086 21.8213 59.9743C19.5836 59.842 19.6591 58.4062 19.8481 56.6492C20.0559 54.9026 20.207 54.2792 21.8213 54.2981C21.9263 54.2981 22.1047 54.2981 22.3314 54.2876C25.6481 54.1553 41.1106 53.0617 51.5205 52.5705C61.8463 52.0877 79.0659 52.4949 83.2978 52.56Z" fill="white"/>
<path d="M79.6327 4.07057C79.6705 4.07057 79.7083 4.08108 79.7461 4.08108C79.8405 4.94174 82.8634 33.2701 83.2979 52.5595C79.066 52.4944 61.8464 52.0872 51.5205 52.57C41.1107 53.0612 25.6482 54.1549 22.3315 54.2871V54.2116C22.0481 49.6794 21.4918 8.63417 21.4624 6.73652C21.5758 6.75541 21.6891 6.76384 21.8025 6.76384C22.0019 6.77433 22.1803 6.76385 22.3608 6.72606C23.041 8.01916 35.2162 31.1626 37.8339 35.6506C37.8339 35.6506 47.5069 9.43816 49.3395 4.95012C49.415 4.96061 49.499 4.96062 49.5746 4.96062C49.6607 4.96062 49.7362 4.95016 49.8118 4.94176V4.95012C49.8118 4.95012 62.4027 31.5237 64.8503 36.738C64.8503 36.738 77.6595 6.69873 79.2738 4.06217L79.2843 3.99713C79.3976 4.03492 79.511 4.05168 79.6327 4.07057Z" fill="#1A1A1A"/>
<path d="M51.6657 54.8204C49.7492 54.7175 49.9969 57.3793 51.6657 57.2995C53.238 57.2239 53.2317 54.9085 51.6657 54.8204Z" fill="#1A1A1A"/>
<path d="M67.2816 54.821C65.8394 54.7454 66.0262 56.6977 67.2816 56.6368C68.4634 56.5822 68.4592 54.886 67.2816 54.821Z" fill="#1A1A1A"/>
<path d="M38.848 55.4143C37.4058 55.3387 37.5926 57.2909 38.848 57.2301C40.0319 57.1755 40.0256 55.4773 38.848 55.4143Z" fill="#1A1A1A"/>
<path d="M25.506 56.3248C24.1017 56.2493 24.2822 58.1994 25.506 58.1407C26.6606 58.084 26.6543 56.3878 25.506 56.3248Z" fill="#1A1A1A"/>
<path d="M79.8074 55.152C78.4009 55.0765 78.5815 57.0266 79.8074 56.9678C80.9598 56.9132 80.9535 55.2171 79.8074 55.152Z" fill="#1A1A1A"/>
<path d="M27.6618 31.8699C27.6618 31.8699 27.708 36.719 26.5786 39.0386C26.5786 39.0386 29.2047 41.0391 30.4957 45.1136C30.4957 45.1136 30.5838 40.4997 31.7237 37.5587C31.7237 37.5587 29.2823 35.9234 27.6618 31.8699Z" fill="#FF5D89"/>
<path d="M50.3766 22.8389L44.5493 34.5209L51.5606 46.6394L57.4446 34.7392L50.3766 22.8389Z" fill="#FF5D89"/>
<path d="M75.3759 29.1532C75.3759 29.1532 74.7378 32.323 72.4224 35.6523C72.4224 35.6523 74.3914 39.1264 74.5656 43.5536C74.5656 43.5536 75.4515 39.1432 77.8214 36.1939C77.8214 36.1939 75.3759 32.6085 75.3759 29.1532Z" fill="#FF5D89"/>
<path d="M100.929 7.19873C100.864 6.64664 100.598 6.22261 100.052 6.04628C98.1585 5.43752 96.0425 7.58285 94.7872 8.7521C93.6347 9.82478 91.4915 11.4496 91.8085 13.2297C91.8987 13.7314 92.4067 13.9728 92.8539 14.0232C94.445 14.2016 96.4267 12.4236 97.5938 11.5335C98.8596 10.5721 101.137 9.00612 100.929 7.19873Z" fill="#1A1A1A"/>
<path d="M105.558 33.249C103.326 32.4702 100.518 33.3078 98.2024 33.587C97.5978 33.6584 97.5579 34.5526 98.2024 34.561C100.593 34.5862 103.471 35.1047 105.663 34.0593C106.034 33.8809 105.885 33.3645 105.558 33.249Z" fill="#1A1A1A"/>
<path d="M100.054 53.1749C99.2373 52.8747 98.4858 52.5284 97.7553 52.0498C96.8359 51.4473 95.7527 52.837 96.5756 53.5801C97.3397 54.2728 98.1961 54.9173 99.1386 55.3476C99.6341 55.5743 100.169 55.5554 100.579 55.1608C100.833 54.9173 100.95 54.678 100.927 54.3211C100.891 53.7543 100.577 53.368 100.054 53.1749Z" fill="#1A1A1A"/>
<path d="M11.9719 12.927C11.4198 11.4932 10.0848 11.0104 8.79797 10.3618C8.17451 10.0469 7.58044 9.64178 6.93179 9.38568C6.18659 9.0918 5.35323 8.94065 4.58913 8.69505C3.98247 8.50192 3.3695 9.25763 3.73685 9.80132C4.16718 10.4332 4.59753 11.1133 5.11392 11.6822C5.67231 12.2993 6.4532 12.7297 7.16483 13.1558C8.52299 13.9724 9.93782 14.7533 11.5038 14.0773C11.8796 13.9157 12.1168 13.3069 11.9719 12.927Z" fill="#1A1A1A"/>
<path d="M7.50927 33.0707C5.81943 31.3514 2.90789 32.3527 0.886378 32.8145C-0.295459 33.0853 -0.295459 34.9368 0.886378 35.2055C2.90369 35.6652 5.81943 36.6687 7.50927 34.9494C8.01517 34.4351 8.01517 33.5871 7.50927 33.0707Z" fill="#1A1A1A"/>
<path d="M11.454 50.9829C10.8663 51.0228 10.3037 51.0375 9.7684 51.3146C9.60047 51.4028 9.44094 51.5245 9.2793 51.6253C9.16595 51.6925 8.35145 52.2781 8.58446 52.1102C8.69572 52.0262 8.66424 52.0493 8.48791 52.1753C8.36406 52.2551 8.24652 52.3432 8.13526 52.4356C7.82038 52.6791 7.57897 52.931 7.42153 53.3046C7.13395 53.9848 7.2305 54.6313 7.69651 55.2086C8.42283 56.1091 9.76841 55.979 10.7487 55.6032C11.2735 55.4017 11.9557 55.0763 12.3441 54.6544C12.7387 54.222 12.9487 53.693 13.0914 53.1346C13.3496 52.127 12.5855 50.9074 11.454 50.9829Z" fill="#1A1A1A"/>
<path d="M48.9849 28.7548C48.5777 29.5419 48.0948 30.327 47.7863 31.1604C47.4672 32.0169 47.2426 32.9216 46.9739 33.7949C46.8773 34.1119 47.3455 34.4267 47.568 34.1391C48.1179 33.4254 48.6994 32.7285 49.2221 31.998C49.7406 31.2738 50.1059 30.4383 50.5152 29.649C51.04 28.6393 49.5118 27.743 48.9849 28.7548Z" fill="white"/>
<path d="M48.2694 36.0686C48.2379 36.0266 48.2044 35.9825 48.1729 35.9384C47.5347 35.0778 46.3969 36.203 47.2639 36.8474C47.308 36.881 47.3521 36.9125 47.3941 36.944C47.8979 37.3176 48.6431 36.5745 48.2694 36.0686Z" fill="white"/>
<path d="M20.5981 3.38486C19.4016 3.38486 19.3995 5.24475 20.5981 5.24475C21.7947 5.24475 21.7968 3.38486 20.5981 3.38486Z" fill="white" fill-opacity="0.2"/>
<path d="M48.4641 1.44733C47.6097 1.44733 47.6076 2.77612 48.4641 2.77612C49.3205 2.77612 49.3205 1.44733 48.4641 1.44733Z" fill="white" fill-opacity="0.2"/>
<path d="M79.0076 0.888816C77.6411 0.888816 77.639 3.01526 79.0076 3.01526C80.3763 3.01526 80.3784 0.888816 79.0076 0.888816Z" fill="white" fill-opacity="0.2"/>
</svg>
