<svg width="80" height="80" viewBox="0 0 80 80" fill="none" xmlns="http://www.w3.org/2000/svg">
<path d="M37.3921 11.3082C37.3921 11.3082 6.67036 69.9995 6.64015 70.0218C6.60799 70.0442 73.694 70.0218 73.694 70.0218L37.3921 11.3082Z" fill="#1A1A1A"/>
<path d="M35.1847 57.0628C37.5207 57.2309 39.8313 57.1716 42.1272 56.9005C47.8701 56.2408 53.494 54.2861 59.0098 51.3433L59.0352 51.3277L68.8262 67.2437H11.7192L19.3527 52.411C24.7213 55.2168 29.9993 56.6985 35.1847 57.0628Z" fill="#F0B000"/>
<path d="M59.0356 51.3276L59.0102 51.3431C53.4944 54.286 47.8705 56.2407 42.1276 56.9004L42.1169 56.8363C49.8653 51.554 48.1073 42.6925 41.7466 40.5609C46.4184 41.0583 51.2131 42.8207 55.8206 46.1143L59.0356 51.3276Z" fill="white"/>
<path d="M37.7273 16.7094L55.8202 46.1143C51.2127 42.8207 46.418 41.0583 41.7462 40.5609C38.4143 40.2063 35.1399 40.4919 32.0487 41.3235C28.7305 42.2251 25.6198 43.7514 22.8541 45.7898L22.78 45.7499L37.7273 16.7094Z" fill="#F0B000"/>
<path d="M41.7462 40.5605C48.1069 42.6921 49.8649 51.5536 42.1165 56.8359L42.1272 56.9C39.8312 57.1711 37.5206 57.2303 35.1847 57.0623C27.2687 54.4682 27.0903 45.4338 32.0536 41.3387L32.0487 41.3232C35.1399 40.4915 38.4143 40.2059 41.7462 40.5605Z" fill="#1A1A1A"/>
<path d="M32.0491 41.3234L32.054 41.339C27.0907 45.434 27.2691 54.4685 35.1851 57.0625C29.9997 56.6982 24.7217 55.2165 19.353 52.4107L22.7804 45.7498L22.8545 45.7896C25.6202 43.7513 28.7309 42.225 32.0491 41.3234Z" fill="white"/>
<path d="M26.9051 39.801C26.7677 39.6009 26.8194 39.3299 27.0191 39.1929C33.8427 34.543 43.4008 34.3477 50.2615 38.7187C50.7507 39.0296 50.2771 39.767 49.7889 39.4562C43.2157 35.2688 34.0562 35.4573 27.5142 39.9147C27.3134 40.0517 27.0416 39.9992 26.9051 39.801Z" fill="#1A1A1A" fill-opacity="0.8"/>
<path d="M38.0531 33.7822C38.0502 33.7822 38.0472 33.7822 38.0443 33.7822C37.5951 33.7696 37.7763 33.5471 37.712 30.2584C37.6662 27.8529 37.5775 27.4866 38.0151 27.4866C38.1983 27.4866 38.3454 27.6353 38.3444 27.8179C38.3308 29.6774 38.4341 31.5836 38.3815 33.4636C38.3766 33.6413 38.2304 33.7822 38.0531 33.7822Z" fill="white"/>
<path d="M43.6827 34.6423C43.5336 34.5383 43.4976 34.3343 43.6018 34.1856C44.0774 33.5075 44.5569 32.8293 45.0412 32.157C45.2946 31.8044 45.8296 32.1862 45.5752 32.5388C45.0938 33.2102 44.6154 33.8844 44.1408 34.5616C44.0365 34.7103 43.8318 34.7462 43.6827 34.6423Z" fill="white"/>
<path d="M31.7663 35.165C31.3775 34.4538 30.9838 33.6746 30.5277 32.7157C30.4497 32.5515 30.5199 32.3562 30.6836 32.2785C31.1378 32.0667 31.0832 32.5476 32.3442 34.8512C32.4309 35.0105 32.3715 35.2097 32.2126 35.2961C32.0538 35.3826 31.853 35.3233 31.7663 35.165Z" fill="white"/>
<path d="M29.8749 62.7721C30.2238 62.059 30.6282 61.2885 30.9839 60.5696C31.1768 60.18 31.7655 60.4695 31.5744 60.8581C31.2129 61.5907 30.8358 62.3048 30.4655 63.0597C30.2754 63.4483 29.6839 63.1627 29.8749 62.7721Z" fill="white"/>
<path d="M44.6143 60.6913C44.4126 60.3056 44.9963 60.0035 45.197 60.3872C45.582 61.1217 45.9825 61.9106 46.4961 62.9453C46.577 63.1076 46.5107 63.3048 46.348 63.3854C45.9094 63.5991 45.8977 63.1425 44.6143 60.6913Z" fill="white"/>
<path d="M38.2049 62.5043C36.8805 62.5413 36.5443 64.6427 38.2049 64.7107C39.692 64.7719 39.7076 62.4616 38.2049 62.5043Z" fill="white"/>
<path d="M22.9975 57.2299C22.4742 56.986 22.8435 56.1932 23.3707 56.439C32.8304 60.8634 41.7921 60.9567 51.5734 56.7324C51.7985 56.6362 52.0548 56.7392 52.1513 56.9598C52.2468 57.1813 52.1445 57.4387 51.9232 57.5349C42.1887 61.7388 32.7203 61.7777 22.9975 57.2299Z" fill="#1A1A1A" fill-opacity="0.8"/>
<path d="M38.2049 44.6685C33.154 44.0389 32.4649 51.1662 37.0812 52.0814C41.9724 53.0481 43.5346 45.332 38.2049 44.6685Z" fill="#F0EEE9"/>
<path d="M38.0099 46.0431C37.7292 45.7633 35.4897 49.1015 35.6242 49.5591C35.7597 50.0177 39.5048 50.0031 39.8312 49.8953C40.1587 49.7865 38.9327 46.9593 38.0099 46.0431Z" fill="#1A1A1A"/>
<path d="M35.4285 0.454414C34.987 1.66302 34.7727 4.38336 35.486 5.51327C35.7004 5.85526 36.2081 5.95533 36.5034 5.64347C38.5197 3.51189 36.1525 -1.5324 35.4285 0.454414Z" fill="#F0B000"/>
<path d="M19.8204 16.8394C19.3156 16.6237 18.6812 17.2349 19.1753 17.673C20.8924 19.1964 21.0668 20.028 22.1047 20.4808C23.2741 20.9909 24.8402 18.9856 19.8204 16.8394Z" fill="#F0B000"/>
<path d="M13.1176 37.3856C11.9706 35.8739 8.35319 34.9131 6.39342 34.2806C5.85451 34.1067 5.4735 34.8266 5.85258 35.2065C7.49953 36.8542 10.0167 39.1636 12.5359 38.8099C13.1186 38.7283 13.4675 37.8471 13.1176 37.3856Z" fill="#F0B000"/>
<path d="M5.83617 55.7479C5.24074 55.0018 4.12199 55.1563 3.25564 55.1679C2.24214 55.1805 1.28415 55.4244 0.296959 55.6362C-0.120136 55.7266 -0.0772569 56.325 0.296959 56.4377C1.72171 56.8681 4.81585 57.8241 5.83617 56.7273C6.11196 56.429 6.07785 56.0501 5.83617 55.7479Z" fill="#F0B000"/>
<path d="M0.788989 73.5399C0.210124 74.115 0.940029 74.9681 1.62999 74.6271C2.84327 74.0286 4.91511 73.5778 5.34683 72.7335C5.97442 71.5006 4.116 70.2288 0.788989 73.5399Z" fill="#F0B000"/>
<path d="M18.42 76.6549C18.0312 77.4282 18.0926 77.1844 17.9532 78.6815C17.8996 79.2703 18.8001 79.6657 19.1782 79.1867C20.1585 77.948 20.0085 78.1958 20.2453 77.4224C20.5708 76.3595 18.9336 75.6338 18.42 76.6549Z" fill="#F0B000"/>
<path d="M39.1863 74.942C39.1006 74.3513 38.1085 74.4903 38.1407 75.0829C38.2235 76.6141 38.052 78.4756 38.855 79.8435C39.0021 80.0951 39.3588 80.0242 39.4475 79.7667C39.9591 78.2686 39.4075 76.4557 39.1863 74.942Z" fill="#F0B000"/>
<path d="M61.5438 77.6886C60.9484 76.7685 60.0811 76.0758 59.4476 75.182C59.1718 74.7934 58.5023 75.0139 58.6426 75.5191C60.0274 80.4633 62.1675 78.6533 61.5438 77.6886Z" fill="#F0B000"/>
<path d="M78.6212 71.0537C78.0911 70.6621 77.4674 70.5281 76.833 70.3852C76.2346 70.2502 75.9189 70.9089 76.2697 71.35C76.9811 72.2419 77.7178 73.3757 78.898 73.6875C79.6308 73.8799 81.0946 72.8763 78.6212 71.0537Z" fill="#F0B000"/>
<path d="M74.2913 52.0338C73.5244 51.8142 72.7068 52.231 71.9739 52.4545C71.1271 52.7119 70.3319 52.8742 69.5727 53.3376C69.3417 53.4785 69.3447 53.9215 69.6556 53.9701C70.5999 54.1178 71.3912 53.9264 72.317 53.6951C73.1093 53.4969 74.0438 53.3328 74.5408 52.6439C74.7016 52.4205 74.5301 52.1018 74.2913 52.0338Z" fill="#F0B000"/>
<path d="M59.7722 37.0985C59.2605 37.6377 59.9008 38.3605 60.5294 38.0768C63.4276 36.7691 64.4362 36.3465 65.0365 35.5955C65.9847 34.4122 63.1411 33.5485 59.7722 37.0985Z" fill="#F0B000"/>
<path d="M51.857 14.7828C50.6973 15.0733 48.9851 17.1165 48.4257 18.329C48.3224 18.5534 48.5553 18.8857 48.8058 18.7088C49.4811 18.2299 50.0474 17.7324 50.6506 17.167C51.2207 16.6326 52.0032 16.143 52.354 15.4279C52.5207 15.0879 52.2459 14.6857 51.857 14.7828Z" fill="#F0B000"/>
<path d="M38.0624 41.136C37.81 41.0281 37.4855 40.9524 37.238 41.136C37.0294 41.2924 36.8608 41.4381 36.7887 41.7024C36.7448 41.8588 36.7332 42.0861 36.7293 42.2552C36.7195 42.6127 36.8511 43.0956 37.1308 43.3336C37.3754 43.5405 37.7973 43.6737 38.0897 43.457C38.4473 43.1908 38.6735 42.7643 38.653 42.3067C38.6325 41.8792 38.4932 41.3206 38.0624 41.136Z" fill="#F0EEE9"/>
<path d="M38.2262 53.6689C37.9602 53.53 37.6893 53.5795 37.4661 53.767C37.1134 54.0633 37.2089 54.5248 37.1962 54.928C37.1826 55.3147 37.5451 55.6839 37.9358 55.6664C38.3481 55.6479 38.6628 55.3419 38.6765 54.928C38.6931 54.4665 38.6979 53.9157 38.2262 53.6689Z" fill="#F0EEE9"/>
<path d="M32.2302 47.6541C31.8765 47.5647 31.5412 47.6114 31.1885 47.6862C30.8649 47.7542 30.6671 47.9223 30.4439 48.1486C30.2831 48.3119 30.2461 48.6451 30.4439 48.8015C30.7129 49.0162 30.9351 49.1814 31.2927 49.2154C31.6085 49.2445 31.9291 49.2649 32.2302 49.1522C32.5557 49.0298 32.8023 48.7675 32.8023 48.4032C32.8023 48.067 32.5616 47.7377 32.2302 47.6541Z" fill="#F0EEE9"/>
<path d="M45.8091 47.9361C45.4184 47.6242 45.1309 47.6126 44.6271 47.5951C44.1096 47.5766 43.6428 47.6669 43.138 47.7758C42.7053 47.87 42.8447 48.4665 43.2374 48.5015C44.0307 48.5724 45.0734 48.7755 45.7624 48.2985C45.8715 48.2227 45.9349 48.0362 45.8091 47.9361Z" fill="#F0EEE9"/>
<path d="M42.5015 43.3791C42.2939 43.4413 42.1448 43.5229 42.0015 43.688C41.8827 43.8279 41.7696 43.9718 41.6537 44.1136C41.5221 44.2729 41.4831 44.4867 41.6205 44.6586C41.7394 44.8073 41.9879 44.8889 42.1575 44.7655C42.3144 44.6528 42.4742 44.5411 42.6301 44.4264C42.8426 44.27 42.9264 44.1398 43.0189 43.895C43.132 43.5928 42.7899 43.2907 42.5015 43.3791Z" fill="#F0EEE9"/>
<path d="M33.6479 44.1604C33.5533 44.0428 33.4501 43.8873 33.3195 43.8086C33.1948 43.7319 33.0437 43.7018 32.9043 43.6629C32.6899 43.6027 32.4639 43.8116 32.534 44.0321C32.5769 44.1671 32.6129 44.3148 32.689 44.4363C32.7669 44.5587 32.9034 44.6393 33.0154 44.7258C33.1908 44.8608 33.5027 44.9842 33.6946 44.7938C33.8652 44.6238 33.7755 44.3197 33.6479 44.1604Z" fill="#F0EEE9"/>
<path d="M33.6263 52.5072C33.3905 52.5421 33.2462 52.5956 33.0591 52.7491C32.8642 52.9104 32.8184 53.0707 32.7863 53.3126C32.7629 53.4884 32.9666 53.5866 33.1088 53.5574C33.5766 53.4612 33.7735 53.0853 33.8027 52.6413C33.8095 52.5422 33.7092 52.4955 33.6263 52.5072Z" fill="#F0EEE9"/>
<path d="M43.2458 51.991C43.047 51.8054 42.8862 51.5266 42.5997 51.4819C42.319 51.4372 42.0432 51.5499 41.9585 51.8442C41.8591 52.194 42.0647 52.4777 42.2645 52.7458C42.4847 53.0431 42.8609 53.1675 43.1825 52.9207C43.468 52.7011 43.5206 52.2494 43.2458 51.991Z" fill="#F0EEE9"/>
</svg>
