<svg width="60" height="40" viewBox="0 0 60 40" fill="none" xmlns="http://www.w3.org/2000/svg">
<path d="M6.68471 23.9839C7.35113 28.704 15.2841 34.5598 30.8374 33.3108C43.9469 32.2589 52.4969 25.643 51.588 20.7198C50.6781 15.7957 41.1195 7.10857 28.9476 7.97807C15.9869 8.90474 5.82606 17.9142 6.68471 23.9839Z" fill="#F0B000"/>
<path d="M9.43295 23.7671C10.0116 27.9224 21.8287 31.4142 30.5069 30.5309C39.1841 29.6486 49.0207 25.4894 48.4608 21.2839C47.9028 17.0783 38.7001 11.4177 28.3351 12.1354C17.9702 12.8531 8.89765 19.9313 9.43295 23.7671Z" fill="#1A1A1A" fill-opacity="0.8"/>
<path d="M29.4728 15.3186C21.5674 15.4004 20.9385 26.5521 28.832 27.2234C36.9108 27.9105 38.2555 15.2259 29.4728 15.3186Z" fill="white"/>
<path d="M30.4062 31.2497C29.4756 31.2605 29.4017 32.5707 30.3303 32.6495C31.2807 32.7304 31.4384 31.2388 30.4062 31.2497Z" fill="#1A1A1A" fill-opacity="0.8"/>
<path d="M23.2178 31.2496C22.5257 31.2565 22.4705 32.2177 23.1616 32.2759C23.8704 32.335 23.9867 31.2417 23.2178 31.2496Z" fill="#1A1A1A" fill-opacity="0.8"/>
<path d="M38.3444 4.88076C37.6513 4.88865 37.5961 5.84784 38.2872 5.90601C38.996 5.96516 39.1143 4.87287 38.3444 4.88076Z" fill="white"/>
<path d="M20.1086 5.39416C19.4166 5.40205 19.3614 6.36324 20.0524 6.41943C20.7613 6.47858 20.8786 5.38628 20.1086 5.39416Z" fill="white"/>
<path d="M52.553 13.8132C51.8599 13.8211 51.8047 14.7813 52.4968 14.8395C53.2046 14.8986 53.3229 13.8063 52.553 13.8132Z" fill="white"/>
<path d="M4.95435 17.3938C4.26132 17.4017 4.2061 18.3619 4.89815 18.42C5.60696 18.4792 5.72329 17.3859 4.95435 17.3938Z" fill="white"/>
<path d="M37.2678 30.1553C36.5748 30.1622 36.5196 31.1224 37.2116 31.1805C37.9194 31.2397 38.0378 30.1464 37.2678 30.1553Z" fill="#1A1A1A" fill-opacity="0.8"/>
<path d="M29.3575 19.9274C28.2878 17.9587 25.6685 18.9317 26.2215 21.2839C26.7726 23.636 28.6526 24.0599 29.7675 23.9742C31.0373 23.8766 32.3751 22.8592 32.7102 21.0778C33.0454 19.2945 30.7958 17.4697 29.3575 19.9274Z" fill="#F0B000"/>
<path d="M29.3358 6.22926C29.2126 4.22015 29.1406 2.23571 29.1219 0.333066C29.1169 -0.107598 29.7833 -0.112533 29.7873 0.327145C29.8445 6.20068 30.2565 6.50728 29.6877 6.54178C29.5063 6.55361 29.3476 6.41361 29.3358 6.22926Z" fill="white"/>
<path d="M30.1588 39.6794C30.1381 39.012 30.0573 37.0472 30.0454 35.2313C30.0435 35.047 30.1913 34.8981 30.3757 34.8962C30.3757 34.8962 30.3767 34.8962 30.3776 34.8962C30.838 34.8962 30.6625 35.0125 30.8222 39.5995C30.8331 39.8647 30.6842 39.9938 30.5038 39.9998C30.3185 40.0067 30.1657 39.8617 30.1588 39.6794Z" fill="white"/>
<path d="M54.2082 20.7288C54.1284 20.2852 54.435 20.2763 58.6592 19.6937C59.0999 19.6375 59.1807 20.293 58.7499 20.3532C57.5127 20.5227 56.0507 20.7337 54.5947 20.9969C54.4152 21.0304 54.2417 20.9112 54.2082 20.7288Z" fill="white"/>
<path d="M0.00849812 25.4932C-0.0683962 25.0496 0.342689 25.0782 2.64163 24.7489C4.83903 24.4344 5.19688 24.2363 5.2718 24.6799C5.34771 25.1235 4.92677 25.0939 2.73627 25.4074C1.96535 25.5178 1.16979 25.6322 0.391973 25.7653C0.211567 25.7968 0.0390587 25.6746 0.00849812 25.4932Z" fill="white"/>
<path d="M45.113 10.643C44.8084 10.4074 45.0755 10.1481 45.3003 9.85632C47.4336 7.09503 47.5135 6.67606 47.9127 6.97279C48.0596 7.08222 48.0902 7.29022 47.9817 7.43809C47.2414 8.43476 46.4567 9.4482 45.5803 10.5829C45.4659 10.7288 45.2579 10.7554 45.113 10.643Z" fill="white"/>
<path d="M8.58716 9.863C8.2855 9.54162 8.77052 9.08616 9.07119 9.40557C9.95646 10.3441 10.8496 11.3181 11.9133 12.4784C12.0375 12.6144 12.0277 12.8244 11.8926 12.9486C11.517 13.2937 11.452 12.9013 8.58716 9.863Z" fill="white"/>
<path d="M21.9746 37.6347C21.531 37.4346 21.9076 36.9121 22.7051 35.4314C22.922 35.0302 23.1103 34.4387 23.5007 34.6437C23.895 34.8508 23.5076 35.3467 23.2917 35.7469C22.99 36.3078 22.6765 36.8875 22.4153 37.4681C22.3394 37.6367 22.1412 37.7107 21.9746 37.6347Z" fill="white"/>
<path d="M38.4528 37.549C37.9826 36.5642 37.5488 35.5429 37.1525 34.5847C37.0815 34.4151 37.1623 34.2209 37.3319 34.1499C37.8199 33.9458 37.7282 34.4979 39.0531 37.2612C39.133 37.4268 39.062 37.6259 38.8964 37.7048C38.7337 37.7837 38.5326 37.7156 38.4528 37.549Z" fill="white"/>
</svg>
