<svg width="20" height="20" viewBox="0 0 20 20" fill="none" xmlns="http://www.w3.org/2000/svg">
<path fill-rule="evenodd" clip-rule="evenodd" d="M20 10C20 14.9964 16.3357 19.1369 11.5479 19.8809C11.2558 19.9263 11 19.6942 11 19.3985V12H13C13.5523 12 14 11.5523 14 11C14 10.4477 13.5523 10 13 10H11V8C11 7.44772 11.4477 7 12 7H13C13.5523 7 14 6.55228 14 6C14 5.44772 13.5523 5 13 5H12C10.3431 5 9 6.34315 9 8V10H8C7.44772 10 7 10.4477 7 11C7 11.5523 7.44772 12 8 12H9V19.3985C9 19.6942 8.74425 19.9263 8.45208 19.8809C3.66427 19.1369 0 14.9964 0 10C0 4.47715 4.47715 0 10 0C15.5228 0 20 4.47715 20 10Z" fill="white"/>
</svg>
