<svg width="16" height="16" viewBox="0 0 16 16" fill="none" xmlns="http://www.w3.org/2000/svg">
<path d="M0 8C0 3.58173 3.58173 0 8 0C12.4183 0 16 3.58173 16 8C16 12.4183 12.4183 16 8 16C3.58173 16 0 12.4183 0 8Z" fill="#333333"/>
<path d="M6.39999 12.8C7.28365 12.8 7.99999 12.0836 7.99999 11.2V9.59998H6.39999C5.51632 9.59998 4.79999 10.3163 4.79999 11.2C4.79999 12.0836 5.51632 12.8 6.39999 12.8Z" fill="#0ACF83"/>
<path d="M4.79999 8.00002C4.79999 7.11636 5.51632 6.40002 6.39999 6.40002H7.99999V9.60002H6.39999C5.51632 9.60002 4.79999 8.88366 4.79999 8.00002Z" fill="#A259FF"/>
<path d="M4.79999 4.79996C4.79999 3.91629 5.51632 3.19995 6.39999 3.19995H7.99999V6.39996H6.39999C5.51632 6.39996 4.79999 5.68359 4.79999 4.79996Z" fill="#F24E1E"/>
<path d="M8 3.19995H9.6C10.4837 3.19995 11.2 3.91629 11.2 4.79996C11.2 5.68359 10.4837 6.39996 9.6 6.39996H8V3.19995Z" fill="#FF7262"/>
<path d="M11.2 8.00002C11.2 8.88366 10.4837 9.60002 9.6 9.60002C8.71633 9.60002 8 8.88366 8 8.00002C8 7.11636 8.71633 6.40002 9.6 6.40002C10.4837 6.40002 11.2 7.11636 11.2 8.00002Z" fill="#1ABCFE"/>
</svg>