<svg width="16" height="15" viewBox="0 0 16 15" fill="none" xmlns="http://www.w3.org/2000/svg">
<path d="M12.5094 6.46712C12.5094 6.46712 7.44055 7.45572 6.4541 12.5352C6.4541 12.5352 5.46765 7.4557 0.398926 6.46712C5.46765 5.47857 6.45412 0.398963 6.4541 0.398926C7.44055 5.47857 12.5094 6.46712 12.5094 6.46712ZM13.7818 3.04427C13.7818 3.04427 13.5513 4.2311 12.3671 4.46208C13.5513 4.69307 13.7818 5.87986 13.7818 5.87986C14.0124 4.69307 15.1966 4.46208 15.1966 4.46208C15.1966 4.46208 14.0124 4.2311 13.7818 3.04427ZM11.5773 9.56398C11.5773 9.56398 11.1439 11.7957 8.91697 12.23C11.1439 12.6644 11.5773 14.896 11.5773 14.896C12.0107 12.6644 14.2375 12.23 14.2375 12.23C14.2375 12.23 12.0107 11.7957 11.5773 9.56398Z" fill="#1A1A1A"/>
</svg>
