<svg width="54" height="64" viewBox="0 0 54 64" fill="none" xmlns="http://www.w3.org/2000/svg">
<path d="M35.8375 50.9742C35.8465 52.5391 35.5482 55.7529 29.0767 57.2084L29.072 57.2327C25.6439 56.7061 25.7769 56.6821 21.8608 57.3558C21.6807 57.3892 21.5006 57.4163 21.3209 57.4414V57.4363C17.03 57.5921 12.4506 53.7143 12.8815 48.2769C12.8815 48.2769 14.9345 51.9313 16.5701 51.4193C18.2103 50.9079 16.5418 48.519 16.5701 46.4558C16.6128 43.4551 17.5467 42.9951 16.5701 40.2649C20.387 43.45 19.083 49.192 21.1925 48.7933C23.3068 48.3954 21.0932 45.0765 23.3401 42.9862C25.5921 40.8954 25.8671 39.6338 26.0991 37.7845C29.3278 40.9096 25.6824 47.6742 27.2893 48.7933C28.8914 49.9112 30.3802 46.0386 30.4421 44.7821C30.4421 44.7821 32.0346 46.982 31.2003 49.6801C30.3661 52.3736 29.8681 52.6898 31.2003 53.0595C32.5282 53.4292 34.8654 52.1173 35.8375 50.9742Z" fill="#FFAF19"/>
<path d="M29.0765 57.2083C35.548 55.7528 35.8464 52.5391 35.8373 50.9742C34.8652 52.1172 32.5281 53.4291 31.2001 53.0594C29.868 52.6897 30.366 52.3735 31.2001 49.68C32.0344 46.9819 30.442 44.7821 30.442 44.7821C30.38 46.0385 28.8913 49.9112 27.2892 48.7932C25.6823 47.6741 29.3277 40.9095 26.099 37.7844C25.867 39.6338 25.592 40.8954 23.34 42.9861C21.0931 45.0764 23.3066 48.3953 21.1924 48.7932C19.0828 49.1919 20.3868 43.4499 16.57 40.2648C17.5466 42.9951 16.6126 43.4551 16.57 46.4557C16.5416 48.519 18.2102 50.9079 16.57 51.4192C14.9344 51.9312 12.8814 48.2769 12.8814 48.2769C12.4505 53.7143 17.0298 57.592 21.3207 57.4362V57.4413C17.3425 57.986 13.7682 56.9379 9.5962 52.714C4.64209 47.7075 9.95683 39.411 8.03634 33.5563C9.35451 34.0877 10.0462 35.5854 10.7102 37.6809C11.3785 39.7805 12.4359 39.6487 12.8723 38.9797C13.3032 38.3068 12.3222 36.4956 12.8723 33.8878C13.417 31.281 15.598 29.8244 15.7828 26.3266C15.9633 22.8277 15.1761 20.4238 14.2469 19.1019C17.3331 21.3159 18.324 22.4199 18.9879 29.1855C19.6471 35.9501 20.7992 37.1787 22.6286 36.9315C24.454 36.6804 25.5162 33.1153 24.4729 29.522C23.4252 25.9277 21.1022 23.102 20.9699 18.2852C20.8412 13.4734 22.6051 10.7149 24.4729 7.96949C23.6104 12.275 23.6673 16.0762 26.6679 19.8834C29.669 23.6906 29.9677 25.326 29.868 29.8013C29.764 34.2715 30.5414 35.8878 31.7979 35.9119C33.0542 35.936 33.2677 33.0912 32.3099 30.9907C31.3473 28.8861 29.9582 21.9839 34.0451 17.6021C33.2438 20.903 33.3667 22.4339 35.2637 26.3266C37.1553 30.2182 37.1935 31.6788 37.0267 34.832C36.8559 37.9793 37.4064 39.5534 38.6581 39.6487C39.9138 39.7422 40.0705 36.7417 39.3452 34.832C38.6149 32.9164 38.8901 29.2036 42.4412 26.3266C41.5783 28.6491 40.9002 29.4025 42.4412 34.1158C43.9862 38.8321 46.6272 45.1847 42.8159 51.2634C39.0037 57.3409 34.1255 58.0048 29.868 57.3557C29.5838 57.3127 29.3182 57.2707 29.0718 57.2326L29.0765 57.2083Z" fill="#FFCD45"/>
<path d="M0.662135 39.5826C0.072768 39.419 -0.258832 40.2407 0.251678 40.5581C0.93296 40.9818 1.67653 41.4159 2.47464 41.5575C3.03427 41.6572 4.02626 41.8974 4.27579 41.1679C4.66585 40.0307 2.55862 40.1111 0.662135 39.5826Z" fill="#FFAF19"/>
<path d="M6.74434 25.0248C6.40219 23.8073 4.13413 21.5099 3.38655 20.8339C2.99025 20.4762 2.31028 20.9363 2.61827 21.4265C3.17117 22.3065 5.04133 24.9384 6.15698 25.4759C6.45945 25.6225 6.84439 25.3814 6.74434 25.0248Z" fill="#FFAF19"/>
<path d="M14.461 11.987C14.1231 11.1683 13.8477 10.4199 13.3219 9.70965C12.789 8.9914 12.3357 8.28521 11.9261 7.4866C11.8056 7.25153 11.4728 7.42231 11.5199 7.65738C12.0446 10.2883 11.4363 9.64436 12.2764 12.5887C12.4609 13.2356 13.1865 13.6706 13.9407 13.2657C14.3355 13.0528 14.6451 12.43 14.461 11.987Z" fill="#FFAF19"/>
<path d="M27.8261 0.477787C27.7065 -0.267585 26.4892 -0.0887756 26.5167 0.654588C26.5928 2.68477 26.1643 2.3362 26.5148 4.24082C26.5677 4.52712 26.9958 4.63762 27.1834 4.41662C27.6543 3.86311 27.927 3.397 27.9765 2.65766C28.0255 1.93037 27.9419 1.19503 27.8261 0.477787Z" fill="#FFAF19"/>
<path d="M42.7108 11.7338C41.3758 12.0603 40.4697 13.1673 39.5877 14.1407C39.1517 14.6219 39.6942 15.2809 40.2607 15.0126C41.4019 14.4752 42.6777 14.1779 43.6109 13.2798C44.294 12.6198 43.5848 11.5208 42.7108 11.7338Z" fill="#FFAF19"/>
<path d="M52.6224 27.308C51.5285 26.9795 50.3029 27.8434 47.5846 27.9288C47.015 27.9459 46.8232 28.8881 47.444 28.9765C49.0452 29.2036 51.8198 29.5532 52.9408 28.0915C53.1588 27.8073 52.9167 27.3964 52.6224 27.308Z" fill="#FFAF19"/>
<path d="M50.5592 42.4886C49.858 42.5852 49.2362 42.5561 48.5692 42.8202C47.9283 43.0745 48.1603 44.0983 50.6757 44.1685C53.0254 44.2329 53.6723 42.0571 50.5592 42.4886Z" fill="#FFAF19"/>
<path d="M42.2103 61.4996C40.601 61.4996 40.598 64 42.2103 64C43.8186 64 43.8216 61.4996 42.2103 61.4996Z" fill="#F0B000"/>
<path d="M3.38889 58.8428C3.27819 58.8788 3.16759 58.9161 3.05689 58.9523C2.44281 59.1543 1.91151 59.7319 1.94245 60.4171C1.97349 61.11 2.39731 61.6645 3.05689 61.8815C3.16759 61.9176 3.27819 61.9541 3.38889 61.9902C4.4064 62.3245 5.45404 61.4346 5.45404 60.4171C5.45404 59.3984 4.40519 58.5093 3.38889 58.8428Z" fill="#F0B000"/>
</svg>
