<svg width="60" height="80" viewBox="0 0 60 80" fill="none" xmlns="http://www.w3.org/2000/svg">
<path d="M12.8988 27.2797C7.51557 25.7423 12.0238 17.5623 15.2992 20.712C14.3032 22.2772 13.5962 23.8714 13.2904 25.2419C13.1284 25.955 13.0305 26.6343 12.9677 27.2858L12.8988 27.2797Z" fill="#F0B000"/>
<path d="M33.4259 16.3934C34.6056 12.9573 41.548 17.654 37.7939 21.5809L37.7541 21.6039C36.7352 19.8187 35.2449 17.9308 33.3909 16.4346L33.4259 16.3934Z" fill="#F0B000"/>
<path d="M15.2988 20.7122C17.4055 17.3957 20.8127 14.2122 24.4228 13.6719C27.865 13.1534 30.9446 14.4479 33.3909 16.4349C35.2449 17.9312 36.7352 19.8191 37.7541 21.6042C38.4853 22.8696 38.9687 24.0855 39.1766 25.0694C39.0268 26.6865 36.6312 27.3609 35.3767 23.8656C33.9602 19.929 30.7669 16.0433 25.7233 16.5726C21.0604 17.067 17.2955 20.9237 16.1219 25.8404C15.4149 28.8161 13.7614 29.0518 12.9504 27.4927C12.9553 27.4238 12.9613 27.3549 12.9674 27.286C13.0302 26.6345 13.1281 25.9553 13.2901 25.2422C13.5959 23.8716 14.3029 22.2774 15.2988 20.7122Z" fill="#1A1A1A"/>
<path d="M12.9505 32.4603C12.9554 33.3813 12.8986 34.2164 12.6569 34.9815C12.5698 35.2462 12.484 35.6487 12.397 36.1611L12.3631 36.1563C8.96688 35.9254 3.93048 31.7581 3.15333 29.203C2.37497 26.6528 3.48209 20.3425 3.71173 18.7725C3.94137 17.2001 4.21209 17.6497 3.15333 16.2042C2.0994 14.7659 0.424243 12.7849 1.38027 12.1008C2.34718 11.4155 4.30398 16.2211 4.78864 16.2042C5.26606 16.1933 4.74753 13.5911 3.71173 11.2137C2.67593 8.83151 2.69164 7.39684 3.3999 7.11523C4.10211 6.82757 4.9784 7.90328 5.15607 11.2137C5.33495 14.5181 6.3647 16.354 7.11285 15.5998C7.85616 14.8456 7.48752 12.9747 7.11285 11.4615C6.73333 9.94101 6.81914 7.29895 8.22357 7.45486C9.62801 7.61077 8.87381 10.9031 8.54627 12.9517C8.21389 15.0064 8.96691 17.3681 10.4004 15.5998C11.8278 13.8328 12.6339 10.3036 13.5899 10.966C14.5508 11.6222 12.5698 14.8747 10.8729 16.5269C9.17355 18.1791 9.61232 17.2122 9.3706 21.5814C9.12283 25.9554 7.11285 28.5407 7.11285 28.5407C9.49627 28.7425 11.4071 29.3408 12.8986 32.4603H12.9505Z" fill="#1A1A1A"/>
<path d="M38.2604 10.0278C39.2744 9.45251 36.4656 3.87948 36.4245 2.15355C36.3846 0.426411 37.8857 0.334572 38.2604 1.50816C38.594 2.55 38.7221 7.56944 40.3791 8.68622C42.0374 9.803 42.2731 6.89624 41.8633 4.9165C41.2711 2.05566 42.4459 2.15355 42.8484 2.64184C43.5917 3.5459 43.4539 5.81331 43.2738 8.36958C43.0901 10.9258 42.9523 13.0844 45.7672 16.8723C48.8347 21.0107 49.7448 25.3279 48.622 27.2799C47.4944 29.2306 43.6376 31.7228 41.2131 33.5877L41.1732 33.6058C40.8916 32.9894 40.6208 32.4601 40.3791 31.9935C39.9936 31.2454 39.7567 30.5371 39.608 29.876C39.8787 29.2596 41.311 26.2888 44.0111 24.7985C44.0111 24.7985 40.3393 19.3996 39.3325 16.2039C38.3245 13.0155 35.7053 13.2162 34.2199 12.7098C30.8007 11.5301 28.4584 9.44645 29.2863 8.68622C30.1154 7.93204 31.7386 10.5511 34.2199 11.3404C35.9869 11.9096 36.1078 10.811 34.6925 9.33648C33.276 7.86316 31.0714 5.11714 32.2172 4.16836C33.3618 3.21717 33.8465 6.05624 35.1929 7.78217C36.5393 9.51535 37.2476 10.6031 38.2604 10.0278Z" fill="#1A1A1A"/>
<path d="M42.6819 45.424C42.4922 46.7825 42.1815 48.2498 41.7259 49.8392C41.3923 50.9958 40.9258 52.0317 40.3456 52.9526C36.0393 59.7403 25.5906 60.1138 18.5866 56.0153C17.7345 55.5149 16.9851 54.9106 16.3349 54.2193C14.9135 52.723 13.9345 50.8399 13.2903 48.8372H13.2843C11.7421 44.1223 11.9838 38.7343 12.3972 36.1611C12.4842 35.6486 12.57 35.2461 12.657 34.9815C12.8988 34.2164 12.9555 33.3812 12.9507 32.4602C12.9446 31.0328 12.7839 29.3976 12.9507 27.4928C13.7617 29.0519 15.4151 28.8162 16.1222 25.8405C17.2958 20.9238 21.0606 17.0671 25.7236 16.5727C30.7672 16.0434 33.9604 19.9291 35.3769 23.8656C36.6315 27.361 39.027 26.6866 39.1769 25.0694C39.1938 25.1262 39.2047 25.1843 39.2168 25.2423C39.4645 26.5428 39.1938 28.0572 39.6083 29.8762C39.757 30.5373 39.9939 31.2456 40.3794 31.9937C40.6212 32.4602 40.8919 32.9896 41.1735 33.606C42.2964 36.0813 43.482 39.8341 42.6819 45.424Z" fill="#F0B000"/>
<path d="M47.5465 50.489C43.8843 53.0453 40.3454 52.9522 40.3454 52.9522C40.9256 52.0312 41.3921 50.9954 41.7257 49.8388C42.1813 48.2494 42.492 46.7821 42.6817 45.4236C47.2455 40.7776 55.5646 39.6028 58.5124 45.6653C62.1214 53.0682 47.1718 60.1134 45.273 61.0404C43.367 61.9662 44.201 64.5116 45.7903 67.0678C47.3845 69.6229 48.8808 73.1461 47.5513 74.1299C46.2218 75.1149 45.3589 67.5972 44.0463 68.0916C42.7398 68.5811 44.8803 77.8948 43.4819 78.3722C42.0835 78.8508 42.4629 68.5001 41.1395 68.5641C39.8148 68.627 38.9289 78.4641 36.9431 77.7461C34.9513 77.0318 39.827 67.1307 38.8939 65.7492C37.962 64.3678 34.0884 72.6215 32.5159 71.6377C30.9447 70.6587 36.0729 66.1058 36.4246 64.0511C36.7703 61.9952 38.1687 58.5022 42.446 55.8191C46.5904 53.2229 47.4945 50.6498 47.5465 50.489Z" fill="#1A1A1A"/>
<path d="M24.8085 71.0567C25.7356 74.4408 26.8693 76.4339 25.7525 76.7034C24.6357 76.9681 24.423 70.653 23.0935 71.0567C21.7688 71.4591 23.8585 79.1726 21.9598 79.2427C20.0525 79.3056 22.1604 69.4274 20.4514 70.0777C18.7412 70.7279 17.5785 79.7093 15.6906 78.6952C13.8027 77.6824 19.6162 69.8988 18.4535 69.5543C17.2848 69.2087 12.2315 76.2538 11.3673 74.517C10.5092 72.7778 18.1598 68.7881 17.8951 66.9231C17.6304 65.0582 0.545189 64.0853 0.00976407 55.8194C-0.415675 49.2118 13.2032 48.8661 13.2032 48.8661L13.2842 48.8371H13.2902C13.9344 50.8398 14.9134 52.7229 16.3348 54.2192L16.3179 54.2313C16.3179 54.2313 15.3389 55.7795 11.9898 57.7943C11.9898 57.7943 22.1604 58.5195 24.3081 62.7957C26.4547 67.0791 23.8815 67.6664 24.8085 71.0567Z" fill="#1A1A1A"/>
<path d="M22.5701 34.3394C22.4191 34.3394 22.2692 34.2765 22.1628 34.1544C21.9646 33.9296 21.9851 33.5852 22.2112 33.387C24.8702 31.0398 28.8611 30.4185 32.3758 31.8036C32.655 31.9148 32.7928 32.2303 32.6828 32.5095C32.5728 32.7887 32.2585 32.9265 31.9781 32.8165C28.8381 31.5801 25.2871 32.1239 22.9291 34.2028C22.8263 34.2934 22.6983 34.3394 22.5701 34.3394Z" fill="#1A1A1A"/>
<path d="M24.9309 29.5038C24.729 29.5038 24.5332 29.3902 24.4401 29.1968C24.3096 28.9248 24.4233 28.6009 24.6928 28.4704C26.3788 27.6558 28.083 27.3984 29.7581 27.7041C30.0542 27.7573 30.2501 28.0413 30.1957 28.3363C30.1425 28.6324 29.8609 28.8269 29.5636 28.7738C28.1192 28.5103 26.6399 28.7375 25.1666 29.4494C25.0904 29.4857 25.0094 29.5038 24.9309 29.5038Z" fill="#1A1A1A"/>
<path d="M12.6146 23.2611C12.5155 23.2611 12.4152 23.2248 12.3367 23.1511C11.794 22.6459 11.3383 22.0839 11.0156 21.5279C10.9032 21.3333 10.9697 21.0832 11.1643 20.9708C11.3589 20.8596 11.609 20.9236 11.7214 21.1194C12.0042 21.6065 12.4092 22.1032 12.8938 22.5553C13.0582 22.7088 13.0666 22.9662 12.9131 23.1318C12.8334 23.2176 12.7246 23.2611 12.6146 23.2611Z" fill="#1A1A1A" fill-opacity="0.8"/>
<path d="M19.1087 41.0342C18.9008 39.9283 18.5648 39.1015 18.5648 38.0814C18.5636 35.8104 15.7245 35.3173 14.5425 36.9912C13.8197 38.0138 13.2855 39.0532 13.2214 40.4528C13.1525 41.9696 13.648 43.2254 14.5896 44.3905C15.2302 45.1834 16.3385 45.2378 17.245 45.0915C19.1256 44.7906 19.3915 42.5365 19.1087 41.0342Z" fill="#1A1A1A"/>
<path d="M18.2409 48.9239C18.3944 49.1173 18.3678 49.0798 18.1588 48.8127C18.137 48.7873 18.1067 48.7777 18.0826 48.7559C17.8457 48.2193 17.002 48.0525 16.6068 48.5093C15.9699 49.243 16.1234 50.4915 17.1809 50.7477C17.6342 50.8565 18.1829 50.6788 18.4113 50.2462C18.6555 49.7845 18.56 49.3179 18.2409 48.9239Z" fill="#1A1A1A"/>
<path d="M20.443 53.3333C20.4382 53.3103 20.4322 53.2861 20.4273 53.2632C20.3427 52.851 19.9016 52.5573 19.4991 52.5561C19.3057 52.5549 19.1124 52.5948 18.9214 52.6238C18.4331 52.6987 18.2892 53.3236 18.4875 53.6947C18.543 53.8022 18.5938 53.9086 18.6676 54.004C19.006 54.45 19.4628 54.5939 19.985 54.3509C20.0031 54.3425 20.0212 54.334 20.0394 54.3256C20.4032 54.1551 20.5168 53.6898 20.443 53.3333Z" fill="#1A1A1A"/>
<path d="M21.9091 47.3554C21.8136 46.7789 21.5392 46.0742 21.1114 45.6573C20.6968 45.2487 20.0019 45.2403 19.5861 45.6573C19.0132 46.2302 18.8416 47.1814 18.9709 47.9573C19.1099 48.7864 19.3565 49.4681 20.0829 49.9551C20.8298 50.4567 21.6891 49.908 21.9647 49.1889C22.2004 48.5761 21.9985 47.8968 21.9091 47.3554Z" fill="#1A1A1A"/>
<path d="M36.4222 17.9467C36.3533 17.9467 36.2819 17.9285 36.2167 17.8911C36.0221 17.7775 35.958 17.5272 36.0704 17.3327C36.3412 16.8722 36.6869 16.425 37.1619 15.9258C37.3166 15.7614 37.5752 15.7554 37.7371 15.9101C37.9015 16.0648 37.9087 16.3235 37.7528 16.4866C37.3238 16.9399 37.0132 17.3399 36.7739 17.7448C36.6989 17.8741 36.5636 17.9467 36.4222 17.9467Z" fill="#1A1A1A" fill-opacity="0.8"/>
<path d="M40.1679 41.8259C39.9794 41.4367 39.7195 41.0899 39.4391 40.7623C38.9533 40.1955 37.8546 40.6366 37.9199 41.392C37.9441 41.6773 37.9332 42 37.9126 42.1861C37.8655 42.5958 37.9054 42.9838 37.8849 43.3948C37.851 44.0655 38.4807 44.6372 39.1285 44.6372C39.8622 44.6372 40.2949 44.0643 40.3698 43.3948C40.4314 42.8485 40.4133 42.3299 40.1679 41.8259Z" fill="#F0EEE9"/>
<path d="M38.6838 47.1595C38.1508 47.0386 37.5634 47.3202 37.4232 47.8762C37.3241 48.2641 37.2021 48.6279 37.3205 49.0304C37.5163 49.6964 38.4941 50.0783 38.992 49.4716C39.16 49.2685 39.2785 49.0981 39.3353 48.837C39.3643 48.7005 39.3788 48.559 39.3994 48.4213C39.4827 47.8931 39.2652 47.2924 38.6838 47.1595Z" fill="#F0EEE9"/>
<path d="M36.0971 44.4762C35.4396 44.4762 35.2365 45.3428 35.7696 45.6836C35.8106 45.709 35.8517 45.7356 35.8928 45.7609C36.0101 45.8359 36.1829 45.8359 36.3013 45.7609C36.3412 45.7356 36.3823 45.709 36.4234 45.6836C36.9552 45.344 36.7546 44.4762 36.0971 44.4762Z" fill="#F0EEE9"/>
<path d="M36.2144 52.7509C36.1927 52.3001 35.8434 51.9145 35.3769 51.9145C34.9067 51.9145 34.5611 52.2989 34.5405 52.7509C34.5139 53.3298 34.4946 53.8786 35.0288 54.2424C35.2186 54.3717 35.5352 54.3717 35.725 54.2424C36.2604 53.8798 36.2398 53.3298 36.2144 52.7509Z" fill="#F0EEE9"/>
<path d="M33.7574 24.0817C33.6111 23.423 33.0842 23.0169 32.4533 22.9613C32.4303 22.9456 32.4061 22.9299 32.3819 22.913C32.0798 22.7099 31.6894 22.9239 31.589 23.2357C31.5842 23.2478 31.5818 23.2598 31.577 23.2731C31.3824 23.4472 31.2301 23.6418 31.1576 23.9282C31.05 24.3597 31.1394 24.7151 31.3292 25.1054C31.6156 25.7013 32.423 25.8874 32.9886 25.6493C33.6135 25.3858 33.9036 24.7368 33.7574 24.0817Z" fill="#F0EEE9"/>
<path d="M35.1072 28.0027C35.0576 27.9483 35.0093 27.8939 34.9609 27.8395C34.6721 27.5156 34.0666 27.5156 33.7777 27.8395C33.7293 27.8939 33.681 27.9483 33.6326 28.0027C33.3462 28.323 33.1951 28.879 33.4695 29.2645C33.6121 29.4652 33.7644 29.6066 33.9566 29.7528C34.1632 29.9087 34.5754 29.9087 34.7821 29.7528C34.9767 29.6054 35.1265 29.4652 35.2691 29.2645C35.5471 28.8766 35.3961 28.3266 35.1072 28.0027Z" fill="#F0EEE9"/>
<path d="M2.06696 11.8214C2.04763 11.7912 2.02829 11.7622 2.01137 11.732C1.72009 11.2654 1.05777 11.0407 0.570689 11.3549C0.102948 11.6559 -0.118246 12.294 0.193581 12.7944C0.211711 12.8246 0.229836 12.8536 0.249174 12.8838C0.539246 13.3503 1.2016 13.5752 1.68868 13.2609C2.15642 12.96 2.37758 12.3206 2.06696 11.8214Z" fill="#F0EEE9"/>
<path d="M4.83095 7.2298C4.79107 6.75844 4.6061 6.34752 4.18308 6.09975C3.81928 5.88703 3.39748 5.87252 3.01676 6.03327C2.21664 6.37048 1.89155 7.53319 2.59498 8.15564C2.61794 8.17618 2.64088 8.19673 2.66385 8.21728C3.05424 8.56295 3.56189 8.68864 4.05502 8.47954C4.48892 8.29825 4.88051 7.81602 4.83821 7.31685C4.83579 7.28784 4.83337 7.25881 4.83095 7.2298Z" fill="#F0EEE9"/>
<path d="M9.36926 7.35684C9.31003 6.91207 9.05502 6.64616 8.71177 6.3851C8.41082 6.15546 7.80166 6.15546 7.50071 6.3851C7.15625 6.64737 6.90486 6.89998 6.84322 7.35684C6.79729 7.69889 6.83836 8.07599 7.05591 8.35881C7.32544 8.71173 7.6349 8.96191 8.10627 8.96191C8.57643 8.96191 8.88701 8.71173 9.15774 8.35881C9.37288 8.07719 9.41518 7.69889 9.36926 7.35684Z" fill="#F0EEE9"/>
<path d="M14.0239 10.7543C13.7991 10.5295 13.3675 10.5017 13.1464 10.7543C12.9143 11.0215 12.8612 11.2656 12.9083 11.6137C12.953 11.946 13.3796 12.1273 13.6721 12.0464C13.9537 11.9702 14.0831 11.749 14.1072 11.4976C14.2378 11.2571 14.2317 10.9634 14.0239 10.7543Z" fill="#F0EEE9"/>
<path d="M30.4963 8.70555C30.4939 8.685 30.4903 8.66445 30.4867 8.64391C30.3996 8.07948 29.7675 7.72171 29.249 7.70117C29.2212 7.69996 29.1934 7.69875 29.1656 7.69875C28.6689 7.6782 28.2048 8.0299 28.0186 8.46984C27.8398 8.89528 27.8941 9.5262 28.2785 9.84044L28.3413 9.89362C28.8369 10.2985 29.3215 10.342 29.8968 10.0943C29.9113 10.0882 29.9246 10.0822 29.9391 10.0761C30.4661 9.8489 30.5737 9.19384 30.4963 8.70555Z" fill="#F0EEE9"/>
<path d="M33.2967 3.90846C33.1239 3.67761 32.9728 3.50841 32.731 3.34525C32.0095 2.85938 30.8975 3.49511 30.9556 4.36412C30.9761 4.66628 31.0486 4.88021 31.1658 5.15578C31.277 5.41926 31.6408 5.6501 31.9031 5.72262C32.198 5.8036 32.592 5.76613 32.8543 5.59813C33.3631 5.26938 33.7113 4.46081 33.2967 3.90846Z" fill="#F0EEE9"/>
<path d="M38.107 0.786661C37.8616 0.152128 37.1727 -0.224971 36.5346 0.147288C35.946 0.491749 35.8263 1.34262 36.317 1.82849C36.3557 1.86958 36.3968 1.90586 36.4415 1.93849C36.7703 2.20197 37.1401 2.32163 37.5498 2.14879C37.9172 1.99409 38.1783 1.62664 38.1747 1.22054C38.1735 1.07671 38.159 0.922028 38.107 0.786661Z" fill="#F0EEE9"/>
<path d="M43.1228 2.27338C43.0587 2.16097 42.9681 2.05947 42.8907 1.95794C42.5523 1.51075 42.0169 1.51075 41.6784 1.95794C41.6011 2.05947 41.5105 2.16097 41.4464 2.27338C41.3147 2.5006 41.3123 2.73872 41.3123 2.99012C41.3123 3.49775 41.7595 3.98483 42.284 3.96187C42.811 3.93769 43.2557 3.534 43.2557 2.99012C43.2557 2.73872 43.2545 2.5006 43.1228 2.27338Z" fill="#F0EEE9"/>
<path d="M12.3646 73.8873C12.1398 73.5017 11.591 73.3349 11.2019 73.5827C11.0278 73.6939 10.9287 73.8051 10.8042 73.967C10.7957 73.9803 10.7958 73.9815 10.7933 73.9864C10.7668 74.0154 10.7389 74.0432 10.7087 74.0685C10.4283 74.3151 10.5069 74.8288 10.8296 75.0004C11.2272 75.2107 11.6478 75.2808 12.0588 75.05C12.4588 74.8264 12.5942 74.2776 12.3646 73.8873Z" fill="#F0EEE9"/>
<path d="M15.9288 77.5483C15.003 77.3368 14.418 78.3979 15.0272 79.0977L15.0562 79.1304C15.2484 79.3516 15.6097 79.4301 15.8841 79.3491C15.8986 79.3455 15.9143 79.3407 15.9288 79.3358C16.7737 79.0857 16.8474 77.7562 15.9288 77.5483Z" fill="#F0EEE9"/>
<path d="M21.9934 77.7476C21.626 77.7621 21.2743 77.9446 21.0846 78.2673C20.861 78.6504 20.9033 79.2366 21.2501 79.5436C21.1994 79.4614 21.1945 79.4505 21.2356 79.5122C21.2622 79.5497 21.2912 79.5871 21.3178 79.6246C21.6743 80.125 22.3125 80.125 22.6691 79.6246C22.6969 79.5871 22.7235 79.5497 22.7513 79.5122C22.7924 79.4505 22.7875 79.4614 22.7367 79.5436C23.416 78.9417 22.8818 77.7065 21.9934 77.7476Z" fill="#F0EEE9"/>
<path d="M26.9188 76.4652C26.9079 76.4 26.8982 76.3347 26.8886 76.2694C26.8112 75.7836 26.1791 75.4717 25.7367 75.6143C25.2847 75.7606 24.9028 76.2743 25.0816 76.7662C25.1046 76.829 25.1276 76.8919 25.1493 76.9523C25.3125 77.4031 25.7802 77.7548 26.2782 77.5941C26.7955 77.4261 26.9986 76.9753 26.9188 76.4652Z" fill="#F0EEE9"/>
<path d="M33.5604 71.3698C33.332 70.8271 32.8014 70.6289 32.243 70.7244C32.2067 70.7304 32.1693 70.7365 32.1318 70.7437C31.4538 70.8585 31.1589 71.707 31.397 72.2726C31.6689 72.9144 32.3977 73.1271 33.0045 72.8141C33.0383 72.7972 33.0709 72.7802 33.1036 72.7633C33.5979 72.5083 33.7647 71.8556 33.5604 71.3698Z" fill="#F0EEE9"/>
<path d="M37.0314 76.3202C36.3002 76.3202 35.5992 76.9644 35.633 77.7198C35.6669 78.4776 36.2482 79.1182 37.0314 79.1182C37.7638 79.1182 38.4648 78.4752 38.4322 77.7198C38.3971 76.9608 37.817 76.3202 37.0314 76.3202Z" fill="#F0EEE9"/>
<path d="M43.5084 77.258C42.9464 77.258 42.4098 77.7511 42.4352 78.3313C42.4606 78.9114 42.9065 79.4045 43.5084 79.4045C44.0693 79.4045 44.6071 78.9102 44.5805 78.3313C44.5551 77.7487 44.1091 77.258 43.5084 77.258Z" fill="#F0EEE9"/>
<path d="M48.556 73.3541C48.5427 73.3396 48.527 73.3239 48.5125 73.3094C48.0411 72.8175 47.1794 72.8175 46.7056 73.3094C46.6911 73.3239 46.6778 73.3396 46.6621 73.3541C46.2197 73.8146 46.1895 74.4262 46.453 74.9785C46.7044 75.5067 47.3643 75.8137 47.9324 75.6517C48.2804 75.5526 48.608 75.3097 48.7663 74.9785C49.0298 74.425 48.996 73.8098 48.556 73.3541Z" fill="#F0EEE9"/>
<path d="M41.9264 15.7107C41.7475 15.3554 41.4985 15.0206 41.2882 14.681C41.0284 14.2616 40.499 14.0706 40.0422 14.2725C39.6288 14.4537 39.2771 14.9819 39.4632 15.4509C39.8016 16.2981 40.0881 17.5648 41.061 17.8609C41.5771 18.0168 42.0606 17.6711 42.2286 17.1986C42.4074 16.6946 42.1548 16.1616 41.9264 15.7107Z" fill="#F0EEE9"/>
<path d="M43.1481 19.7513C42.7456 19.7513 42.4459 20.1465 42.5498 20.5369L42.5969 20.7157C42.742 21.2596 43.5542 21.2596 43.6992 20.7157C43.7149 20.6565 43.7306 20.5961 43.7464 20.5369C43.8503 20.1465 43.5517 19.7513 43.1481 19.7513Z" fill="#F0EEE9"/>
<path d="M4.3344 20.5732C3.65273 21.951 3.89207 23.4969 3.97547 24.9762C4.01777 25.7437 5.28201 26.0278 5.40529 25.1696C5.60351 23.8002 6.27912 22.4901 6.26461 21.0965C6.25494 20.1187 4.80456 19.6184 4.3344 20.5732Z" fill="#F0EEE9"/>
<path d="M6.01912 17.246C5.55984 17.2677 5.09447 17.6412 5.12469 18.1416C5.1259 18.1658 5.12832 18.1899 5.12953 18.2129C5.15853 18.677 5.51754 19.1266 6.01912 19.1036C6.52675 19.0807 6.87842 18.7121 6.90984 18.2129C6.91105 18.1899 6.91226 18.1658 6.91468 18.1416C6.94369 17.6726 6.48203 17.2254 6.01912 17.246Z" fill="#F0EEE9"/>
<path d="M5.3027 54.2106C5.31478 54.294 5.18422 53.5036 5.27124 53.9991C5.32925 54.3291 5.29541 54.0692 5.30388 53.9725C5.38365 53.0491 4.48447 52.3747 3.65776 52.3264C2.64855 52.2671 1.61637 52.7603 1.16796 53.6945C0.66517 54.7424 0.545511 55.9788 1.28399 56.8466C1.37343 56.9748 1.47376 57.0981 1.57771 57.2032C2.48056 58.1254 3.98405 57.8583 4.64155 56.8092C4.64638 56.7995 4.65002 56.7899 4.65606 56.7802C4.83857 56.5469 4.97634 56.2786 5.06699 55.9982C5.12017 55.8362 5.148 55.6574 5.16613 55.4797C5.17339 55.4567 5.18184 55.4289 5.19393 55.3914C5.31117 54.995 5.35829 54.6192 5.3027 54.2106Z" fill="#F0EEE9"/>
<path d="M57.56 45.9739C56.9847 44.648 54.6399 44.648 54.0646 45.9739C53.8193 46.5395 53.5292 47.0798 53.5183 47.7143C53.505 48.5132 53.7649 49.1985 54.3341 49.769C55.1294 50.5679 56.4928 50.5691 57.2904 49.769C57.8573 49.1998 58.1208 48.5072 58.1063 47.7143C58.0942 47.075 57.8065 46.5444 57.56 45.9739Z" fill="#F0EEE9"/>
</svg>
