<svg width="48" height="80" viewBox="0 0 48 80" fill="none" xmlns="http://www.w3.org/2000/svg">
<path d="M33.5852 18.1532C36.1722 20.713 35.5385 28.4762 33.6616 32.132C28.5231 34.3053 24.7756 42.3596 23.1668 47.993C21.8146 42.3721 17.5549 31.3529 11.4811 30.8775V30.865C10.0211 26.9295 17.0228 19.129 17.7853 14.4083C20.4635 19.244 17.3172 26.5307 18.6955 26.1184C20.0718 25.7123 24.8206 14.3068 23.2506 8.0975C21.6806 1.88714 30.1382 12.957 29.3883 24.4775C29.3883 24.4775 32.3859 22.0887 33.5852 18.1532Z" fill="#F0B000"/>
<path d="M26.6105 35.8489C26.3727 36.3855 25.5924 36.1586 25.4385 35.6976C24.4937 32.8478 24.1889 29.6716 22.7907 26.9865C21.3317 29.0159 19.9931 31.0277 19.6276 33.5843C19.5595 34.0515 18.8494 34.1976 18.5561 33.864C17.4375 32.595 15.3982 27.5356 13.7182 27.4113C12.1555 27.2942 11.7104 29.0107 11.7156 30.9085C17.6637 31.6461 21.8323 42.4446 23.1667 47.993C24.7755 42.3596 28.523 34.3053 33.6615 32.132C34.2815 30.9241 34.7623 29.2645 35.0388 27.4941C31.8726 26.3059 27.6139 33.5729 26.6105 35.8489Z" fill="white" fill-opacity="0.2"/>
<path d="M33.6613 32.1317C35.3393 31.4221 37.1659 31.3403 39.113 32.1763C48.2755 36.0993 39.7215 60.5388 31.9887 71.8438C24.2558 83.1489 21.7065 82.5025 12.8456 71.1404C3.98471 59.7857 -0.864682 36.0289 8.50104 31.4915C9.53376 30.9912 10.533 30.8068 11.4808 30.8772C17.5546 31.3527 21.8144 42.3718 23.1665 47.9927C24.7753 42.3594 28.5229 34.3051 33.6613 32.1317Z" fill="#FF5D89"/>
<path d="M34.1788 49.2528C33.6278 47.671 32.3909 46.7739 30.7255 46.6527C27.2063 46.3978 24.7691 50.1385 22.9969 52.7242C22.7518 53.0837 22.5109 53.4514 22.2763 53.8275C20.5858 51.6634 18.6795 49.7356 16.4423 49.0135C15.4871 48.7059 14.115 49.2021 13.6678 50.1313C11.3793 54.8862 17.7107 66.7143 21.5683 69.3042C26.1129 72.3549 35.2157 52.2311 34.1788 49.2528Z" fill="white" fill-opacity="0.2"/>
<path d="M10.2428 40.0462C10.3141 37.6221 11.1279 35.1949 9.61022 34.8324C7.47669 34.3237 6.81056 36.8897 6.55395 38.4498C6.26383 40.2088 5.73595 43.4854 7.74065 44.4437C8.3188 44.7192 8.81735 44.6219 9.30544 44.2437C10.4837 43.329 10.203 41.3846 10.2428 40.0462Z" fill="white" fill-opacity="0.2"/>
<path d="M9.41562 51.0767C9.30146 50.8902 9.18834 50.7048 9.07522 50.5183C8.83223 50.1205 8.29281 49.9724 7.88328 50.2096C7.50623 50.4272 7.29466 51.0083 7.57117 51.3875C8.02049 52.0059 8.41117 52.6244 9.11187 52.2193C9.50359 51.9935 9.65129 51.4641 9.41562 51.0767Z" fill="white" fill-opacity="0.2"/>
<path d="M28.7196 41.1216C28.4588 42.7501 30.3902 43.1013 30.9715 42.0602C31.8429 40.498 32.9793 40.3737 33.1302 38.8105C33.2977 37.0681 29.5355 36.0404 28.7196 41.1216Z" fill="white" fill-opacity="0.2"/>
<path d="M1.91305 25.9669C1.4124 25.7048 0.0329926 25.3754 0.000523613 26.3202C-0.0214715 26.979 0.654096 27.4006 1.15684 27.7114C1.74128 28.075 2.21785 28.4759 2.94264 28.3205C3.2181 28.2605 3.37521 27.9932 3.39302 27.7352C3.44853 26.8972 2.58861 26.3191 1.91305 25.9669Z" fill="#F0B000"/>
<path d="M7.30168 15.9986C6.8754 14.5483 6.42399 13.4243 5.38079 12.29C4.34912 11.1701 3.18861 10.4232 1.81654 9.77164C1.41329 9.57999 0.781707 10.0171 1.12211 10.4584C1.93488 11.513 2.72567 12.5707 3.54892 13.617C4.42034 14.7244 5.39022 15.5542 6.40514 16.5145C6.78534 16.8719 7.45355 16.5186 7.30168 15.9986Z" fill="#F0B000"/>
<path d="M16.3682 0.277299C15.8895 -0.350471 14.7144 0.178867 14.9427 0.956846C15.0631 1.36811 15.1668 1.79905 15.1815 2.22896C15.2024 2.79147 15.2391 3.34776 15.4968 3.86365C15.9042 4.67789 17.115 4.59916 17.4313 3.75695C17.8932 2.52731 17.0971 1.23346 16.3682 0.277299Z" fill="#F0B000"/>
<path d="M35.488 1.4612C35.2764 0.79096 34.5767 0.26264 33.9232 0.659399C33.3314 1.01679 33.1753 1.56478 32.991 2.22466C32.8517 2.72398 32.7134 3.22332 32.5741 3.72263C32.4107 4.30793 32.7197 4.9709 33.2801 5.17497C33.8855 5.39562 34.3934 5.02893 34.627 4.47057C34.8155 4.02097 35.002 3.57138 35.1894 3.12179C35.4125 2.58933 35.6828 2.0724 35.488 1.4612Z" fill="#F0B000"/>
<path d="M43.6219 15.6256C43.4606 15.1336 43.0721 14.8973 42.5735 14.8352C42.0729 14.7741 41.6476 14.9284 41.2695 15.2579C41.0349 15.4619 40.838 15.7251 40.6903 15.9954C40.484 16.3746 40.5112 16.906 40.8485 17.2127C41.1648 17.4996 41.7 17.627 42.0791 17.3691C42.1326 17.3328 42.1891 17.3017 42.2446 17.2686C42.1609 17.3204 42.3452 17.2209 42.4133 17.2044C42.5767 17.1629 42.7243 17.1153 42.871 17.0272C42.937 16.9775 43.004 16.9267 43.0689 16.876C43.0815 16.8687 43.0983 16.8573 43.1213 16.8408C43.5089 16.5818 43.7759 16.097 43.6219 15.6256Z" fill="#F0B000"/>
<path d="M47.5183 27.1833C46.406 26.6342 45.4466 27.4982 44.5417 28.0669C43.9185 28.4595 44.0934 29.6736 44.9533 29.5752C45.9085 29.4654 47.4115 29.5649 47.8807 28.5517C48.0965 28.0856 48.0441 27.4423 47.5183 27.1833Z" fill="#F0B000"/>
</svg>
