<svg width="32" height="40" viewBox="0 0 32 40" fill="none" xmlns="http://www.w3.org/2000/svg">
<path d="M24.3468 1.03299C25.6978 0.455338 27.1685 0.388714 28.7362 1.06925C36.1133 4.2628 29.2261 24.1578 23.0001 33.3606C16.7741 42.5635 14.7215 42.0373 7.58723 32.788C0.452966 23.5447 -3.45148 4.20545 4.08925 0.511826C4.92074 0.104515 5.72523 -0.0455856 6.48841 0.0117569C11.3787 0.398827 14.8084 9.36894 15.897 13.9446C17.1923 9.35882 20.2096 2.80222 24.3468 1.03299Z" fill="#CC4A6E"/>
<path d="M24.7634 14.9701C24.3198 13.6824 23.3239 12.9521 21.9831 12.8534C19.1496 12.646 17.1873 15.6911 15.7604 17.796C15.5631 18.0886 15.3691 18.388 15.1802 18.6941C13.8192 16.9324 12.2844 15.3631 10.4831 14.7753C9.714 14.5248 8.60928 14.9288 8.2492 15.6852C6.4066 19.5559 11.5043 29.1846 14.6102 31.2929C18.2692 33.7764 25.5983 17.3945 24.7634 14.9701Z" fill="#F55984"/>
<path d="M5.49171 7.47568C5.54905 5.50238 6.20429 3.52653 4.98236 3.23138C3.26457 2.81732 2.72824 4.90617 2.52163 6.17617C2.28804 7.60809 1.86303 10.2754 3.47709 11.0555C3.94259 11.2798 4.34399 11.2005 4.73697 10.8927C5.68567 10.1481 5.45966 8.56522 5.49171 7.47568Z" fill="#FFA8C0"/>
<path d="M20.368 8.35112C20.158 9.67677 21.7131 9.96266 22.1811 9.11515C22.8827 7.84346 23.7977 7.74228 23.9191 6.46975C24.054 5.05133 21.0249 4.21476 20.368 8.35112Z" fill="#FFA8C0"/>
</svg>
