<svg width="25" height="80" viewBox="0 0 25 80" fill="none" xmlns="http://www.w3.org/2000/svg">
<path d="M21.7497 36.3316C22.0508 45.1519 22.7103 62.3361 22.4178 69.6728C22.2304 74.4297 19.0398 78.0958 14.4053 78.2989C9.76643 78.5019 7.10686 75.6516 6.35715 72.2543C5.29159 67.4361 4.54882 53.3753 4.15054 42.5192C3.75225 31.6693 3.24463 8.00552 3.24463 8.00552V8.00214C6.13501 8.71297 10.3834 8.6807 13.5809 8.50993C16.0175 8.377 18.5443 8.17065 20.547 7.75571C20.6564 9.58678 21.4486 27.5137 21.7497 36.3316Z" fill="#F0EEE9"/>
<path d="M11.7032 1.41447C17.3252 1.2817 22.1758 4.0697 22.0074 5.10828C21.8356 6.1505 16.4314 6.76068 12.1987 6.89318C7.96594 7.02942 2.49929 6.88095 2.29277 5.33909C2.17563 4.48013 7.23619 1.51946 11.7032 1.41447Z" fill="#F0EEE8"/>
<path d="M22.0465 7.46319C22.2261 13.1797 24.3546 63.4375 24.2062 69.7752C24.0535 76.1123 19.419 79.7282 14.7055 79.9858C9.99294 80.2434 6.00576 76.9366 5.24477 74.145C4.47944 71.3526 3.46333 61.2854 3.07373 52.2587C2.68672 43.2306 1.46062 11.8635 1.62462 7.46319L1.62897 7.45104C2.0932 7.67405 2.63986 7.85366 3.24467 8.00213V8.00552C3.24467 8.00552 3.75229 31.6693 4.15057 42.5192C4.54886 53.3753 5.29162 67.4361 6.35719 72.2543C7.1069 75.6516 9.76647 78.5019 14.4053 78.2989C19.0398 78.0958 22.2304 74.4297 22.4179 69.6728C22.7103 62.3361 22.0508 45.1519 21.7497 36.3316C21.4486 27.5137 20.6564 9.58677 20.5471 7.7557C21.0781 7.64289 21.5736 7.5215 22.0196 7.38084L22.0465 7.46319Z" fill="#1A1A1A"/>
<path d="M22.0074 5.10833C22.1757 4.06975 17.3252 1.28176 11.7032 1.41452C7.23616 1.51951 2.1756 4.48018 2.29274 5.33914C2.49926 6.881 7.96591 7.02947 12.1987 6.89323C16.4314 6.76073 21.8356 6.15055 22.0074 5.10833ZM10.9144 0.067811C18.048 -0.510092 24.5568 2.72305 24.444 5.38626C24.4049 6.28409 23.4678 6.92031 22.0195 7.38098C21.5735 7.52164 21.0781 7.64303 20.547 7.75584C18.5443 8.17078 16.0175 8.37713 13.5809 8.51006C10.3834 8.68083 6.13501 8.7131 3.24463 8.00227C2.63983 7.8538 2.09316 7.67418 1.62893 7.45118C0.723027 7.02608 0.129508 6.45599 0.015836 5.69838C-0.300015 3.59754 4.13578 0.617948 10.9144 0.067811Z" fill="#1A1A1A" fill-opacity="0.8"/>
<path d="M12.8062 24.3142C11.5115 22.0853 10.6464 12.1038 14.9139 11.6299C19.1822 11.1564 14.4418 22.3283 12.8062 24.3142Z" fill="#FF5D89"/>
<path d="M12.446 28.2295C12.1128 25.2558 9.32567 17.8324 7.03055 19.2129C4.73542 20.5935 7.84186 28.1932 12.446 28.6538V28.2295Z" fill="#FF5D89"/>
<path d="M12.4458 28.6538C14.7713 28.5464 20.1729 24.0244 18.7212 22.4089C17.2677 20.7915 13.8576 23.5766 12.4458 28.0553V28.6538Z" fill="#FF5D89"/>
<path d="M11.9575 34.1473C11.7658 32.726 8.27664 27.5014 6.431 28.9287C4.58448 30.3581 8.2619 34.2099 11.9575 34.3818V34.1473Z" fill="#FF5D89"/>
<path d="M11.9573 34.3818C14.8494 34.9665 21.0545 30.5679 19.7164 28.3457C18.3775 26.1246 12.9595 30.0822 11.9573 34.0838V34.3818Z" fill="#FF5D89"/>
<path d="M11.6197 39.8815C11.1025 38.3525 7.54402 35.7188 6.62076 37.28C5.69751 38.8426 8.48549 40.9027 11.6197 40.1756V39.8815Z" fill="#FF5D89"/>
<path d="M11.7874 40.1657C14.4035 40.6657 19.045 38.1659 17.5056 36.2203C15.9672 34.2741 12.5223 37.2105 11.7874 39.8241V40.1657Z" fill="#FF5D89"/>
<path d="M11.9573 48.9106C15.3345 48.9106 21.8155 42.4895 19.903 40.3264C17.9906 38.1621 12.3911 44.1321 11.9573 48.2809V48.9106Z" fill="#FF5D89"/>
<path d="M12.366 56.6581C14.5588 57.0374 20.986 50.9433 18.6631 49.1902C16.3385 47.4368 12.1777 53.4621 12.366 56.3411V56.6581Z" fill="#FF5D89"/>
<path d="M11.9573 48.1822C11.0306 46.3349 7.22826 41.2828 5.55529 43.9649C3.88319 46.6471 9.35678 49.154 11.9573 48.5638V48.1822Z" fill="#FF5D89"/>
<path d="M12.2091 56.0505C11.8976 54.6387 9.71613 51.0878 8.2679 52.643C6.81881 54.1978 10.1092 57.0033 12.3592 56.5606L12.2091 56.0505Z" fill="#FF5D89"/>
<path d="M12.8721 63.4207C16.579 63.2448 22.2053 57.4812 20.0837 55.7806C17.9613 54.0798 13.3189 59.4508 12.8721 62.9176V63.4207Z" fill="#FF5D89"/>
<path d="M12.8721 63.1277C11.9116 61.4306 8.1951 57.26 6.66357 59.2239C5.13377 61.1875 9.66155 64.1995 12.8721 63.5304V63.1277Z" fill="#FF5D89"/>
<path d="M13.7432 70.4175C16.0167 70.2907 19.0537 66.9751 17.8345 65.9877C16.6154 65.0003 13.5601 67.8984 13.7432 70.4175Z" fill="#FF5D89"/>
<path d="M13.7362 70.5737C13.0628 68.4302 9.9338 64.4447 8.3207 66.169C6.70587 67.8939 10.8458 70.5737 13.7362 70.5737Z" fill="#FF5D89"/>
<path d="M14.1587 75.5759C14.1006 75.2706 8.44911 44.6555 13.5331 16.2566C13.6251 15.7438 14.393 15.8878 14.3028 16.3939C9.24396 44.6494 14.8685 75.1271 14.9258 75.4319C14.9657 75.6437 14.826 75.8485 14.6143 75.8885C14.4026 75.9274 14.1978 75.7884 14.1587 75.5759Z" fill="#D13B6A"/>
<path d="M12.1736 28.8155C9.61726 26.4336 8.19159 23.6301 8.13172 23.5112C7.9009 23.0512 8.59682 22.698 8.82937 23.1607C8.84325 23.1874 10.1544 25.7628 12.4417 27.9911C16.8515 23.8165 16.6623 23.3071 17.1448 23.7237C17.307 23.8643 17.3261 24.1115 17.1847 24.2748C15.5915 26.1194 12.735 28.7876 12.7063 28.8155C12.5588 28.9527 12.3263 28.9567 12.1736 28.8155Z" fill="#D13B6A"/>
<path d="M11.8056 34.5884C9.3786 33.2278 7.37676 30.9881 7.29259 30.8935C6.94984 30.5084 7.53208 29.9895 7.87657 30.3745C7.89566 30.3972 9.75172 32.4719 11.9653 33.7786C12.7367 33.1834 15.4986 31.0281 17.018 29.4966C17.3825 29.1302 17.9369 29.6796 17.5725 30.0467C15.7633 31.8697 12.3757 34.4494 12.2325 34.5589C12.111 34.6501 11.9427 34.6656 11.8056 34.5884Z" fill="#D13B6A"/>
<path d="M7.89908 38.5521C7.71165 38.4464 7.64484 38.2085 7.75157 38.0204C8.11515 37.3773 8.80671 38.461 11.7526 39.5032C12.2629 39.2237 13.9558 38.2823 15.0569 37.5187C15.4812 37.2238 15.9255 37.8658 15.5021 38.16C14.1632 39.0873 12.0633 40.2242 11.9739 40.272C11.5305 40.5114 8.33988 38.8003 7.89908 38.5521Z" fill="#D13B6A"/>
<path d="M11.7614 48.8304C9.24239 47.4492 6.53596 45.4056 6.50907 45.3839C6.33639 45.2544 6.30255 45.0096 6.43357 44.8371C6.90388 44.2132 7.42538 45.4957 11.8898 48.0088C12.617 47.3247 15.083 44.9768 16.3473 43.4237C16.6727 43.0245 17.2792 43.5166 16.953 43.9173C15.4319 45.7845 12.3454 48.6535 12.2143 48.7741C12.0903 48.8887 11.908 48.911 11.7614 48.8304Z" fill="#D13B6A"/>
<path d="M12.0564 56.6579C10.9952 55.98 9.73876 54.5597 9.68497 54.4998C9.54266 54.3384 9.55827 54.0903 9.71967 53.9479C10.2368 53.4957 10.5084 54.5604 12.2092 55.8153C12.7046 55.2719 13.8943 53.9401 14.5928 52.9178C14.8843 52.4901 15.5282 52.9317 15.2375 53.3578C14.3099 54.7167 12.6222 56.5199 12.5511 56.5962C12.4209 56.7351 12.2118 56.7586 12.0564 56.6579Z" fill="#D13B6A"/>
<path d="M7.59358 60.492C7.19963 60.1599 7.70378 59.563 8.09773 59.8969C8.12116 59.9152 10.339 61.7764 12.7947 62.7224C13.5019 62.0584 16.1814 59.5057 17.706 57.5021C18.0201 57.0907 18.6397 57.5645 18.3273 57.975C16.5268 60.3402 13.2867 63.3331 13.1496 63.459C12.622 63.9457 9.00363 61.6872 7.59358 60.492Z" fill="#D13B6A"/>
</svg>
