<svg width="16" height="40" viewBox="0 0 16 40" fill="none" xmlns="http://www.w3.org/2000/svg">
<path d="M10.4671 0C10.4671 0 -0.482765 17.5358 0.0165735 17.8421C0.515912 18.1478 7.07271 16.0345 7.07271 16.0345C7.07271 16.0345 1.35398 27.8865 1.93492 28.3321C2.51587 28.7797 9.06424 25.5874 9.06424 25.5874C9.06424 25.5874 4.12461 39.7923 4.37525 39.9983C4.6246 40.2036 15.6528 22.1626 15.6703 21.3776C15.6891 20.5927 9.54545 22.0642 9.54545 22.0642C9.54545 22.0642 13.149 11.5385 13.0357 11.0152C12.9217 10.4926 6.87778 11.9764 6.87778 11.9764C6.87778 11.9764 10.3375 0.454651 10.4671 0Z" fill="#F0B000"/>
</svg>
