<svg width="83" height="64" viewBox="0 0 83 64" fill="none" xmlns="http://www.w3.org/2000/svg">
<path d="M55.8545 60.2284C57.4632 60.2444 58.515 60.2572 58.7166 60.2701C59.3063 60.3091 59.1956 62.729 59.0708 63.2837C58.9411 63.8447 59.0528 64.0033 58.2884 64.0002C57.526 63.9983 29.0775 63.5125 28.6314 63.4794C28.1863 63.4455 27.7333 63.4627 27.6944 63.0272C27.6515 62.5934 27.6165 61.5873 27.6435 61.0836C27.6664 60.5796 27.857 60.1446 28.5426 60.0994C28.6234 60.0927 29.0955 60.0935 29.8638 60.0916C34.4233 60.0935 49.4779 60.1652 55.8545 60.2284Z" fill="#FF5D89"/>
<path d="M30.2865 47.6054C33.5397 50.0317 37.6132 51.5695 42.496 51.5402C42.6257 51.5413 42.7565 51.5374 42.8862 51.5343L42.8942 51.9834C37.8287 52.057 32.8701 52.0972 31.4641 52.0711C31.1896 52.0652 30.9372 52.0582 30.7086 52.0454C28.4464 51.9484 28.4813 51.5791 28.4114 51.1133C28.3346 50.6031 28.167 49.3639 28.3416 48.4735C28.5082 47.6343 29.5401 47.5805 30.2865 47.6054Z" fill="#FF5D89"/>
<path d="M42.8865 51.5343C48.1714 51.4353 52.2669 49.9996 55.4053 47.7025L55.4512 47.7633C55.4512 47.7633 56.9641 47.7243 57.1287 48.0116C57.2984 48.3001 57.2694 49.7642 57.1966 50.5894C57.1387 51.2907 57.1427 51.4486 55.553 51.6611C55.4372 51.677 55.2167 51.6918 54.9173 51.709C53.0472 51.8108 47.9189 51.9144 42.8944 51.9834L42.8865 51.5343Z" fill="#FF5D89"/>
<path d="M54.9184 51.7359C54.8096 52.7669 55.1829 58.0987 55.8545 60.2283C49.4778 60.1651 34.4233 60.0934 29.8638 60.0915L29.8628 60.0646C30.5334 57.7015 30.8238 53.3407 30.709 52.0454C30.9375 52.0582 31.19 52.0652 31.4645 52.0711C32.8705 52.0972 37.8291 52.057 42.8945 51.9834C47.919 51.9144 53.0474 51.8107 54.9174 51.709L54.9184 51.7359Z" fill="#D13B6A"/>
<path d="M30.2867 47.6056C23.7484 42.7318 20.5401 34.2675 20.8165 27.7023C21.2336 17.8658 30.7807 6.61543 45.2495 8.14005C56.8841 9.36359 65.4722 20.0901 64.1709 30.6142C63.3556 37.2152 60.8179 43.7379 55.4052 47.7027C52.2668 49.9998 48.1714 51.4355 42.8864 51.5345C42.7567 51.5376 42.6259 51.5415 42.4962 51.5404C37.6134 51.5696 33.5399 50.0318 30.2867 47.6056Z" fill="#9FA3CC"/>
<path d="M42.6229 8.00116C29.6351 8.00116 21.2077 18.4746 20.8165 27.7022C20.5401 34.2674 23.7484 42.7317 30.2867 47.6055C33.509 50.0087 37.5386 51.5403 42.3605 51.5403C42.4054 51.5403 42.4503 51.5403 42.4962 51.5403C42.5132 51.5403 42.5291 51.5403 42.5461 51.5403C42.6599 51.5403 42.7736 51.5375 42.8864 51.5344C48.1714 51.4354 52.2668 49.9997 55.4052 47.7026C60.8179 43.7378 63.3556 37.2151 64.1709 30.6141C65.4722 20.09 56.8841 9.36351 45.2495 8.13997C44.3553 8.04716 43.4792 8.00116 42.6229 8.00116ZM42.6229 9.34754C43.4392 9.34754 44.2755 9.39235 45.1088 9.48006C50.4097 10.0379 55.3952 12.8052 58.7872 17.0744C61.9226 21.0181 63.3975 25.8919 62.8337 30.4484C62.205 35.5358 60.2691 42.4701 54.6089 46.6146C51.4894 48.8989 47.5367 50.1003 42.8505 50.1872C42.7487 50.1903 42.6479 50.1931 42.5461 50.1931L42.4882 50.1923L42.3605 50.1931C38.1463 50.1931 34.3552 48.9597 31.0921 46.525C24.6166 41.6979 21.9242 33.4141 22.1627 27.7591C22.3463 23.4169 24.5088 18.7766 27.9476 15.3452C31.8225 11.4783 37.0346 9.34754 42.6229 9.34754Z" fill="#6C6EA8"/>
<path d="M40.6461 32.6716C40.5073 27.3725 40.4065 27.4115 40.664 27.185L43.3524 24.8228C43.2586 21.2455 43.1797 21.2225 43.3823 21.0069L45.923 18.2935C46.9848 16.1562 47.0856 15.6533 47.6075 15.9117C48.1374 16.176 47.7921 16.5514 46.6974 18.7526C46.6505 18.8473 44.2355 21.4081 44.1627 21.4848L44.2555 25.0107C44.2595 25.1432 44.2026 25.271 44.1038 25.3587L41.4144 27.7199L41.5442 32.6486C41.5502 32.8962 41.3546 33.1027 41.1071 33.1097C40.8596 33.1156 40.653 32.9199 40.6461 32.6716Z" fill="#D4D9FF"/>
<path d="M47.1156 27.1248C46.6816 27.0917 46.7095 26.436 47.1655 26.452C50.6103 26.7097 53.175 24.6511 53.0842 21.1701C53.0812 21.0426 53.149 20.9237 53.2618 20.8629C53.7069 20.6263 54.1759 20.4446 54.6299 20.2692C56.022 19.7293 57.2235 19.2624 57.489 17.406C57.5139 17.2213 57.6826 17.0895 57.8692 17.1187C58.0528 17.1457 58.1815 17.3164 58.1556 17.5C57.7524 20.3261 55.4832 20.5194 53.7598 21.3658C53.7558 23.0602 53.174 24.5072 52.0713 25.5589C50.7541 26.8145 48.9159 27.2604 47.1156 27.1248Z" fill="#D4D9FF"/>
<path d="M40.9414 32.8241C40.8506 32.7395 40.8456 32.5969 40.9304 32.506L45.3891 27.7488C45.5906 27.5325 45.9199 27.8388 45.7164 28.0552L41.2587 32.8133C41.1749 32.9041 41.0322 32.9092 40.9414 32.8241Z" fill="#D4D9FF"/>
<path d="M43.5888 25.2294C43.5449 24.8661 43.9839 24.9581 46.9707 24.6049L46.9357 23.2846C46.9338 23.1856 47.766 21.6981 47.8129 21.6112C47.9546 21.3515 48.3508 21.5652 48.2081 21.8255L47.3858 23.3334C47.4187 24.5808 47.5435 24.9888 47.2272 25.0271L43.8372 25.427C43.7235 25.4442 43.6037 25.3585 43.5888 25.2294Z" fill="#D4D9FF"/>
<path d="M51.1002 26.0507C51.0923 26.0058 50.3229 22.0263 50.3259 21.9815L50.6152 17.713C50.5584 17.6483 48.812 15.6895 48.7911 15.6057C47.9548 12.3613 47.7183 12.0152 48.0736 11.9232C48.4298 11.8316 48.3909 12.2526 49.2122 15.4419L51.0134 17.4876C51.0533 17.5326 51.0743 17.5906 51.0693 17.6514L50.7749 21.9823C51.5184 25.8484 51.7229 26.1574 51.3627 26.2273C51.235 26.2514 51.1232 26.1676 51.1002 26.0507Z" fill="#D4D9FF"/>
<path d="M48.7911 15.7444C48.7042 15.6563 48.7042 15.5136 48.7921 15.4259L51.4425 12.7904C51.6551 12.5799 51.9684 12.9011 51.7599 13.1089L49.1084 15.7452C49.0186 15.8328 48.8779 15.8301 48.7911 15.7444Z" fill="#D4D9FF"/>
<path d="M50.5375 19.5673C50.305 19.282 50.7201 19.1303 52.8496 17.4046C53.0782 17.2172 53.3646 17.5657 53.1321 17.7532L50.8528 19.6001C50.758 19.6781 50.6153 19.664 50.5375 19.5673Z" fill="#D4D9FF"/>
<path d="M46.2025 18.7281C46.1785 18.6653 45.1656 16.1343 45.1626 16.0689C45.0569 12.0114 44.9042 11.6819 45.2734 11.671C45.6406 11.6788 45.5039 11.9411 45.6107 16.0166L46.6196 18.5625C46.6655 18.677 46.6096 18.8081 46.4938 18.8537C46.3811 18.8997 46.2494 18.8447 46.2025 18.7281Z" fill="#D4D9FF"/>
<path d="M45.1997 14.0585C43.123 12.5823 42.681 12.4428 42.8945 12.1422C43.1081 11.844 43.3855 12.2162 45.4612 13.692C45.562 13.7638 45.5849 13.9045 45.513 14.0055C45.4402 14.1072 45.3005 14.129 45.1997 14.0585Z" fill="#D4D9FF"/>
<path d="M50.3189 22.0695L48.9248 20.7165C48.7113 20.5099 49.0236 20.1875 49.2371 20.3941L50.6332 21.7483C50.721 21.834 50.723 21.9767 50.6372 22.0656C50.5514 22.1533 50.4087 22.1565 50.3189 22.0695Z" fill="#D4D9FF"/>
<path d="M41.2667 21.5961C41.2228 21.5435 41.2048 21.4745 41.2188 21.4067L42.2715 16.2116C42.3294 15.9201 42.7705 16.0098 42.7116 16.3014L41.7147 21.22L43.6836 21.1681C43.8153 21.1631 43.9111 21.2629 43.9141 21.3868C43.9171 21.5104 43.8193 21.6133 43.6946 21.6164L41.4443 21.676C41.3684 21.676 41.3086 21.646 41.2667 21.5961Z" fill="#D4D9FF"/>
<path d="M56.1268 25.5987C55.8354 25.5305 55.9452 25.0904 56.2296 25.1614C58.1396 25.6077 59.5357 25.1644 61.4796 24.7544C61.776 24.6974 61.8598 25.1325 61.5734 25.1933C61.319 25.2471 61.0745 25.3013 60.835 25.3532C59.1834 25.7203 57.8781 26.0108 56.1268 25.5987Z" fill="#D4D9FF"/>
<path d="M54.2766 24.807L53.0252 23.9471C52.7818 23.7795 53.0342 23.4091 53.2797 23.5768L54.5311 24.4371C54.6329 24.5068 54.6589 24.6464 54.588 24.7493C54.5181 24.8511 54.3794 24.8772 54.2766 24.807Z" fill="#D4D9FF"/>
<path d="M58.7414 31.8514C58.7114 31.7847 57.6906 29.4907 57.6886 29.4178C57.5968 25.9251 57.4441 25.5466 57.8113 25.5369C58.1786 25.5388 58.0449 25.8701 58.1357 29.3617L59.1525 31.6709C59.2034 31.7847 59.1515 31.9172 59.0368 31.9663C58.922 32.0162 58.7913 31.9644 58.7414 31.8514Z" fill="#D4D9FF"/>
<path d="M40.7439 32.9255C37.0417 29.1256 36.9299 29.1864 37.0087 28.8059L37.362 27.1317L35.3322 23.3006C35.2374 23.122 35.2743 22.9014 35.422 22.7639L38.791 19.6001C38.5056 15.2156 38.3339 14.8811 38.9327 14.8421C39.5504 14.8113 39.4047 15.1855 39.7011 19.7541C39.7101 19.8878 39.6582 20.0184 39.5604 20.1112L36.2872 23.1837L38.2311 26.8541C38.28 26.947 38.295 27.0549 38.2741 27.1566L37.9368 28.7572C41.4115 32.3235 41.8286 32.4963 41.3796 32.9336C41.2009 33.1071 40.9166 33.1032 40.7439 32.9255Z" fill="#D4D9FF"/>
<path d="M39.0604 19.8338L37.0346 17.2564C36.9588 17.1597 36.9758 17.0179 37.0736 16.9423C37.1694 16.8662 37.3111 16.881 37.3889 16.9801C39.2949 19.405 39.6651 19.6456 39.3757 19.872C39.2799 19.9477 39.1392 19.9328 39.0604 19.8338Z" fill="#D4D9FF"/>
<path d="M32.5209 23.821C32.4431 23.821 32.3683 23.7793 32.3284 23.7104L30.0431 19.8435L27.9984 19.8972C27.8866 19.8991 27.7709 19.8017 27.7679 19.6778C27.7649 19.5542 27.8627 19.4501 27.9874 19.4474L30.1629 19.3905C30.2487 19.3913 30.3216 19.4314 30.3625 19.5012L32.6367 23.3509L35.6943 22.8691C35.8141 22.8512 35.9318 22.9339 35.9508 23.0566C35.9707 23.1795 35.8869 23.2944 35.7642 23.3131L32.5569 23.8183C32.5449 23.8202 32.5329 23.821 32.5209 23.821Z" fill="#D4D9FF"/>
<path d="M31.3575 21.9407C31.3405 21.9407 31.3226 21.9383 31.3046 21.9336C31.1839 21.9036 31.11 21.7828 31.14 21.662L31.7746 19.0627C31.8036 18.9426 31.9263 18.8678 32.0451 18.8977C32.1658 18.9266 32.2397 19.0486 32.2097 19.1683L31.575 21.7687C31.5511 21.8704 31.4593 21.9407 31.3575 21.9407Z" fill="#D4D9FF"/>
<path d="M37.746 27.3085C37.6422 27.2426 37.6113 27.1031 37.6782 26.9994L38.6671 25.4553C38.8288 25.204 39.205 25.4487 39.0453 25.697L38.0564 27.2407C37.9875 27.3467 37.8478 27.3744 37.746 27.3085Z" fill="#D4D9FF"/>
<path d="M32.1799 29.7351C32.0561 29.7128 31.9474 29.6392 31.8795 29.5324L29.6222 25.9648L27.1065 27.4956C27.0017 27.5583 26.876 27.5763 26.7572 27.5466C26.6394 27.5135 26.5387 27.436 26.4798 27.3292L24.6496 24.0099C24.5289 23.7924 24.6077 23.52 24.8253 23.3991C25.0418 23.2795 25.3152 23.3582 25.435 23.5756L27.0406 26.4849C29.4795 25.0009 29.8328 24.6138 30.1461 25.1115L32.3755 28.6362L35.1078 26.5336C35.5568 26.1855 35.8522 26.7144 37.8271 28.5633C38.2602 28.9676 37.6475 29.6251 37.2134 29.2181L35.3543 27.4765L32.5331 29.6481C32.4304 29.7269 32.3006 29.758 32.1799 29.7351Z" fill="#D4D9FF"/>
<path d="M27.0543 30.0436C30.9352 27.1387 31.0559 26.8701 31.2775 27.1636C31.497 27.458 31.2006 27.5016 27.3237 30.4025C27.0862 30.5815 26.8168 30.2221 27.0543 30.0436Z" fill="#D4D9FF"/>
<path d="M22.8721 25.5049C22.7513 25.5049 22.6515 25.4083 22.6486 25.2854C22.6446 25.1615 22.7424 25.0597 22.8661 25.0558L25.6952 24.981C25.5705 20.2351 25.4208 19.9654 25.788 19.9544C25.9067 19.9466 26.0155 20.0491 26.0185 20.1738L26.1502 25.1946C26.1512 25.2535 26.1293 25.3112 26.0884 25.3541C26.0475 25.3969 25.9906 25.4231 25.9317 25.425L22.8781 25.5049C22.8761 25.5049 22.8741 25.5049 22.8721 25.5049Z" fill="#D4D9FF"/>
<path d="M31.7895 31.7041L28.0483 33.2598C26.9297 34.7287 26.6911 35.2595 26.2291 34.9053C25.7631 34.5501 26.2002 34.2036 27.4076 32.6202C27.5274 32.4623 31.6009 30.8098 31.7835 30.7339C32.2386 30.5405 32.2096 30.7222 34.7403 34.4554L40.9354 32.1232C41.4922 31.9126 41.8055 32.7539 41.2517 32.9625L34.7264 35.4194C34.2713 35.5929 34.3112 35.4213 31.7895 31.7041Z" fill="#D4D9FF"/>
<path d="M23.7275 30.9149C23.465 30.773 23.6806 30.3789 23.94 30.5185C27.7112 32.5424 28.0574 32.5662 27.8838 32.8897C27.7102 33.2129 27.4986 32.9377 23.7275 30.9149Z" fill="#D4D9FF"/>
<path d="M31.8166 33.7117L33.1818 32.8813C33.4332 32.7258 33.6687 33.1109 33.4153 33.2645L32.0501 34.096C31.7976 34.2507 31.5631 33.8675 31.8166 33.7117Z" fill="#D4D9FF"/>
<path d="M31.3066 43.1533C31.0302 41.317 30.9304 41.1512 31.089 40.9158C33.2765 37.6695 33.2934 37.3763 33.7425 37.471L36.387 38C40.9484 32.083 40.8816 31.8916 41.3696 32.2698C41.8605 32.6479 41.6829 32.5992 36.9278 38.7691C36.8241 38.9052 36.6504 38.9699 36.4838 38.9347L33.8593 38.4101L31.9313 41.2728C32.1768 42.8987 32.3923 43.4425 31.8185 43.5302C31.556 43.5654 31.3425 43.3876 31.3066 43.1533Z" fill="#D4D9FF"/>
<path d="M28.3287 41.309C28.3198 40.9419 28.7768 41.0724 31.4572 41.0026C31.7626 41.0034 31.7586 41.4427 31.4692 41.4517L28.5583 41.5273C28.4235 41.5273 28.3317 41.4256 28.3287 41.309Z" fill="#D4D9FF"/>
<path d="M36.7052 47.0211C36.3469 46.9404 36.5864 46.5232 37.1532 43.9883L38.228 41.0803C36.4796 38.7742 36.1074 38.5189 36.3998 38.2975C36.6922 38.0757 36.8329 38.4971 38.6601 40.9081C38.706 40.9689 38.718 41.0496 38.691 41.1213L37.5823 44.1151L36.9736 46.8504C36.9467 46.9692 36.8319 47.0479 36.7052 47.0211Z" fill="#D4D9FF"/>
<path d="M38.0844 45.7683L37.1663 44.1101C37.0226 43.8516 37.4158 43.6337 37.5605 43.8933L38.4776 45.5519C38.5375 45.6595 38.4985 45.7971 38.3898 45.8564C38.278 45.918 38.1433 45.8763 38.0844 45.7683Z" fill="#D4D9FF"/>
<path d="M42.4765 45.7953L42.3787 42.0863L40.2322 40.2682C40.1494 40.1973 40.1055 40.0912 40.1144 39.9824C40.791 31.9856 40.6563 32.0533 41.1193 32.097C41.5963 32.136 41.4576 32.0911 40.801 39.8659L42.9295 41.67C43.0024 41.732 43.0463 41.8216 43.0493 41.9175L43.1501 45.7774C43.1541 45.9641 43.0084 46.1189 42.8218 46.1239C42.6372 46.1286 42.4815 45.9813 42.4765 45.7953Z" fill="#D4D9FF"/>
<path d="M47.368 47.8391C47.3141 47.7117 46.1885 45.112 46.1845 44.9732L46.0398 39.4515C43.7086 39.5135 43.2915 39.6812 43.1139 39.2333C40.5752 32.7538 40.3626 32.6759 40.9384 32.4514C41.5142 32.2248 41.4284 32.4724 43.8354 38.6115L46.4659 38.5418C46.7363 38.5436 46.9209 38.744 46.9269 38.9799L47.0806 44.8633C48.2003 47.5019 48.5006 47.8461 47.9568 48.0769C47.7342 48.1724 47.4668 48.0718 47.368 47.8391Z" fill="#D4D9FF"/>
<path d="M44.2624 47.5251C43.992 47.2745 44.3811 47.064 46.4658 44.8008C46.6674 44.5833 46.9977 44.8865 46.7971 45.1041L44.5797 47.5123C44.4959 47.602 44.3562 47.6089 44.2624 47.5251Z" fill="#D4D9FF"/>
<path d="M52.2619 46.0122L51.6501 42.4704C51.5204 42.4735 48.9029 42.5745 48.8001 42.4954C46.5508 40.7802 46.1127 40.6255 46.3362 40.3339C46.5588 40.0427 46.8232 40.4239 49.0096 42.0904L51.8328 42.0167C52.1421 41.9637 52.0942 42.4038 52.7059 45.9355C52.7269 46.0571 52.6441 46.174 52.5223 46.1946C52.4026 46.2157 52.2848 46.1359 52.2619 46.0122Z" fill="#D4D9FF"/>
<path d="M53.5781 43.3166L51.6571 42.4477C51.5443 42.3978 51.4944 42.2641 51.5453 42.1502C51.5952 42.0371 51.7299 41.9872 51.8427 42.0395L53.7617 42.9084C53.8755 42.9594 53.9253 43.0931 53.8744 43.2058C53.8235 43.3177 53.6898 43.3684 53.5781 43.3166Z" fill="#D4D9FF"/>
<path d="M52.602 39.041C52.5182 39.041 52.4334 39.0172 52.3576 38.9681L50.4256 37.7098L48.2671 37.7667C48.1054 37.7538 47.9548 37.6879 47.8719 37.5503L44.6257 32.1963L41.2408 33.2952C41.0053 33.372 40.7518 33.2433 40.675 33.0067C40.5981 32.7713 40.7279 32.5179 40.9634 32.4407L44.6876 31.2315C44.8842 31.1676 45.1017 31.2483 45.2095 31.426L48.5046 36.8628C51.2639 36.7886 50.2051 36.4955 52.5182 38.0002C55.9481 34.0026 55.8473 33.9357 56.2315 33.9688C58.8849 34.2451 59.34 34.1582 59.2811 34.7383C59.2542 34.9835 59.0336 35.1573 58.7871 35.1375L56.3732 34.8868L52.9433 38.8842C52.8555 38.9872 52.7298 39.041 52.602 39.041Z" fill="#D4D9FF"/>
<path d="M50.5914 39.3958L50.322 37.3013C50.306 37.1785 50.3928 37.0666 50.5156 37.0499C50.6353 37.0327 50.7521 37.1204 50.767 37.2444L51.0365 39.338C51.0524 39.4604 50.9656 39.5735 50.8429 39.5895C50.7211 39.6062 50.6064 39.5197 50.5914 39.3958Z" fill="#D4D9FF"/>
<path d="M55.4351 40.0892C55.3403 40.0097 55.3303 39.8666 55.4112 39.7731L56.8222 38.1265C55.3703 35.6095 55.031 35.3074 55.3483 35.1238C55.6666 34.9402 55.7515 35.3713 57.2902 38.0396C57.3371 38.1214 57.3282 38.2251 57.2663 38.298L55.7515 40.0653C55.6706 40.1594 55.5289 40.1702 55.4351 40.0892Z" fill="#D4D9FF"/>
<path d="M50.5771 37.4822C50.2309 37.3613 50.4684 37.1149 51.8814 33.0644L50.2488 31.6853C50.158 31.6085 50.1421 31.4755 50.2129 31.38C53.3334 27.1389 53.3593 26.8645 53.6527 27.084C53.9481 27.3004 53.6857 27.4172 50.6989 31.4775L52.2886 32.822C52.3594 32.8808 52.3864 32.9787 52.3554 33.0676L50.8626 37.3446C50.8216 37.4642 50.6899 37.5231 50.5771 37.4822Z" fill="#D4D9FF"/>
<path d="M51.7348 29.4753C51.7248 29.1092 52.1729 29.2399 54.966 29.167C55.2804 29.181 55.2614 29.6082 54.977 29.6161L51.9653 29.6948C51.8296 29.6948 51.7378 29.5922 51.7348 29.4753Z" fill="#D4D9FF"/>
<path d="M44.6687 31.8042C44.5878 31.7107 44.5988 31.5688 44.6926 31.488L46.4779 29.9611C46.7044 29.7674 46.9928 30.1097 46.7693 30.3015L44.985 31.8291C44.8902 31.9103 44.7485 31.8982 44.6687 31.8042Z" fill="#D4D9FF"/>
<path d="M37.9455 56.1607C37.9406 55.6289 37.9076 55.1218 37.8927 54.5422C37.8887 54.3574 38.0364 54.2026 38.222 54.1987C38.225 54.1987 38.2269 54.1987 38.2299 54.1987C38.6541 54.1987 38.5682 54.6868 38.5902 55.2107C38.6211 55.963 38.7349 56.4908 38.2858 56.4951C38.1012 56.4971 37.9475 56.3481 37.9455 56.1607Z" fill="#F5789A"/>
<path d="M47.9567 56.4261C47.9527 55.8613 47.9437 55.3591 47.9726 54.8442C47.9966 54.3943 48.6702 54.4411 48.6442 54.8812C48.6173 55.3724 48.6263 55.8464 48.6303 56.421C48.6313 56.6077 48.4816 56.7594 48.2959 56.7605C48.1093 56.7613 47.9577 56.6128 47.9567 56.4261Z" fill="#F5789A"/>
<path d="M43.2169 54.7188C41.9994 54.8147 42.2289 56.7614 43.2688 56.6974C44.3076 56.6328 44.2038 54.642 43.2169 54.7188Z" fill="white"/>
<path d="M52.2028 55.3862C51.5292 55.4139 51.7198 56.3132 52.2277 56.321C52.7357 56.3292 52.7327 55.3652 52.2028 55.3862Z" fill="white"/>
<path d="M33.4672 55.2518C32.8655 55.3369 32.9413 56.2907 33.4942 56.2849C34.047 56.2778 34.039 55.17 33.4672 55.2518Z" fill="white"/>
<path d="M29.5562 33.7836C28.6421 31.8466 28.5822 29.7339 27.758 27.8199C27.5474 27.3311 26.9407 27.2403 26.6393 27.7041C24.6135 30.8137 26.5575 39.1942 30.7397 39.7898C31.3405 39.8756 32.058 39.4948 31.9921 38.7821C31.8205 36.9309 30.3366 35.4329 29.5562 33.7836Z" fill="white"/>
<path d="M35.5507 42.2217C35.2753 42.0081 34.9979 41.8635 34.6875 41.7138C34.0259 41.3946 33.4002 42.081 33.7345 42.7187C33.8004 42.8454 33.8663 42.9721 33.9331 43.098C34.0259 43.2714 34.1507 43.4141 34.2754 43.5638C34.5867 43.9392 35.2833 43.8773 35.5846 43.5299C35.887 43.1837 35.9599 42.5371 35.5507 42.2217Z" fill="white"/>
<path d="M58.2713 37.0476C56.3713 38.7401 55.3823 41.4474 53.6599 43.3645C52.0094 45.1997 49.799 46.1938 48.1195 47.9682C47.7074 48.4032 48.2552 48.9637 48.7542 48.7283C51.4785 47.4469 53.9453 46.9461 56.1298 44.6688C57.8751 42.8488 60.0276 40.329 60.1264 37.7422C60.1643 36.7623 58.909 36.4801 58.2713 37.0476Z" fill="#F9A6AC"/>
<path d="M32.8902 6.75985C33.5745 6.90864 38.8763 8.88791 39.8759 9.22696C40.8693 9.56669 39.3739 11.0277 35.7861 10.0238C35.1767 9.1865 34.3619 8.20863 33.7575 7.86815C33.0307 7.45742 30.5369 6.61374 28.1379 5.94083C29.87 6.24304 32.2227 6.61693 32.8902 6.75985Z" fill="#F4B39F"/>
<path d="M29.7075 20.7749C29.6219 20.0969 25.8824 18.1544 25.3299 17.9659C24.7766 17.7766 23.9874 18.6132 25.0876 19.2771C26.1878 19.9408 28.7503 20.6769 29.7075 20.7749Z" fill="#282B76"/>
<path d="M21.982 12.4125C20.3935 13.1113 19.1017 14.6359 21.776 15.354C25.8832 16.4618 26.9984 18.7676 26.6194 19.2359C26.2404 19.7079 25.0365 19.3852 23.0759 18.4666C21.1178 17.5481 18.0995 17.9959 15.1961 17.7966C12.2927 17.6013 11.6283 15.334 10.3683 15.2966L10.3464 15.2359C12.7116 14.4056 14.1196 14.7371 16.0496 13.8013C18.3661 12.6798 20.4716 12.4169 21.977 12.3276L21.982 12.4125Z" fill="#F4B39F"/>
<path d="M31.1381 10.0551C32.6628 11.1457 34.0421 12.7248 34.0559 13.4609C34.0802 14.6229 34.772 17.8336 34.1676 17.7468C32.4936 17.5134 32.006 13.9587 32.006 13.9587C31.0413 13.2599 29.4859 11.8855 29.4859 11.8855C29.4859 11.8855 27.8413 11.4499 27.1082 11.2443C27.3517 11.5004 27.6046 11.7894 27.8731 12.118C29.2405 13.7914 30.7228 16.0641 30.1303 16.3014C29.5377 16.5392 28.0392 14.9975 27.2244 14.1136C26.4064 13.2263 24.9647 12.0631 23.8383 12.2233C23.4393 12.2809 22.7968 12.2801 21.977 12.3277C20.4715 12.417 18.3661 12.6799 16.0496 13.8014C14.1196 14.7373 12.7116 14.4058 10.3464 15.236C9.958 15.3716 9.54465 15.5377 9.10008 15.7475C6.93281 16.7658 4.58945 18.8839 2.5046 19.8236C0.95423 20.5217 -1.33417 13.8095 0.99357 11.5485C3.31881 9.29017 14.9369 5.90333 18.7351 5.23454C22.5333 4.56525 23.1858 4.71205 26.0168 5.38571C26.6786 5.5438 27.4048 5.73524 28.1378 5.94085C30.5368 6.61376 33.0306 7.45744 33.7574 7.86817C34.3618 8.20865 35.1766 9.18652 35.786 10.0238C36.1282 10.497 36.4055 10.9248 36.5434 11.1663C36.9256 11.8338 38.4866 14.987 38.845 15.4858C39.2021 15.9848 36.5971 16.7802 34.4086 12.3214C34.4086 12.3214 33.2978 10.8572 31.1524 10.0343L31.1381 10.0551Z" fill="#FDC1AB"/>
<path d="M24.097 18.9186C25.3208 19.8122 28.203 20.6912 29.7078 20.7749C29.7078 20.7749 26.2536 19.6891 24.9867 18.8149C24.1463 18.2344 23.6474 18.5908 24.097 18.9186Z" fill="#282B76"/>
<path d="M29.4024 15.2835C30.216 16.3943 30.826 17.3945 31.2656 18.1646C31.7058 18.9343 31.1064 16.4167 29.8482 14.9326C28.9922 13.9223 29.0272 14.7708 29.4024 15.2835Z" fill="#282B76"/>
<path d="M34.1497 20.5734C34.1191 19.3446 34.0898 18.5765 33.83 17.4089C33.5778 16.2762 34.1322 15.4277 34.3239 15.735C34.6592 16.2718 34.6979 16.6948 34.6811 18.1677C34.668 19.3577 34.1728 21.5019 34.1497 20.5734Z" fill="#282B76"/>
<path d="M38.0177 14.0782C39.0286 15.1153 39.9664 18.3833 40.13 19.3663C40.293 20.3485 39.0891 18.1068 38.594 17.1797C38.2137 16.4673 37.8584 15.7141 37.4513 15.0011C37.0374 14.2755 37.6649 13.7167 38.0177 14.0782Z" fill="#282B76"/>
<path d="M38.195 8.78079C38.2687 9.44445 39.5481 9.72743 40.5508 9.90544C41.5536 10.084 42.587 10.4947 43.1159 10.7004C43.6447 10.905 42.0762 9.77938 40.2386 9.11983C39.2309 8.75837 38.1638 8.50181 38.195 8.78079Z" fill="#282B76"/>
<path d="M26.7492 11.1548C26.678 11.1548 26.6075 11.1287 26.5525 11.0755C25.7396 10.2774 25.0596 9.85548 24.4333 9.49208C24.2991 9.41404 24.2529 9.24233 24.3309 9.10821C24.409 8.97377 24.5807 8.92819 24.7156 9.00624C25.3724 9.38769 26.0867 9.83063 26.9459 10.6741C27.057 10.7826 27.0589 10.9607 26.9497 11.0711C26.8947 11.1274 26.8223 11.1548 26.7492 11.1548Z" fill="#E09884"/>
<path d="M18.0409 13.0118C17.9972 12.8625 18.0834 12.7064 18.232 12.6632C19.1467 12.3979 20.1251 12.2118 21.1392 12.1125C21.2946 12.0981 21.4308 12.2101 21.4464 12.3642C21.4969 12.8806 20.7864 12.5067 18.3887 13.2028C18.2432 13.2459 18.0846 13.1623 18.0409 13.0118Z" fill="#E09884"/>
<path d="M10.5516 15.1609C10.4542 14.8412 10.6821 14.7195 12.8837 14.3612C13.8497 14.2039 14.7625 14.0558 15.6273 13.6856C15.7697 13.6244 15.9345 13.6912 15.9957 13.8329C16.0569 13.9758 15.9907 14.1414 15.8484 14.2019C14.9205 14.599 13.9308 14.7607 12.9743 14.9163C12.2849 15.0288 11.5719 15.1448 10.9025 15.3483C10.7546 15.3934 10.5972 15.3109 10.5516 15.1609Z" fill="#E09884"/>
<path d="M35.0961 9.58274C34.5048 8.8379 33.9803 8.31666 33.6181 8.11179C33.2535 7.90643 32.3512 7.55858 31.1449 7.15516C30.9976 7.1064 30.9176 6.94711 30.967 6.80057C31.0163 6.65252 31.1743 6.57398 31.3223 6.62324C32.0509 6.86544 33.3534 7.31813 33.8935 7.62227C34.33 7.86809 34.8825 8.40957 35.5363 9.23252C35.6331 9.35496 35.6125 9.53154 35.4913 9.62764C35.3671 9.72517 35.1916 9.702 35.0961 9.58274Z" fill="#E09884"/>
<path d="M30.7835 10.093C30.7304 10.093 30.6767 10.0787 30.6292 10.0474C29.0239 8.99646 27.7764 8.61009 27.7639 8.60621C27.6153 8.56132 27.531 8.40447 27.5766 8.25593C27.6222 8.10738 27.7789 8.02421 27.9275 8.06936C27.9812 8.08497 29.265 8.48327 30.9371 9.57715C31.067 9.66206 31.1038 9.83571 31.0183 9.96621C30.9646 10.0486 30.8746 10.093 30.7835 10.093Z" fill="#E09884"/>
<path d="M26.9035 8.16406C26.8691 8.16406 26.8354 8.15851 26.8017 8.14533C26.4658 8.01483 26.0986 7.88802 25.6459 7.74578C25.498 7.69895 25.4155 7.54167 25.4623 7.39362C25.5086 7.24558 25.6665 7.16385 25.8145 7.20943C26.2791 7.35553 26.6575 7.48603 27.0046 7.6209C27.1495 7.67704 27.2213 7.83994 27.1657 7.98436C27.122 8.09607 27.0158 8.16406 26.9035 8.16406Z" fill="#E09884"/>
<path d="M20.3864 17.8433C20.2316 17.8321 20.1154 17.6972 20.1273 17.5431C20.1879 16.7207 20.5282 15.9338 21.0851 15.327C21.3368 15.0535 21.7495 15.4338 21.4991 15.7067C21.027 16.2211 20.7392 16.8879 20.6874 17.5843C20.6755 17.7404 20.5394 17.8557 20.3864 17.8433Z" fill="#5C5E99"/>
<path d="M32.2234 14.1543C32.1791 14.1543 32.1348 14.1406 32.0967 14.1118C32.0037 14.0413 31.9849 13.9097 32.0555 13.8167C32.4626 13.2765 33.1095 12.937 33.7857 12.9094C33.89 12.8975 33.9998 12.995 34.0048 13.1111C34.0098 13.2272 33.9193 13.3257 33.8025 13.3302C33.2518 13.3533 32.7236 13.6294 32.3914 14.0701C32.3502 14.125 32.2871 14.1543 32.2234 14.1543Z" fill="#5C5E99"/>
<path d="M3.47729 18.7398C2.22163 16.239 1.96874 13.2699 2.78233 10.5926C2.82791 10.4438 2.98464 10.3609 3.13324 10.4053C3.28185 10.4509 3.36489 10.6075 3.31994 10.756C2.54756 13.2968 2.78796 16.1146 3.9793 18.4873C4.04923 18.6254 3.99304 18.7946 3.85442 18.8639C3.71581 18.9331 3.54659 18.8782 3.47729 18.7398Z" fill="#5C5E99"/>
<path d="M34.0502 14.5636C34.0327 14.515 34.0227 14.4826 34.0209 14.4331C34.0021 14.0579 33.477 14.0067 33.3721 14.3626C33.3415 14.4655 33.3297 14.5736 33.3309 14.6812C33.3328 14.9026 33.5432 15.0658 33.7567 15.0306C33.9634 14.9975 34.1264 14.7752 34.0502 14.5636Z" fill="#5C5E99"/>
<path d="M36.4709 12.2891C36.2305 12.3279 36.1375 12.58 36.2437 12.7849C36.2817 12.8586 36.3479 12.9218 36.4241 12.9542C36.6239 13.0408 36.9005 12.8911 36.8487 12.6562C36.8912 12.442 36.6751 12.2562 36.4709 12.2891Z" fill="#5C5E99"/>
<path d="M2.01338 17.8577C1.54009 17.8702 1.55819 18.6063 2.03273 18.5938C2.50602 18.5814 2.48792 17.8453 2.01338 17.8577Z" fill="#5C5E99"/>
<path d="M54.0218 0.98349C53.7524 1.07357 53.5047 1.19894 53.2799 1.36702C52.9155 1.64193 52.4437 1.87757 51.9297 2.08179C49.8145 1.5597 49.6314 0.255036 50.2479 0.31278C50.8333 0.366719 53.1042 0.968824 54.0218 0.98349Z" fill="#F4B39F"/>
<path d="M51.6077 11.8175C53.038 11.6414 56.0651 13.2719 57.0299 13.9799C57.9934 14.6875 57.593 14.85 56.0447 14.3476C54.4957 13.845 51.6077 11.8175 51.6077 11.8175Z" fill="#282B76"/>
<path d="M63.1986 12.9993C63.8704 12.0788 64.228 9.7741 62.4046 8.34616C62.9683 8.40942 63.4966 8.61371 64.0119 9.09787C65.4025 10.4122 65.9867 12.2208 66.7 15.0857C67.3376 17.6465 68.0907 18.5444 69.4614 20.6001C68.1999 19.5832 66.1047 19.1978 64.6408 19.2383C63.0745 19.2793 62.0824 18.9622 59.9996 17.3533C57.9198 15.7442 56.7316 14.9987 55.6036 14.5027C54.4749 14.0075 53.9665 13.0424 56.0139 12.8878C58.0583 12.7356 59.1788 13.6867 60.4379 14.0605C61.3169 14.3217 62.3624 13.4854 63.1986 12.9993Z" fill="#F4B39F"/>
<path d="M69.4617 20.6C68.0909 18.5443 67.3379 17.6464 66.7003 15.0856C65.987 12.2207 65.4028 10.4121 64.0122 9.09777C63.4969 8.6136 62.9686 8.40932 62.4049 8.34605C61.4407 8.23314 60.381 8.52272 59.1419 8.48891C57.1788 8.43736 54.3597 8.36379 54.0605 7.63417C53.7625 6.90713 55.3729 6.71917 57.4824 6.18972C57.9381 6.07558 58.3615 5.93991 58.7774 5.8057L58.7625 5.76373C57.7549 5.81791 56.3761 5.37063 55.5026 5.3011C54.6291 5.23305 53.1404 6.32656 52.1912 6.77384C51.2413 7.21824 50.1282 7.70296 49.179 7.33545C48.2304 6.96462 49.5471 5.92843 51.5157 4.69728C51.7492 4.55062 51.972 4.41519 52.1806 4.28497C47.6257 5.67432 47.1781 3.51412 48.0944 3.20871C48.7736 2.98411 50.5113 2.65213 51.9298 2.08188C52.4439 1.87766 52.9157 1.64202 53.2801 1.36711C53.5048 1.19903 53.7525 1.07366 54.022 0.98358C55.4045 0.522121 57.2993 0.975664 58.9494 1.22038C60.9155 1.51187 64.9092 0.97014 66.3905 3.40624C67.8724 5.84307 72.2696 11.4775 74.4108 14.8856C76.5526 18.2974 81.0728 22.9869 82.2778 25.9583C83.4822 28.9239 75.3805 33.142 74.8572 31.7136C74.3326 30.2857 71.683 24.0474 69.9807 21.3927C69.7994 21.1074 69.625 20.8466 69.4617 20.6Z" fill="#FDC1AB"/>
<path d="M59.1572 5.39308C60.5441 4.94819 61.9776 4.58675 64.2684 5.03907C64.6334 5.11 64.518 5.65387 64.1591 5.58005C61.9981 5.15437 60.6937 5.48083 59.3298 5.91756C58.9772 6.03047 58.8065 5.50482 59.1572 5.39308Z" fill="#E09884"/>
<path d="M64.942 10.7652C64.4485 9.87424 63.8941 9.25029 63.295 8.90965C63.1615 8.83369 63.115 8.66493 63.192 8.53281C63.2689 8.40027 63.4403 8.35498 63.5738 8.43046C64.2635 8.82313 64.8887 9.51851 65.4319 10.4996C65.5057 10.634 65.4567 10.8014 65.3207 10.8745C65.1879 10.9469 65.0165 10.9004 64.942 10.7652Z" fill="#E09884"/>
<path d="M68.8208 20.1466C67.5705 18.303 66.7939 16.6205 66.3028 14.69C66.2656 14.5421 66.3562 14.3925 66.5052 14.3548C66.656 14.3182 66.8069 14.4071 66.8448 14.555C67.3197 16.4211 68.0721 18.0509 69.2852 19.839C69.3709 19.9656 69.3367 20.1368 69.2082 20.2221C69.0803 20.3067 68.9065 20.2724 68.8208 20.1466Z" fill="#E09884"/>
<path d="M53.2987 3.30536C54.2095 2.79862 54.8321 2.53708 55.3809 2.43209C56.2662 2.26407 58.4192 2.27751 60.1606 2.7456C60.5182 2.84151 60.3686 3.37654 60.0135 3.27824C58.377 2.83912 56.2985 2.81948 55.4871 2.97455C55.0072 3.0666 54.4168 3.31708 53.5725 3.7864C53.2515 3.96619 52.9765 3.48461 53.2987 3.30536Z" fill="#E09884"/>
<path d="M61.4876 3.58987C61.1207 3.5544 61.1735 3.00574 61.5416 3.04023C61.6627 3.05177 62.2916 3.10834 62.4263 3.12056C62.5803 3.13467 62.6933 3.26967 62.6777 3.42112C62.6448 3.76967 62.2798 3.66615 61.4876 3.58987Z" fill="#E09884"/>
<path d="M55.104 6.75679C54.2752 7.01133 52.6468 7.46652 51.2109 8.39631C50.5665 8.81365 53.1292 8.10177 55.5703 7.82011C56.4257 7.72131 56.2718 6.39768 55.104 6.75679Z" fill="#282B76"/>
<path d="M50.3235 5.88602C49.8597 5.67867 49.1917 6.24561 48.3126 7.35017C47.7452 8.06254 47.2554 9.16661 46.9798 9.97901C46.7041 10.7921 48.2648 8.79413 49.0315 8.1074C50.1354 7.12073 51.2423 6.29783 50.3235 5.88602Z" fill="#282B76"/>
<path d="M49.4408 2.8504C49.7667 3.34678 49.537 3.68428 47.5473 3.94128C45.9797 4.14451 45.1137 4.50288 44.0006 4.80854C43.9534 4.82124 45.9034 2.71037 49.4408 2.8504Z" fill="#282B76"/>
<path d="M51.5642 0.56806C50.7733 0.164161 48.5104 -0.142658 47.4215 0.069723C46.3326 0.282104 48.5805 0.00357234 51.1029 1.00074C51.8137 1.28167 51.9441 0.761971 51.5642 0.56806Z" fill="#282B76"/>
<path d="M56.598 15C55.3446 14.5551 55.0248 14.1476 52.0735 12.2189C50.2383 11.0192 54.17 12.8314 55.0602 13.2633C57.2306 14.317 57.4324 15.2965 56.598 15Z" fill="#282B76"/>
<path d="M71.507 23.392C73.074 23.3071 75.8894 21.5535 76.7064 19.0116C76.8188 18.6631 77.3502 18.8313 77.2384 19.1787C76.6797 20.9177 75.5957 22.0196 74.1772 22.9291C73.4862 23.3716 72.5606 23.8877 71.5375 23.9428C71.1842 23.9804 71.1265 23.4121 71.507 23.392Z" fill="#5C5E99"/>
<path d="M71.8431 24.8452C71.7506 24.418 72.2268 24.6053 73.6311 24.035C75.6313 23.2208 77.0623 21.7353 77.4597 20.0581C77.4944 19.9102 77.6459 19.8181 77.7949 19.8524C77.9451 19.8874 78.0389 20.036 78.0035 20.1839C77.4131 22.6778 74.9633 24.4665 72.1753 25.0573C72.0281 25.0888 71.8767 24.9967 71.8431 24.8452Z" fill="#5C5E99"/>
<path d="M59.713 16.5771C60.1954 15.998 60.4661 15.2357 60.4555 14.4847C60.4531 14.3325 60.5766 14.2067 60.7312 14.2048C60.7324 14.2048 60.7337 14.2048 60.7343 14.2048C60.8876 14.2048 61.0124 14.3258 61.0143 14.4766C61.0267 15.3561 60.7095 16.2494 60.1439 16.9288C59.9098 17.2104 59.4778 16.8595 59.713 16.5771Z" fill="#5C5E99"/>
<path d="M51.0992 5.27291C50.746 5.28273 50.7596 5.82592 51.1135 5.81678C51.468 5.80745 51.4537 5.2645 51.0992 5.27291Z" fill="#5C5E99"/>
<path d="M56.7491 6.67752C56.4964 6.68421 56.5063 7.07277 56.759 7.06608C57.0117 7.05933 57.0024 6.6715 56.7491 6.67752Z" fill="#5C5E99"/>
<path d="M50.5122 2.94607C50.4898 2.82961 50.3377 2.70688 50.1962 2.74112C50.1428 2.75456 50.0894 2.76751 50.0366 2.78094C49.9013 2.81476 49.797 2.9087 49.8224 3.04291C49.8467 3.1695 49.9845 3.25363 50.1254 3.23878C50.1794 3.23252 50.2334 3.22651 50.2881 3.22105C50.4352 3.20448 50.537 3.0731 50.5122 2.94607Z" fill="#5C5E99"/>
<path d="M51.7172 4.01677C51.6881 3.53021 51.5273 3.05771 51.2535 2.65215C51.1889 2.55746 51.215 2.42872 51.3112 2.36497C51.7154 2.09674 52.1021 3.42835 52.1357 3.99234C52.1431 4.10642 52.0543 4.20448 51.9389 4.21142C51.8259 4.21933 51.7241 4.13207 51.7172 4.01677Z" fill="#5C5E99"/>
</svg>
