<svg width="35" height="64" viewBox="0 0 35 64" fill="none" xmlns="http://www.w3.org/2000/svg">
<path d="M13.1935 20.7274C13.1935 20.7274 7.18467 8.79793 5.85338 3.69308C4.52085 -1.41301 8.09863 5.82001 8.09863 5.86212C8.09863 5.90547 7.46591 1.52568 8.09863 1.39205C8.73177 1.2576 10.6112 5.0252 11.0574 6.47646C11.0574 6.47646 10.9426 -0.0367203 12.2149 0.000156403C13.4872 0.0374413 15.0351 6.47646 15.0351 6.47646C15.0351 6.47646 15.5295 3.61686 16.3472 3.69308C17.1645 3.76888 17.5565 7.81495 17.5565 7.81495C17.5565 7.81495 18.4388 2.13992 19.6096 2.18522C20.7812 2.22939 20.7571 6.97474 20.7571 6.97474C20.7571 6.97474 22.1197 2.04645 23.2304 2.18522C24.3397 2.32368 23.2304 7.81495 23.2304 7.81495C23.2304 7.81495 25.4929 5.6495 26.2331 5.86212C26.9734 6.07484 26.2331 8.51547 26.2331 8.51547C26.2331 8.51547 30.1098 1.94168 31.3569 2.18522C32.6031 2.42845 28.2035 12.8665 23.8125 19.9539C23.8125 19.9539 33.9356 27.4067 34.3881 45.3286C34.8408 63.2496 22.9081 64.2603 16.3472 63.9614C9.78584 63.6632 2.8204 59.8515 0.811487 52.9853C-1.19711 46.1206 -0.306775 31.4456 13.1935 20.7274Z" fill="#F0B000"/>
</svg>
