<svg width="40" height="40" viewBox="0 0 40 40" fill="none" xmlns="http://www.w3.org/2000/svg">
<mask id="mask0" mask-type="alpha" maskUnits="userSpaceOnUse" x="0" y="0" width="40" height="40">
<rect width="40" height="40" fill="#C4C4C4"/>
</mask>
<g mask="url(#mask0)">
<path d="M9.84562 1.04242C7.84482 1.36525 6.60536 2.12699 6.0099 4.65965C5.41418 7.19238 5.10296 17.2461 5.63759 19.8396C6.17248 22.4329 6.86002 23.4213 8.4151 24.193C9.97084 24.9673 14.9667 25.2136 16.3727 25.1259C17.7784 25.0392 18.8253 23.4671 19.2405 21.408C19.6569 19.3495 19.8363 6.28131 18.8082 3.67918C17.7809 1.07685 15.7184 0.949626 14.2691 0.844551C13.2507 0.771644 11.4692 0.78156 9.84562 1.04242Z" fill="#D13B6A"/>
<path d="M11.5697 2.53275C10.2013 2.56372 8.42503 2.57968 8.02199 4.88662C7.61861 7.19364 7.33317 17.5434 7.68582 19.4926C8.03938 21.4425 8.86606 22.3222 10.1814 22.6869C11.4966 23.0488 14.7965 23.223 15.7678 22.8799C16.7392 22.5369 17.4996 21.4509 17.7824 19.2792C18.0656 17.1091 17.832 6.05151 17.4023 4.84084C16.9716 3.62861 16.3602 2.42501 11.5697 2.53275Z" fill="#F9A6AC"/>
<path d="M12.0472 21.2571C12.0153 21.2653 11.9823 21.2701 11.9486 21.2705C11.7264 21.2713 11.5455 21.0919 11.5445 20.8697C11.5328 17.9619 11.4096 15.0134 11.1781 12.1049C11.1292 11.4818 11.075 10.8591 11.02 10.2366C10.8764 8.58422 10.7273 6.8742 10.6719 5.1779C10.6648 4.95553 10.8391 4.77043 11.0611 4.76315C11.2827 4.75596 11.4686 4.92956 11.4757 5.15193C11.5302 6.82632 11.6785 8.52459 11.8217 10.1669C11.8761 10.7914 11.9303 11.4159 11.9805 12.0424C12.213 14.9701 12.3368 17.9395 12.3487 20.8658C12.35 21.0546 12.2212 21.2123 12.0472 21.2571Z" fill="#282B76"/>
<path d="M16.021 12.8447C15.8655 12.8847 15.6945 12.8281 15.5946 12.6905C14.7828 11.5689 14.0539 10.3679 13.3487 9.20685C12.5532 7.89656 11.7306 6.54154 10.7942 5.3127C10.6594 5.13608 10.6934 4.88286 10.8701 4.74882C11.0477 4.61548 11.2995 4.64849 11.4339 4.8252C12.3963 6.08888 13.2294 7.46147 14.0359 8.78925C14.7328 9.93763 15.4534 11.1233 16.2464 12.2193C16.3767 12.3989 16.3366 12.6509 16.1565 12.7803C16.1147 12.8113 16.0683 12.8325 16.021 12.8447Z" fill="#282B76"/>
<path d="M15.0703 16.2536C14.9233 16.2915 14.761 16.2447 14.6585 16.1197C14.0509 15.3728 13.4734 14.5895 12.916 13.8333C12.3997 13.1321 11.867 12.4092 11.3152 11.7227C11.176 11.55 11.2031 11.2966 11.3761 11.158C11.5496 11.0184 11.8024 11.0456 11.9412 11.2184C12.5043 11.9177 13.0428 12.6492 13.5633 13.3559C14.1153 14.106 14.6863 14.8799 15.2819 15.6106C15.4221 15.783 15.3964 16.036 15.2242 16.1762C15.1779 16.2149 15.1248 16.2396 15.0703 16.2536Z" fill="#282B76"/>
<path d="M26.1484 3.32287C24.4238 3.55521 23.347 3.73266 22.9309 7.02056C22.5163 10.3094 22.9821 17.9762 23.4746 20.0945C23.9685 22.2106 24.757 22.6287 26.6341 22.8012C28.5104 22.9732 31.7096 22.5464 32.7849 22.3157C33.8609 22.0855 34.8004 21.1817 34.9292 19.5376C35.058 17.8934 35.2101 6.88589 35.0322 5.5592C34.8541 4.23127 33.5833 3.37358 32.2806 3.27191C30.9769 3.17176 28.155 3.05206 26.1484 3.32287Z" fill="#D13B6A"/>
<path d="M26.1591 5.1735C25.0029 5.46687 24.5934 6.62372 24.4945 8.43477C24.3958 10.2459 24.6139 16.9379 24.8894 18.6382C25.1649 20.3384 25.7904 20.8591 27.513 20.8986C29.2357 20.9382 31.2952 20.796 32.1686 20.5636C33.0422 20.3324 33.6615 19.5829 33.6615 18.1156C33.6623 16.6487 33.6594 7.68698 33.5546 6.64554C33.4505 5.60457 32.817 4.9084 31.2974 4.87229C30.1194 4.84569 27.3017 4.88554 26.1591 5.1735Z" fill="#F9A6AC"/>
<path d="M28.6393 19.2756C28.5729 15.549 28.5657 11.8009 28.5636 7.63934C28.5631 7.41713 28.743 7.23699 28.966 7.23691C29.1882 7.23637 29.3679 7.41712 29.3677 7.63886C29.3737 20.0071 29.6449 19.6586 29.0496 19.6702C28.8288 19.6737 28.6438 19.4981 28.6393 19.2756Z" fill="#282B76"/>
<path d="M28.6904 13.7049C27.1878 11.8372 25.8003 8.97946 25.7424 8.85828C25.6457 8.65806 25.7293 8.41807 25.9288 8.32098C26.1297 8.22482 26.3694 8.30715 26.4664 8.5086C26.4786 8.53489 27.6545 10.957 28.9658 12.7436C31.711 8.23558 31.6893 8.0172 32.1485 8.29728C32.3377 8.41266 32.3973 8.6615 32.2815 8.85145C29.2279 13.8464 29.3702 13.8328 29.0303 13.8547C28.8952 13.8633 28.769 13.8042 28.6904 13.7049Z" fill="#282B76"/>
<path d="M5.18715 36.343C5.36578 37.9698 6.04424 38.8977 8.00718 39.2588C9.97012 39.6199 29.3363 39.7087 31.7087 39.4206C34.0811 39.1325 34.6111 37.9397 34.8445 36.4023C35.0789 34.8648 35.1114 30.9153 34.8943 29.9476C34.6787 28.9822 33.4201 27.8882 31.4184 27.8418C29.4167 27.7954 9.73104 27.9196 8.30844 28.0734C6.17561 28.3047 5.6483 28.8751 5.52077 30.2008C5.39422 31.5271 4.97855 34.4373 5.18715 36.343Z" fill="#D13B6A"/>
<path d="M6.61206 35.5005C6.66401 36.608 6.74576 37.4442 8.23936 37.6783C9.73337 37.9115 29.1642 38.1827 30.4574 38.0278C31.75 37.8703 32.7929 37.454 32.9179 36.4028C33.0431 35.3524 33.1889 31.7025 33.0781 31.0479C32.9675 30.3941 32.3176 29.7702 30.8648 29.6313C29.4129 29.4922 9.61771 29.6923 8.70487 29.7313C7.63281 29.7786 6.76843 30.2628 6.71848 31.712C6.68406 32.72 6.552 34.2317 6.61206 35.5005Z" fill="#F9A6AC"/>
<path d="M26.9028 35.112C26.8157 35.1316 26.7211 35.1227 26.6352 35.0788L25.5037 34.5121C22.9206 33.2146 21.3129 32.4081 20.8911 32.3858C20.8808 32.4257 20.8689 32.4907 20.8558 32.599C20.8225 32.8739 20.8057 33.2102 20.7897 33.5334C20.7328 34.6591 20.684 35.63 19.9558 35.642C19.462 35.6479 15.6113 34.1606 13.3603 33.2736C13.1537 33.1919 13.0518 32.9584 13.1334 32.7523C13.2153 32.5461 13.4485 32.4441 13.6552 32.5257C16.232 33.5408 19.1433 34.6353 19.8462 34.814C19.9329 34.5563 19.9651 33.9024 19.9857 33.4938C20.003 33.1556 20.0203 32.8055 20.0573 32.5022C20.0889 32.2442 20.1357 31.8544 20.4808 31.6704C21.0378 31.37 21.7751 31.7397 25.8648 33.7933L26.9946 34.3604C27.1936 34.4593 27.2736 34.7005 27.1746 34.8996C27.1185 35.0121 27.017 35.0862 26.9028 35.112Z" fill="#282B76"/>
</g>
</svg>
