<svg width="70" height="64" viewBox="0 0 70 64" fill="none" xmlns="http://www.w3.org/2000/svg">
<path d="M56.0371 60.1029C56.0207 60.4676 55.9785 60.7245 55.8999 60.8359C55.5668 61.3274 53.2765 62.1973 51.7144 62.2244C51.7097 62.2399 51.6991 62.256 51.6945 62.2665C51.4247 62.6889 48.548 63.5964 47.208 63.354L47.203 63.349C47.1503 63.4218 47.0867 63.4805 47.0179 63.5167C45.9414 64.1021 42.469 63.9917 42.469 63.9917C40.8015 56.6246 42.469 55.1366 42.469 55.1366C40.6008 47.6486 31.0966 55.6172 17.3064 53.8068C3.51714 51.9913 -0.192926 41.7909 0.00761182 29.8583C0.207798 17.9315 8.59931 8.49557 20.4045 3.56644C32.2047 -1.3567 41.9569 -1.23579 50.7703 4.25871C59.5835 9.74665 59.5037 18.6962 60.6706 21.0087C61.8363 23.3248 67.2614 21.5831 68.698 29.8583C70.1275 38.1329 66.8556 40.6872 65.2302 42.2118C63.5989 43.7432 58.4588 42.9727 58.4389 42.9883C58.4166 43.0093 57.6836 44.9874 58.4389 50.4352C58.4389 50.4352 60.3375 53.8018 59.852 59.4277C59.852 59.4277 58.7227 60.4937 56.0629 60.1029H56.0371Z" fill="#1A1A1A"/>
<path d="M59.7664 25.381C64.0797 26.9161 67.0034 38.0617 61.3414 39.878C56.3127 41.492 53.8007 35.7336 54.3636 33.5188C54.8175 31.7303 55.7791 30.2231 56.6188 28.3784C57.4573 26.5359 57.6086 24.6128 59.7664 25.381Z" fill="#F0B000"/>
<path d="M40.8775 44.5335C38.1996 49.6712 32.6592 47.355 29.4178 41.9912C26.1767 36.6267 27.9019 29.906 30.5538 31.0283C34.176 32.562 36.6722 34.0995 38.8202 34.7549C40.9687 35.4095 43.3114 39.8637 40.8775 44.5335Z" fill="#F0B000"/>
<path d="M47.6757 32.6832C49.0816 31.975 53.097 44.7662 52.4321 45.2091C51.7672 45.6535 50.4068 43.7386 50.4068 43.7386C50.4068 43.7386 50.001 46.0053 49.0828 45.981C48.1659 45.9577 46.4234 33.314 47.6757 32.6832Z" fill="#F0B000"/>
<path d="M45.1304 31.5841C46.2142 29.1544 47.6921 28.901 49.3336 30.3491C49.7264 30.6941 49.2034 31.2887 48.8105 30.9429C47.4163 29.7151 46.61 30.2107 45.8537 31.9066C45.6407 32.384 44.9174 32.0615 45.1304 31.5841Z" fill="#F0B000"/>
<path d="M38.545 27.664C36.4203 25.4582 33.8247 24.2644 31.4362 24.3932C30.7389 24.4271 30.6843 23.3766 31.3807 23.3391C34.0807 23.2017 36.9682 24.5073 39.3054 26.9311C39.5074 27.1409 39.501 27.4752 39.2916 27.6768C39.0809 27.8798 38.7456 27.8715 38.545 27.664Z" fill="#F0B000"/>
<path d="M51.6664 24.726C53.2168 22.5156 54.8211 20.4551 57.3882 19.5275C58.0402 19.2883 58.4073 20.2814 57.7471 20.5197C55.4661 21.3438 54.0353 23.1877 52.5296 25.3325C52.1296 25.9038 51.2653 25.2972 51.6664 24.726Z" fill="#F0B000"/>
<path d="M51.929 53.9919C51.8974 53.9355 51.1222 52.5599 48.8928 52.0372C48.385 51.9161 48.5633 51.1442 49.0746 51.2653C50.6824 51.6441 51.6464 52.4297 52.1577 52.9905C52.9552 51.2758 54.5958 50.5323 54.6732 50.4984C55.1494 50.2858 55.4719 51.0073 54.9946 51.2218C54.9758 51.23 53.1686 52.0582 52.6596 53.9107C52.6174 54.0669 52.4826 54.1806 52.3219 54.1993C52.1518 54.2173 52.0017 54.1293 51.929 53.9919Z" fill="#F0B000"/>
<path d="M17.9898 38.1772C19.1228 35.1634 18.9441 31.2031 17.136 28.4967C16.2198 27.1256 14.9746 26.0665 13.5839 25.1928C18.3014 30.3131 17.2624 40.4797 9.79028 42.7665C10.0579 42.9095 10.3629 43.0349 10.6933 43.1462C13.959 42.8975 16.7173 41.5621 17.9898 38.1772Z" fill="white" fill-opacity="0.2"/>
<path d="M10.1758 22.3107C13.2033 23.5994 16.2034 25.1894 18.0478 27.9641C20.0071 30.9125 20.215 35.1755 19.0079 38.4579C17.9602 41.3077 16.0023 42.8744 13.5936 43.6179C17.9015 43.7141 23.4143 41.4625 23.6489 34.2795C23.9485 25.0795 16.8498 21.2269 10.1758 22.3107Z" fill="white" fill-opacity="0.2"/>
<path d="M47.0771 62.4027C47.2204 60.9029 46.6373 58.3087 46.6314 58.2821C46.516 57.7741 47.2865 57.5945 47.4033 58.1071C47.4285 58.2184 48.0208 60.8539 47.865 62.4769C47.8156 62.9973 47.0272 62.9236 47.0771 62.4027Z" fill="#F0B000"/>
<path d="M51.5139 61.0095C51.5549 60.2532 51.5725 58.2018 50.8501 55.5072C50.7152 55.0006 51.4799 54.7986 51.6147 55.302C52.3665 58.1083 52.3477 60.2591 52.3055 61.0539C52.2762 61.5784 51.4857 61.5312 51.5139 61.0095Z" fill="#F0B000"/>
<path d="M55.6465 59.4113C55.5175 54.9595 54.3343 53.6131 55.1552 53.4208C55.3674 53.3704 55.5809 53.5032 55.6301 53.7162C56.0758 55.6141 56.3924 57.8396 56.437 59.3889C56.4522 59.9106 55.6606 59.9354 55.6465 59.4113Z" fill="#F0B000"/>
<path d="M19.2502 8.2422C16.3363 6.58395 11.6019 10.4059 9.73967 12.3926C7.32911 14.9667 5.37721 18.3685 6.91643 21.8153C7.11333 22.2564 7.7547 22.3549 8.1349 22.1346C11.2743 20.3223 13.4535 17.1903 16.4055 15.0382C18.1312 13.7788 22.8573 10.2945 19.2502 8.2422Z" fill="white" fill-opacity="0.2"/>
<path d="M27.1368 6.9583C26.9495 6.38014 26.282 5.87446 25.6458 6.11123C25.2834 6.24739 24.949 6.41403 24.7675 6.78098C24.5774 7.16669 24.5431 7.58771 24.7675 7.97166C24.9605 8.30096 25.3846 8.5965 25.785 8.55521C25.9119 8.54243 26.0379 8.5259 26.1639 8.50619C26.5088 8.36336 26.5505 8.34318 26.2908 8.4499C26.8827 8.22814 27.3513 7.61984 27.1368 6.9583Z" fill="white" fill-opacity="0.2"/>
<path d="M13.3133 40.6246C13.2909 40.566 13.2016 40.5871 13.2181 40.6503C13.2525 40.7854 13.2878 40.9201 13.3226 41.0538C13.3473 41.1477 13.4998 41.1033 13.4654 41.0153C13.4151 40.8839 13.3642 40.7548 13.3133 40.6246Z" fill="#FFCCD2"/>
<path d="M13.0371 48.1718C12.7379 48.0651 12.4526 47.8868 12.2056 47.6215C11.9482 47.3425 11.4856 47.3321 11.1987 47.5607C10.9298 47.7741 10.7663 48.2418 11.0018 48.5493C11.2881 48.9244 11.5986 49.2437 12.0013 49.4971C12.5057 49.8146 13.2721 50.0692 13.6528 49.4183C13.9633 48.8882 13.5432 48.3537 13.0371 48.1718Z" fill="white" fill-opacity="0.2"/>
<path d="M55.1868 25.7648C55.1259 25.5514 54.9101 25.4414 54.7002 25.4881C53.9496 25.6558 53.7256 26.7067 53.4828 27.3388C53.3421 27.7049 53.8933 28.0155 54.1443 27.7236C54.3929 27.435 54.6743 27.1533 54.8866 26.8382C55.1223 26.4864 55.3088 26.1968 55.1868 25.7648Z" fill="white" fill-opacity="0.2"/>
<path d="M56.735 23.1382L56.5016 23.2742C56.185 23.4593 56.1287 23.9096 56.3867 24.1665C56.6435 24.4245 57.0962 24.3695 57.2803 24.053C57.3249 23.9742 57.3706 23.8959 57.4152 23.8185C57.6649 23.3878 57.1665 22.8848 56.735 23.1382Z" fill="white" fill-opacity="0.2"/>
<path d="M31.8567 47.7485C30.753 46.6894 29.5514 45.7791 28.5592 44.5972C27.5423 43.3856 26.7222 41.8987 26.074 40.4575C25.8748 40.0154 25.2875 40.359 25.3507 40.7634C25.8532 43.9664 28.2078 47.4846 31.4952 48.3688C31.8474 48.4636 32.1273 48.0101 31.8567 47.7485Z" fill="white" fill-opacity="0.2"/>
<path d="M46.8192 37.9666C46.5896 36.5781 46.1774 35.1754 46.0111 33.7856C45.9044 32.8923 44.7417 32.8991 44.6262 33.7856C44.2359 36.7646 44.1718 39.3102 46.012 41.8518C46.3295 42.2901 47.0642 42.1661 47.0725 41.5646C47.0877 40.307 47.023 39.2035 46.8192 37.9666Z" fill="white" fill-opacity="0.2"/>
<path d="M47.084 43.8391C47.1321 43.9422 47.1143 43.8991 47.0304 43.7076C46.9837 43.6197 46.9201 43.5519 46.8394 43.4992C46.631 43.3384 46.2856 43.2459 46.0492 43.4099C45.9855 43.4534 45.9168 43.5002 45.8655 43.5579C45.6512 43.797 45.5668 44.1685 45.7495 44.4548C45.9297 44.7388 46.1504 44.9313 46.5068 44.9284C46.8967 44.9262 47.1404 44.6202 47.1779 44.2569C47.194 44.0993 47.1418 43.9789 47.084 43.8391Z" fill="white" fill-opacity="0.2"/>
<path d="M5.11837 29.7599C5.14722 28.594 5.20304 27.407 5.28971 26.2439C5.33321 25.6585 4.55675 25.5683 4.27541 25.9695C2.90753 27.922 2.01883 31.3032 3.78896 33.3226C4.13022 33.7105 4.71519 33.4622 4.86412 33.039C5.21641 32.0316 5.09222 30.8185 5.11837 29.7599Z" fill="white" fill-opacity="0.2"/>
<path d="M4.93192 37.067C4.30111 37.067 3.89933 37.663 4.02528 38.2563C4.06152 38.4276 4.11417 38.5774 4.19485 38.7336C4.48112 39.2906 5.38178 39.2906 5.66852 38.7336C5.74873 38.5774 5.80138 38.4276 5.83797 38.2563C5.96404 37.6639 5.56497 37.067 4.93192 37.067Z" fill="white" fill-opacity="0.2"/>
<path d="M7.88347 34.4433C7.82988 33.7773 6.81335 33.9628 7.00849 34.5634C7.11334 34.8831 7.15004 35.2514 7.49131 35.3911C7.58701 35.4296 7.71073 35.3815 7.77992 35.3137C8.01259 35.0883 7.90728 34.7343 7.88347 34.4433Z" fill="white" fill-opacity="0.2"/>
<path d="M51.7683 14.1002C51.7331 14.1002 51.7331 14.1528 51.7683 14.1528C51.8012 14.1528 51.8012 14.1002 51.7683 14.1002Z" fill="white" fill-opacity="0.2"/>
<path d="M51.3261 9.92842C50.775 9.3444 49.9458 9.04887 49.2164 8.74888C48.5702 8.48267 47.7609 9.28799 48.0298 9.93581C48.5902 11.2845 48.8141 13.3894 50.497 13.821C51.3555 14.0413 52.0427 13.5346 52.3546 12.7655C52.7733 11.732 52.0063 10.65 51.3261 9.92842Z" fill="white" fill-opacity="0.2"/>
<path d="M51.1551 16.6253C51.0355 16.3766 50.8736 16.1269 50.6543 15.9578C50.3518 15.7233 50.0187 15.524 49.6997 15.312C49.233 15.0023 48.6665 15.5135 48.7908 16.0096C48.8765 16.3486 48.9363 16.7037 49.0488 17.0322C49.2271 17.5561 49.7595 18.1718 50.3588 18.1169C50.6567 18.0913 50.9991 17.9703 51.1351 17.6725C51.3005 17.3088 51.3298 16.9885 51.1551 16.6253Z" fill="white" fill-opacity="0.2"/>
<path d="M46.0179 10.1412C45.9736 9.94149 45.8869 9.71058 45.7679 9.54745C45.5658 9.2708 45.246 8.98442 44.8677 9.03168C44.4971 9.07613 44.2484 9.14895 44.0202 9.4724C44.0033 9.49714 43.9853 9.52177 43.9675 9.54745C43.7457 9.86175 43.8113 10.2818 43.9675 10.5993C44.0583 10.7862 44.2085 10.9653 44.3688 11.1013C44.694 11.3757 45.1774 11.505 45.5644 11.2553C45.9465 11.0088 46.116 10.5842 46.0179 10.1412Z" fill="white" fill-opacity="0.2"/>
<path d="M63.5193 24.7992C62.974 24.315 62.1988 25.0736 62.7148 25.6027C63.7234 26.6417 64.4035 27.9738 64.8386 29.3481C65.2503 30.6523 65.2737 32.0688 65.7416 33.3391C65.8308 33.5819 66.2635 33.657 66.3139 33.3391C66.7783 30.3921 65.7698 26.7928 63.5193 24.7992Z" fill="white" fill-opacity="0.2"/>
<path d="M66.0159 36.3574C65.2524 36.3574 65.2513 37.5457 66.0159 37.5457C66.7805 37.5457 66.7817 36.3574 66.0159 36.3574Z" fill="white" fill-opacity="0.2"/>
<path d="M37.7286 22.1931C36.8077 20.8235 34.8965 20.6476 33.421 21.0002C32.8612 21.1354 32.9492 21.8761 33.421 22.0498C34.2438 22.3512 35.106 22.7067 35.8925 23.0914C36.3946 23.3375 37.3804 23.708 37.7286 23.0127C37.8545 22.7607 37.8953 22.4406 37.7286 22.1931Z" fill="white" fill-opacity="0.2"/>
<path d="M40.057 24.2994C40.0272 24.2481 39.9975 24.1955 39.9677 24.1422C39.7936 23.8377 39.3579 23.7882 39.1129 24.0324C38.8688 24.2775 38.9173 24.7136 39.2233 24.8886C39.2755 24.9179 39.3273 24.9481 39.38 24.9775C39.8115 25.2224 40.3026 24.7324 40.057 24.2994Z" fill="white" fill-opacity="0.2"/>
</svg>
