<svg width="51" height="64" viewBox="0 0 51 64" fill="none" xmlns="http://www.w3.org/2000/svg">
<path d="M34.0932 53.1214C34.0932 53.1214 33.2675 56.3434 32.2703 58.7589C32.0541 59.2815 31.8347 59.7727 31.6144 60.2207C30.8226 61.8406 30.0548 62.9088 29.6672 63.0001C28.8846 63.1814 27.8092 61.9361 27.7255 61.822C27.8319 61.512 27.8821 61.0756 27.8411 60.456C27.7479 59.0372 27.0638 54.643 26.6443 53.1289C27.2895 52.4349 27.9081 51.6729 28.4692 50.915C28.4949 51.2253 28.5827 52.2851 28.6142 52.8995C28.6142 52.8995 29.7604 51.1966 30.1853 50.8275C30.1853 50.8275 30.3733 52.9124 30.312 53.3865C30.312 53.3865 32.045 51.0307 32.2703 50.8275C32.2703 50.8275 32.0935 53.8586 31.939 54.9865C31.939 54.9865 33.6402 53.4798 34.0932 53.1214Z" fill="#1A1A1A"/>
<path d="M16.1238 62.2976C15.9225 62.0325 15.7287 61.7541 15.5461 61.4857C14.2508 59.5725 12.4097 56.1971 12.3538 56.0909C12.7898 56.3257 15.0185 57.6212 15.0185 57.6212C14.4839 56.6057 13.3753 53.6044 13.3414 53.5107C13.7795 53.9064 15.93 56.0888 15.93 56.0888C15.3299 54.3918 14.8529 51.5959 14.8529 51.5959L17.3797 55.1555C17.1263 54.1698 16.7366 52.3463 16.7366 52.3463L16.7499 52.3347C17.516 53.2216 18.3243 54.011 19.1314 54.6216C19.0324 55.7715 19.3795 60.3993 19.7033 61.3887C19.7836 61.6346 19.8954 61.8458 20.0408 62.0232L20.0221 62.0362C18.9318 65.2191 17.3781 63.9514 16.1238 62.2976Z" fill="#1A1A1A"/>
<path d="M27.7255 61.8213C27.5876 62.2228 27.3565 62.4111 27.1052 62.5106C26.6596 62.6874 23.7696 62.9267 22.3215 62.8591C21.2311 62.8105 20.4824 62.5662 20.0406 62.0231C19.8952 61.8457 19.7834 61.6346 19.7031 61.3886C19.3792 60.3992 19.0322 55.7714 19.1312 54.6215C20.3089 55.5138 21.4792 56.0236 22.4945 55.8925C23.8234 55.7208 25.2955 54.5751 26.6443 53.1282C27.0638 54.6423 27.7479 59.0364 27.841 60.4552C27.882 61.0749 27.8319 61.5113 27.7255 61.8213Z" fill="#FFE3CB"/>
<path d="M13.3413 53.511C13.3753 53.6048 14.4838 56.6061 15.0185 57.6215C15.0185 57.6215 12.7898 56.326 12.3537 56.0912C12.4096 56.1974 14.2507 59.5728 15.546 61.486C15.7286 61.7544 15.9225 62.0328 16.1237 62.2979C15.2889 62.5346 12.2141 63.0313 9.99661 63.1175C9.52868 63.1358 9.05743 63.1491 8.58618 63.1624C9.64422 61.3329 9.9461 59.263 9.82518 57.1627C9.73573 55.6167 9.34648 53.9611 9.70219 52.4287C10.142 50.5392 11.6849 49.2064 12.3239 47.4089C12.5458 46.7838 12.6519 46.1487 12.7061 45.5103C13.3807 47.5993 14.9402 50.2372 16.7498 52.335L16.7366 52.3466C16.7366 52.3466 17.1262 54.1702 17.3797 55.1558L14.8528 51.5962C14.8528 51.5962 15.3299 54.3921 15.9299 56.0891C15.9299 56.0891 13.7795 53.9068 13.3413 53.511Z" fill="#D13B6A"/>
<path d="M32.6355 50.4408L32.2703 50.8274C32.045 51.0307 30.312 53.3865 30.312 53.3865C30.3733 52.9123 30.1853 50.8274 30.1853 50.8274C29.7604 51.1966 28.6142 52.8995 28.6142 52.8995C28.5827 52.2851 28.4949 51.2252 28.4692 50.9149C29.7008 49.2498 30.6549 47.6071 31.0222 46.7688C31.0425 47.2844 31.1149 47.7959 31.2715 48.3016C31.5493 49.1864 32.0413 49.8621 32.6355 50.4408Z" fill="#D13B6A"/>
<path d="M36.8028 54.1095C37.8853 55.7203 37.2235 57.8018 38.1797 59.4276C35.8073 59.635 33.3517 59.9336 31.6518 60.2397L31.6145 60.2211C31.8348 59.7731 32.0543 59.2819 32.2704 58.7593C33.2676 56.3438 34.0933 53.1218 34.0933 53.1218C33.6403 53.4802 31.9392 54.9869 31.9392 54.9869C32.0936 53.859 32.2704 50.8278 32.2704 50.8278L32.6357 50.4412C33.9422 51.7143 35.7382 52.5261 36.8028 54.1095Z" fill="#D13B6A"/>
<path d="M9.53087 37.4842C8.795 38.5499 8.26372 39.7446 8.17427 41.0513C8.0811 42.4306 8.43888 43.8364 7.97674 45.1784C7.26697 47.245 5.19064 48.4659 4.42869 50.5043C4.09161 51.4099 3.93839 52.3806 4.015 53.3455C4.13799 54.9193 4.67467 56.3753 4.54589 57.9786C4.39349 59.8976 3.14455 61.591 3.16692 63.5191C1.86456 63.7074 0.636327 63.8661 0.362604 63.422L0.284343 63.3883C-0.654846 60.8608 1.33534 58.3242 1.83848 55.9456C2.11054 54.6596 1.69312 53.5637 1.57386 52.3038C1.51423 51.6824 1.5867 51.0457 1.72294 50.4392C1.96146 49.3752 2.44596 48.3929 3.087 47.5155C3.53796 46.8978 4.0411 46.3345 4.48833 45.7309C4.80305 45.3111 5.09002 44.8706 5.31571 44.3778C5.55589 43.8514 5.74223 43.3046 5.81511 42.7297C5.95839 41.5777 5.81718 40.4241 6.2081 39.3115C7.22762 38.7067 8.34197 38.089 9.53087 37.4842Z" fill="#F9A6AC"/>
<path d="M36.8065 37.0917C36.9088 37.9637 37.1995 38.8469 37.6707 39.5819C38.2654 40.5136 39.1449 40.9562 40.0675 41.4955C40.9169 41.9941 41.765 42.5653 42.4358 43.295C43.2483 44.1778 43.7216 45.3036 43.9473 46.4738C44.1427 47.4918 44.1668 48.5442 44.6662 49.4759C45.3221 50.6984 46.6717 51.3463 47.6034 52.3262C49.0789 53.883 49.886 55.9978 49.994 58.1188L50.0164 58.1354C49.3849 58.9568 46.7644 59.2645 44.1017 59.1637C43.8409 59.1546 43.5502 59.1508 43.2334 59.1508C42.1058 58.2324 41.2486 57.0584 40.7641 55.675C40.2874 54.3065 40.1996 52.8061 39.376 51.5666C38.614 50.4205 37.4193 49.7522 36.4653 48.7943C35.8524 48.1783 35.3973 47.4524 35.148 46.6157C34.7529 45.2999 34.9244 43.9687 34.8738 42.6193C34.8349 41.5631 34.6055 40.4672 34.1322 39.5168C33.2137 37.6688 31.3482 36.7968 29.9804 35.3561C29.0486 34.3726 28.5567 33.1816 28.3198 31.8616C30.8322 31.6019 33.1851 31.5273 35.2445 31.5742C35.9605 32.2553 36.4483 33.1737 36.6313 34.1444C36.8007 35.0483 36.7075 35.9642 36.7841 36.8756C36.7895 36.9465 36.7969 37.0191 36.8065 37.0917Z" fill="#FF5D89"/>
<path d="M0.0249452 44.2679C0.287901 43.3884 2.67313 41.4155 6.20793 39.3115C5.81701 40.4241 5.95822 41.5777 5.81494 42.7297C5.74206 43.3047 5.55572 43.8514 5.31554 44.3778C5.08985 44.8706 4.80288 45.3112 4.48816 45.731L4.44344 45.6974C4.44344 45.6974 -0.0156402 45.7965 0.00092397 44.4413C-0.00280297 44.389 0.00465414 44.3309 0.0249452 44.2679Z" fill="#1A1A1A"/>
<path d="M43.1851 32.9556C43.6675 33.9877 37.5276 36.7653 36.8066 37.0918C36.7971 37.0192 36.7896 36.9466 36.7843 36.8757C36.7077 35.9643 36.8008 35.0484 36.6315 34.1445C36.4484 33.1738 35.9606 32.2554 35.2446 31.5742C39.5215 31.6676 42.5349 32.2798 43.1064 32.849C43.142 32.8847 43.1685 32.9203 43.1851 32.9556Z" fill="#1A1A1A"/>
<path d="M7.79391 32.9815C12.0741 29.8101 22.7294 25.8037 29.5182 26.1675C29.5427 26.1675 29.5667 26.1696 29.5911 26.1717C36.1634 26.5579 42.2403 31.206 43.1062 32.8487C42.5348 32.2796 39.5213 31.6673 35.2445 31.574C33.1851 31.5271 30.8322 31.6017 28.3198 31.8614C27.4216 31.9543 26.5015 32.0705 25.5677 32.2124C24.2819 32.4082 22.9683 32.6529 21.6432 32.9553C19.9495 33.3415 18.2575 33.8455 16.6102 34.4279C14.1036 35.3128 11.6977 36.3789 9.53066 37.484C8.34176 38.0888 7.22741 38.7064 6.20789 39.3113C2.67309 41.4152 0.287859 43.3882 0.0249023 44.2676C0.0381537 42.3187 3.61601 36.1009 7.75457 33.0109C7.76782 33.0018 7.78065 32.9922 7.79391 32.9815Z" fill="#DBA100"/>
<path d="M29.5203 26.1448L29.5183 26.1668C22.7294 25.803 12.0741 29.8094 7.79395 32.9807C8.21302 26.962 10.1196 15.4482 11.5209 10.1579C13.526 2.59441 15.0689 -0.0695877 15.283 0.00134659C15.4992 0.0722809 25.4671 15.3175 29.5203 26.1448Z" fill="#F0B000"/>
<path d="M19.1313 54.6219C18.3242 54.0113 17.5159 53.2219 16.7498 52.335C14.9401 50.2372 13.3806 47.5994 12.7061 45.5103C12.8456 43.8232 12.6075 42.1096 13.1272 40.459C13.8279 38.2231 15.7584 36.6289 16.6102 34.4278C18.2575 33.8454 19.9496 33.3414 21.6432 32.9552C22.9684 32.6528 24.2819 32.4081 25.5677 32.2123L25.5698 32.2235C25.6646 34.023 26.3558 35.3463 27.5819 36.6812C28.693 37.8887 30.1949 38.725 30.8546 40.3009C31.7283 42.395 30.9287 44.6105 31.0223 46.7685C30.655 47.6068 29.7009 49.2495 28.4693 50.9146C27.9082 51.6725 27.2896 52.4345 26.6444 53.1285C25.2956 54.5755 23.8235 55.7212 22.4946 55.8929C21.4793 56.024 20.309 55.5142 19.1313 54.6219Z" fill="#FFE3CB"/>
<path d="M18.8423 34.3711C18.9806 35.6545 20.1554 36.9031 21.7398 36.6045C23.2703 36.3166 23.8968 34.9501 23.7312 33.7625C22.9978 35.4438 20.7306 36.7795 18.8423 34.3711Z" fill="#1A1A1A"/>
<path d="M11.2559 19.831C11.2559 19.831 11.4953 21.5127 11.6609 22.3L9.80615 23.8967H11.9628L12.9219 26.145L13.0925 23.5793H15.4922L13.5517 22.541L14.575 20.5938L12.7028 21.7441L11.2559 19.831Z" fill="#1A1A1A" fill-opacity="0.8"/>
<path d="M15.45 7.72621L15.6575 9.79784L13.7183 10.447L15.45 11.1626L15.0504 13.6843L16.4398 11.8276L17.9554 13.6843L17.5475 10.9954L19.6209 10.7752L17.5475 10.0741L17.9554 8.25552L16.6733 9.43321L15.45 7.72621Z" fill="#1A1A1A" fill-opacity="0.8"/>
<path d="M23.7109 19.9296L23.0832 21.9535L20.9688 21.8012L22.2355 22.8644L21.3394 24.9195L23.0832 23.7069L23.5548 25.6118L24.2298 23.7069L26.2146 24.3366L24.9967 22.6765L26.0142 21.1628L24.2298 21.8012L23.7109 19.9296Z" fill="#1A1A1A" fill-opacity="0.8"/>
<path d="M21.8511 16.1219C21.3206 16.3903 21.8183 17.3341 22.3902 16.9246C22.9617 16.5148 22.4606 15.8133 21.8511 16.1219Z" fill="#F0B000"/>
<path d="M14.3774 16.9933C13.9646 16.7822 13.6006 17.5301 14.1211 17.7019C14.6416 17.874 14.8516 17.236 14.3774 16.9933Z" fill="#F0B000"/>
<path d="M15.6051 4.59687C15.3391 4.73085 15.5885 5.20294 15.8751 4.99843C16.1613 4.79309 15.9104 4.44255 15.6051 4.59687Z" fill="#1A1A1A" fill-opacity="0.8"/>
<path d="M10.9766 28.2847C10.7107 28.4191 10.9604 28.8912 11.2466 28.6862C11.5328 28.4809 11.2819 28.1308 10.9766 28.2847Z" fill="#F0B000"/>
<path d="M17.8565 62.1327C17.1294 61.2943 16.502 60.3506 15.938 59.2479C15.8908 59.1564 15.9268 59.0439 16.0183 58.9971C16.1103 58.9498 16.2225 58.9863 16.2693 59.0775C16.8196 60.1531 17.4308 61.0724 18.1377 61.8884C18.2056 61.9663 18.1969 62.0841 18.1195 62.1514C18.0416 62.219 17.9236 62.2112 17.8565 62.1327Z" fill="white" fill-opacity="0.8"/>
<path d="M17.7105 58.1203C17.5084 57.7877 17.3088 57.4364 17.1163 57.0766C17.0674 56.9859 17.1018 56.873 17.192 56.824C17.4252 56.6988 17.4248 56.9307 18.0289 57.9262C18.0824 58.0147 18.0542 58.1291 17.9664 58.1826C17.879 58.2362 17.7643 58.2088 17.7105 58.1203Z" fill="white" fill-opacity="0.8"/>
<path d="M29.6701 59.6462C29.4469 59.5561 29.5587 59.4141 30.0274 58.2792C30.3716 57.4476 30.7277 56.5869 31.0378 55.7244C31.0726 55.6277 31.1791 55.5767 31.2764 55.6119C31.5571 55.7132 31.3658 55.9372 29.9127 59.5428C29.8738 59.6391 29.7657 59.6843 29.6701 59.6462Z" fill="white" fill-opacity="0.8"/>
<path d="M28.6898 56.3288C28.4542 56.289 28.5366 56.0795 28.6932 55.2851C28.841 54.5326 28.8199 54.3148 29.0559 54.3534C29.2924 54.3945 29.2058 54.6114 29.0588 55.3569C29.0054 55.6298 28.9516 55.9024 28.9048 56.1766C28.8874 56.2782 28.7905 56.3462 28.6898 56.3288Z" fill="white" fill-opacity="0.8"/>
<path d="M19.3243 54.993C19.1227 54.8519 19.3359 54.545 19.538 54.6873C21.6297 56.1566 23.2774 56.3578 26.2945 53.2267C26.4668 53.0487 26.7335 53.3084 26.5629 53.4859C25.0514 55.054 23.6907 55.9263 22.5188 56.0777C21.4036 56.2204 20.2482 55.6422 19.3243 54.993Z" fill="#E0AB98"/>
<path d="M16.6841 45.2606C17.4204 46.1566 15.4451 48.1722 14.0976 48.563C13.5444 47.5919 13.0935 46.6303 12.7878 45.755C13.7436 44.93 15.9483 44.3662 16.6841 45.2606Z" fill="#FDC1AB"/>
<path d="M31.0224 46.7576H30.9926C29.3933 47.1811 26.5389 46.2665 26.8685 44.8681C27.1928 43.5054 29.5441 43.2818 31.1653 44.2728C31.0816 45.1037 30.9868 45.9342 31.0224 46.7576Z" fill="#FDC1AB"/>
<path d="M20.9687 38.8583C20.7368 38.4128 20.1206 47.6057 20.2792 47.9044C20.4386 48.2031 21.7903 47.9932 21.8076 47.6924C21.825 47.3917 21.244 39.388 20.9687 38.8583Z" fill="#FDC1AB"/>
<path d="M17.6261 50.6929C17.4443 50.6796 17.4592 50.4042 17.6464 50.4137C17.689 50.4166 22.0893 50.6834 24.8463 49.4866C24.9213 49.4688 24.997 49.5153 25.0148 49.5903C25.0327 49.6654 24.9863 49.7413 24.9113 49.7592C22.743 50.9946 19.6556 50.8439 17.6261 50.6929Z" fill="#1A1A1A"/>
<path d="M17.5088 50.9878C17.4335 50.6941 17.3651 50.0137 17.6442 50.0801C17.7196 50.0971 17.7668 50.1714 17.7498 50.2473C17.7047 50.4497 17.7142 50.663 17.7797 50.9177C17.7991 50.9927 17.754 51.0691 17.6794 51.0881C17.6012 51.1076 17.5275 51.0599 17.5088 50.9878Z" fill="#1A1A1A"/>
<path d="M24.9338 50.1731C24.6754 50.1784 24.9161 49.8351 24.5801 49.2738C24.4845 49.1144 24.7251 48.9715 24.8196 49.1295C24.9845 49.4048 25.0641 49.6904 25.0709 50.0305C25.0726 50.1082 25.011 50.1715 24.9338 50.1731Z" fill="#1A1A1A"/>
<path d="M30.1799 38.5432L29.9931 36.981C27.827 36.3741 26.619 36.6612 26.2144 36.7358C25.257 36.9121 25.1949 38.7062 26.5544 38.5283C26.5544 38.5283 29.1633 38.4416 30.1799 38.5432Z" fill="#D13B6A"/>
<path d="M13.2998 39.1166C11.0798 39.4878 11.3978 38.6478 12.8492 37.897C14.5438 37.02 16.4739 36.8118 17.1199 36.9512C17.9758 37.1366 17.8789 38.5428 16.6851 38.6918C15.984 38.7793 14.6609 38.8888 13.2998 39.1166Z" fill="#D13B6A"/>
<path d="M30.8545 40.3003C31.0835 40.8508 31.199 41.4104 31.2437 41.9746C30.1762 42.0675 26.3184 42.1869 26.4194 41.6572C26.5217 41.1192 29.3467 39.7847 30.4184 39.5532L30.4387 39.5383C30.599 39.7735 30.7385 40.0253 30.8545 40.3003Z" fill="white"/>
<path d="M29.6449 42.9987C29.8329 42.6863 29.2668 42.3586 29.1033 42.7585C28.9401 43.1584 29.4296 43.3588 29.6449 42.9987Z" fill="#1A1A1A"/>
<path d="M29.2632 39.8943C28.8148 39.9835 28.7266 41.3831 29.2632 41.3205C29.7291 41.2665 29.8463 39.779 29.2632 39.8943Z" fill="black"/>
<path d="M26.4888 40.3582C26.3881 40.1877 26.2941 40.0363 26.191 39.8679C26.0941 39.7103 26.3314 39.563 26.4287 39.7211C26.5318 39.8887 26.6291 40.0459 26.7294 40.2155C26.7683 40.2827 26.7467 40.3686 26.6797 40.4072C26.6138 40.4466 26.5277 40.4246 26.4888 40.3582Z" fill="#1A1A1A"/>
<path d="M28.586 38.8077C28.5715 38.6227 28.8506 38.6027 28.8647 38.7857C28.8875 39.0964 28.8966 39.2515 28.9144 39.4237C28.9222 39.5008 28.8668 39.5697 28.7897 39.5776C28.6013 39.595 28.6286 39.3942 28.586 38.8077Z" fill="#1A1A1A"/>
<path d="M26.3471 41.8506C26.2134 41.7021 26.285 41.4897 26.4453 41.5204C26.5161 41.5337 26.5641 41.5984 26.5588 41.6681C26.8143 41.9738 29.8074 41.9606 31.2319 41.8361C31.311 41.8295 31.3764 41.8863 31.3831 41.9631C31.3897 42.0402 31.333 42.1078 31.2559 42.1149C30.9971 42.1381 26.8399 42.3961 26.3471 41.8506Z" fill="#1A1A1A" fill-opacity="0.8"/>
<path d="M26.1907 41.6143C26.3356 40.8523 29.4687 39.5203 30.3694 39.3257C30.67 39.261 30.7686 39.7165 30.4675 39.7825C29.3486 40.0239 26.7779 41.3181 26.647 41.7056C26.5903 42.0055 26.1323 41.9201 26.1907 41.6143Z" fill="#1A1A1A"/>
<path d="M17.8792 42.057C18.0879 42.4544 13.7327 43.1882 12.7882 43.1393H12.7695C12.7824 42.5237 12.8159 41.911 12.9223 41.3045L12.9314 41.3062C12.9314 41.3062 17.5603 41.4464 17.8792 42.057Z" fill="white"/>
<path d="M14.2275 43.7055C13.784 43.4781 13.3931 44.2816 13.9522 44.4667C14.5112 44.6513 14.7369 43.966 14.2275 43.7055Z" fill="#1A1A1A"/>
<path d="M13.9566 41.3666C13.5888 41.5243 13.7661 42.7376 14.2137 42.5866C14.6022 42.456 14.4345 41.1621 13.9566 41.3666Z" fill="black"/>
<path d="M14.0867 40.7329C14.0859 40.7329 14.0855 40.7329 14.0847 40.7329C13.9132 40.7308 13.9476 40.5421 13.9484 40.355C13.9497 40.0045 13.9116 39.7709 14.0983 39.7805C14.2851 39.7863 14.2292 39.9978 14.2279 40.3558C14.2275 40.4355 14.2275 40.5147 14.2263 40.5948C14.2254 40.6711 14.1629 40.7329 14.0867 40.7329Z" fill="#1A1A1A"/>
<path d="M16.5207 41.0185C16.3348 40.9625 16.4599 40.7348 16.5377 40.4921C16.5804 40.3581 16.6234 40.2246 16.6628 40.0893C16.6847 40.0151 16.7626 39.9736 16.8363 39.9943C17.0396 40.0541 16.8889 40.2772 16.6951 40.9248C16.6723 40.999 16.5944 41.0405 16.5207 41.0185Z" fill="#1A1A1A"/>
<path d="M12.7808 43.28C12.6855 43.2817 12.6296 43.2145 12.6296 43.1402C12.6296 43.0656 12.6822 43.0004 12.7882 43.0004C13.7026 43.0482 17.3852 42.3977 17.7401 42.0683C17.7281 41.919 17.9318 41.858 18.0031 41.9928C18.0378 42.0592 18.0333 42.1355 17.991 42.2032C17.6718 42.7026 13.556 43.3211 12.7808 43.28Z" fill="#1A1A1A" fill-opacity="0.8"/>
<path d="M17.6723 42.1655C17.4413 41.8623 15.027 41.6035 12.9242 41.54C12.911 41.5396 12.8977 41.5379 12.8845 41.535C12.7586 41.5093 12.6724 41.3848 12.6985 41.2587C12.7234 41.1368 12.8352 41.0559 12.9565 41.0741C14.3997 41.1181 17.7423 41.2915 18.0856 41.949C18.1452 42.0635 18.1009 42.2041 17.987 42.2639C17.8732 42.3236 17.7324 42.2796 17.6723 42.1655Z" fill="#1A1A1A"/>
<path d="M31.0222 46.7684C30.9286 44.6104 31.7283 42.3949 30.8545 40.3008C30.1948 38.7249 28.6929 37.8886 27.5818 36.6811C26.3557 35.3462 25.6645 34.0229 25.5697 32.2234L25.5676 32.2122C26.5014 32.0703 27.4216 31.9541 28.3198 31.8612C28.5566 33.1812 29.0486 34.3722 29.9803 35.3557C31.3481 36.7964 33.2136 37.6684 34.1321 39.5164C34.6055 40.4668 34.8349 41.5627 34.8738 42.6189C34.9243 43.9683 34.7529 45.2995 35.1479 46.6153C35.3972 47.452 35.8523 48.1779 36.4652 48.7939C37.4193 49.7518 38.614 50.4201 39.3759 51.5662C40.1996 52.8057 40.2874 54.3061 40.764 55.6746C41.2485 57.058 42.1057 58.232 43.2333 59.1504C41.8788 59.1584 40.0559 59.2629 38.1796 59.4268C37.2234 57.801 37.8852 55.7194 36.8027 54.1087C35.738 52.5253 33.9421 51.7135 32.6356 50.4404C32.0413 49.8617 31.5494 49.1859 31.2715 48.3011C31.115 47.7955 31.0425 47.284 31.0222 46.7684Z" fill="#F9A6AC"/>
<path d="M12.7059 45.5106C12.6516 46.1491 12.5456 46.7842 12.3236 47.4093C11.6847 49.2067 10.1417 50.5396 9.70195 52.4291C9.34624 53.9614 9.73549 55.617 9.82494 57.163C9.94586 59.2634 9.64398 61.3333 8.58594 63.1627C6.79494 63.2149 5.04163 63.2524 3.83576 63.422C3.6138 63.4539 3.38852 63.4854 3.16656 63.519C3.14419 61.5909 4.39314 59.8976 4.54553 57.9786C4.67431 56.3753 4.13763 54.9193 4.01464 53.3454C3.93803 52.3806 4.09125 51.4099 4.42833 50.5043C5.19028 48.4659 7.26661 47.245 7.97638 45.1784C8.43852 43.8364 8.08074 42.4306 8.17391 41.0513C8.26336 39.7446 8.79464 38.5499 9.53051 37.4842C11.6975 36.3791 14.1035 35.313 16.61 34.4282C15.7582 36.6293 13.8277 38.2234 13.127 40.4593C12.6073 42.1099 12.8454 43.8236 12.7059 45.5106Z" fill="#FF5D89"/>
<path d="M32.7898 34.8912C31.2531 34.7067 30.4683 32.9851 30.8373 32.8955C30.9118 32.8764 30.988 32.9229 31.0062 32.9984C31.2087 33.8318 31.9732 34.5113 32.8229 34.6133C32.8999 34.622 32.9546 34.6917 32.9451 34.7689C32.936 34.8464 32.8647 34.9008 32.7898 34.8912Z" fill="#D13B6A"/>
<path d="M35.9497 38.1678C35.0913 37.4219 35.7245 35.9365 35.0578 34.6953C34.6523 33.942 33.8179 33.4342 33.4543 32.5988C33.3798 32.4291 33.6365 32.3179 33.7103 32.4872C34.0494 33.265 34.8755 33.7661 35.3037 34.5626C35.9974 35.8531 35.4056 37.3249 36.1332 37.9562C36.1912 38.0068 36.1974 38.0952 36.1469 38.1537C36.0959 38.2126 36.0077 38.2184 35.9497 38.1678Z" fill="#D13B6A"/>
<path d="M36.4629 44.0683C35.1738 42.8678 36.1983 40.4987 34.9771 39.433C34.8375 39.3111 35.021 39.0999 35.1605 39.2219C36.4977 40.3892 35.4724 42.7633 36.6534 43.8625C36.7101 43.9152 36.7134 44.004 36.6608 44.0608C36.6078 44.1181 36.5192 44.1206 36.4629 44.0683Z" fill="#D13B6A"/>
<path d="M38.7189 44.4624C38.4961 43.4987 37.4592 42.8608 37.1345 41.8448C37.0782 41.6698 37.3436 41.5818 37.4004 41.7594C37.7043 42.7089 38.7495 43.3536 38.9909 44.3989C39.0083 44.4744 38.9615 44.5499 38.8862 44.5669C38.8137 44.5848 38.7367 44.5395 38.7189 44.4624Z" fill="#D13B6A"/>
<path d="M41.9535 46.4073C41.9402 44.8169 40.7687 43.3256 39.2291 42.9373C39.1541 42.9183 39.1086 42.8423 39.1276 42.7677C39.2461 42.2977 42.2094 43.6608 42.233 46.4048C42.2338 46.4824 42.1717 46.5455 42.0947 46.5459C42.0177 46.5467 41.9543 46.4849 41.9535 46.4073Z" fill="#D13B6A"/>
<path d="M40.4127 50.8922C39.6963 49.0475 37.3756 48.2108 36.494 46.3458C36.4145 46.1782 36.6679 46.0583 36.7466 46.2255C37.5918 48.0134 39.9261 48.8654 40.6731 50.791C40.7013 50.8628 40.6657 50.9441 40.5936 50.9719C40.5203 51.0001 40.4404 50.9636 40.4127 50.8922Z" fill="#D13B6A"/>
<path d="M41.2657 52.4706C41.2168 52.4117 41.2251 52.3229 41.2847 52.274C41.5179 52.0798 41.7928 52.7913 41.8309 53.109C41.8401 53.1854 41.7858 53.2555 41.7088 53.2646C41.4591 53.2969 41.6508 52.9365 41.2657 52.4706Z" fill="#D13B6A"/>
<path d="M40.3303 47.9204L39.3414 46.5482C39.2329 46.3989 39.4594 46.2338 39.5679 46.3843L40.5572 47.7562C40.6028 47.8188 40.5883 47.9063 40.5258 47.952C40.4645 47.9959 40.3767 47.9835 40.3303 47.9204Z" fill="#D13B6A"/>
<path d="M43.839 50.8877C43.2378 50.0888 42.7872 49.1546 42.5358 48.186C42.4895 48.0072 42.7603 47.9367 42.8067 48.1155C43.0485 49.0488 43.4829 49.9494 44.0622 50.7193C44.1086 50.7807 44.0962 50.8686 44.0349 50.9151C43.9736 50.9616 43.8854 50.9495 43.839 50.8877Z" fill="#D13B6A"/>
<path d="M44.8119 55.02C44.6893 53.9962 43.4909 53.3976 43.0316 52.3767C42.9554 52.2071 43.2105 52.093 43.2863 52.2614C43.7203 53.2254 44.9522 53.8464 45.0893 54.9868C45.0984 55.0635 45.0438 55.1328 44.9676 55.1423C44.8835 55.1502 44.8202 55.0922 44.8119 55.02Z" fill="#D13B6A"/>
<path d="M47.6064 57.5111C47.2167 57.054 47.1886 56.4152 47.148 55.8274C47.0358 54.2564 46.55 53.2936 45.6642 52.8838C45.4965 52.8058 45.6137 52.5523 45.7814 52.6295C46.7682 53.0858 47.3062 54.1258 47.4267 55.8075C47.466 56.3612 47.4871 56.9396 47.8188 57.329C47.8689 57.3879 47.8619 57.4763 47.8035 57.5265C47.7451 57.5763 47.6569 57.5696 47.6064 57.5111Z" fill="#D13B6A"/>
<path d="M43.3808 57.6973C42.8967 57.1216 42.5219 56.438 42.2975 55.7195C42.2424 55.544 42.5091 55.459 42.5646 55.6361C42.7774 56.3193 43.134 56.9698 43.5945 57.5173C43.6442 57.5758 43.6367 57.6646 43.5775 57.714C43.5191 57.7638 43.4309 57.7566 43.3808 57.6973Z" fill="#D13B6A"/>
<path d="M46.0027 58.3303C45.7406 58.0863 45.5211 57.8026 45.3509 57.4874C45.3141 57.4198 45.3393 57.3343 45.4073 57.2978C45.6296 57.1779 45.5816 57.5554 46.1932 58.1254C46.2491 58.178 46.2524 58.2663 46.1998 58.3232C46.1473 58.3801 46.0586 58.383 46.0027 58.3303Z" fill="#D13B6A"/>
<path d="M34.3287 37.7308L33.3298 36.8029C33.1944 36.6768 33.3853 36.4719 33.5199 36.598L34.5187 37.5259C34.5755 37.5782 34.5788 37.667 34.5262 37.7238C34.4736 37.7806 34.3846 37.7831 34.3287 37.7308Z" fill="#D13B6A"/>
<path d="M9.97091 40.5759C9.90051 40.5759 9.84005 40.5228 9.83218 40.4511C9.66737 38.9328 9.98499 37.9447 10.802 37.4307C10.867 37.3897 10.9536 37.4092 10.9946 37.4747C11.036 37.5402 11.0161 37.6265 10.9507 37.668C10.2335 38.1193 9.95849 39.0199 10.1101 40.4212C10.1183 40.4975 10.0628 40.5668 9.98623 40.5751C9.98085 40.5759 9.97588 40.5759 9.97091 40.5759Z" fill="#D13B6A"/>
<path d="M9.44901 44.2441C9.43369 44.2441 9.41796 44.2421 9.40305 44.2367C9.32975 44.2105 9.29165 44.1309 9.31733 44.0579C9.45647 43.6609 9.48297 43.234 9.39436 42.823C9.37821 42.747 9.42582 42.6724 9.5016 42.6562C9.57573 42.6392 9.65109 42.6877 9.66766 42.7636C9.76704 43.2253 9.73682 43.7053 9.5807 44.1508C9.56083 44.2081 9.50699 44.2441 9.44901 44.2441Z" fill="#D13B6A"/>
<path d="M11.2191 44.3535C11.1984 44.3535 11.1773 44.3489 11.1578 44.3394C11.0887 44.305 11.0597 44.2212 11.0941 44.1519C11.4262 43.4753 11.4146 42.7145 11.4018 41.909C11.391 41.195 11.3794 40.4567 11.6283 39.7759C11.7484 39.447 11.7902 39.3744 12.8569 37.5164C13.7381 35.9795 13.7671 35.7766 13.9539 35.884C14.0206 35.9226 14.0437 36.0085 14.0056 36.0753L13.0992 37.6558C12.044 39.4938 12.003 39.5656 11.8908 39.8718C11.6593 40.5044 11.6705 41.2162 11.6813 41.9044C11.6937 42.7075 11.707 43.5384 11.3446 44.2755C11.3206 44.3253 11.2709 44.3535 11.2191 44.3535Z" fill="#D13B6A"/>
<path d="M10.0102 47.4194C9.99159 47.4194 9.97297 47.4157 9.95475 47.4078C9.88393 47.3771 9.85122 47.2946 9.88186 47.2236C10.0653 46.8001 10.1858 46.3521 10.2396 45.8929C10.2483 45.8161 10.3179 45.763 10.3945 45.7701C10.4711 45.7792 10.5262 45.8485 10.5171 45.9252C10.4599 46.4118 10.3328 46.8864 10.1386 47.3352C10.1154 47.3879 10.0641 47.4194 10.0102 47.4194Z" fill="#D13B6A"/>
<path d="M5.54156 51.8345C5.48731 51.8345 5.43596 51.8029 5.41319 51.7498C5.22021 51.3023 5.32581 50.7597 5.73536 50.0922C6.30558 49.1626 6.93046 48.552 7.43277 48.0616C8.07877 47.4303 8.54547 46.9744 8.53181 46.2223C8.53056 46.1447 8.59185 46.0813 8.66929 46.0796C8.73762 46.08 8.81008 46.1398 8.81174 46.2169C8.82748 47.0905 8.29783 47.6074 7.62781 48.262C7.11101 48.7668 6.52547 49.3389 5.97347 50.2391C5.61486 50.8231 5.51588 51.2811 5.66993 51.6391C5.70016 51.71 5.66786 51.7926 5.59663 51.8229C5.57882 51.8307 5.55978 51.8345 5.54156 51.8345Z" fill="#D13B6A"/>
<path d="M8.31991 57.3035C8.25034 57.3035 8.18989 57.2512 8.18119 57.1802C7.72526 53.4265 7.92279 52.3782 9.68728 49.1683C9.72455 49.1003 9.80986 49.0762 9.87736 49.1127C9.94486 49.1501 9.9693 49.2355 9.93244 49.3031C8.18699 52.4782 8.00768 53.431 8.45864 57.1461C8.46816 57.2234 8.4135 57.2931 8.3369 57.3022C8.3311 57.303 8.32571 57.3035 8.31991 57.3035Z" fill="#D13B6A"/>
<path d="M6.15661 55.3821C6.09367 55.3821 6.03653 55.3394 6.02079 55.2755C5.90195 54.7934 5.85888 54.2973 5.89283 53.8012C5.89822 53.7244 5.96778 53.668 6.0419 53.6713C6.11893 53.6767 6.17691 53.7435 6.17194 53.8207C6.13964 54.2874 6.18022 54.7544 6.29244 55.2087C6.31066 55.2838 6.26511 55.3593 6.19016 55.3779C6.17898 55.3808 6.16779 55.3821 6.15661 55.3821Z" fill="#D13B6A"/>
<path d="M7.27465 51.1511C7.2585 51.1511 7.24152 51.1482 7.22537 51.142C7.15332 51.115 7.11647 51.0346 7.1438 50.9624C7.30944 50.5185 7.52312 50.0912 7.77779 49.6909C7.81962 49.6262 7.90616 49.6071 7.97076 49.649C8.03578 49.6901 8.05483 49.7768 8.01341 49.8424C7.76868 50.2252 7.56453 50.6355 7.40551 51.0603C7.38439 51.1167 7.33138 51.1511 7.27465 51.1511Z" fill="#D13B6A"/>
<path d="M4.24806 62.7861C4.24475 62.7861 4.24143 62.7861 4.23812 62.7856C4.1611 62.7803 4.10312 62.713 4.1085 62.6359C4.17352 61.7225 4.45304 61.0641 4.72304 60.4278C5.11809 59.4979 5.45889 58.6943 5.03982 57.2852C5.01787 57.2108 5.0597 57.1334 5.13382 57.1108C5.20753 57.0885 5.28538 57.1308 5.30774 57.2055C5.75581 58.7108 5.37897 59.5982 4.98061 60.5373C4.71931 61.1524 4.44889 61.7888 4.38719 62.6558C4.38222 62.7298 4.32053 62.7861 4.24806 62.7861Z" fill="#D13B6A"/>
<path d="M6.6502 59.8616C6.64026 59.8616 6.62991 59.8608 6.61997 59.8582C6.5446 59.8417 6.49698 59.7665 6.51354 59.6915C6.58808 59.3534 6.63197 59.0062 6.64357 58.6602C6.64605 58.5831 6.71065 58.5254 6.78767 58.5249C6.8647 58.5275 6.92516 58.5922 6.92267 58.6693C6.91066 59.033 6.86471 59.3973 6.78644 59.7516C6.77195 59.8172 6.71439 59.8616 6.6502 59.8616Z" fill="#D13B6A"/>
<path d="M8.14143 61.665C8.12694 61.665 8.11244 61.6634 8.09753 61.6584C8.02424 61.6339 7.98448 61.5552 8.00891 61.4813C8.25737 60.7288 8.40646 59.9461 8.4516 59.1546C8.45615 59.0774 8.52157 59.0176 8.59901 59.0226C8.67603 59.0272 8.73484 59.0931 8.7307 59.1707C8.68391 59.9866 8.53027 60.7936 8.27436 61.5693C8.25489 61.6286 8.20023 61.665 8.14143 61.665Z" fill="#D13B6A"/>
<path d="M6.16057 62.4751C6.09639 62.4751 6.03883 62.4307 6.02433 62.3655C5.96843 62.115 6.01729 61.8478 6.15809 61.633C6.20074 61.5687 6.28771 61.5508 6.35189 61.5931C6.41608 61.6354 6.4343 61.7226 6.39165 61.7869C6.2935 61.9367 6.2583 62.13 6.29723 62.3046C6.31379 62.38 6.26658 62.4547 6.19122 62.4717C6.18086 62.4738 6.17093 62.4751 6.16057 62.4751Z" fill="#D13B6A"/>
<path d="M8.16566 34.5821C7.94453 35.1177 7.57971 35.8001 7.62319 36.392C7.6352 36.553 7.82444 36.599 7.91637 36.4712C8.09899 36.2186 8.1607 35.9253 8.25511 35.6321C8.35657 35.3176 8.46838 35.0069 8.58723 34.6987C8.68951 34.4336 8.27126 34.3274 8.16566 34.5821Z" fill="#1A1A1A" fill-opacity="0.8"/>
<path d="M13.6349 31.6178C13.6001 31.4634 13.3715 31.4713 13.3322 31.6178C13.2063 32.0815 12.8928 33.1638 13.5036 33.4231C13.6042 33.4658 13.7177 33.4695 13.8001 33.3849C14.2138 32.9576 13.7454 32.1043 13.6349 31.6178Z" fill="#1A1A1A" fill-opacity="0.8"/>
<path d="M20.2805 30.0151C20.1724 29.7193 20.0085 29.436 19.8722 29.1527C19.7211 28.8378 19.2573 29.066 19.3293 29.3817C19.401 29.694 19.4507 30.0255 19.5637 30.3254C19.6681 30.6025 19.7509 30.8746 20.0461 30.9858C20.1542 31.0264 20.2863 30.9584 20.3422 30.8655C20.4971 30.607 20.377 30.2789 20.2805 30.0151Z" fill="#1A1A1A" fill-opacity="0.8"/>
<path d="M27.2108 28.2304C26.8641 27.9105 26.4198 27.7977 25.9701 27.706C25.7287 27.6571 25.5581 27.9914 25.7949 28.1221C26.1312 28.3075 26.3548 28.6141 26.612 28.8941C26.8538 29.1567 27.0422 29.4835 27.383 29.6221C27.5242 29.6802 27.6725 29.5578 27.7155 29.4329C27.865 29.0023 27.5135 28.51 27.2108 28.2304Z" fill="#1A1A1A" fill-opacity="0.8"/>
<path d="M35.6375 29.2352C35.0275 28.1297 33.3984 27.5116 32.2083 27.4838C32.0364 27.4796 31.9445 27.7505 32.1155 27.826C32.7052 28.0878 33.2945 28.3495 33.8697 28.6411C34.3935 28.907 34.8892 29.2937 35.43 29.5048C35.5874 29.5662 35.7087 29.3638 35.6375 29.2352Z" fill="#1A1A1A" fill-opacity="0.8"/>
<path d="M11.5859 49.6989C11.4944 49.8744 11.4521 50.0631 11.4596 50.2656C11.5234 51.6876 13.1056 52.1659 13.9649 51.3047C14.2229 51.0645 14.408 50.6157 14.3943 50.2656C14.3152 48.4914 12.0186 48.3669 11.5859 49.6989Z" fill="#1A1A1A"/>
<path d="M30.7553 48.1501C30.125 48.737 30.2062 49.8152 30.7553 50.32C31.8622 51.338 33.4163 50.4689 33.3699 49.2352C33.3037 47.7514 31.6522 47.252 30.7553 48.1501Z" fill="#1A1A1A"/>
<path d="M12.8494 49.3084C11.6017 49.3084 11.5996 51.2515 12.8494 51.2515C14.0975 51.2515 14.0996 49.3084 12.8494 49.3084Z" fill="white" fill-opacity="0.2"/>
<path d="M31.8546 48.123C31.2621 48.123 30.8012 48.6424 30.8235 49.1555C30.8562 49.8868 31.4298 50.188 31.8546 50.188C32.4472 50.188 32.9081 49.669 32.8854 49.1555C32.8526 48.4258 32.2812 48.123 31.8546 48.123Z" fill="white" fill-opacity="0.2"/>
<path d="M6.74549 41.8335C6.6842 41.8335 6.62829 41.7928 6.6109 41.731C6.42663 41.0702 6.51938 40.3517 6.86516 39.7594C6.9045 39.6926 6.99021 39.6706 7.05647 39.7092C7.12314 39.7482 7.14551 39.834 7.10658 39.9008C6.80305 40.4202 6.71857 41.0764 6.88007 41.6555C6.90078 41.7302 6.85729 41.8074 6.78317 41.8281C6.77033 41.8318 6.75791 41.8335 6.74549 41.8335Z" fill="#F5789A"/>
<path d="M6.74218 45.4697C6.71029 45.4697 6.678 45.4581 6.65149 45.4357C6.59311 45.3855 6.58606 45.2972 6.63658 45.2387C7.00803 44.8031 7.22047 44.2253 7.21964 43.6532C7.21923 43.5756 7.28175 43.513 7.35878 43.513H7.35919C7.43622 43.513 7.49875 43.5752 7.49916 43.6528C7.50041 44.2912 7.26313 44.935 6.84861 45.4204C6.82086 45.4527 6.78193 45.4697 6.74218 45.4697Z" fill="#F5789A"/>
<path d="M3.82151 48.2773C3.81405 48.2773 3.80618 48.2765 3.79832 48.2753C3.72212 48.2628 3.67077 48.1906 3.68361 48.1143C3.79542 47.4369 4.26418 46.9271 4.71762 46.4347C5.12345 45.9937 5.50691 45.5773 5.6593 45.0508C5.68083 44.9762 5.75869 44.9343 5.83281 44.955C5.90652 44.977 5.94958 45.055 5.92805 45.1288C5.75703 45.7187 5.33299 46.1792 4.92344 46.6247C4.47828 47.1084 4.05755 47.5651 3.95899 48.16C3.94781 48.2288 3.88859 48.2773 3.82151 48.2773Z" fill="#F5789A"/>
<path d="M4.18699 49.6274C4.17125 49.6274 4.15551 49.6249 4.14019 49.6196C4.06731 49.5943 4.02921 49.5142 4.05488 49.4412C4.20023 49.0272 4.43503 48.6381 4.7336 48.3174C4.78578 48.2606 4.87481 48.2573 4.93113 48.31C4.98745 48.3626 4.99035 48.4514 4.93817 48.5078C4.66569 48.8011 4.4516 49.1558 4.31867 49.5341C4.29838 49.5918 4.24455 49.6274 4.18699 49.6274Z" fill="#F5789A"/>
<path d="M2.60896 51.54C2.60482 51.54 2.60067 51.54 2.59695 51.5396C2.51992 51.5334 2.46279 51.4654 2.46982 51.3882C2.5278 50.7087 2.69633 50.0479 2.9713 49.4236C3.00236 49.3531 3.08476 49.3211 3.15557 49.3518C3.22639 49.383 3.25827 49.4659 3.2268 49.5364C2.96467 50.1325 2.80359 50.7635 2.7481 51.4123C2.74189 51.4849 2.6806 51.54 2.60896 51.54Z" fill="#F5789A"/>
<path d="M3.47549 57.0898C3.46431 57.0898 3.45313 57.0887 3.44154 57.0858C3.36659 57.0672 3.32103 56.9912 3.34008 56.9156C3.60759 55.8529 3.41959 55.2526 3.23738 54.671C3.07008 54.1372 2.91189 53.6323 3.12267 52.857C3.14338 52.7823 3.22041 52.7388 3.29453 52.7591C3.36866 52.7794 3.41255 52.8562 3.39267 52.9309C3.20342 53.6269 3.34257 54.072 3.50407 54.5872C3.68876 55.1767 3.89788 55.8446 3.6109 56.9842C3.59517 57.048 3.53802 57.0898 3.47549 57.0898Z" fill="#F5789A"/>
<path d="M2.07765 58.0669C2.04949 58.0669 2.02092 58.0581 1.99607 58.0403C1.93354 57.9951 1.91905 57.9076 1.9646 57.8454C2.31203 57.3622 2.44786 56.7245 2.32777 56.1413C2.31245 56.0658 2.3609 55.9919 2.43669 55.9762C2.51205 55.96 2.58618 56.0094 2.6015 56.0849C2.73732 56.7436 2.58369 57.4629 2.19111 58.0089C2.16378 58.0466 2.12113 58.0669 2.07765 58.0669Z" fill="#F5789A"/>
<path d="M0.824621 61.9009C0.747598 61.9009 0.685073 61.8383 0.685073 61.761C0.683003 60.9207 0.903301 60.0905 1.32155 59.3614C1.35964 59.2946 1.44537 59.2713 1.51204 59.3098C1.57912 59.3484 1.6019 59.434 1.5638 59.501C1.16999 60.1876 0.962522 60.9688 0.964179 61.7602C0.964593 61.8378 0.902058 61.9005 0.824621 61.9009Z" fill="#F5789A"/>
<path d="M2.55566 60.7339C2.54365 60.7339 2.53124 60.7323 2.51964 60.7294C2.4451 60.7095 2.40037 60.6323 2.42025 60.5581L2.6066 59.8579C2.62606 59.7827 2.70309 59.7383 2.77721 59.7588C2.85216 59.7787 2.89647 59.8553 2.87659 59.93L2.69025 60.6299C2.67368 60.6924 2.61736 60.7339 2.55566 60.7339Z" fill="#F5789A"/>
<path d="M27.3327 35.4329C26.7467 34.7576 26.4233 33.8574 26.4457 32.9631C26.4506 32.7826 26.7297 32.7831 26.7252 32.9706C26.7045 33.7956 27.0031 34.6261 27.5435 35.2492C27.594 35.3077 27.5882 35.396 27.5298 35.4466C27.4722 35.4977 27.3836 35.4914 27.3327 35.4329Z" fill="#F5789A"/>
<path d="M30.733 37.4972C30.3921 36.5166 29.0794 36.3718 27.8495 34.4076C27.7514 34.2508 27.9879 34.1015 28.0864 34.2587C29.3018 36.2009 30.6112 36.2942 30.9967 37.4047C31.0224 37.4781 30.9835 37.5578 30.9106 37.5831C30.8385 37.608 30.7586 37.5711 30.733 37.4972Z" fill="#F5789A"/>
<path d="M31.0786 39.4677C30.8252 38.945 30.4898 38.4708 30.0806 38.0585C29.9502 37.927 30.1494 37.73 30.279 37.8615C30.7097 38.2958 31.0633 38.7952 31.3304 39.3453C31.364 39.415 31.3354 39.4988 31.2658 39.5324C31.1975 39.5656 31.1134 39.5382 31.0786 39.4677Z" fill="#F5789A"/>
<path d="M33.7747 41.7637C33.5618 40.5598 32.9374 39.4543 32.0168 38.6508C31.8773 38.5289 32.0611 38.3177 32.2003 38.4397C33.1684 39.2847 33.8256 40.4478 34.0501 41.7147C34.0637 41.7906 34.0128 41.8636 33.937 41.8769C33.8608 41.8906 33.7884 41.84 33.7747 41.7637Z" fill="#F5789A"/>
<path d="M32.1352 42.8963C32.172 42.3612 32.1294 41.8252 32.0076 41.3034C31.9654 41.1221 32.2374 41.0594 32.2797 41.2395C32.4076 41.7887 32.4528 42.3529 32.4139 42.9158C32.4014 43.1004 32.1223 43.0817 32.1352 42.8963Z" fill="#F5789A"/>
<path d="M31.7679 46.3464C31.6743 45.9661 31.6416 45.574 31.6706 45.1825C31.6764 45.1057 31.7447 45.0505 31.8205 45.0534C32.0752 45.0725 31.8214 45.3928 32.0392 46.2801C32.0574 46.3547 32.0114 46.4307 31.9369 46.4493C31.8628 46.4676 31.7862 46.4224 31.7679 46.3464Z" fill="#F5789A"/>
<path d="M34.208 47.5682C33.4386 46.5428 33.1719 45.1378 33.5127 43.9008C33.5628 43.7216 33.8316 43.7979 33.7823 43.9758C33.4639 45.1303 33.7128 46.4424 34.4316 47.3998C34.478 47.4616 34.4656 47.5495 34.4043 47.5956C34.3422 47.6425 34.2548 47.63 34.208 47.5682Z" fill="#F5789A"/>
<path d="M35.2889 51.1976C34.826 50.9645 34.435 50.6094 34.1572 50.1713C34.0586 50.0154 34.2938 49.8648 34.3936 50.0212C34.6442 50.4169 34.997 50.7372 35.4144 50.9475C35.4836 50.9823 35.5113 51.0665 35.4765 51.1354C35.4421 51.2047 35.3581 51.2325 35.2889 51.1976Z" fill="#F5789A"/>
<path d="M38.878 53.3511C38.0026 50.8364 36.2563 51.2811 35.125 49.1112C35.0397 48.9473 35.2882 48.8171 35.373 48.9818C36.4543 51.0559 38.2337 50.6489 39.1418 53.259C39.1675 53.332 39.129 53.4117 39.0561 53.4374C38.982 53.4627 38.9033 53.4233 38.878 53.3511Z" fill="#F5789A"/>
<path d="M38.1289 55.46C38.0502 55.46 37.9889 55.3957 37.9893 55.3193C37.9918 54.5722 37.7003 53.8318 37.1897 53.2871C37.0634 53.1515 37.2671 52.9606 37.3938 53.095C37.9525 53.6916 38.2717 54.5025 38.2688 55.3206C38.2684 55.3973 38.2059 55.46 38.1289 55.46Z" fill="#F5789A"/>
<path d="M38.728 58.1985C38.5483 57.9285 38.3077 57.1843 38.6183 57.1875C38.8713 57.193 38.6253 57.539 38.9608 58.0434C39.0034 58.1076 38.986 58.1944 38.9218 58.2375C38.8576 58.2801 38.7711 58.2623 38.728 58.1985Z" fill="#F5789A"/>
<path d="M40.5145 58.073C39.8491 57.3475 39.4482 56.4066 39.3861 55.4239C39.3745 55.2406 39.6536 55.2178 39.6648 55.4061C39.7232 56.3249 40.0984 57.2056 40.7203 57.8834C40.7725 57.9406 40.7688 58.0294 40.7121 58.0817C40.6549 58.1339 40.5667 58.1299 40.5145 58.073Z" fill="#F5789A"/>
</svg>
