<svg width="47" height="65" viewBox="0 0 47 65" fill="none" xmlns="http://www.w3.org/2000/svg">
<path d="M28.1715 29.2836C28.1213 29.7198 28.0896 30.2065 28.0833 30.7369C28.0833 31.3507 28.1149 32.027 28.1971 32.7731C28.6463 36.959 30.9222 37.5982 33.306 38.7224C36.4168 40.1966 39.7045 40.0827 40.5521 46.7649C41.399 53.4553 40.5521 59.8987 40.5521 59.8987V59.912C39.5148 59.8987 38.2754 59.8923 36.8844 59.8854C36.0941 54.7637 31.0421 40.8542 24.4222 41.1195C17.8847 41.3845 11.1887 56.32 10.1326 60.0568C8.58992 60.0815 7.21782 60.1136 6.07982 60.1441C6.06053 59.5764 5.87772 54.8275 6.08629 49.7439C6.30078 44.3319 9.69668 40.45 14.0713 39.0512C18.1879 37.7438 22.4049 37.4458 22.7658 31.5787H22.7718C22.7911 31.2049 22.7975 30.8071 22.7911 30.3895C22.7847 30.1495 22.7718 29.9215 22.7406 29.7067L22.7975 29.7012C23.9351 32.1979 27.0587 32.2418 28.0833 29.2705L28.1715 29.2836Z" fill="#FFF7E7"/>
<path d="M39.692 6.33836C39.9005 8.65863 40.2481 15.7203 38.3386 18.3891C37.7192 19.2549 36.5807 20.135 35.3165 21.0064C36.4168 15.569 29.0443 17.3139 24.498 17.7063C19.9397 18.1041 18.9528 15.203 14.767 14.7788C10.6132 14.3546 7.93828 18.8626 9.74671 21.9489C9.3357 21.7275 8.93752 21.4744 8.54536 21.2026C5.29589 18.9196 5.36516 8.0328 5.58009 5.42757C13.3384 5.68623 32.9708 6.31863 39.692 6.33836Z" fill="#FFF7E7"/>
<path d="M29.7145 30.7565C29.7145 34.2144 31.6997 36.3462 36.044 37.3459C40.9123 38.4637 42.5815 42.1692 42.8782 48.0427C43.1822 53.9175 42.8782 59.8985 42.8782 59.8985V59.949C42.316 59.9371 41.5253 59.9238 40.5521 59.9118V59.8985C40.5521 59.8985 41.399 53.4551 40.5521 46.7647C39.7044 40.0825 36.4168 40.1964 33.306 38.7222C30.9222 37.598 28.6463 36.9588 28.1971 32.7729C28.1149 32.0268 28.0833 31.3505 28.0833 30.7368L29.7145 30.7565Z" fill="#F0B000"/>
<path d="M35.3165 21.0065C36.5808 20.1352 37.7192 19.2551 38.3387 18.3892C40.2482 15.7204 39.9005 8.6588 39.6921 6.33853C40.7414 6.34401 41.4752 6.33195 41.7972 6.29907C41.9809 8.72785 42.6637 18.2303 38.6234 21.1205C34.5073 24.0611 30.3404 25.2043 29.803 29.4415C29.7461 29.8974 29.7145 30.3391 29.7145 30.7567L28.0833 30.737C28.0896 30.2065 28.1213 29.7199 28.1715 29.2837C28.3997 27.3678 29.0573 26.2104 29.7145 25.281C30.6567 23.9603 33.1669 22.4993 35.3165 21.0065Z" fill="#F0B000"/>
<path d="M6.08628 49.744C5.87771 54.8276 6.06052 59.5764 6.07981 60.1442C5.35239 60.1707 4.72645 60.1959 4.20803 60.2143V60.2024C1.47654 40.8864 9.3614 38.1788 13.1675 37.2177C16.6701 36.3332 20.888 35.2273 21.1471 31.4714L22.7658 31.5788C22.4049 37.4459 18.1879 37.7439 14.0713 39.0513C9.69667 40.4501 6.30077 44.3319 6.08628 49.744Z" fill="#F0B000"/>
<path d="M22.7912 30.3895C22.7976 30.8071 22.7912 31.205 22.7719 31.5787H22.7659L21.1472 31.4713C21.172 31.1359 21.1664 30.7819 21.1219 30.4093C20.6035 25.7939 11.7574 26.0592 7.33177 23.0495C2.9181 20.0519 3.57571 8.93715 3.64553 5.35756C4.15759 5.37729 4.80873 5.4014 5.58022 5.42771C5.36529 8.03294 5.29602 18.9197 8.5455 21.2027C8.93765 21.4745 9.33584 21.7277 9.74684 21.9491C15.2034 24.9774 22.1147 24.1806 22.7407 29.7067C22.7719 29.9215 22.7847 30.1495 22.7912 30.3895Z" fill="#F0B000"/>
<path d="M36.8844 59.8854C38.2754 59.8923 39.5149 59.8986 40.5521 59.9119C41.5253 59.9239 42.3161 59.9372 42.8782 59.9492C43.3337 59.9612 43.6373 59.9745 43.764 59.9941C45.5913 60.2211 46.7798 64.1787 46.546 64.6094C46.3118 65.0388 6.88256 64.8244 0.749592 64.6094C0.0350426 64.5829 0.976927 60.8226 2.62091 60.3534C2.79178 60.3033 3.34834 60.2591 4.20805 60.2142C4.72647 60.1958 5.35241 60.1706 6.07983 60.144C7.21783 60.1136 8.58994 60.0814 10.1326 60.0567C17.7704 59.917 29.4742 59.8614 36.8844 59.8854Z" fill="#F0B000"/>
<path d="M41.7972 6.29881C41.4752 6.33169 40.7415 6.34375 39.6921 6.33827C32.9709 6.31854 13.3385 5.68613 5.5802 5.42747C4.80872 5.40116 4.15757 5.37705 3.64551 5.35732C3.00073 5.33869 2.58336 5.32664 2.43134 5.32006C0.762053 5.26197 -0.43287 1.0138 0.14939 0.962292C4.01202 0.609374 45.9578 1.19027 46.1034 2.03859C46.2489 2.88472 44.4153 6.00288 41.8353 6.29333C41.8225 6.29333 41.8101 6.29333 41.7972 6.29881Z" fill="#F0B000"/>
<path d="M36.8844 59.8853C29.4742 59.8613 17.7704 59.9169 10.1326 60.0566C11.1887 56.3198 17.8847 41.3844 24.4222 41.1194C31.0421 40.854 36.0941 54.7636 36.8844 59.8853Z" fill="#FFAF19"/>
<path d="M13.6985 58.5855C13.6689 57.9883 13.7001 56.8011 14.2811 56.947C14.803 57.0785 14.3873 57.5232 14.4374 58.5482C14.4477 58.752 14.2897 58.9254 14.0859 58.9361C13.8959 58.9516 13.7087 58.797 13.6985 58.5855Z" fill="#E09A16"/>
<path d="M16.5519 54.1902C16.2561 53.8978 15.8415 54.3173 15.7148 53.8165C15.5727 53.2534 16.5544 53.1525 17.072 53.6644C17.2172 53.8079 17.2189 54.0412 17.0746 54.1872C16.9325 54.3319 16.6979 54.335 16.5519 54.1902Z" fill="#E09A16"/>
<path d="M17.7721 57.5158C17.4189 56.9952 18.4965 56.6172 19.122 56.6064C19.6221 56.6095 19.6134 57.3386 19.1339 57.3462C18.8351 57.3505 18.5337 57.446 18.2858 57.6146C18.1171 57.7286 17.8869 57.6849 17.7721 57.5158Z" fill="#E09A16"/>
<path d="M19.4247 53.2243C18.8098 53.0004 19.5536 51.957 20.0473 51.5383C20.4226 51.2228 20.8958 51.7883 20.525 52.103C20.242 52.3428 20.0253 52.654 19.8991 53.0025C19.8297 53.1935 19.6199 53.2941 19.4247 53.2243Z" fill="#E09A16"/>
<path d="M23.1242 58.1962C22.8852 58.1962 22.7127 57.977 22.7619 57.7493C22.8471 57.3524 22.7204 56.9075 22.4387 56.616C22.297 56.4691 22.3013 56.2346 22.4486 56.0933C22.595 55.9516 22.8296 55.955 22.9713 56.103C23.426 56.574 23.623 57.2625 23.4855 57.9038C23.4483 58.0781 23.2945 58.1962 23.1242 58.1962Z" fill="#E09A16"/>
<path d="M24.6086 53.8631C24.0225 53.6987 24.4973 52.7354 25.2157 52.4468C25.6703 52.2653 25.943 52.9524 25.4909 53.1344C25.2876 53.2153 25.1245 53.396 25.065 53.6079C25.0089 53.8061 24.8025 53.9192 24.6086 53.8631Z" fill="#E09A16"/>
<path d="M26.61 58.0923C26.4413 58.0923 26.2894 57.9771 26.2495 57.8071C26.2037 57.608 26.3274 57.4086 26.527 57.3623C27.084 57.2343 27.6555 57.1957 28.2254 57.2492C28.4287 57.2689 28.5781 57.4488 28.5589 57.6538C28.5396 57.8567 28.3573 58.0024 28.1552 57.9869C27.6654 57.9398 27.1735 57.9728 26.6935 58.0837C26.6657 58.0901 26.6371 58.0923 26.61 58.0923Z" fill="#E09A16"/>
<path d="M29.1425 54.5108C28.5346 54.5108 28.7533 53.452 29.1396 52.949C29.4366 52.562 30.0245 53.0115 29.726 53.4007C29.5715 53.601 29.494 53.8617 29.5115 54.1139C29.5261 54.3177 29.3725 54.4946 29.169 54.5095C29.16 54.5095 29.1511 54.5108 29.1425 54.5108Z" fill="#E09A16"/>
<path d="M32.8555 57.8699C32.7112 57.8699 32.5742 57.7855 32.5144 57.6442C32.3906 57.3505 32.1093 57.118 31.7976 57.0513C31.5977 57.0084 31.4701 56.8124 31.5129 56.6129C31.5557 56.4125 31.7531 56.2854 31.9518 56.3277C32.501 56.4442 32.9771 56.8398 33.1959 57.3561C33.2751 57.5445 33.1873 57.7624 32.9989 57.8416C32.9519 57.8612 32.9034 57.8699 32.8555 57.8699Z" fill="#E09A16"/>
<path d="M33.249 54.4052C33.0941 54.4052 32.9493 54.3068 32.898 54.1523C32.7507 53.7096 33.3128 53.6239 33.764 53.4728C33.9579 53.4112 34.1674 53.5143 34.2319 53.707C34.297 53.9014 34.1922 54.1107 33.9983 54.1754L33.3659 54.3856C33.3273 54.3989 33.2875 54.4052 33.249 54.4052Z" fill="#E09A16"/>
<path d="M23.7601 50.6606L22.5073 49.8001C22.3387 49.684 22.2958 49.4537 22.4123 49.2858C22.5278 49.1172 22.7582 49.0756 22.9264 49.1908L24.1788 50.051C24.3474 50.1674 24.3894 50.3973 24.2738 50.5651C24.1577 50.7338 23.9279 50.7766 23.7601 50.6606Z" fill="#E09A16"/>
<path d="M27.734 50.4004C27.5277 50.2073 27.2785 50.0575 27.013 49.9642C26.8203 49.8982 26.7181 49.6867 26.7848 49.4941C26.9762 48.9482 27.8226 49.471 28.2384 49.8589C28.3878 49.9993 28.3963 50.2317 28.2568 50.3816C28.118 50.531 27.883 50.5396 27.734 50.4004Z" fill="#E09A16"/>
<path d="M31.052 50.8116C30.6431 50.7084 30.7879 50.3424 30.8881 49.9412C31.0071 49.4676 31.7245 49.6454 31.6056 50.121L31.5003 50.5418C31.4505 50.7405 31.2481 50.8608 31.052 50.8116Z" fill="#E09A16"/>
<path d="M17.1789 49.4534L18.0163 48.6061C18.3592 48.2598 18.8872 48.7774 18.5429 49.1267L17.705 49.974C17.3609 50.3216 16.8351 49.8019 17.1789 49.4534Z" fill="#E09A16"/>
<path d="M20.919 47.5002L19.656 46.6551C19.2484 46.3824 19.6645 45.7684 20.0674 46.0403L21.33 46.8868C21.4996 46.9993 21.5453 47.2296 21.4318 47.3984C21.3175 47.5705 21.0877 47.6141 20.919 47.5002Z" fill="#E09A16"/>
<path d="M24.1534 46.2557C23.9694 45.7813 24.6522 45.6648 25.2045 45.4512C25.6609 45.2748 25.9263 45.9653 25.4717 46.1418L24.6322 46.4663C24.4377 46.5407 24.2262 46.4432 24.1534 46.2557Z" fill="#E09A16"/>
<path d="M28.925 47.0415C28.2802 46.5414 27.6855 46.8955 27.7154 46.3321C27.7502 45.6864 28.8736 46.0671 29.3771 46.4558C29.5393 46.58 29.5689 46.8125 29.4434 46.9755C29.3188 47.1357 29.0859 47.166 28.925 47.0415Z" fill="#E09A16"/>
<path d="M22.4424 44.3887C21.9808 44.3463 22.0202 43.7212 22.4488 43.4113C22.8795 43.0987 23.4827 43.2575 23.3821 43.7084C23.3376 43.9079 23.1424 44.0325 22.9407 43.9896C22.9176 43.9789 22.8496 44.0247 22.8465 44.0577C22.826 44.2683 22.6333 44.413 22.4424 44.3887Z" fill="#E09A16"/>
<path d="M27.2547 43.8975C27.0617 43.7682 26.827 43.6916 26.5941 43.6817C26.3899 43.6741 26.231 43.502 26.2388 43.2974C26.2624 42.7164 27.1841 42.9596 27.6666 43.284C27.8366 43.3971 27.882 43.6269 27.7681 43.7956C27.6546 43.9669 27.4243 44.0119 27.2547 43.8975Z" fill="#E09A16"/>
<path d="M29.7145 25.281C29.0573 26.2104 28.3997 27.3678 28.1715 29.2837L28.0833 29.2705C27.0587 32.2418 23.935 32.198 22.7975 29.7013L22.7406 29.7067C22.1147 24.1806 15.2033 24.9774 9.74676 21.9491C7.93833 18.8627 10.6133 14.3548 14.7671 14.779C18.9529 15.2031 19.9397 18.1043 24.4981 17.7064C29.0443 17.3141 36.4168 15.5692 35.3165 21.0065C33.1669 22.4993 30.6567 23.9603 29.7145 25.281Z" fill="#FFAF19"/>
<path d="M13.7325 21.8666C12.6549 21.4841 12.6549 20.1404 13.3134 20.2664C13.5142 20.3037 13.6464 20.4977 13.6083 20.6983C13.5732 20.8857 13.7758 21.0961 13.98 21.1696C14.5987 21.3909 15.3076 20.9054 15.3864 21.5006C15.4129 21.7022 15.27 21.8885 15.0679 21.9159C14.6115 21.9751 14.1675 22.0212 13.7325 21.8666Z" fill="#E09A16"/>
<path d="M15.8968 19.0797C15.4683 18.5909 16.6444 18.0166 17.2472 17.8598C17.7203 17.7371 17.9065 18.4539 17.4321 18.5766C17.0588 18.6742 16.7086 18.8583 16.4192 19.1137C16.2651 19.2485 16.0317 19.2331 15.8968 19.0797Z" fill="#E09A16"/>
<path d="M18.2899 22.2011C18.1203 22.0882 18.0746 21.858 18.1881 21.6881C18.5391 21.1653 19.2819 21.9972 19.4784 22.6274C19.5397 22.8225 19.431 23.0296 19.2357 23.091C18.7099 23.2565 18.8902 22.6033 18.2899 22.2011Z" fill="#E09A16"/>
<path d="M21.8881 20.8519C21.6227 20.4979 22.0354 20.2786 22.383 20.0167C22.7752 19.7241 23.2174 20.3159 22.8279 20.6086L22.4062 20.9253C22.2418 21.0492 22.0106 21.0141 21.8881 20.8519Z" fill="#E09A16"/>
<path d="M22.1071 24.8151L23.1616 23.5514C23.4763 23.1755 24.0423 23.6501 23.7297 24.0249L22.6752 25.2897C22.3619 25.6646 21.7941 25.1922 22.1071 24.8151Z" fill="#E09A16"/>
<path d="M26.2811 22.2034C26.26 22.1333 26.1761 22.0719 26.1012 22.0763C25.8961 22.0993 25.7244 21.9272 25.7146 21.7234C25.6868 21.1151 26.7652 21.2455 26.9895 21.9908C27.0478 22.187 26.9369 22.3919 26.7417 22.4511C26.5546 22.5103 26.3413 22.4051 26.2811 22.2034Z" fill="#E09A16"/>
<path d="M29.1219 19.4459C28.6463 19.0535 29.4298 18.465 30.0964 18.4562C30.5776 18.4682 30.5759 19.1905 30.0788 19.196C29.9183 19.1916 29.7474 19.2683 29.6425 19.3966C29.5137 19.5522 29.2795 19.5763 29.1219 19.4459Z" fill="#E09A16"/>
<path d="M31.9845 21.8428C31.4951 21.8428 31.4951 21.1019 31.9845 21.1019C32.5119 21.1019 33.092 20.9901 33.092 21.4723C33.092 21.9557 32.5119 21.8428 31.9845 21.8428Z" fill="#E09A16"/>
<path d="M27.2741 26.4513C26.9482 26.06 26.4152 25.6139 26.7946 25.2972C27.1735 24.9815 27.5164 25.5865 27.843 25.9789C27.9737 26.1345 27.9523 26.368 27.7951 26.4984C27.6384 26.6288 27.4046 26.608 27.2741 26.4513Z" fill="#E09A16"/>
<path d="M25.6648 29.6552C25.0756 29.4974 24.4344 29.4634 24.5624 28.9801C24.692 28.4923 25.2859 28.7894 25.8554 28.9406C26.0526 28.9932 26.17 29.1949 26.1177 29.3933C26.0643 29.5905 25.8596 29.7078 25.6648 29.6552Z" fill="#E09A16"/>
<path d="M29.4044 24.1562C29.1026 23.8559 29.4296 23.6082 29.7203 23.3189C30.0637 22.9714 30.5903 23.4942 30.2435 23.8406L29.9271 24.1573C29.7824 24.302 29.5482 24.302 29.4044 24.1562Z" fill="#E09A16"/>
<path d="M23.7436 34.7847C23.7077 34.2915 23.5724 33.6754 24.1559 33.636C24.742 33.6077 24.6911 34.2183 24.7271 34.7115C24.7476 34.982 24.5434 35.2189 24.2715 35.2393C24.0026 35.2604 23.7638 35.0574 23.7436 34.7847Z" fill="#E09A16"/>
<path d="M25.9068 36.0264C25.8692 35.3688 26.8552 35.3281 26.8916 35.969C26.9386 36.8779 26.9421 36.9729 26.9596 37.2406C26.9781 37.5124 26.7726 37.7479 26.5006 37.7654C25.8786 37.792 25.9676 37.1948 25.9068 36.0264Z" fill="#E09A16"/>
<path d="M23.8604 38.4026C23.8592 38.1286 24.0784 37.9073 24.3506 37.9047H24.354C24.6246 37.9047 24.8451 38.1239 24.8468 38.3958C24.8481 38.5209 24.8566 38.6445 24.8644 38.7687C24.8703 38.8594 24.8768 38.9506 24.8802 39.0415C24.8918 39.3146 24.6798 39.5444 24.408 39.5543C23.8574 39.5938 23.8643 38.9515 23.8604 38.4026Z" fill="#E09A16"/>
<path d="M21.9486 37.9982L21.9444 37.6604C21.938 37.0075 22.9244 36.9963 22.9312 37.6497L22.9351 37.9883C22.9377 38.261 22.7193 38.4837 22.447 38.4871C22.1752 38.4892 21.9513 38.2709 21.9486 37.9982Z" fill="#E09A16"/>
<path d="M10.6929 9.86018C9.90553 9.607 9.1598 10.0465 8.71832 10.6647C7.93061 11.7672 7.96612 12.9181 8.05951 14.207C8.16911 15.7283 8.47435 17.0314 9.67142 18.0036C10.5559 18.7215 11.7011 18.8311 12.5813 18.0036C14.9918 15.7403 13.7926 10.8619 10.6929 9.86018Z" fill="white"/>
<path d="M11.7013 42.7735C10.9889 43.0385 10.2654 43.4037 9.79095 44.0185C9.17915 44.8097 9.07426 45.9288 9.57602 46.8078C9.95283 47.4688 10.893 47.7372 11.5489 47.3255C12.0421 47.0151 12.5148 46.5493 12.7717 46.0265C12.8586 45.8488 12.9305 45.6617 12.9925 45.475C12.9943 45.4708 13.0075 45.425 13.0226 45.3753C13.0469 45.3217 13.0945 45.2044 13.1099 45.1757C13.1699 45.0687 13.2375 44.9655 13.3081 44.8637C13.9901 43.878 12.8461 42.3458 11.7013 42.7735Z" fill="white"/>
</svg>
