<svg width="21" height="16" viewBox="0 0 21 16" fill="none" xmlns="http://www.w3.org/2000/svg">
<path fill-rule="evenodd" clip-rule="evenodd" d="M17.9999 4.00175C17.9999 4.00117 17.9999 4.00058 17.9999 4C17.9999 3.99994 17.9999 3.99988 17.9999 3.99982L19.875 1.97672C20.1806 1.64695 19.9057 1.11563 19.46 1.17458L17.1108 1.48528C16.3775 0.57926 15.2563 0 13.9999 0C11.7908 0 9.99994 1.79086 9.99994 4C9.99994 4.52744 10.102 5.03104 10.2875 5.49212C7.29113 5.42205 4.08285 4.82913 2.4608 1.6154C2.26009 1.21773 1.68469 1.1947 1.55692 1.62143C0.383186 5.54144 2.4488 10.6347 6.99973 12C5.86444 13.11 2.94607 13.4114 0.557853 13.1927C0.0931238 13.1502 -0.198631 13.6796 0.160753 13.9773C2.16328 15.6361 4.94066 16 7.49981 16C13.9991 16 18.4989 10.501 17.9999 4.00175Z" fill="white"/>
</svg>
