<svg width="91" height="243" viewBox="0 0 91 243" fill="none" xmlns="http://www.w3.org/2000/svg">
<path d="M68.9543 20.6859C68.9543 31.4539 57.6716 40.1805 43.7516 40.1805C29.8303 40.1805 18.5476 31.4539 18.5476 20.6859C18.5476 9.91788 29.8303 1.18855 43.7516 1.18855C57.6716 1.18855 68.9543 9.91788 68.9543 20.6859Z" fill="#491448"/>
<path d="M43.7513 2.37733C30.5099 2.37733 19.7379 10.5907 19.7379 20.6853C19.7379 30.78 30.5099 38.9933 43.7513 38.9933C56.9926 38.9933 67.7672 30.78 67.7672 20.6853C67.7672 10.5907 56.9926 2.37733 43.7513 2.37733ZM43.7513 41.3707C29.1993 41.3707 17.3593 32.0907 17.3593 20.6853C17.3593 9.28 29.1993 -1.23294e-06 43.7513 -1.23294e-06C58.3033 -1.23294e-06 70.1446 9.28 70.1446 20.6853C70.1446 32.0907 58.3033 41.3707 43.7513 41.3707Z" fill="#300635"/>
<path d="M89.2433 240.537C89.2433 240.537 90.354 135.764 66.5753 129.58H21.8767C21.8767 129.58 -3.32734 138.141 1.90466 240.379" fill="#F26B82"/>
<path d="M89.2447 241.728H89.23C88.574 241.72 88.0473 241.184 88.0527 240.528C88.058 240.264 88.3007 214.074 85.642 187.478C82.1873 152.925 75.5433 133.325 66.4193 130.769H22.118C21.1807 131.224 15.7167 134.353 10.806 147.686C5.81801 161.236 0.431341 188.301 3.09267 240.318C3.12601 240.974 2.62067 241.533 1.96601 241.566C1.29801 241.596 0.750001 241.096 0.716667 240.44C-4.49933 138.477 20.4313 128.816 21.494 128.456L21.6793 128.392H66.7273L66.8753 128.43C77.27 131.132 84.3793 150.925 88.0087 187.261C90.6807 213.982 90.4353 240.29 90.434 240.55C90.4247 241.204 89.894 241.728 89.2447 241.728Z" fill="#300635"/>
<path d="M78.1171 241.329C78.2877 232.1 77.5144 195.912 77.5144 184.965C77.5144 149.649 77.0371 120.482 43.9877 121.024C12.3664 121.54 10.4651 149.649 10.4651 184.965C10.4651 196.245 10.2277 232.326 11.0717 241.329H78.1171Z" fill="#F26B82"/>
<path d="M12.1666 240.142H76.9465C76.9972 234.084 76.7932 220.535 76.6106 208.486C76.4639 198.778 76.3252 189.606 76.3252 184.964C76.3252 151.286 76.3252 122.204 44.8852 122.204C44.5932 122.204 44.3052 122.207 44.0092 122.212C13.9746 122.703 11.6532 148.53 11.6532 184.964C11.6532 186.646 11.6479 188.88 11.6412 191.494C11.6079 205.584 11.5479 231.3 12.1666 240.142ZM79.2866 242.519H9.98789L9.88656 241.442C9.16522 233.726 9.23056 206.248 9.26389 191.488C9.27056 188.876 9.27589 186.646 9.27589 184.964C9.27589 167.836 9.65722 151.475 14.2572 139.516C19.2612 126.516 28.9799 120.078 43.9706 119.835C44.2799 119.83 44.5826 119.827 44.8852 119.827C60.2332 119.827 69.6039 126.068 74.3786 139.468C78.7012 151.606 78.7012 168.563 78.7012 184.964C78.7012 189.588 78.8426 198.748 78.9879 208.448C79.1932 221.999 79.4052 236.007 79.3079 241.352L79.2866 242.519Z" fill="#300635"/>
<path d="M44.2278 132.117C44.2278 132.117 55.4011 131.246 54.4504 122.446C54.4504 122.446 59.4438 122.924 60.8691 124.826C60.8691 124.826 64.1998 131.008 55.6398 136.478C55.6398 136.478 49.9331 139.884 44.2278 132.117" fill="#FFD7E1"/>
<path d="M46.4568 132.954C48.3461 134.974 50.4048 136.031 52.4821 136.031C54.0088 136.031 55.0301 135.457 55.0395 135.45C62.0368 130.978 60.1875 126.183 59.8608 125.466C59.2035 124.705 57.3395 124.126 55.6928 123.823C55.6275 125.769 54.9888 127.482 53.7861 128.933C51.7555 131.381 48.5648 132.477 46.4568 132.954ZM52.4821 138.41C50.1515 138.41 46.6621 137.439 43.2675 132.821L42.0035 131.099L44.1341 130.931C44.1861 130.927 49.4288 130.473 51.9635 127.407C53.0501 126.093 53.4781 124.511 53.2675 122.577L53.1128 121.126L54.5621 121.265C55.4848 121.351 60.1621 121.902 61.8208 124.113L61.9181 124.261C61.9555 124.334 65.6595 131.485 56.2781 137.481C56.0941 137.593 54.6568 138.41 52.4821 138.41Z" fill="#300635"/>
<path d="M44.1509 132.117C44.1509 132.117 32.9749 131.246 33.9256 122.446C33.9256 122.446 28.9336 122.924 27.5069 124.826C27.5069 124.826 24.1789 131.008 32.7376 136.478C32.7376 136.478 38.4456 139.884 44.1509 132.117" fill="#FFD7E1"/>
<path d="M33.3762 135.475C33.3802 135.475 34.3935 136.031 35.8948 136.031C37.9722 136.031 40.0322 134.974 41.9215 132.954C39.8108 132.476 36.6228 131.382 34.5895 128.934C33.3868 127.484 32.7482 125.772 32.6855 123.827C31.0348 124.13 29.1708 124.71 28.5148 125.467C28.1975 126.158 26.3242 130.967 33.3762 135.475ZM35.8975 138.41H35.8948C33.7188 138.41 32.2855 137.592 32.1282 137.496C22.7175 131.486 26.4202 124.335 26.4602 124.262L26.5562 124.114C28.2135 121.902 32.8935 121.351 33.8135 121.266L35.2655 121.126L35.1082 122.576C34.9002 124.515 35.3282 126.099 36.4202 127.412C38.9695 130.488 44.1908 130.928 44.2428 130.932L46.3748 131.1L45.1082 132.822C41.7148 137.44 38.2255 138.41 35.8975 138.41Z" fill="#300635"/>
<path d="M53.7538 123.627C53.7538 126.781 52.3111 129.265 48.9831 131.007L44.2271 132.117L40.2644 130.849C36.9351 130.057 34.4964 126.781 34.4964 123.627V107.222C34.4964 104.073 37.0511 101.519 40.2018 101.519H48.0484C51.2004 101.519 53.7538 104.073 53.7538 107.222V123.627Z" fill="#FFD7E1"/>
<path d="M40.2017 102.707C37.711 102.707 35.6857 104.733 35.6857 107.223V123.627C35.6857 126.335 37.863 129.057 40.5403 129.693L40.6257 129.717L44.2777 130.885L48.5617 129.884C51.291 128.413 52.5643 126.423 52.5643 123.627V107.223C52.5643 104.733 50.5377 102.707 48.0483 102.707H40.2017ZM44.1763 133.349L39.9443 131.996C36.2203 131.084 33.3083 127.417 33.3083 123.627V107.223C33.3083 103.42 36.4003 100.328 40.2017 100.328H48.0483C51.8497 100.328 54.943 103.42 54.943 107.223V123.627C54.943 127.345 53.123 130.18 49.5337 132.061L49.4003 132.131L44.1763 133.349Z" fill="#300635"/>
<g opacity="0.5">
<g opacity="0.5">
<path opacity="0.5" d="M48.048 101.519H40.2014C37.0507 101.519 34.496 104.073 34.496 107.222V115.069C34.496 118.219 37.0507 120.774 40.2014 120.774H48.048C51.2 120.774 53.7534 118.219 53.7534 115.069V107.222C53.7534 104.073 51.2 101.519 48.048 101.519Z" fill="#CCCCCC"/>
</g>
</g>
<path d="M20.7043 79.4046C20.7043 84.6566 16.4456 88.9153 11.1936 88.9153C5.94162 88.9153 1.68295 84.6566 1.68295 79.4046C1.68295 74.154 5.94162 69.8953 11.1936 69.8953C16.4456 69.8953 20.7043 74.154 20.7043 79.4046Z" fill="#FFD7E1"/>
<path d="M11.1939 71.0843C6.60456 71.0843 2.87123 74.8163 2.87123 79.4043C2.87123 83.9936 6.60456 87.7269 11.1939 87.7269C15.7819 87.7269 19.5139 83.9936 19.5139 79.4043C19.5139 74.8163 15.7819 71.0843 11.1939 71.0843ZM11.1939 90.1056C5.29256 90.1056 0.493896 85.3056 0.493896 79.4043C0.493896 73.5056 5.29256 68.7069 11.1939 68.7069C17.0939 68.7069 21.8912 73.5056 21.8912 79.4043C21.8912 85.3056 17.0939 90.1056 11.1939 90.1056Z" fill="#300635"/>
<path d="M5.96215 78.4541C5.96215 78.4541 5.48615 74.6488 10.4808 74.4128Z" fill="#FFD7E1"/>
<path d="M5.95813 79.6337C5.3688 79.6337 4.85813 79.2017 4.78213 78.6017C4.75947 78.4057 4.5808 76.6497 5.8488 75.1417C6.83547 73.9671 8.3768 73.3217 10.4235 73.2244C11.0928 73.1871 11.6368 73.6991 11.6675 74.3551C11.6995 75.0097 11.1915 75.5684 10.5381 75.6004C9.19147 75.6631 8.2328 76.0177 7.68613 76.6497C7.05813 77.3791 7.14347 78.3111 7.14347 78.3217C7.20747 78.9697 6.7408 79.5551 6.09547 79.6284C6.04747 79.6337 6.00213 79.6337 5.95813 79.6337Z" fill="#300635"/>
<path d="M66.6743 79.4046C66.6743 84.6566 70.9303 88.9153 76.1836 88.9153C81.437 88.9153 85.6956 84.6566 85.6956 79.4046C85.6956 74.154 81.437 69.8953 76.1836 69.8953C70.9303 69.8953 66.6743 74.154 66.6743 79.4046Z" fill="#FFD7E1"/>
<path d="M76.1835 71.0843C71.5942 71.0843 67.8622 74.8163 67.8622 79.4043C67.8622 83.9936 71.5942 87.7269 76.1835 87.7269C80.7715 87.7269 84.5062 83.9936 84.5062 79.4043C84.5062 74.8163 80.7715 71.0843 76.1835 71.0843ZM76.1835 90.1056C70.2848 90.1056 65.4848 85.3056 65.4848 79.4043C65.4848 73.5056 70.2848 68.7069 76.1835 68.7069C82.0835 68.7069 86.8835 73.5056 86.8835 79.4043C86.8835 85.3056 82.0835 90.1056 76.1835 90.1056Z" fill="#300635"/>
<path d="M81.4152 78.4541C81.4152 78.4541 81.8899 74.6488 76.8965 74.4128Z" fill="#FFD7E1"/>
<path d="M81.4166 79.6442C81.3686 79.6442 81.3166 79.6389 81.2686 79.6336C80.6192 79.5536 80.1606 78.9656 80.2326 78.3189C80.2352 78.2776 80.3072 77.3656 79.6912 76.6496C79.1446 76.0176 78.1846 75.6642 76.8406 75.6002C76.1859 75.5682 75.6779 75.0096 75.7086 74.3549C75.7392 73.6989 76.2819 73.1869 76.9539 73.2256C79.0019 73.3216 80.5406 73.9669 81.5286 75.1416C82.7952 76.6496 82.6192 78.4056 82.5939 78.6016C82.5192 79.2029 82.0059 79.6442 81.4166 79.6442Z" fill="#300635"/>
<path d="M75.8215 57.5166C73.0548 43.8766 59.6628 33.5246 43.5455 33.5246C27.4281 33.5246 14.0361 43.8753 11.2695 57.5166C10.9281 58.1446 10.7361 58.8353 10.7361 59.566V86.2433C10.7361 86.4206 10.7481 86.5953 10.7695 86.7673C11.4535 102.367 25.8628 114.823 43.5455 114.823C61.2295 114.823 75.6388 102.366 76.3228 86.7646C76.3428 86.594 76.3548 86.4193 76.3548 86.2433V59.566C76.3548 58.8353 76.1615 58.1446 75.8215 57.5166Z" fill="#FFD7E1"/>
<path d="M43.5455 34.7145C28.2281 34.7145 15.1415 44.4039 12.4348 57.7519L12.3988 57.9265L12.3135 58.0812C12.0561 58.5599 11.9255 59.0585 11.9255 59.5665V86.2425C11.9255 86.3652 11.9308 86.4932 11.9495 86.6212L11.9561 86.7172C12.6201 101.811 26.4935 113.636 43.5455 113.636C60.5975 113.636 74.4721 101.808 75.1348 86.7119L75.1428 86.6159C75.1588 86.4932 75.1668 86.3665 75.1668 86.2425V59.5665C75.1668 59.0585 75.0348 58.5612 74.7775 58.0852L74.6921 57.9279L74.6561 57.7532C71.9495 44.4039 58.8628 34.7145 43.5455 34.7145ZM43.5455 116.015C25.2361 116.015 10.3281 103.215 9.58281 86.8652C9.55881 86.6572 9.54681 86.4492 9.54681 86.2425V59.5665C9.54681 58.7185 9.74548 57.8945 10.1375 57.1132C13.1441 42.7452 27.1655 32.3372 43.5455 32.3372C59.9268 32.3372 73.9468 42.7452 76.9535 57.1159C77.3455 57.8945 77.5441 58.7185 77.5441 59.5665V86.2425C77.5441 86.4505 77.5321 86.6599 77.5081 86.8625C76.7628 103.212 61.8548 116.015 43.5455 116.015Z" fill="#300635"/>
<path d="M34.9699 62.5322C34.9699 63.8442 32.8099 62.0576 29.2619 62.0576C25.7179 62.0576 22.1312 63.8442 22.1312 62.5322C22.1312 61.2202 25.2432 59.4416 28.7872 59.4416C32.3339 59.4416 34.9699 61.2202 34.9699 62.5322Z" fill="#300635"/>
<path d="M65.6405 61.4593C65.6405 62.7713 63.4818 60.9846 59.9351 60.9846C56.3898 60.9846 52.8018 62.7713 52.8018 61.4593C52.8018 60.1459 55.9138 58.3686 59.4591 58.3686C63.0058 58.3686 65.6405 60.1459 65.6405 61.4593Z" fill="#300635"/>
<path d="M48.0846 79.9099C48.0846 76.4619 46.7393 71.0845 44.0113 71.0845C41.2806 71.0845 39.7646 76.0845 39.7646 79.5312C39.7646 79.7632 39.7793 79.9725 39.8073 80.1619C39.8073 80.1725 39.8059 80.1805 39.8059 80.1885C39.8059 81.9925 41.6513 83.4552 43.9259 83.4552C45.6939 83.4552 47.1979 82.5712 47.7833 81.3312C47.9713 81.0259 48.0846 80.5712 48.0846 79.9099Z" fill="#FC7C7C"/>
<path d="M20.4516 76.0842C20.3263 76.0842 20.1996 76.0642 20.0743 76.0242C19.4516 75.8162 19.1156 75.1416 19.3223 74.5189C20.7556 70.2202 22.585 68.0509 24.9156 67.8842C28.7156 67.6349 31.6543 73.2456 31.9756 73.8896C32.269 74.4749 32.0303 75.1896 31.4436 75.4842C30.8583 75.7762 30.145 75.5402 29.8503 74.9536C29.0503 73.3656 26.8263 70.1282 25.0823 70.2549C23.8703 70.3416 22.629 72.1229 21.5783 75.2722C21.413 75.7696 20.949 76.0842 20.4516 76.0842Z" fill="#300635"/>
<path d="M56.1157 76.0842C55.9891 76.0842 55.8651 76.0642 55.7397 76.0242C55.1157 75.8162 54.7784 75.1416 54.9851 74.5189C56.4211 70.2202 58.2504 68.0509 60.5797 67.8842C64.3797 67.6349 67.3171 73.2456 67.6411 73.8896C67.9317 74.4749 67.6957 75.1896 67.1077 75.4842C66.5224 75.7762 65.8077 75.5402 65.5131 74.9536C64.7157 73.3656 62.4944 70.1282 60.7477 70.2549C59.5357 70.3416 58.2917 72.1229 57.2437 75.2722C57.0771 75.7696 56.6117 76.0842 56.1157 76.0842Z" fill="#300635"/>
<path d="M27.3462 91.0635H58.7302C58.7302 91.0635 41.1368 119.121 27.3462 91.0635Z" fill="white"/>
<path d="M29.2967 92.2535C32.938 98.9509 37.074 102.344 41.61 102.344C48.0634 102.344 53.9353 95.5895 56.442 92.2535H29.2967ZM41.61 104.72C35.722 104.72 30.5607 100.302 26.2767 91.5869L25.438 89.8762H60.8794L59.738 91.6949C59.4047 92.2282 51.4553 104.72 41.61 104.72Z" fill="#300635"/>
<path d="M11.1939 69.8954L13.7926 51.5928H58.4926L62.7726 45.4128L64.6752 51.5928H73.2339L76.1832 69.8954C76.1832 69.8954 82.2712 68.2381 80.3672 53.0221C80.3672 53.0221 80.3672 27.8168 47.5552 24.0141C47.5552 24.0141 14.7432 20.2088 8.08723 48.2648C8.08723 48.2648 5.23257 58.7274 11.1939 69.8954" fill="#491448"/>
<path d="M65.5532 50.4072H74.2479L77.0572 67.8299C78.4332 66.3139 80.3505 62.4726 79.1879 53.1672L79.1772 53.0219C79.1772 52.9619 79.1132 46.8806 75.1879 40.4579C69.9292 31.8579 60.5879 26.7219 47.4185 25.1939C47.4052 25.1926 45.9545 25.0299 43.6479 25.0299C34.9799 25.0299 14.2785 27.3206 9.24519 48.5406C9.20919 48.6606 7.16386 56.5432 10.5905 65.6832L12.7612 50.4072H57.8692L63.1879 42.7232L65.5532 50.4072ZM11.8585 73.6646L10.1439 70.4539C4.03052 59.0006 6.81586 48.3992 6.93853 47.9526C12.3572 25.1206 34.4145 22.6526 43.6479 22.6526C46.1025 22.6526 47.6279 22.8246 47.6932 22.8339C65.1199 24.8539 73.4039 32.9192 77.2825 39.3272C81.3052 45.9752 81.5399 52.1366 81.5545 52.9406C83.5345 68.9352 76.7839 70.9632 76.4945 71.0419L75.2212 71.3885L72.2212 52.7819H63.7959L62.3572 48.1019L59.1159 52.7819H14.8239L11.8585 73.6646Z" fill="#300635"/>
<path d="M17.3709 164.509L24.5056 158.09L30.2109 163.795L37.3429 157.375L44.2283 164.137L50.8949 158.09L58.4923 164.77L65.1589 158.09L70.8669 164.509" fill="#F26B82"/>
<path d="M58.5455 166.399L50.9068 159.683L44.1935 165.77L37.3081 159.007L30.1655 165.433L24.4628 159.727L18.1668 165.391C17.6788 165.831 16.9255 165.791 16.4868 165.305C16.0481 164.817 16.0868 164.066 16.5761 163.626L24.5468 156.451L30.2535 162.157L37.3775 155.745L44.2601 162.501L50.8815 156.495L58.4388 163.142L65.2108 156.357L71.7548 163.719C72.1895 164.21 72.1468 164.962 71.6561 165.397C71.1655 165.833 70.4135 165.79 69.9788 165.299L65.1095 159.822L58.5455 166.399Z" fill="#300635"/>
</svg>
