<svg width="93" height="219" viewBox="0 0 93 219" fill="none" xmlns="http://www.w3.org/2000/svg">
<path d="M14.3165 138.593H2.90314C2.90314 138.593 9.6658 97.2908 37.6685 97.9708H59.7285C59.7285 97.9708 84.1365 103.587 90.4791 137.825L14.3165 138.593Z" fill="#42403E"/>
<path d="M4.34645 137.406H14.3118L89.0384 136.651C85.6824 120.255 78.0064 110.985 72.0718 106.062C65.9798 101.005 60.4544 99.3927 59.5798 99.1594H37.6678C37.4211 99.1554 37.2051 99.154 36.9851 99.154C13.6811 99.154 5.81712 130.394 4.34645 137.406ZM14.3225 139.783H1.50378L1.73045 138.401C1.79978 137.979 3.48378 127.947 8.59712 117.745C15.4758 104.026 25.2904 96.7754 36.9851 96.7754C37.2224 96.7754 37.4571 96.7767 37.6971 96.7834L59.8638 96.782L59.9944 96.814C60.2544 96.8727 66.4518 98.346 73.4838 104.142C79.9251 109.453 88.3078 119.57 91.6478 137.609L91.9051 138.998L14.3225 139.783Z" fill="#300635"/>
<path d="M80.6551 217.133C82.1284 204.082 80.6844 187.579 80.6844 170.13C80.6844 128.841 80.2124 94.7365 47.1604 95.3672C15.5378 95.9712 13.6364 128.841 13.6364 170.13C13.6364 188.267 13.1818 204.474 15.7098 217.133H80.6551Z" fill="#42403E"/>
<path d="M16.6915 215.942H79.5862C80.4102 207.677 80.1288 197.954 79.8302 187.686C79.6662 182.006 79.4968 176.133 79.4968 170.13C79.4968 130.646 79.4968 96.5491 48.0555 96.5491C47.7675 96.5491 47.4781 96.5504 47.1835 96.5571C17.1475 97.1304 14.8262 127.412 14.8262 170.13C14.8262 172.574 14.8168 174.981 14.8088 177.353C14.7582 192.306 14.7128 205.284 16.6915 215.942ZM81.7182 218.32H14.7355L14.5435 217.364C12.3302 206.294 12.3795 192.877 12.4315 177.344C12.4395 174.976 12.4475 172.57 12.4475 170.13C12.4475 150.14 12.8275 131.046 17.4102 117.12C22.3968 101.97 32.1208 94.4651 47.1381 94.1798C55.6635 94.0291 62.2955 96.0424 67.4848 100.377C71.9982 104.146 75.2968 109.602 77.5688 117.056C81.8742 131.19 81.8742 150.986 81.8742 170.13C81.8742 176.098 82.0435 181.954 82.2075 187.617C82.5182 198.412 82.8168 208.608 81.8368 217.265L81.7182 218.32Z" fill="#300635"/>
<path d="M41.586 107.718H52.5327C56.9287 107.718 60.494 104.969 60.494 101.574V97.5544C56.7754 96.0331 52.3727 95.2677 47.1607 95.3664C41.8554 95.4677 37.39 96.4811 33.626 98.2877V101.574C33.626 104.969 37.19 107.718 41.586 107.718Z" fill="white"/>
<path d="M34.8164 99.0492V101.575C34.8164 104.307 37.8511 106.531 41.5857 106.531H52.5324C56.2657 106.531 59.3031 104.307 59.3031 101.575V98.3665C55.8244 97.0759 51.7644 96.4679 47.1831 96.5572C42.5097 96.6452 38.3524 97.4839 34.8164 99.0492ZM52.5324 108.909H41.5857C36.5417 108.909 32.4377 105.62 32.4377 101.575V97.5385L33.1124 97.2159C37.1017 95.3025 41.8217 94.2799 47.1377 94.1799C47.4471 94.1745 47.7511 94.1719 48.0537 94.1719C52.9004 94.1719 57.2364 94.9385 60.9417 96.4559L61.6804 96.7572V101.575C61.6804 105.62 57.5764 108.909 52.5324 108.909" fill="#300635"/>
<path d="M40.0718 142.264C40.0718 142.264 69.5544 136.24 80.9678 138.143L90.4798 137.825C90.4798 137.825 91.7464 151.773 91.7464 153.36C91.7464 153.36 77.4811 152.091 68.9211 153.992C68.9211 153.992 54.0211 142.264 40.0718 142.264Z" fill="#E2987C"/>
<path d="M47.698 142.06C57.9514 144.566 67.0794 151.112 69.21 152.716C72.3594 152.081 76.4887 151.754 81.4914 151.754C85.2847 151.754 88.686 151.948 90.49 152.073C90.294 149.208 89.7234 142.688 89.3954 139.05L80.89 139.336L80.7727 139.314C79.3594 139.081 77.5567 138.961 75.4127 138.961C67.1087 138.961 55.2807 140.745 47.698 142.06ZM68.63 155.274L68.1874 154.925C68.0407 154.812 53.4394 143.453 40.0714 143.453H28.314L39.8354 141.1C40.7354 140.916 62.0967 136.584 75.4127 136.584C77.6274 136.584 79.522 136.705 81.0447 136.95L91.5607 136.598L91.6634 137.716C91.7127 138.289 92.9354 151.74 92.9354 153.361V154.66L91.642 154.544C91.5954 154.54 86.9607 154.133 81.4914 154.133C76.3647 154.133 72.2234 154.477 69.1794 155.152L68.63 155.274Z" fill="#300635"/>
<path d="M14.3165 138.593C14.3165 138.593 57.5098 141.628 68.9205 153.992C68.9205 153.992 75.2618 162.235 68.9205 167.307C68.9205 167.307 63.2165 172.38 53.0698 162.552C53.0698 162.552 25.1738 155.26 12.1752 154.624C12.1752 154.624 2.98183 153.675 2.03116 153.675C2.03116 153.675 -0.342171 144.751 2.90316 138.593H14.3165Z" fill="#E2987C"/>
<path d="M12.267 153.44C25.2483 154.083 52.2283 161.104 53.371 161.401L53.6723 161.48L53.8976 161.697C58.7856 166.432 62.455 167.427 64.671 167.427C66.9136 167.427 68.0923 166.451 68.1416 166.409L68.179 166.38C73.3763 162.221 68.4963 155.411 68.0096 154.756C57.1363 143.076 15.8016 139.896 14.2723 139.784H3.64697C1.6003 144.359 2.54564 150.375 2.99097 152.544C5.43897 152.739 11.3523 153.345 12.267 153.44ZM64.671 169.804C60.8736 169.804 56.7696 167.727 52.4696 163.625C49.4296 162.841 24.1283 156.4 12.1163 155.815L12.0536 155.809C8.52164 155.445 2.67897 154.864 2.03097 154.864H1.11764L0.881638 153.98C0.780305 153.599 -1.5717 144.533 1.8523 138.039L2.1883 137.407H14.4003C16.1843 137.533 58.1963 140.621 69.795 153.187L69.863 153.267C72.3016 156.436 75.3976 163.637 69.6736 168.227C69.4003 168.456 67.655 169.804 64.671 169.804Z" fill="#300635"/>
<path d="M56.9259 97.9711C56.9259 101.122 54.3712 103.679 51.2206 103.679H43.3739C40.2232 103.679 37.6686 101.122 37.6686 97.9711V81.5671C37.6686 78.4164 40.2232 75.8604 43.3739 75.8604H51.2206C54.3712 75.8604 56.9259 78.4164 56.9259 81.5671V97.9711Z" fill="#E2987C"/>
<path d="M43.3738 77.0492C40.8845 77.0492 38.8578 79.0772 38.8578 81.5679V97.9705C38.8578 100.464 40.8845 102.489 43.3738 102.489H51.2205C53.7125 102.489 55.7365 100.464 55.7365 97.9705V81.5679C55.7365 79.0772 53.7125 77.0492 51.2205 77.0492H43.3738ZM51.2205 104.867H43.3738C39.5725 104.867 36.4805 101.773 36.4805 97.9705V81.5679C36.4805 77.7652 39.5725 74.6719 43.3738 74.6719H51.2205C55.0218 74.6719 58.1151 77.7652 58.1151 81.5679V97.9705C58.1151 101.773 55.0218 104.867 51.2205 104.867" fill="#300635"/>
<g opacity="0.5">
<g opacity="0.5">
<path opacity="0.5" d="M51.2202 75.8604H43.3735C40.2228 75.8604 37.6682 78.4164 37.6682 81.567V89.411C37.6682 92.5644 40.2228 95.1177 43.3735 95.1177H51.2202C54.3708 95.1177 56.9255 92.5644 56.9255 89.411V81.567C56.9255 78.4164 54.3708 75.8604 51.2202 75.8604Z" fill="#CCCCCC"/>
</g>
</g>
<path d="M23.8751 53.7484C23.8751 59.0017 19.6178 63.2577 14.3658 63.2577C9.11377 63.2577 4.8551 59.0017 4.8551 53.7484C4.8551 48.4951 9.11377 44.2364 14.3658 44.2364C19.6178 44.2364 23.8751 48.4951 23.8751 53.7484Z" fill="#E2987C"/>
<path d="M14.366 45.4268C9.77668 45.4268 6.04335 49.1615 6.04335 53.7482C6.04335 58.3388 9.77668 62.0695 14.366 62.0695C18.954 62.0695 22.686 58.3388 22.686 53.7482C22.686 49.1615 18.954 45.4268 14.366 45.4268ZM14.366 64.4495C8.46601 64.4495 3.66602 59.6482 3.66602 53.7482C3.66602 47.8482 8.46601 43.0495 14.366 43.0495C20.266 43.0495 25.0633 47.8482 25.0633 53.7482C25.0633 59.6482 20.266 64.4495 14.366 64.4495Z" fill="#300635"/>
<path d="M9.13415 52.7965C9.13415 52.7965 8.65815 48.9925 13.6528 48.7552Z" fill="#FFD7E1"/>
<path d="M9.12898 53.9789C8.53965 53.9789 8.03031 53.5442 7.95431 52.9456C7.93165 52.7496 7.75298 50.9922 9.02098 49.4856C10.009 48.3096 11.5476 47.6669 13.5956 47.5669C14.2556 47.5416 14.809 48.0429 14.8396 48.7002C14.8716 49.3536 14.3636 49.9122 13.7103 49.9442C12.365 50.0069 11.405 50.3616 10.8583 50.9962C10.2303 51.7216 10.3156 52.6549 10.317 52.6642C10.3783 53.3122 9.91298 53.8976 9.26765 53.9696C9.21965 53.9749 9.17431 53.9789 9.12898 53.9789Z" fill="#300635"/>
<path d="M69.8451 53.7484C69.8451 59.0017 74.1024 63.2577 79.3558 63.2577C84.6091 63.2577 88.8678 59.0017 88.8678 53.7484C88.8678 48.4951 84.6091 44.2364 79.3558 44.2364C74.1024 44.2364 69.8451 48.4951 69.8451 53.7484Z" fill="#E2987C"/>
<path d="M79.3555 45.4268C74.7688 45.4268 71.0342 49.1615 71.0342 53.7482C71.0342 58.3388 74.7688 62.0695 79.3555 62.0695C83.9435 62.0695 87.6782 58.3388 87.6782 53.7482C87.6782 49.1615 83.9435 45.4268 79.3555 45.4268ZM79.3555 64.4495C73.4569 64.4495 68.6555 59.6482 68.6555 53.7482C68.6555 47.8482 73.4569 43.0495 79.3555 43.0495C85.2555 43.0495 90.0555 47.8482 90.0555 53.7482C90.0555 59.6482 85.2555 64.4495 79.3555 64.4495Z" fill="#300635"/>
<path d="M84.5874 52.7965C84.5874 52.7965 85.0607 48.9925 80.0687 48.7552Z" fill="#FFD7E1"/>
<path d="M84.5887 53.9867C84.538 53.9867 84.49 53.9841 84.4394 53.9761C83.7914 53.8961 83.3327 53.3094 83.406 52.6614C83.41 52.6201 83.4794 51.7081 82.8634 50.9961C82.3167 50.3614 81.3567 50.0081 80.0114 49.9441C79.358 49.9121 78.85 49.3534 78.882 48.7001C78.9127 48.0427 79.462 47.5441 80.1247 47.5681C82.1727 47.6667 83.7127 48.3094 84.7007 49.4854C85.9674 50.9921 85.79 52.7494 85.7647 52.9454C85.6914 53.5467 85.178 53.9867 84.5887 53.9867Z" fill="#300635"/>
<path d="M78.9948 27.152C76.2268 12.3907 62.8348 1.18801 46.7175 1.18801C30.6001 1.18801 17.2095 12.3907 14.4415 27.1507C14.1015 27.8307 13.9081 28.58 13.9081 29.3707V58.2373C13.9081 58.4293 13.9175 58.62 13.9415 58.8067C14.6255 75.6853 29.0321 89.1693 46.7175 89.1693C64.4028 89.1693 78.8108 75.684 79.4935 58.8027C79.5175 58.6187 79.5268 58.4293 79.5268 58.2373V29.3707C79.5268 28.58 79.3348 27.832 78.9948 27.152Z" fill="#E2987C"/>
<path d="M46.7175 2.37732C31.4082 2.37732 18.3242 12.8893 15.6109 27.3693L15.5789 27.5333L15.5042 27.684C15.2335 28.224 15.0975 28.792 15.0975 29.3707V58.2387C15.0975 58.38 15.1055 58.5253 15.1215 58.6693L15.1282 58.7573C15.7962 75.1427 29.6695 87.9786 46.7175 87.9786C63.7669 87.9786 77.6415 75.1413 78.3069 58.7547L78.3122 58.6653C78.3295 58.5253 78.3375 58.3813 78.3375 58.2387V29.3707C78.3375 28.792 78.2015 28.224 77.9322 27.6867L77.8562 27.536L77.8242 27.372C75.1109 12.8893 62.0282 2.37732 46.7175 2.37732ZM46.7175 90.356C28.4029 90.356 13.4935 76.5413 12.7549 58.8987C12.7309 58.6773 12.7189 58.456 12.7189 58.2387V29.3707C12.7189 28.4733 12.9135 27.6013 13.3029 26.7733C16.2949 11.2507 30.3189 -4.78689e-06 46.7175 -4.78689e-06C63.1175 -4.78689e-06 77.1415 11.2507 80.1322 26.776C80.5215 27.6013 80.7162 28.4733 80.7162 29.3707V58.2387C80.7162 58.4587 80.7042 58.6773 80.6802 58.896C79.9415 76.5413 65.0335 90.356 46.7175 90.356Z" fill="#300635"/>
<path d="M38.142 38.294C38.142 39.606 35.9807 37.8207 32.4367 37.8207C28.89 37.8207 25.3033 39.606 25.3033 38.294C25.3033 36.982 28.4127 35.2034 31.9593 35.2034C35.5047 35.2034 38.142 36.982 38.142 38.294Z" fill="#300635"/>
<path d="M68.8139 38.294C68.8139 39.606 66.6512 37.8207 63.1072 37.8207C59.5619 37.8207 55.9752 39.606 55.9752 38.294C55.9752 36.982 59.0859 35.2034 62.6312 35.2034C66.1752 35.2034 68.8139 36.982 68.8139 38.294Z" fill="#300635"/>
<path d="M23.6238 50.4294C23.4985 50.4294 23.3718 50.408 23.2465 50.3667C22.6238 50.1587 22.2878 49.4854 22.4945 48.864C23.9291 44.5654 25.7571 42.3934 28.0878 42.228C31.8918 41.976 34.8265 47.588 35.1478 48.232C35.4411 48.82 35.2025 49.532 34.6158 49.8254C34.0278 50.12 33.3171 49.8827 33.0198 49.2947C32.2251 47.7094 30.0025 44.4787 28.2545 44.5987C27.0438 44.684 25.7985 46.468 24.7491 49.6147C24.5851 50.1134 24.1211 50.4294 23.6238 50.4294Z" fill="#300635"/>
<path d="M59.2866 50.4294C59.1626 50.4294 59.0359 50.408 58.9119 50.3667C58.2879 50.1587 57.9519 49.4854 58.1599 48.864C59.5919 44.5654 61.4239 42.3934 63.7519 42.228C67.5559 41.976 70.4906 47.588 70.8132 48.232C71.1052 48.82 70.8666 49.532 70.2799 49.8254C69.6946 50.12 68.9799 49.8827 68.6852 49.2947C67.8892 47.7094 65.6732 44.4787 63.9199 44.5987C62.7092 44.684 61.4639 46.468 60.4159 49.6147C60.2492 50.1134 59.7852 50.4294 59.2866 50.4294Z" fill="#300635"/>
<path d="M30.517 65.406H61.9023C61.9023 65.406 44.309 93.4634 30.517 65.406Z" fill="white"/>
<path d="M32.4702 66.5948C36.1102 73.2935 40.2462 76.6881 44.7822 76.6881C51.2355 76.6881 57.1088 69.9321 59.6128 66.5948H32.4702ZM44.7822 79.0668C38.8942 79.0668 33.7355 74.6455 29.4515 65.9321L28.6088 64.2188H64.0515L62.9102 66.0388C62.5768 66.5695 54.6262 79.0668 44.7822 79.0668Z" fill="#300635"/>
<path d="M45.2514 59.9112C43.7434 59.9112 42.5767 59.5646 41.7301 58.8779C40.4941 57.8686 40.3661 56.3926 40.4861 55.6792C40.5927 55.0312 41.2047 54.5939 41.8541 54.7032C42.4954 54.8072 42.9287 55.4086 42.8341 56.0499C42.8247 56.1272 42.7794 56.6819 43.2567 57.0512C43.8407 57.5126 45.9327 58.2966 52.6447 55.7166C53.2554 55.4766 53.9447 55.7859 54.1794 56.3992C54.4154 57.0126 54.1101 57.7006 53.4981 57.9366C50.0687 59.2552 47.3341 59.9112 45.2514 59.9112Z" fill="#300635"/>
<g opacity="0.5">
<g opacity="0.5">
<path opacity="0.5" d="M75.7983 72.182C77.277 61.406 66.7036 61.1047 66.7036 61.1047H24.5396C14.9983 61.638 16.9783 69.9167 17.8836 72.6193C23.4383 82.4727 34.2623 89.1687 46.717 89.1687C59.3583 89.1687 70.3223 82.2753 75.7983 72.182Z" fill="#CCCCCC"/>
</g>
</g>
<g opacity="0.5">
<g opacity="0.5">
<path opacity="0.5" d="M46.7175 1.18855C30.6002 1.18855 17.2095 12.3899 14.4415 27.1512C14.1015 27.8299 13.9082 28.5805 13.9082 29.3712V43.7139C14.1922 44.0445 14.3655 44.2365 14.3655 44.2365L17.8815 46.5219V28.4525C17.8815 28.4525 18.8322 16.7232 28.9762 11.6512C28.9762 11.6512 43.8762 23.0632 65.7509 11.6512C65.7509 11.6512 73.6762 17.3579 74.6295 25.9165L75.2602 45.2552L79.5269 43.7032V29.3712C79.5269 28.5805 79.3349 27.8312 78.9949 27.1525C76.2269 12.3899 62.8349 1.18855 46.7175 1.18855Z" fill="#CCCCCC"/>
</g>
</g>
</svg>
