<svg width="95" height="202" viewBox="0 0 95 202" fill="none" xmlns="http://www.w3.org/2000/svg">
<path d="M91.2698 199.784C91.2698 199.784 92.3765 120.688 68.6005 114.504H23.9018C23.9018 114.504 1.55117 119.259 3.92851 199.624" fill="#A885ED"/>
<path d="M91.2698 200.972H91.2512C90.5952 200.961 90.0712 200.422 90.0805 199.766C90.0818 199.568 90.3245 179.821 87.6698 159.592C84.2298 133.381 77.5832 118.208 68.4458 115.693H24.0645C23.3605 115.922 18.4818 117.838 13.8592 127.95C9.20584 138.128 3.91118 158.821 5.11784 199.589C5.13784 200.246 4.62184 200.792 3.96451 200.813H3.92851C3.28851 200.813 2.7605 200.304 2.74183 199.66C0.361835 119.226 22.7018 113.545 23.6538 113.341L23.7778 113.316H68.7538L68.9005 113.353C93.2992 119.697 92.5032 196.532 92.4592 199.798C92.4485 200.45 91.9165 200.972 91.2698 200.972Z" fill="#300635"/>
<path d="M80.1434 200.575C80.3114 191.344 79.5381 180.836 79.5381 169.885C79.5381 134.573 79.0621 105.407 46.0128 105.945C14.3901 106.461 12.4901 134.573 12.4901 169.885C12.4901 181.169 12.2528 191.571 13.0941 200.575H80.1434Z" fill="#A885ED"/>
<path d="M14.1825 199.386H78.9705C79.0172 194.838 78.8532 189.999 78.6825 184.902C78.5185 180.044 78.3492 175.024 78.3492 169.886C78.3492 136.21 78.3492 107.128 46.9092 107.128C46.6198 107.128 46.3292 107.128 46.0332 107.134C15.9985 107.626 13.6785 133.452 13.6785 169.886C13.6785 171.948 13.6705 173.976 13.6598 175.976C13.6305 184.38 13.5998 192.344 14.1825 199.386ZM81.3132 201.763H12.0118L11.9105 200.686C11.2172 193.266 11.2505 184.863 11.2825 175.967C11.2932 173.971 11.3012 171.944 11.3012 169.886C11.3012 152.76 11.6812 136.399 16.2825 124.44C21.2852 111.44 31.0052 105.002 45.9945 104.755C46.3038 104.75 46.6052 104.749 46.9092 104.749C80.7265 104.749 80.7265 136.39 80.7265 169.886C80.7265 174.984 80.8959 179.984 81.0599 184.822C81.2452 190.39 81.4238 195.648 81.3332 200.596L81.3132 201.763Z" fill="#300635"/>
<g opacity="0.5">
<g opacity="0.5">
<path opacity="0.5" d="M17.8792 169.886C17.8792 135.271 19.7085 107.583 49.5632 106.014C48.4219 105.953 47.2419 105.926 46.0139 105.946C14.3899 106.462 12.4899 134.574 12.4899 169.886C12.4899 181.17 12.2525 191.571 13.0939 200.575H18.4832C17.6419 191.571 17.8792 181.17 17.8792 169.886Z" fill="#CCCCCC"/>
</g>
</g>
<path d="M46.2502 117.041C46.2502 117.041 57.4276 116.169 56.4756 107.373C56.4756 107.373 61.4676 107.847 62.8942 109.747C62.8942 109.747 66.2222 115.931 57.6649 121.402C57.6649 121.402 51.9569 124.807 46.2502 117.041" fill="#FFD7E1"/>
<path d="M48.4808 117.875C50.3715 119.898 52.4301 120.955 54.5075 120.955C56.0341 120.955 57.0528 120.379 57.0635 120.374C64.0621 115.902 62.2128 111.105 61.8861 110.39C61.2275 109.629 59.3648 109.05 57.7168 108.746C57.6515 110.693 57.0141 112.406 55.8115 113.857C53.7795 116.305 50.5888 117.399 48.4808 117.875ZM54.5075 123.334C52.1768 123.334 48.6888 122.363 45.2928 117.745L44.0275 116.021L46.1595 115.855C46.2101 115.85 51.4528 115.394 53.9888 112.331C55.0755 111.015 55.5021 109.435 55.2928 107.498L55.1355 106.049L56.5888 106.189C57.5088 106.275 62.1875 106.826 63.8448 109.037L63.9421 109.185C63.9795 109.255 67.6848 116.409 58.3035 122.402C58.1168 122.514 56.6821 123.334 54.5075 123.334Z" fill="#300635"/>
<path d="M46.1761 117.041C46.1761 117.041 35.0001 116.169 35.9508 107.373C35.9508 107.373 30.9588 107.847 29.5321 109.747C29.5321 109.747 26.2041 115.931 34.7614 121.402C34.7614 121.402 40.4708 124.807 46.1761 117.041" fill="#FFD7E1"/>
<path d="M35.4026 120.396C35.4053 120.396 36.416 120.955 37.92 120.955C39.9973 120.955 42.056 119.898 43.9466 117.875C41.836 117.399 38.648 116.306 36.6146 113.858C35.412 112.407 34.776 110.694 34.7093 108.748C33.06 109.052 31.196 109.634 30.5413 110.391C30.224 111.079 28.348 115.891 35.4026 120.396ZM37.9213 123.334H37.92C35.744 123.334 34.312 122.514 34.1533 122.42C24.7413 116.41 28.4453 109.256 28.4866 109.186L28.5813 109.036C30.2386 106.826 34.9186 106.275 35.8386 106.19L37.2906 106.048L37.1333 107.498C36.924 109.439 37.3533 111.022 38.444 112.336C40.9946 115.41 46.2146 115.851 46.2666 115.856L48.4 116.022L47.1333 117.746C43.74 122.364 40.2506 123.334 37.9213 123.334Z" fill="#300635"/>
<path d="M45.2997 1.32849C45.2997 1.32849 17.7197 -0.0981764 9.63438 28.4338C9.63438 28.4338 -5.10562 71.7071 4.40505 92.6311C4.40505 92.6311 8.68371 108.323 35.7877 103.568L56.7144 101.664C56.7144 101.664 72.881 107.848 84.7704 101.664C84.7704 101.664 103.79 94.5325 83.8184 27.9592C83.8184 27.9592 77.1597 -1.04885 45.2997 1.32849" fill="#EDC82E"/>
<path d="M44.6513 2.50553C40.238 2.50553 17.858 3.77086 10.7806 28.7575L10.7606 28.8149C10.6153 29.2455 -3.71804 71.8855 5.48729 92.1389L5.55129 92.3149C5.67796 92.7602 8.84596 103.275 26.234 103.275C29.1113 103.275 32.258 102.979 35.5846 102.398L35.6806 102.382L56.8793 100.456L57.1366 100.555C57.2073 100.582 64.2326 103.224 72.2126 103.224H72.214C76.846 103.224 80.886 102.344 84.2206 100.611L84.3513 100.552C84.514 100.484 101.942 92.5082 82.6793 28.3002L82.6606 28.2242C82.6446 28.1602 81.094 21.6375 76.154 15.2242C69.5886 6.7002 60.4353 2.3802 48.9486 2.3802C47.7886 2.3802 46.5926 2.4242 45.39 2.51487L45.3153 2.5202L45.2393 2.5162C45.2246 2.51487 45.018 2.50553 44.6513 2.50553ZM26.234 105.654C7.64596 105.654 3.67663 94.3282 3.28863 93.0429C-6.19137 72.0135 7.76463 30.2509 8.50196 28.0789C16.0566 1.47753 39.9393 0.128201 44.6513 0.128201C44.9593 0.128201 45.174 0.133529 45.2806 0.138862C46.5193 0.046862 47.7513 0.0028655 48.9486 0.0028655C64.2686 0.0028655 73.2553 7.53353 78.098 13.8509C83.17 20.4722 84.8166 27.0189 84.9673 27.6509C104.566 93.0029 86.8313 102.09 85.2673 102.747C81.6006 104.642 77.21 105.602 72.214 105.602H72.2126C64.574 105.602 57.9593 103.379 56.5553 102.872L35.9486 104.746C32.5046 105.35 29.2353 105.654 26.234 105.654" fill="#300635"/>
<path d="M55.7789 108.551C55.7789 111.703 54.3363 114.189 51.0056 115.931L46.2509 117.041L42.2896 115.773C38.9616 114.979 36.5203 111.703 36.5203 108.551V92.1459C36.5203 88.9952 39.0763 86.4406 42.2269 86.4406H50.0736C53.2243 86.4406 55.7789 88.9952 55.7789 92.1459V108.551Z" fill="#FFD7E1"/>
<path d="M42.2268 87.6306C39.7362 87.6306 37.7082 89.6573 37.7082 92.1466V108.551C37.7082 111.259 39.8868 113.98 42.5642 114.616L42.6508 114.641L46.3028 115.809L50.5868 114.808C53.3162 113.337 54.5895 111.345 54.5895 108.551V92.1466C54.5895 89.6573 52.5628 87.6306 50.0735 87.6306H42.2268ZM46.2015 118.273L41.9682 116.919C38.2442 116.008 35.3322 112.341 35.3322 108.551V92.1466C35.3322 88.344 38.4255 85.252 42.2268 85.252H50.0735C53.8735 85.252 56.9682 88.344 56.9682 92.1466V108.551C56.9682 112.267 55.1468 115.104 51.5588 116.985L51.4228 117.055L46.2015 118.273Z" fill="#300635"/>
<g opacity="0.5">
<g opacity="0.5">
<path opacity="0.5" d="M50.0732 86.4405H42.2265C39.0758 86.4405 36.5198 88.9952 36.5198 92.1458V99.9925C36.5198 103.142 39.0758 105.698 42.2265 105.698H50.0732C53.2238 105.698 55.7785 103.142 55.7785 99.9925V92.1458C55.7785 88.9952 53.2238 86.4405 50.0732 86.4405Z" fill="#CCCCCC"/>
</g>
</g>
<path d="M68.6969 64.3285C68.6969 69.5805 72.9556 73.8391 78.2089 73.8391C83.4622 73.8391 87.7182 69.5805 87.7182 64.3285C87.7182 59.0765 83.4622 54.8178 78.2089 54.8178C72.9556 54.8178 68.6969 59.0765 68.6969 64.3285Z" fill="#FFD7E1"/>
<path d="M78.2087 56.0056C73.622 56.0056 69.8873 59.7402 69.8873 64.3282C69.8873 68.9176 73.622 72.6482 78.2087 72.6482C82.798 72.6482 86.5287 68.9176 86.5287 64.3282C86.5287 59.7402 82.798 56.0056 78.2087 56.0056ZM78.2087 75.0269C72.3087 75.0269 67.5087 70.2282 67.5087 64.3282C67.5087 58.4269 72.3087 53.6282 78.2087 53.6282C84.1087 53.6282 88.906 58.4269 88.906 64.3282C88.906 70.2282 84.1087 75.0269 78.2087 75.0269Z" fill="#300635"/>
<path d="M83.439 63.3767C83.439 63.3767 83.9137 59.5727 78.9217 59.3367Z" fill="#FFD7E1"/>
<path d="M83.4417 64.5655C83.3911 64.5655 83.3431 64.5628 83.2911 64.5575C82.6444 64.4761 82.1857 63.8895 82.2577 63.2428C82.2604 63.2015 82.3324 62.2881 81.7164 61.5735C81.1684 60.9401 80.2097 60.5868 78.8644 60.5215C78.2084 60.4921 77.7017 59.9335 77.7351 59.2775C77.7644 58.6228 78.3124 58.1175 78.9777 58.1481C81.0257 58.2455 82.5657 58.8908 83.5537 60.0655C84.8204 61.5735 84.6431 63.3295 84.6177 63.5255C84.5431 64.1268 84.0324 64.5655 83.4417 64.5655Z" fill="#300635"/>
<path d="M77.8453 35.3923C75.08 20.0736 61.6867 8.45093 45.5707 8.45093C29.4547 8.45093 16.0613 20.0736 13.2947 35.3909C12.952 36.0963 12.76 36.8749 12.76 37.6949V67.6509C12.76 67.8509 12.7707 68.0469 12.7933 68.2416C13.48 85.7549 27.8853 99.7483 45.5707 99.7483C63.2547 99.7483 77.6627 85.7549 78.3467 68.2376C78.3693 68.0456 78.3787 67.8496 78.3787 67.6509V37.6949C78.3787 36.8749 78.1867 36.0963 77.8453 35.3923Z" fill="#FFD7E1"/>
<path d="M45.5706 9.63966C30.2653 9.63966 17.1826 20.5583 14.4653 35.6037L14.4346 35.7623L14.3653 35.909C14.088 36.4797 13.948 37.081 13.948 37.6943V67.6517C13.948 67.7997 13.9586 67.9557 13.9746 68.1077L13.9813 68.1943C14.648 85.2223 28.5226 98.5597 45.5706 98.5597C62.6186 98.5597 76.4946 85.221 77.1573 68.193L77.164 68.105C77.184 67.9557 77.1906 67.8023 77.1906 67.6517V37.6943C77.1906 37.081 77.0506 36.4797 76.776 35.9117L76.7053 35.7663L76.676 35.605C73.96 20.5583 60.876 9.63966 45.5706 9.63966ZM45.5706 100.938C27.2546 100.938 12.344 86.617 11.6053 68.329C11.5826 68.1023 11.572 67.8757 11.572 67.6517V37.6943C11.572 36.7743 11.7666 35.8783 12.1533 35.0263C15.1373 18.9303 29.1653 7.261 45.5706 7.261C61.9773 7.261 76.0053 18.9303 78.988 35.0277C79.3746 35.8783 79.5693 36.7743 79.5693 37.6943V67.6517C79.5693 67.877 79.556 68.1023 79.5333 68.3263C78.7986 86.6143 63.8866 100.938 45.5706 100.938Z" fill="#300635"/>
<path d="M38.4209 45.7816C38.4209 47.0936 36.2609 45.3069 32.7143 45.3069C29.1689 45.3069 25.5809 47.0936 25.5809 45.7816C25.5809 44.4696 28.6929 42.6922 32.2396 42.6922C35.7823 42.6922 38.4209 44.4696 38.4209 45.7816Z" fill="#300635"/>
<path d="M69.0928 45.3063C69.0928 46.6197 66.9314 44.8317 63.3861 44.8317C59.8408 44.8317 56.2541 46.6197 56.2541 45.3063C56.2541 43.993 59.3648 42.2143 62.9101 42.2143C66.4554 42.2143 69.0928 43.993 69.0928 45.3063Z" fill="#300635"/>
<path d="M50.1109 64.8311C50.1109 61.3831 48.7643 56.0058 46.0349 56.0058C43.3056 56.0058 41.7883 61.0058 41.7883 64.4538C41.7883 64.6858 41.8043 64.8938 41.8309 65.0858C41.8309 65.0938 41.8296 65.1018 41.8296 65.1125C41.8296 66.9151 43.6736 68.3791 45.9509 68.3791C47.7189 68.3791 49.2229 67.4951 49.8083 66.2551C49.9963 65.9485 50.1109 65.4925 50.1109 64.8311Z" fill="#FC7C7C"/>
<path d="M23.9013 61.0083C23.7773 61.0083 23.6493 60.9883 23.5253 60.9469C22.9026 60.7403 22.5653 60.0656 22.772 59.4416C24.2066 55.1429 26.036 52.9723 28.3666 52.8069C32.1826 52.5523 35.104 58.1683 35.4266 58.8109C35.7186 59.3989 35.4813 60.1123 34.8933 60.4083C34.308 60.7003 33.5946 60.4643 33.2986 59.8749C32.504 58.2896 30.288 55.0603 28.5333 55.1789C27.3226 55.2656 26.0786 57.0469 25.0306 60.1963C24.8626 60.6936 24.3986 61.0083 23.9013 61.0083Z" fill="#300635"/>
<path d="M59.5667 61.0083C59.4413 61.0083 59.3147 60.9883 59.1907 60.9469C58.5653 60.7403 58.2307 60.0656 58.4373 59.4416C59.8707 55.1429 61.7013 52.9723 64.0307 52.8069C67.8453 52.5523 70.7693 58.1683 71.092 58.8109C71.384 59.3989 71.1467 60.1123 70.5587 60.4083C69.9733 60.7003 69.26 60.4643 68.9653 59.8749C68.1667 58.2896 65.9587 55.0603 64.1987 55.1789C62.988 55.2656 61.744 57.0469 60.6933 60.1963C60.528 60.6936 60.064 61.0083 59.5667 61.0083Z" fill="#300635"/>
<path d="M29.3701 75.9861H60.7554C60.7554 75.9861 43.1621 104.042 29.3701 75.9861Z" fill="white"/>
<path d="M31.3218 77.1749C34.9618 83.8749 39.1018 87.2656 43.6365 87.2656C50.0898 87.2656 55.9605 80.5136 58.4672 77.1749H31.3218ZM43.6365 89.6469C37.7458 89.6469 32.5885 85.2256 28.3045 76.5109L27.4605 74.7976H62.9045L61.7632 76.6189C61.4298 77.1509 53.4805 89.6469 43.6365 89.6469Z" fill="#300635"/>
<path d="M87.8428 42.6202C86.7241 38.0855 85.3921 33.2055 83.8174 27.9562C83.8174 27.9562 77.1588 -1.05051 45.3001 1.32815C45.3001 1.32815 17.7201 -0.0985143 9.63478 28.4335C9.63478 28.4335 7.76277 34.1135 5.82544 42.3535L10.7468 46.5028C10.7468 46.5028 25.3268 52.5268 38.9614 36.6762C38.9614 36.6762 50.3708 19.2388 65.2721 24.9455C65.2721 24.9455 70.0281 43.9668 80.4894 44.9175C80.4894 44.9175 85.2454 44.9175 87.7814 42.6988C87.8028 42.6802 87.8214 42.6468 87.8428 42.6202Z" fill="#EDC82E"/>
<path d="M11.3557 45.4613C11.9677 45.68 14.3264 46.436 17.6531 46.436C22.8184 46.436 30.5357 44.6187 38.0104 35.956C38.7744 34.8133 47.2117 22.6093 59.2157 22.6093C61.3931 22.6093 63.5744 23.024 65.6984 23.836L66.2757 24.056L66.4251 24.656C66.4717 24.8373 71.0811 42.7947 80.5384 43.7267C80.9864 43.7187 84.3864 43.6053 86.5077 42.1787C85.4064 37.764 84.1184 33.0987 82.6784 28.3L82.6584 28.224C82.6451 28.1587 81.0931 21.6373 76.1544 15.224C69.5891 6.70133 60.4357 2.37733 48.9451 2.37733C47.7877 2.37733 46.5904 2.42267 45.3877 2.51333L45.3144 2.51867L45.2397 2.51467C45.2237 2.51467 45.0184 2.504 44.6517 2.504C40.2384 2.504 17.8584 3.77067 10.7784 28.7573L10.7651 28.8053C10.7464 28.86 8.99172 34.208 7.15172 41.916L11.3557 45.4613ZM17.6531 48.8147C13.2797 48.8147 10.4117 47.652 10.2917 47.6013L10.1197 47.532L4.50372 42.792L4.66906 42.0813C6.53172 34.1613 8.35972 28.508 8.49706 28.0867C16.0517 1.47733 39.9384 0.126667 44.6517 0.126667C44.9597 0.126667 45.1717 0.133333 45.2797 0.137333C46.5197 0.0466661 47.7517 -1.45479e-06 48.9451 -1.45479e-06C64.2691 -1.45479e-06 73.2557 7.532 78.0971 13.8507C83.1691 20.472 84.8157 27.016 84.9677 27.652C86.4931 32.7373 87.8477 37.6787 88.9957 42.336L89.1317 42.8867L88.7904 43.3387C88.7624 43.3787 88.6904 43.48 88.573 43.5853C85.725 46.0773 80.7024 46.1067 80.4904 46.1067L80.3811 46.1013C70.1957 45.1747 65.2344 29.268 64.2837 25.852C62.6131 25.2787 60.9091 24.988 59.2157 24.988C48.1597 24.988 40.0371 37.204 39.9544 37.3253L39.8624 37.4507C31.7824 46.8427 23.3264 48.8147 17.6531 48.8147Z" fill="#300635"/>
</svg>
