<svg width="102" height="229" viewBox="0 0 102 229" fill="none" xmlns="http://www.w3.org/2000/svg">
<path d="M83.4132 227.53C84.8865 216.368 83.4438 202.254 83.4438 187.33C83.4438 152.016 82.9692 122.85 49.9185 123.391C18.2958 123.906 16.3918 152.016 16.3918 187.33C16.3918 202.84 15.9398 216.703 18.4678 227.53H83.4132Z" fill="#EA8F68"/>
<path d="M19.4184 226.341H82.3624C83.1637 219.322 82.8824 211.07 82.5891 202.357C82.4251 197.495 82.2544 192.469 82.2544 187.329C82.2544 153.342 82.2411 124.029 49.9397 124.579C19.9037 125.069 17.5838 150.897 17.5838 187.329C17.5838 189.421 17.5744 191.479 17.5664 193.507C17.5158 206.231 17.4704 217.277 19.4184 226.341ZM84.4571 228.718H17.5251L17.3104 227.801C15.0878 218.294 15.1371 206.803 15.1891 193.497C15.1971 191.474 15.2051 189.418 15.2051 187.329C15.2051 170.205 15.5878 153.842 20.1878 141.883C25.1917 128.883 34.9104 122.445 49.8997 122.202C50.2091 122.197 50.5091 122.193 50.8157 122.193C84.6317 122.193 84.6317 153.833 84.6317 187.329C84.6317 192.429 84.8011 197.435 84.9651 202.275C85.2784 211.522 85.5731 220.254 84.5917 227.685L84.4571 228.718Z" fill="#300635"/>
<path d="M59.6841 125.994C59.6841 129.146 57.1294 131.7 53.9788 131.7H46.1321C42.9814 131.7 40.4268 129.146 40.4268 125.994V109.589C40.4268 106.44 42.9814 103.884 46.1321 103.884H53.9788C57.1294 103.884 59.6841 106.44 59.6841 109.589V125.994Z" fill="#FFD19F"/>
<path d="M46.1318 105.073C43.6425 105.073 41.6158 107.101 41.6158 109.59V125.994C41.6158 128.487 43.6425 130.511 46.1318 130.511H53.9785C56.4678 130.511 58.4945 128.487 58.4945 125.994V109.59C58.4945 107.101 56.4678 105.073 53.9785 105.073H46.1318ZM53.9785 132.889H46.1318C42.3292 132.889 39.2372 129.797 39.2372 125.994V109.59C39.2372 105.789 42.3292 102.695 46.1318 102.695H53.9785C57.7798 102.695 60.8732 105.789 60.8732 109.59V125.994C60.8732 129.797 57.7798 132.889 53.9785 132.889" fill="#300635"/>
<g opacity="0.5">
<g opacity="0.5">
<path opacity="0.5" d="M53.9783 103.884H46.1316C42.9809 103.884 40.4263 106.44 40.4263 109.589V117.436C40.4263 120.586 42.9809 123.141 46.1316 123.141H53.9783C57.1289 123.141 59.6836 120.586 59.6836 117.436V109.589C59.6836 106.44 57.1289 103.884 53.9783 103.884Z" fill="#CCCCCC"/>
</g>
</g>
<path d="M26.6332 81.7704C26.6332 87.0251 22.3759 91.2838 17.1239 91.2838C11.8705 91.2838 7.61188 87.0251 7.61188 81.7704C7.61188 76.5198 11.8705 72.2598 17.1239 72.2598C22.3759 72.2598 26.6332 76.5198 26.6332 81.7704Z" fill="#FFD19F"/>
<path d="M17.1241 73.4502C12.5361 73.4502 8.80147 77.1822 8.80147 81.7702C8.80147 86.3608 12.5361 90.0942 17.1241 90.0942C21.7121 90.0942 25.4441 86.3608 25.4441 81.7702C25.4441 77.1822 21.7121 73.4502 17.1241 73.4502ZM17.1241 92.4728C11.2241 92.4728 6.42413 87.6715 6.42413 81.7702C6.42413 75.8715 11.2241 71.0728 17.1241 71.0728C23.0228 71.0728 27.8215 75.8715 27.8215 81.7702C27.8215 87.6715 23.0228 92.4728 17.1241 92.4728Z" fill="#300635"/>
<path d="M11.8924 80.8212C11.8924 80.8212 11.4164 77.0159 16.4111 76.7786Z" fill="#FFD7E1"/>
<path d="M11.8872 82.0023C11.2966 82.0023 10.7886 81.569 10.7126 80.969C10.6899 80.773 10.5112 79.0156 11.7792 77.509C12.7672 76.3343 14.3046 75.6903 16.3539 75.5903C17.0139 75.565 17.5672 76.0663 17.5979 76.7223C17.6299 77.377 17.1219 77.9356 16.4686 77.9676C15.1232 78.0303 14.1632 78.3836 13.6166 79.0183C12.9886 79.745 13.0739 80.6783 13.0739 80.6876C13.1366 81.3343 12.6712 81.9223 12.0259 81.9943C11.9779 81.9996 11.9326 82.0023 11.8872 82.0023Z" fill="#300635"/>
<path d="M72.6034 81.7704C72.6034 87.0251 76.8607 91.2838 82.1141 91.2838C87.3661 91.2838 91.6247 87.0251 91.6247 81.7704C91.6247 76.5198 87.3661 72.2598 82.1141 72.2598C76.8607 72.2598 72.6034 76.5198 72.6034 81.7704Z" fill="#FFD19F"/>
<path d="M82.1138 73.4502C77.5245 73.4502 73.7912 77.1822 73.7912 81.7702C73.7912 86.3608 77.5245 90.0942 82.1138 90.0942C86.7018 90.0942 90.4338 86.3608 90.4338 81.7702C90.4338 77.1822 86.7018 73.4502 82.1138 73.4502ZM82.1138 92.4728C76.2152 92.4728 71.4138 87.6715 71.4138 81.7702C71.4138 75.8715 76.2152 71.0728 82.1138 71.0728C88.0138 71.0728 92.8112 75.8715 92.8112 81.7702C92.8112 87.6715 88.0138 92.4728 82.1138 92.4728Z" fill="#300635"/>
<path d="M87.3454 80.8212C87.3454 80.8212 87.8188 77.0159 82.8268 76.7786Z" fill="#FFD7E1"/>
<path d="M87.3454 82.01C87.2961 82.01 87.2468 82.0073 87.1961 81.9993C86.5494 81.9193 86.0908 81.3313 86.1628 80.6847C86.1654 80.6447 86.2361 79.7313 85.6214 79.018C85.0721 78.3833 84.1148 78.0313 82.7694 77.9673C82.1161 77.9353 81.6081 77.3767 81.6401 76.722C81.6708 76.066 82.2188 75.5647 82.8814 75.5913C84.9308 75.69 86.4708 76.334 87.4574 77.5087C88.7254 79.0153 88.5481 80.7727 88.5228 80.9687C88.4494 81.57 87.9361 82.01 87.3454 82.01Z" fill="#300635"/>
<path d="M81.7517 52.8382C78.9837 37.5168 65.593 25.8942 49.4757 25.8942C33.3584 25.8942 19.9664 37.5168 17.1997 52.8355C16.8584 53.5408 16.6664 54.3168 16.6664 55.1382V85.0942C16.6664 85.2942 16.6757 85.4902 16.6984 85.6848C17.3837 103.199 31.7904 117.19 49.4757 117.19C67.1597 117.19 81.5664 103.198 82.2517 85.6822C82.273 85.4888 82.2851 85.2928 82.2851 85.0942V55.1382C82.2851 54.3182 82.093 53.5408 81.7517 52.8382Z" fill="#FFD19F"/>
<path d="M49.4758 27.083C34.1691 27.083 21.0878 38.0016 18.3691 53.0456L18.3398 53.2056L18.2704 53.3523C17.9944 53.923 17.8544 54.523 17.8544 55.1376V85.095C17.8544 85.2456 17.8638 85.399 17.8798 85.5523L17.8864 85.6376C18.5518 102.664 32.4278 116.002 49.4758 116.002C66.5251 116.002 80.3998 102.664 81.0638 85.6336L81.0691 85.5483C81.0878 85.399 81.0958 85.247 81.0958 85.095V55.1376C81.0958 54.523 80.9558 53.923 80.6811 53.3536L80.6118 53.2083L80.5825 53.0496C77.8638 38.0016 64.7811 27.083 49.4758 27.083ZM49.4758 118.379C31.1598 118.379 16.2491 104.062 15.5118 85.7736C15.4891 85.547 15.4771 85.3176 15.4771 85.095V55.1376C15.4771 54.2163 15.6718 53.3216 16.0584 52.4696C19.0424 36.3723 33.0691 24.7056 49.4758 24.7056C65.8824 24.7056 79.9104 36.3723 82.8918 52.471C83.2784 53.3216 83.4731 54.2163 83.4731 55.1376V85.095C83.4731 85.3203 83.4624 85.547 83.4371 85.7696C82.7024 104.058 67.7918 118.379 49.4758 118.379Z" fill="#300635"/>
<path d="M40.9001 66.316C40.9001 67.6293 38.7388 65.8413 35.1948 65.8413C31.6481 65.8413 28.0588 67.6293 28.0588 66.316C28.0588 65.0027 31.1734 63.2267 34.7174 63.2267C38.2614 63.2267 40.9001 65.0027 40.9001 66.316Z" fill="#E2A854"/>
<path d="M71.5707 66.316C71.5707 67.6293 69.4107 65.8413 65.8653 65.8413C62.32 65.8413 58.7307 67.6293 58.7307 66.316C58.7307 65.0027 61.844 63.2267 65.3893 63.2267C68.936 63.2267 71.5707 65.0027 71.5707 66.316Z" fill="#E2A854"/>
<path d="M54.016 82.2744C54.016 78.8291 52.6693 73.4504 49.9413 73.4504C47.2106 73.4504 45.6946 78.4504 45.6946 81.8971C45.6946 82.1291 45.7106 82.3371 45.736 82.5278C45.736 82.5371 45.7346 82.5478 45.7346 82.5571C45.7346 84.3584 47.58 85.8211 49.856 85.8211C51.624 85.8211 53.1266 84.9371 53.712 83.6984C53.9013 83.3918 54.016 82.9384 54.016 82.2744Z" fill="#FC7C7C"/>
<path d="M26.3807 78.4502C26.2567 78.4502 26.1314 78.4315 26.0047 78.3902C25.382 78.1835 25.046 77.5088 25.2514 76.8848C26.686 72.5862 28.5154 70.4155 30.8447 70.2515C34.646 69.9902 37.5834 75.6115 37.906 76.2555C38.1994 76.8422 37.9607 77.5555 37.374 77.8502C36.7874 78.1435 36.074 77.9062 35.778 77.3182C34.9834 75.7328 32.7554 72.5102 31.0127 72.6222C29.802 72.7102 28.5567 74.4888 27.5074 77.6395C27.342 78.1368 26.8794 78.4502 26.3807 78.4502Z" fill="#300635"/>
<path d="M62.0433 78.4502C61.9193 78.4502 61.794 78.4315 61.6686 78.3902C61.046 78.1835 60.71 77.5088 60.918 76.8848C62.35 72.5862 64.1806 70.4155 66.51 70.2515C70.3113 69.9902 73.2486 75.6115 73.57 76.2555C73.8633 76.8422 73.6246 77.5555 73.038 77.8502C72.4513 78.1435 71.738 77.9062 71.4433 77.3182C70.6473 75.7328 68.4233 72.5102 66.678 72.6222C65.4673 72.7102 64.222 74.4888 63.174 77.6395C63.0073 78.1368 62.542 78.4502 62.0433 78.4502Z" fill="#300635"/>
<path d="M16.869 65.3747C16.869 65.3747 23.5263 68.7027 28.7596 55.864C28.7596 55.864 39.2183 60.62 44.9263 49.2067C44.9263 49.2067 54.913 50.1573 57.765 42.0733C57.765 42.0733 64.4223 49.6813 70.1276 42.5493C70.1276 42.5493 68.7023 62.044 81.0663 63.472L82.1143 72.26L99.6116 58.2413L91.5263 53.4853L98.661 38.744L91.0517 39.2187L92.005 14.968L81.5423 20.6747L71.0796 7.83468L65.8476 16.396L51.1076 2.12668L47.3036 12.5893L29.233 11.6387L29.7103 18.7733L17.345 11.6387L18.2956 24.004L5.45698 28.7587L15.9183 34.4653L3.07965 39.6947L12.5903 46.8293L3.07965 57.2893L13.5397 55.864L4.03032 64.8987L17.1237 72.26L16.869 65.3747Z" fill="#E2A854"/>
<path d="M6.016 64.6507L15.8573 70.184L15.608 63.4133L17.4027 64.3093H17.4C17.4027 64.3093 17.9787 64.572 18.8773 64.572C20.7627 64.572 24.4107 63.384 27.6573 55.4133L28.1227 54.268L29.2493 54.7813C29.2667 54.7893 31.2347 55.6587 33.8133 55.6587C38.164 55.6587 41.5453 53.3067 43.864 48.6747L44.2253 47.9453L45.0387 48.0227C45.0413 48.0227 45.364 48.052 45.8947 48.052C48.4493 48.052 54.6107 47.4307 56.6453 41.6787L57.32 39.76L58.6587 41.2907C58.6853 41.32 61.4493 44.4107 64.6227 44.4107C66.276 44.4107 67.8173 43.5333 69.2 41.8053L71.5907 38.82L71.316 42.6347C71.3013 42.8187 70.1173 61.012 81.2027 62.2893L82.1373 62.3987L83.0413 69.9947L97.5227 58.392L89.98 53.956L96.704 40.0573L89.812 40.4893L90.7333 17.0147L81.244 22.1907L71.2173 9.88801L66.0907 18.2827L51.5987 4.25735L48.1187 13.8227L30.5093 12.8987L31.044 20.9133L18.7027 13.796L19.5493 24.8067L8.32 28.9653L18.688 34.6213L5.472 40.004L14.348 46.6613L6.15733 55.6707L17.0307 54.1867L6.016 64.6507ZM81.1867 74.528L79.9907 64.5107C70.436 62.7 69.0173 50.968 68.892 45.3813C67.5773 46.3173 66.1507 46.7893 64.6227 46.7893C61.9 46.7893 59.5507 45.2493 58.1707 44.0973C55.048 49.9427 48.0933 50.4293 45.8947 50.4293C45.8013 50.4293 45.712 50.4293 45.6293 50.4267C42.2107 56.692 37.348 58.036 33.8133 58.036C31.9747 58.036 30.408 57.672 29.412 57.364C25.92 65.2533 21.784 66.9507 18.8773 66.9507C18.604 66.9507 18.3507 66.9347 18.116 66.908L18.388 74.336L2.044 65.1467L10.0507 57.5387L0 58.9093L10.832 46.9947L0.686667 39.3867L13.1507 34.3093L2.59467 28.5493L17.0413 23.2L15.9867 9.48268L28.3747 16.6293L27.9587 10.3813L46.4867 11.356L50.616 1.30377e-05L65.608 14.508L70.9413 5.78401L81.8387 19.1587L93.2733 12.9213L92.292 37.9507L100.616 37.4307L93.0747 53.0147L101.7 58.0907L81.1867 74.528Z" fill="#300635"/>
<path d="M33.2752 93.4293H64.6605C64.6605 93.4293 47.0659 121.487 33.2752 93.4293Z" fill="white"/>
<path d="M35.2283 94.6181C38.8683 101.317 43.0069 104.711 47.5429 104.711C53.9949 104.711 59.8656 97.9555 62.3723 94.6181H35.2283ZM47.5429 107.09C41.6509 107.09 36.4936 102.669 32.2096 93.9555L31.3669 92.2408H66.8096L65.6683 94.0621C65.3349 94.5941 57.3843 107.09 47.5429 107.09Z" fill="#300635"/>
<path d="M48.9679 143.362C48.3119 143.362 47.7786 142.83 47.7786 142.172V139.271C34.3839 138.402 34.2252 126.838 34.2252 126.718C34.2252 126.059 34.7586 125.528 35.4159 125.528C36.0719 125.528 36.6026 126.058 36.6039 126.715C36.6066 127.131 36.8199 136.727 48.9892 136.94L50.1586 136.96V142.172C50.1586 142.83 49.6239 143.362 48.9679 143.362Z" fill="#300635"/>
<path d="M54.6761 143.837C54.6548 143.837 54.6375 143.834 54.6135 143.834C53.9588 143.802 53.4548 143.245 53.4855 142.588L53.7775 136.804L54.8015 136.708C55.1761 136.672 64.0041 135.708 64.4241 126.898C64.4548 126.242 65.0121 125.734 65.6681 125.768C66.3241 125.8 66.8295 126.356 66.7988 127.01C66.3735 135.92 58.8441 138.318 56.0508 138.904L55.8615 142.706C55.8295 143.342 55.3055 143.837 54.6761 143.837Z" fill="#300635"/>
<path d="M20.8324 218.336L25.587 199.314C25.587 199.314 17.3457 198.046 16.8684 181.402C16.8684 181.402 16.3924 145.262 24.9537 135.277C24.9537 135.277 9.73638 139.081 3.55505 163.808C3.55505 163.808 -5.16228 209.618 11.0044 216.75C11.0044 216.75 13.699 218.336 20.8324 218.336Z" fill="#EA8F68"/>
<path d="M4.7165 164.062C4.45384 165.479 -3.46616 209.067 11.4858 215.662L11.6085 215.726C11.6218 215.734 13.9765 217.014 19.9058 217.139L24.1632 200.105C21.6245 199.035 16.0738 195.138 15.6818 181.437C15.6632 180.067 15.3632 150.995 21.8298 137.97C17.1498 140.653 8.85117 147.567 4.7165 164.062ZM21.7592 219.525H20.8325C14.0218 219.525 10.9965 218.091 10.4792 217.817C-6.29816 210.326 2.02317 165.491 2.38717 163.587L2.4005 163.519C8.6845 138.39 24.0152 134.286 24.6658 134.123L28.2832 133.219L25.8552 136.05C17.6818 145.586 18.0538 181.031 18.0592 181.386C18.4938 196.657 25.7098 198.13 25.7832 198.142L27.0338 198.367L26.7418 199.603L21.7592 219.525Z" fill="#300635"/>
<path d="M79.9184 215.64L75.3584 198.998C75.3584 198.998 83.7237 198.047 84.1971 181.402C84.1971 181.402 84.6731 145.263 76.1131 135.278C76.1131 135.278 91.3304 139.08 97.5117 163.807C97.5117 163.807 107.5 204.704 91.3304 211.836C91.3304 211.836 87.0517 215.64 79.9184 215.64Z" fill="#EA8F68"/>
<path d="M76.8169 199.816L80.8196 214.431C86.8422 214.135 90.5049 210.98 90.5436 210.948L90.6796 210.824L90.8502 210.749C105.925 204.099 96.4556 164.491 96.3582 164.091C92.2076 147.489 83.8996 140.6 79.2249 137.944C85.7022 150.956 85.4036 180.064 85.3876 181.417C84.9969 195.063 79.4289 198.809 76.8169 199.816ZM79.9182 216.829H79.0102L73.8462 197.972L75.2262 197.816C75.5116 197.776 82.5729 196.621 83.0102 181.369C83.0142 181.031 83.3822 145.581 75.2129 136.051L72.7849 133.22L76.4022 134.123C77.0529 134.287 92.3849 138.391 98.6662 163.519C99.0822 165.231 108.636 205.22 91.9702 212.852C91.1102 213.559 86.7542 216.829 79.9182 216.829" fill="#300635"/>
<path d="M51.5824 228.718C50.9264 228.718 50.3931 228.186 50.3931 227.529V144.788C50.3931 144.13 50.9264 143.598 51.5824 143.598C52.2384 143.598 52.7731 144.13 52.7731 144.788V227.529C52.7731 228.186 52.2384 228.718 51.5824 228.718Z" fill="#300635"/>
<g opacity="0.5">
<g opacity="0.5">
<path opacity="0.5" d="M20.8324 218.336L22.0724 213.374L22.1004 212.789C22.1004 212.789 5.93238 218.018 6.40838 186.634C6.40838 186.634 4.44971 160.193 22.1004 138.129C22.4364 137.709 22.4577 137.09 22.267 136.364C17.6137 138.696 8.12171 145.544 3.55505 163.808C3.55505 163.808 -5.16229 209.618 11.0044 216.75C11.0044 216.75 13.699 218.336 20.8324 218.336Z" fill="#CCCCCC"/>
</g>
</g>
</svg>
