<svg width="93" height="231" viewBox="0 0 93 231" fill="none" xmlns="http://www.w3.org/2000/svg">
<path d="M14.3164 150.297H2.90442C2.90442 150.297 9.66575 108.994 37.6684 109.674H59.7284C59.7284 109.674 84.1391 115.29 90.4791 149.528L14.3164 150.297Z" fill="#25723B"/>
<path d="M4.34631 149.108H14.3116L89.0383 148.353C85.6823 131.959 78.0063 122.687 72.0716 117.764C65.981 112.708 60.4556 111.096 59.5796 110.863H37.6676C37.4196 110.859 37.205 110.856 36.985 110.856C13.681 110.856 5.81564 142.099 4.34631 149.108ZM14.321 151.485H1.50497L1.73164 150.105C1.79964 149.684 3.48364 139.652 8.59697 129.448C15.4756 115.729 25.293 108.477 36.985 108.477C37.2223 108.477 37.4596 108.48 37.6983 108.487L59.8636 108.485L59.9943 108.516C60.257 108.576 66.4516 110.049 73.4823 115.845C79.9263 121.156 88.3076 131.273 91.6476 149.312L91.9063 150.701L14.321 151.485Z" fill="#300635"/>
<path d="M80.6575 228.836C82.1295 215.785 80.6855 199.281 80.6855 181.833C80.6855 140.544 80.2109 106.439 47.1602 107.071C15.5389 107.675 13.6362 140.544 13.6362 181.833C13.6362 199.971 13.1815 216.177 15.7095 228.836H80.6575Z" fill="#25723B"/>
<path d="M16.6913 227.649H79.5874C80.41 219.379 80.1287 209.658 79.83 199.39C79.666 193.709 79.4967 187.838 79.4967 181.834C79.4967 142.35 79.4967 108.251 48.0567 108.251C47.7673 108.251 47.478 108.254 47.1847 108.261C17.146 108.833 14.826 139.115 14.826 181.834C14.826 184.278 14.8167 186.685 14.8087 189.055C14.758 204.01 14.7127 216.986 16.6913 227.649ZM81.718 230.026H14.7353L14.5433 229.067C12.3313 217.997 12.3793 204.581 12.4313 189.047C12.4393 186.679 12.446 184.274 12.446 181.834C12.446 161.843 12.8273 142.749 17.41 128.825C22.3967 113.674 32.1207 106.17 47.138 105.883C55.6633 105.731 62.2954 107.746 67.4847 112.079C71.9967 115.85 75.2954 121.306 77.5687 128.761C81.8754 142.895 81.8754 162.689 81.8754 181.834C81.8754 187.802 82.0434 193.659 82.2074 199.321C82.5194 210.115 82.8154 220.313 81.8367 228.97L81.718 230.026Z" fill="#300635"/>
<path d="M41.5872 119.423H52.5326C56.9286 119.423 60.4926 116.673 60.4926 113.279V109.258C56.7752 107.737 52.3739 106.971 47.1606 107.07C41.8552 107.173 37.3899 108.185 33.6259 109.991V113.279C33.6259 116.673 37.1886 119.423 41.5872 119.423Z" fill="white"/>
<path d="M34.8151 110.753V113.279C34.8151 116.01 37.8511 118.234 41.5871 118.234H52.5324C56.2658 118.234 59.3031 116.01 59.3031 113.279V110.071C55.8244 108.781 51.7644 108.171 47.1844 108.261C42.5098 108.349 38.3524 109.186 34.8151 110.753ZM52.5324 120.613H41.5871C36.5418 120.613 32.4378 117.323 32.4378 113.279V109.242L33.1111 108.919C37.1018 107.006 41.8218 105.983 47.1378 105.883C47.4458 105.878 47.7511 105.874 48.0538 105.874C52.9004 105.874 57.2364 106.642 60.9418 108.159L61.6804 108.461V113.279C61.6804 117.323 57.5764 120.613 52.5324 120.613" fill="#300635"/>
<path d="M40.0742 153.967C40.0742 153.967 69.5555 147.942 80.9675 149.846L90.4795 149.527C90.4795 149.527 91.7462 163.477 91.7462 165.062C91.7462 165.062 77.4808 163.793 68.9222 165.695C68.9222 165.695 54.0222 153.967 40.0742 153.967Z" fill="#E2987C"/>
<path d="M47.6979 153.762C57.9512 156.27 67.0819 162.815 69.2099 164.418C72.3606 163.783 76.4872 163.458 81.4912 163.458C85.2846 163.458 88.6859 163.651 90.4912 163.776C90.2952 160.912 89.7246 154.391 89.3952 150.752L80.8899 151.038L80.7726 151.016C79.3592 150.783 77.5566 150.663 75.4126 150.663C67.1086 150.663 55.2806 152.448 47.6979 153.762ZM68.6286 166.978L68.1872 166.63C68.0406 166.516 53.4392 155.156 40.0739 155.156H28.3139L39.8352 152.802C40.7379 152.618 62.0952 148.286 75.4126 148.286C77.6272 148.286 79.5219 148.41 81.0446 148.654L91.5606 148.303L91.6632 149.419C91.7152 149.992 92.9352 163.443 92.9352 165.063V166.362L91.6419 166.247C91.5952 166.243 86.9619 165.836 81.4912 165.836C76.3659 165.836 72.2232 166.179 69.1779 166.856L68.6286 166.978Z" fill="#300635"/>
<path d="M14.3164 150.297C14.3164 150.297 57.5084 153.333 68.9217 165.696C68.9217 165.696 75.2617 173.938 68.9217 179.01C68.9217 179.01 63.2151 184.082 53.0697 174.256C53.0697 174.256 25.1737 166.964 12.1751 166.329C12.1751 166.329 2.98042 165.378 2.02975 165.378C2.02975 165.378 -0.343584 156.454 2.90442 150.297H14.3164Z" fill="#E2987C"/>
<path d="M12.267 165.145C25.251 165.786 52.2283 172.806 53.371 173.106L53.6736 173.183L53.899 173.401C58.7856 178.135 62.455 179.129 64.671 179.129C66.9136 179.129 68.0923 178.154 68.1416 178.114L68.179 178.082C73.3763 173.925 68.4963 167.113 68.0096 166.459C57.1363 154.778 15.8003 151.598 14.275 151.486H3.6483C1.6003 156.062 2.54564 162.077 2.99097 164.247C5.43897 164.442 11.3523 165.05 12.267 165.145ZM64.671 181.507C60.8736 181.507 56.7696 179.43 52.4696 175.329C49.4296 174.545 24.1283 168.103 12.1176 167.517L12.0536 167.511C8.52164 167.147 2.67897 166.566 2.02964 166.566H1.1163L0.881638 165.683C0.780305 165.302 -1.5717 156.235 1.8523 149.742L2.1883 149.109L14.4003 149.11C16.1843 149.235 58.1963 152.325 69.795 164.891L69.8656 164.97C72.3016 168.141 75.3976 175.341 69.6763 179.931C69.399 180.162 67.655 181.507 64.671 181.507Z" fill="#300635"/>
<path d="M56.9257 109.675C56.9257 112.825 54.3711 115.381 51.2204 115.381H43.3737C40.2231 115.381 37.6684 112.825 37.6684 109.675V93.2692C37.6684 90.1199 40.2231 87.5639 43.3737 87.5639H51.2204C54.3711 87.5639 56.9257 90.1199 56.9257 93.2692V109.675Z" fill="#E2987C"/>
<path d="M43.3736 88.754C40.8843 88.754 38.8576 90.7807 38.8576 93.27V109.674C38.8576 112.166 40.8843 114.193 43.3736 114.193H51.2203C53.7123 114.193 55.7376 112.166 55.7376 109.674V93.27C55.7376 90.7807 53.7123 88.754 51.2203 88.754H43.3736ZM51.2203 116.57H43.3736C39.5723 116.57 36.4789 113.478 36.4789 109.674V93.27C36.4789 89.4674 39.5723 86.3767 43.3736 86.3767H51.2203C55.0216 86.3767 58.1149 89.4674 58.1149 93.27V109.674C58.1149 113.478 55.0216 116.57 51.2203 116.57" fill="#300635"/>
<g opacity="0.5">
<g opacity="0.5">
<path opacity="0.5" d="M51.22 87.5639H43.3734C40.2227 87.5639 37.668 90.1199 37.668 93.2692V101.115C37.668 104.267 40.2227 106.821 43.3734 106.821H51.22C54.3707 106.821 56.9254 104.267 56.9254 101.115V93.2692C56.9254 90.1199 54.3707 87.5639 51.22 87.5639Z" fill="#CCCCCC"/>
</g>
</g>
<path d="M23.8763 65.4519C23.8763 70.7039 19.6176 74.9625 14.3656 74.9625C9.11364 74.9625 4.85364 70.7039 4.85364 65.4519C4.85364 60.1985 9.11364 55.9425 14.3656 55.9425C19.6176 55.9425 23.8763 60.1985 23.8763 65.4519Z" fill="#E2987C"/>
<path d="M14.3659 57.1316C9.77658 57.1316 6.04325 60.8636 6.04325 65.4516C6.04325 70.0423 9.77658 73.7729 14.3659 73.7729C18.9539 73.7729 22.6886 70.0423 22.6886 65.4516C22.6886 60.8636 18.9539 57.1316 14.3659 57.1316ZM14.3659 76.1516C8.46591 76.1516 3.66858 71.3516 3.66858 65.4516C3.66858 59.5516 8.46591 54.7543 14.3659 54.7543C20.2646 54.7543 25.0659 59.5516 25.0659 65.4516C25.0659 71.3516 20.2646 76.1516 14.3659 76.1516Z" fill="#300635"/>
<path d="M9.13416 64.5013C9.13416 64.5013 8.66083 60.6973 13.6528 60.46Z" fill="#FFD7E1"/>
<path d="M9.12898 65.6811C8.54098 65.6811 8.02898 65.2505 7.95431 64.6491C7.93165 64.4531 7.75298 62.6958 9.02098 61.1891C10.009 60.0131 11.5463 59.3691 13.597 59.2718C14.257 59.2451 14.809 59.7465 14.8396 60.4025C14.8716 61.0571 14.3663 61.6158 13.7103 61.6465C12.365 61.7105 11.405 62.0651 10.8583 62.6998C10.2303 63.4251 10.3156 64.3598 10.317 64.3691C10.381 65.0158 9.91298 65.6011 9.26765 65.6745C9.21965 65.6798 9.17431 65.6811 9.12898 65.6811Z" fill="#300635"/>
<path d="M69.8451 65.4519C69.8451 70.7039 74.1024 74.9625 79.3558 74.9625C84.6078 74.9625 88.8678 70.7039 88.8678 65.4519C88.8678 60.1985 84.6078 55.9425 79.3558 55.9425C74.1024 55.9425 69.8451 60.1985 69.8451 65.4519Z" fill="#E2987C"/>
<path d="M79.3555 57.1316C74.7675 57.1316 71.0329 60.8636 71.0329 65.4516C71.0329 70.0423 74.7675 73.7729 79.3555 73.7729C83.9435 73.7729 87.6782 70.0423 87.6782 65.4516C87.6782 60.8636 83.9435 57.1316 79.3555 57.1316ZM79.3555 76.1516C73.4569 76.1516 68.6555 71.3516 68.6555 65.4516C68.6555 59.5516 73.4569 54.7543 79.3555 54.7543C85.2555 54.7543 90.0555 59.5516 90.0555 65.4516C90.0555 71.3516 85.2555 76.1516 79.3555 76.1516Z" fill="#300635"/>
<path d="M84.5872 64.5013C84.5872 64.5013 85.0605 60.6973 80.0685 60.46Z" fill="#FFD7E1"/>
<path d="M84.5886 65.6902C84.5406 65.6902 84.4899 65.6862 84.4392 65.6809C83.7912 65.5995 83.3326 65.0129 83.4059 64.3662C83.4099 64.3235 83.4792 63.4102 82.8632 62.6995C82.3166 62.0649 81.3566 61.7115 80.0112 61.6462C79.3579 61.6155 78.8499 61.0569 78.8819 60.4022C78.9126 59.7462 79.4606 59.2462 80.1259 59.2729C82.1739 59.3689 83.7126 60.0129 84.7006 61.1889C85.9686 62.6955 85.7899 64.4529 85.7672 64.6489C85.6912 65.2502 85.1779 65.6902 84.5886 65.6902Z" fill="#300635"/>
<path d="M78.9948 38.8555C76.2281 24.0928 62.8348 12.8915 46.7161 12.8915C30.6001 12.8915 17.2095 24.0928 14.4415 38.8555C14.1015 39.5341 13.9081 40.2821 13.9081 41.0741V69.9408C13.9081 70.1328 13.9201 70.3235 13.9415 70.5088C14.6255 87.3888 29.0348 100.871 46.7161 100.871C64.4015 100.871 78.8108 87.3875 79.4935 70.5061C79.5175 70.3221 79.5268 70.1328 79.5268 69.9408V41.0741C79.5268 40.2835 79.3348 39.5341 78.9948 38.8555Z" fill="#E2987C"/>
<path d="M46.7161 14.0808C31.4081 14.0808 18.3241 24.5928 15.6108 39.0728L15.5788 39.2381L15.5041 39.3875C15.2335 39.9275 15.0961 40.4942 15.0961 41.0742V69.9421C15.0961 70.0835 15.1055 70.2275 15.1228 70.3715L15.1295 70.4608C15.7961 86.8475 29.6695 99.6821 46.7161 99.6821C63.7668 99.6821 77.6428 86.8461 78.3055 70.4581L78.3135 70.3688C78.3295 70.2275 78.3375 70.0848 78.3375 69.9421V41.0742C78.3375 40.4942 78.2015 39.9275 77.9308 39.3888L77.8548 39.2381L77.8241 39.0742C75.1108 24.5928 62.0281 14.0808 46.7161 14.0808ZM46.7161 102.059C28.4055 102.059 13.4935 88.2461 12.7548 70.6021C12.7308 70.3808 12.7188 70.1595 12.7188 69.9421V41.0742C12.7188 40.1768 12.9135 39.3048 13.3028 38.4795C16.2948 22.9528 30.3188 11.7048 46.7161 11.7048C63.1175 11.7048 77.1415 22.9528 80.1335 38.4795C80.5201 39.3048 80.7148 40.1768 80.7148 41.0742V69.9421C80.7148 70.1608 80.7041 70.3808 80.6815 70.5981C79.9441 88.2448 65.0335 102.059 46.7161 102.059Z" fill="#300635"/>
<path d="M38.1419 49.9975C38.1419 51.3109 35.9819 49.5229 32.4366 49.5229C28.8899 49.5229 25.3032 51.3109 25.3032 49.9975C25.3032 48.6855 28.4152 46.9069 31.9592 46.9069C35.5032 46.9069 38.1419 48.6855 38.1419 49.9975Z" fill="#300635"/>
<path d="M68.8138 49.9975C68.8138 51.3109 66.6524 49.5229 63.1071 49.5229C59.5618 49.5229 55.9751 51.3109 55.9751 49.9975C55.9751 48.6855 59.0858 46.9069 62.6311 46.9069C66.1751 46.9069 68.8138 48.6855 68.8138 49.9975Z" fill="#300635"/>
<path d="M23.6236 62.1316C23.4983 62.1316 23.3716 62.1103 23.2463 62.0703C22.6236 61.8623 22.2876 61.1889 22.493 60.5663C23.929 56.2676 25.757 54.0969 28.0876 53.9316C31.8916 53.6783 34.825 59.2916 35.1476 59.9369C35.441 60.5236 35.2023 61.2369 34.6143 61.5289C34.0303 61.8236 33.3156 61.5863 33.0196 60.9996C32.225 59.4143 30.0036 56.1823 28.2543 56.3023C27.0436 56.3889 25.801 58.1716 24.749 61.3209C24.5836 61.8169 24.121 62.1316 23.6236 62.1316Z" fill="#300635"/>
<path d="M59.2878 62.1316C59.1624 62.1316 59.0358 62.1103 58.9118 62.0703C58.2878 61.8623 57.9518 61.1889 58.1598 60.5663C59.5931 56.2676 61.4224 54.0969 63.7518 53.9316C67.5544 53.6783 70.4904 59.2916 70.8131 59.9369C71.1051 60.5236 70.8691 61.2369 70.2798 61.5289C69.6944 61.8236 68.9784 61.5863 68.6851 60.9996C67.8891 59.4143 65.6731 56.1823 63.9198 56.3023C62.7091 56.3889 61.4651 58.1716 60.4158 61.3209C60.2491 61.8169 59.7851 62.1316 59.2878 62.1316Z" fill="#300635"/>
<path d="M30.517 77.1108H61.9023C61.9023 77.1108 44.3076 105.167 30.517 77.1108Z" fill="white"/>
<path d="M32.47 78.2996C36.11 84.997 40.246 88.3916 44.782 88.3916C51.2354 88.3916 57.1074 81.637 59.614 78.2996H32.47ZM44.782 90.7703C38.8927 90.7703 33.7354 86.349 29.4514 77.6343L28.61 75.9223H64.0527L62.91 77.7436C62.5767 78.273 54.6274 90.7703 44.782 90.7703Z" fill="#300635"/>
<path d="M45.2526 71.6134C43.7419 71.6134 42.5766 71.2694 41.7299 70.5814C40.4966 69.5734 40.3686 68.0947 40.4859 67.3841C40.5939 66.7361 41.2046 66.2987 41.8526 66.4054C42.4952 66.5134 42.9286 67.1121 42.8339 67.7534C42.8246 67.8307 42.7806 68.3841 43.2566 68.7547C43.8419 69.2147 45.9312 70.0014 52.6446 67.4187C53.2566 67.1814 53.9446 67.4894 54.1792 68.1027C54.4166 68.7161 54.1112 69.4041 53.4979 69.6387C50.0686 70.9574 47.3352 71.6134 45.2526 71.6134Z" fill="#300635"/>
<path d="M88.4441 41.3868C88.8254 40.4841 89.0427 39.4895 89.0507 38.4401C89.0614 36.6415 88.4601 34.9855 87.4467 33.6935C87.9254 32.7028 88.2041 31.5908 88.2134 30.4068C88.2387 26.7455 85.7147 23.6921 82.3707 23.0561C82.4307 22.6775 82.4721 22.2921 82.4747 21.8961C82.4987 18.4095 80.2107 15.4761 77.1081 14.6535C76.6774 11.0028 73.7081 8.16147 70.0827 8.13613C69.0254 8.12947 68.0254 8.3668 67.1187 8.7908C65.8587 6.76413 63.6761 5.4148 61.1814 5.39746C61.0681 5.3948 60.9574 5.40813 60.8454 5.41347C59.7041 3.0628 57.3974 1.42013 54.6894 1.34146C51.2201 1.23746 48.2534 3.7348 47.5147 7.13613C46.6867 4.0148 43.9547 1.7108 40.6934 1.68947C37.9201 1.66947 35.5121 3.3028 34.3134 5.70013C33.2934 5.10147 32.1187 4.74947 30.8601 4.74413C28.0227 4.7228 25.5667 6.43747 24.4001 8.92813C23.5094 8.50013 22.5187 8.25347 21.4721 8.2468C17.5307 8.2188 14.3134 11.5255 14.2867 15.6295C14.2814 16.2068 14.3481 16.7695 14.4654 17.3095C11.2881 18.0441 8.89739 20.9788 8.87339 24.5108C8.86673 25.5548 9.06806 26.5495 9.43606 27.4535C6.06406 28.0268 3.4774 31.0548 3.4534 34.7308C3.4334 37.4695 4.8454 39.8655 6.95206 41.1708C6.11873 42.3775 5.62006 43.8521 5.60806 45.4495C5.58006 49.5535 8.75206 52.9041 12.6934 52.9295C16.6334 52.9588 19.8507 49.6521 19.8787 45.5468C19.8974 42.8068 18.4867 40.4135 16.3787 39.1081C17.2121 37.9015 17.7107 36.4268 17.7214 34.8295C17.7281 33.7855 17.5267 32.7921 17.1614 31.8881C20.5307 31.3135 23.1187 28.2868 23.1441 24.6095C23.1467 24.0295 23.0827 23.4695 22.9654 22.9295C25.1081 22.4335 26.8894 20.9335 27.8307 18.9255C28.7227 19.3535 29.7121 19.6001 30.7587 19.6068C33.5307 19.6255 35.9401 17.9921 37.1387 15.5935C37.8614 16.0215 38.6654 16.3121 39.5214 16.4535C40.3347 19.5961 43.0747 21.9215 46.3521 21.9428C49.7827 21.9681 52.6601 19.4655 53.3681 16.1095C53.6574 16.1561 53.9494 16.1908 54.2494 16.1988C54.4227 16.2041 54.5961 16.1948 54.7694 16.1868C55.9374 18.5868 58.3161 20.2428 61.0801 20.2615C62.1374 20.2681 63.1387 20.0295 64.0427 19.6041C65.0067 21.1508 66.5041 22.2948 68.2641 22.7615C68.6441 25.9841 71.0041 28.5721 74.0467 29.1508C73.9881 29.5281 73.9467 29.9148 73.9454 30.3095C73.9334 32.1108 74.5361 33.7641 75.5481 35.0575C75.0707 36.0468 74.7907 37.1588 74.7814 38.3428C74.7667 40.5361 75.6707 42.5108 77.1147 43.8801C76.7334 44.7828 76.5147 45.7775 76.5081 46.8268C76.4774 50.9321 79.6507 54.2815 83.5907 54.3068C87.5307 54.3348 90.7494 51.0295 90.7761 46.9255C90.7921 44.7308 89.8867 42.7575 88.4441 41.3868Z" fill="#DDC11F"/>
<path d="M64.5509 17.8907L65.1815 18.8987C65.9789 20.1827 67.1949 21.0934 68.6082 21.4694L69.4882 21.7L69.5935 22.604C69.9029 25.216 71.8349 27.3667 74.2989 27.8374L75.5722 28.08L75.3682 29.36C75.3135 29.7174 75.2855 30.0307 75.2829 30.3187C75.2722 31.7454 75.7429 33.1347 76.6029 34.2307L77.1162 34.8894L76.7535 35.64C76.3389 36.496 76.1269 37.4094 76.1189 38.3507C76.1069 40.0814 76.8055 41.7427 78.0349 42.912L78.7095 43.548L78.3469 44.4027C78.0202 45.1747 77.8509 45.9934 77.8455 46.8374C77.8229 50.196 80.4055 52.9494 83.6002 52.9707L83.6389 54.3067V52.9707C86.8135 52.9707 89.4162 50.2547 89.4389 46.916C89.4522 45.1867 88.7522 43.5254 87.5229 42.3587L86.8509 41.7187L87.2122 40.864C87.5375 40.0934 87.7069 39.2747 87.7122 38.432C87.7229 37.0067 87.2535 35.6174 86.3949 34.5187L85.8789 33.8614L86.2429 33.1107C86.6575 32.2547 86.8682 31.344 86.8762 30.3987C86.8949 27.432 84.8962 24.8987 82.1229 24.3707L80.8482 24.128L81.0509 22.8467C81.1055 22.4894 81.1349 22.1747 81.1362 21.888C81.1562 19.076 79.3575 16.6347 76.7655 15.9467L75.8842 15.7134L75.7789 14.8094C75.4229 11.788 72.9695 9.49337 70.0749 9.4747H70.0735C69.2282 9.4747 68.4362 9.6507 67.6869 10.0027L66.6109 10.5054L65.9842 9.49736C64.9149 7.78003 63.1175 6.74937 61.1735 6.7347L60.0242 6.7867L59.6402 5.9947C58.6802 4.0107 56.7669 2.74137 54.6495 2.6787L54.4829 2.67603C51.8002 2.67603 49.4202 4.6707 48.8215 7.42003L47.6415 12.832L46.2202 7.4787C45.5295 4.8747 43.2535 3.0427 40.6842 3.0267C38.4882 3.0267 36.5202 4.28003 35.5122 6.30003L34.8709 7.58136L33.6362 6.85469C32.7869 6.35469 31.8242 6.08803 30.8535 6.08136C28.5909 6.08136 26.5975 7.38936 25.6122 9.49603L25.0402 10.7187L23.8229 10.136C23.0722 9.77603 22.2789 9.58803 21.4629 9.58403C18.2482 9.58403 15.6455 12.3014 15.6242 15.64C15.6215 16.088 15.6709 16.556 15.7722 17.0294L16.0482 18.3174L14.7642 18.6147C12.1029 19.228 10.2309 21.6574 10.2122 24.5214C10.2069 25.3627 10.3615 26.1787 10.6749 26.9494L11.3015 28.4934L9.6602 28.772C6.85753 29.2494 4.8082 31.7574 4.79087 34.7414C4.77487 36.9027 5.87353 38.9294 7.65487 40.032L8.8522 40.7734L8.05353 41.9307C7.33753 42.9667 6.9562 44.1867 6.94687 45.4587C6.92287 48.8187 9.5042 51.5707 12.7015 51.592C15.9149 51.592 18.5189 48.876 18.5402 45.5374C18.5562 43.376 17.4575 41.3494 15.6762 40.2467L14.4802 39.5067L15.2775 38.3494C15.9935 37.312 16.3762 36.092 16.3842 34.82C16.3895 33.9787 16.2335 33.1614 15.9202 32.3907L15.2962 30.848L16.9362 30.568C19.7389 30.092 21.7855 27.5827 21.8042 24.6C21.8082 24.1507 21.7589 23.684 21.6575 23.2094L21.3789 21.9214L22.6629 21.6254C24.3655 21.2334 25.8455 20.0107 26.6189 18.3574L27.1909 17.136L28.4082 17.7174C29.1602 18.08 29.9549 18.264 30.7682 18.2694C32.9655 18.2694 34.9335 17.016 35.9402 14.996L36.5815 13.716L37.8149 14.4414C38.4029 14.7867 39.0482 15.0214 39.7375 15.1334L40.5975 15.2747L40.8149 16.1174C41.4962 18.7427 43.7749 20.588 46.3602 20.6054C49.0949 20.6054 51.4749 18.5987 52.0589 15.8347L52.3215 14.588L53.5789 14.7894C53.8135 14.8267 54.0482 14.8547 54.2882 14.8627C54.4655 14.868 54.5695 14.8574 54.6762 14.852L55.5575 14.8094L55.9722 15.6014C56.9629 17.636 58.9229 18.9094 61.0882 18.9214H61.0895C61.9362 18.9214 62.7269 18.7454 63.4762 18.3934L64.5509 17.8907ZM83.6389 55.6467H83.5815C78.9109 55.6134 75.1362 51.6534 75.1682 46.8174C75.1762 45.9214 75.3109 45.0427 75.5749 44.1974C74.1962 42.5854 73.4282 40.4947 73.4442 38.3334C73.4522 37.26 73.6469 36.2147 74.0242 35.2174C73.0949 33.7694 72.5949 32.052 72.6082 30.3027C72.6082 30.2507 72.6082 30.1974 72.6095 30.1454C69.8202 29.1747 67.7255 26.776 67.0815 23.784C65.7109 23.2574 64.5015 22.3787 63.5615 21.2254C62.7722 21.4747 61.9562 21.5987 61.1255 21.5987C58.3135 21.58 55.7775 20.1894 54.2162 17.8947C52.9149 21.0907 49.8349 23.2827 46.4002 23.2827C42.8242 23.2574 39.6935 20.9587 38.4722 17.5934C38.1962 17.52 37.9255 17.4307 37.6602 17.3267C36.0789 19.5867 33.5522 20.9454 30.8055 20.9454C29.9775 20.9387 29.1895 20.8214 28.4309 20.5907C27.4575 22.0854 26.0749 23.2214 24.4549 23.8627C24.4722 24.1174 24.4829 24.368 24.4815 24.62C24.4562 28.3694 22.1602 31.608 18.8482 32.8187C18.9935 33.4774 19.0642 34.1534 19.0615 34.8374C19.0509 36.2094 18.7362 37.5387 18.1389 38.7454C20.0789 40.4094 21.2349 42.9174 21.2175 45.556C21.1842 50.3614 17.3815 54.268 12.7415 54.268C8.0122 54.2374 4.23887 50.276 4.26954 45.4414C4.2802 44.0707 4.59487 42.7427 5.18953 41.5334C3.25087 39.868 2.0962 37.3627 2.11353 34.7214C2.13887 30.9707 4.43353 27.7334 7.7482 26.5227C7.60287 25.8627 7.53086 25.188 7.5362 24.5027C7.56153 20.828 9.7442 17.6454 12.9762 16.3747C12.9562 16.1214 12.9469 15.868 12.9495 15.62C12.9815 10.816 16.7829 6.90936 21.4242 6.90936C22.2522 6.91469 23.0429 7.0307 23.7989 7.2627C25.3629 4.85603 27.9535 3.40536 30.8135 3.40536C31.8535 3.41203 32.8575 3.6027 33.7949 3.96803C35.3749 1.70936 37.9002 0.352029 40.6455 0.352029C43.3935 0.368029 45.8842 1.73737 47.4415 3.90003C48.9909 1.5307 51.6175 2.88592e-05 54.4829 2.88592e-05L54.7295 0.00403175C57.5655 0.0880318 60.1429 1.62669 61.6362 4.07603C63.9749 4.22136 66.1162 5.34136 67.6029 7.16936C68.3935 6.92269 69.2069 6.79869 70.0349 6.79869C74.0469 6.82536 77.4375 9.7067 78.2909 13.632C81.6082 14.9 83.8389 18.1814 83.8122 21.9054C83.8122 21.9574 83.8122 22.0094 83.8109 22.06C87.2229 23.2534 89.5775 26.5894 89.5509 30.4174C89.5442 31.4907 89.3495 32.536 88.9722 33.532C89.9029 34.98 90.4002 36.6987 90.3869 38.4494C90.3815 39.3467 90.2455 40.224 89.9829 41.0694C91.3602 42.6814 92.1295 44.772 92.1135 46.9334C92.0802 51.7387 88.2802 55.6467 83.6389 55.6467" fill="#300635"/>
</svg>
