<svg width="102" height="225" viewBox="0 0 102 225" fill="none" xmlns="http://www.w3.org/2000/svg">
<path d="M83.4083 222.99C84.8803 211.828 83.439 197.714 83.439 182.792C83.439 147.477 82.963 118.31 49.9137 118.85C18.291 119.366 16.387 147.477 16.387 182.792C16.387 198.301 15.9337 212.162 18.4617 222.99H83.4083Z" fill="#528950"/>
<path d="M19.4135 221.802H82.3575C83.1562 214.784 82.8789 206.53 82.5842 197.819C82.4202 192.958 82.2495 187.931 82.2495 182.791C82.2495 148.804 82.2362 119.49 49.9335 120.039C19.8975 120.53 17.5788 146.358 17.5788 182.791C17.5788 184.883 17.5695 186.942 17.5602 188.968C17.5095 201.691 17.4655 212.738 19.4135 221.802ZM84.4495 224.179H17.5175L17.3042 223.26C15.0828 213.756 15.1295 202.266 15.1828 188.959C15.1922 186.935 15.2015 184.879 15.2015 182.791C15.2015 165.666 15.5815 149.303 20.1829 137.346C25.1855 124.344 34.9042 117.907 49.8922 117.662C50.2042 117.656 50.5042 117.655 50.8109 117.655C84.6269 117.655 84.6269 149.292 84.6269 182.791C84.6269 187.89 84.7962 192.896 84.9602 197.736C85.2735 206.983 85.5669 215.716 84.5869 223.147L84.4495 224.179Z" fill="#300635"/>
<path d="M59.6793 121.455C59.6793 124.607 57.1246 127.162 53.9739 127.162H46.1273C42.9766 127.162 40.4206 124.607 40.4206 121.455V105.051C40.4206 101.899 42.9766 99.346 46.1273 99.346H53.9739C57.1246 99.346 59.6793 101.899 59.6793 105.051V121.455Z" fill="#FFD7E1"/>
<path d="M46.1271 100.535C43.6365 100.535 41.6085 102.563 41.6085 105.052V121.455C41.6085 123.948 43.6365 125.973 46.1271 125.973H53.9738C56.4631 125.973 58.4898 123.948 58.4898 121.455V105.052C58.4898 102.563 56.4631 100.535 53.9738 100.535H46.1271ZM53.9738 128.351H46.1271C42.3231 128.351 39.2311 125.257 39.2311 121.455V105.052C39.2311 101.248 42.3231 98.1575 46.1271 98.1575H53.9738C57.7738 98.1575 60.8685 101.248 60.8685 105.052V121.455C60.8685 125.257 57.7738 128.351 53.9738 128.351" fill="#300635"/>
<g opacity="0.5">
<g opacity="0.5">
<path opacity="0.5" d="M53.5269 99.7913H45.6816C42.5296 99.7913 39.9736 102.347 39.9736 105.497V113.341C39.9736 116.494 42.5296 119.049 45.6816 119.049H53.5269C56.6789 119.049 59.2322 116.494 59.2322 113.341V105.497C59.2322 102.347 56.6789 99.7913 53.5269 99.7913Z" fill="#CCCCCC"/>
</g>
</g>
<path d="M20.8277 213.798L25.5823 194.775C25.5823 194.775 17.341 193.508 16.8623 176.864C16.8623 176.864 16.3877 140.723 24.949 130.738C24.949 130.738 9.73168 134.543 3.55035 159.27C3.55035 159.27 -5.16965 205.079 10.9997 212.212C10.9997 212.212 13.693 213.798 20.8277 213.798Z" fill="#528950"/>
<path d="M4.71178 159.523C4.44778 160.939 -3.47222 204.528 11.4784 211.124L11.6024 211.187C11.6171 211.194 13.9718 212.476 19.9011 212.599L24.1584 195.567C21.6171 194.496 16.0691 190.599 15.6771 176.898C15.6584 175.527 15.3571 146.458 21.8251 133.432C17.1451 136.115 8.84378 143.028 4.71178 159.523ZM21.7544 214.987H20.8278C14.0171 214.987 10.9918 213.554 10.4744 213.279C-6.30288 205.788 2.01845 160.954 2.38112 159.048L2.39578 158.98C8.67845 133.85 24.0104 129.747 24.6584 129.584L28.2771 128.679L25.8504 131.511C17.6771 141.047 18.0491 176.491 18.0544 176.848C18.4891 192.119 25.7038 193.59 25.7784 193.604L27.0291 193.828L26.7358 195.063L21.7544 214.987Z" fill="#300635"/>
<path d="M79.9123 211.101L75.3536 194.46C75.3536 194.46 83.7163 193.509 84.1936 176.864C84.1936 176.864 84.6683 140.724 76.1083 130.739C76.1083 130.739 91.3256 134.543 97.507 159.269C97.507 159.269 107.495 200.165 91.3256 207.297C91.3256 207.297 87.047 211.101 79.9123 211.101Z" fill="#528950"/>
<path d="M76.8108 195.278L80.8134 209.89C86.8374 209.597 90.5014 206.44 90.5388 206.408L90.6748 206.286L90.8454 206.209C105.92 199.561 96.4494 159.952 96.3508 159.55C92.2028 142.952 83.8948 136.061 79.2201 133.406C85.6988 146.417 85.3988 175.525 85.3828 176.88C84.9921 190.525 79.4241 194.27 76.8108 195.278ZM79.9121 212.292H79.0054L73.8414 193.434L75.2214 193.277C75.5054 193.238 82.5681 192.084 83.0054 176.829C83.0094 176.49 83.3761 141.044 75.2054 131.512L72.7801 128.68L76.3961 129.584C77.0481 129.748 92.3788 133.85 98.6601 158.98C99.0788 160.692 108.629 200.682 91.9654 208.314C91.1054 209.02 86.7494 212.292 79.9121 212.292" fill="#300635"/>
<g opacity="0.5">
<g opacity="0.5">
<path opacity="0.5" d="M20.8277 213.798L22.0663 208.836L22.0957 208.248C22.0957 208.248 5.92768 213.48 6.40368 182.095C6.40368 182.095 4.44501 155.652 22.0957 133.591C22.433 133.17 22.4517 132.551 22.261 131.824C17.6103 134.158 8.11568 141.004 3.55035 159.27C3.55035 159.27 -5.16965 205.079 10.9997 212.212C10.9997 212.212 13.693 213.798 20.8277 213.798Z" fill="#CCCCCC"/>
</g>
</g>
<path d="M26.6129 77.6116C26.6129 82.8636 22.3555 87.1222 17.1009 87.1222C11.8489 87.1222 7.59021 82.8636 7.59021 77.6116C7.59021 72.3596 11.8489 68.0982 17.1009 68.0982C22.3555 68.0982 26.6129 72.3596 26.6129 77.6116Z" fill="#FFD7E1"/>
<path d="M17.1011 69.2887C12.5131 69.2887 8.7798 73.0233 8.7798 77.6113C8.7798 82.2007 12.5131 85.9313 17.1011 85.9313C21.6891 85.9313 25.4238 82.2007 25.4238 77.6113C25.4238 73.0233 21.6891 69.2887 17.1011 69.2887ZM17.1011 88.3113C11.2025 88.3113 6.40247 83.51 6.40247 77.6113C6.40247 71.71 11.2025 66.9113 17.1011 66.9113C23.0011 66.9113 27.8011 71.71 27.8011 77.6113C27.8011 83.51 23.0011 88.3113 17.1011 88.3113Z" fill="#300635"/>
<path d="M11.8706 76.6597C11.8706 76.6597 11.3959 72.8557 16.3879 72.6184Z" fill="#FFD7E1"/>
<path d="M11.8654 77.8408C11.2774 77.8408 10.7667 77.4088 10.6907 76.8074C10.6667 76.6114 10.4881 74.8541 11.7574 73.3474C12.7454 72.1714 14.2827 71.5288 16.3321 71.4301C17.0041 71.4034 17.5467 71.9061 17.5761 72.5608C17.6067 73.2181 17.1001 73.7741 16.4454 73.8048C15.1014 73.8688 14.1414 74.2234 13.5934 74.8581C12.9667 75.5834 13.0521 76.5168 13.0534 76.5274C13.1161 77.1754 12.6481 77.7594 12.0027 77.8328C11.9574 77.8381 11.9107 77.8408 11.8654 77.8408Z" fill="#300635"/>
<path d="M72.5829 77.6116C72.5829 82.8636 76.8402 87.1222 82.0922 87.1222C87.3442 87.1222 91.6029 82.8636 91.6029 77.6116C91.6029 72.3596 87.3442 68.0982 82.0922 68.0982C76.8402 68.0982 72.5829 72.3596 72.5829 77.6116Z" fill="#FFD7E1"/>
<path d="M82.0919 69.2887C77.5039 69.2887 73.7719 73.0233 73.7719 77.6113C73.7719 82.2007 77.5039 85.9313 82.0919 85.9313C86.6812 85.9313 90.4132 82.2007 90.4132 77.6113C90.4132 73.0233 86.6812 69.2887 82.0919 69.2887ZM82.0919 88.3113C76.1932 88.3113 71.3932 83.51 71.3932 77.6113C71.3932 71.71 76.1932 66.9113 82.0919 66.9113C87.9919 66.9113 92.7906 71.71 92.7906 77.6113C92.7906 83.51 87.9919 88.3113 82.0919 88.3113Z" fill="#300635"/>
<path d="M87.3238 76.6597C87.3238 76.6597 87.7972 72.8557 82.8052 72.6184Z" fill="#FFD7E1"/>
<path d="M87.3238 77.8485C87.2745 77.8485 87.2265 77.8459 87.1758 77.8405C86.5278 77.7592 86.0692 77.1712 86.1425 76.5259C86.1452 76.4819 86.2145 75.5712 85.5998 74.8579C85.0518 74.2232 84.0932 73.8699 82.7478 73.8045C82.0932 73.7739 81.5865 73.2179 81.6185 72.5605C81.6492 71.9059 82.1932 71.4045 82.8625 71.4312C84.9078 71.5285 86.4478 72.1712 87.4372 73.3472C88.7025 74.8539 88.5265 76.6112 88.5025 76.8072C88.4265 77.4099 87.9145 77.8485 87.3238 77.8485Z" fill="#300635"/>
<path d="M81.7312 48.6767C78.9619 33.3567 65.5699 21.7313 49.4539 21.7313C33.3379 21.7313 19.9459 33.3553 17.1779 48.674C16.8365 49.3793 16.6445 50.1567 16.6445 50.978V80.9327C16.6445 81.1327 16.6539 81.3287 16.6779 81.5247C17.3632 99.0393 31.7685 113.03 49.4539 113.03C67.1392 113.03 81.5472 99.038 82.2312 81.5207C82.2525 81.3273 82.2619 81.1327 82.2619 80.9327V50.978C82.2619 50.1567 82.0712 49.3793 81.7312 48.6767Z" fill="#FFD7E1"/>
<path d="M49.4539 22.9215C34.1473 22.9215 21.0659 33.8401 18.3473 48.8855L18.3179 49.0468L18.2499 49.1908C17.9726 49.7615 17.8326 50.3615 17.8326 50.9775V80.9335C17.8326 81.0841 17.8406 81.2375 17.8593 81.3921L17.8659 81.4775C18.5313 98.5041 32.4059 111.84 49.4539 111.84C66.5033 111.84 80.3766 98.5028 81.0419 81.4735L81.0486 81.3881C81.0673 81.2375 81.0739 81.0855 81.0739 80.9335V50.9775C81.0739 50.3615 80.9353 49.7628 80.6606 49.1921L80.5886 49.0468L80.5593 48.8881C77.8419 33.8401 64.7606 22.9215 49.4539 22.9215ZM49.4539 114.219C31.1366 114.219 16.2273 99.9001 15.4913 81.6135C15.4673 81.3868 15.4553 81.1561 15.4553 80.9335V50.9775C15.4553 50.0548 15.6499 49.1601 16.0379 48.3095C19.0206 32.2108 33.0473 20.5441 49.4539 20.5441C65.8606 20.5441 79.8886 32.2108 82.8699 48.3095C83.2566 49.1601 83.4513 50.0548 83.4513 50.9775V80.9335C83.4513 81.1588 83.4393 81.3868 83.4153 81.6095C82.6806 99.8961 67.7713 114.219 49.4539 114.219Z" fill="#300635"/>
<path d="M85.5645 41.0361C85.4112 37.5068 83.3099 13.4841 54.6672 14.3655C54.6672 14.3655 39.4499 12.9401 38.4992 2.95347C38.4992 2.95347 33.7459 8.66013 36.5992 14.3655C36.5992 14.3655 29.9405 15.7921 25.6605 10.0855C25.6605 10.0855 24.7099 16.2681 28.0379 19.1215C28.0379 19.1215 12.3459 31.0081 12.8206 42.8975V65.7215C12.8206 67.8255 14.5259 69.5255 16.6259 69.5255C18.7272 69.5255 20.4299 67.8255 20.4299 65.7215V46.7001C20.4299 46.7001 43.2565 49.0775 70.3619 32.9108L70.8325 33.1761C72.5592 34.2988 78.4432 39.5188 78.4432 58.5895V65.7215C78.4432 67.8255 80.1485 69.5255 82.2499 69.5255C84.3499 69.5255 86.0539 67.8255 86.0539 65.7215V42.8975C86.0539 42.2215 85.8739 41.5855 85.5645 41.0361Z" fill="#774A13"/>
<path d="M70.3433 31.5373L71.4806 32.1787C73.3926 33.4213 79.6326 38.996 79.6326 58.5893V65.7213C79.6326 67.164 80.8059 68.3387 82.2499 68.3387C83.6899 68.3387 84.8659 67.164 84.8659 65.7213V42.8987C84.8659 42.452 84.7499 42.0093 84.5299 41.62L84.3899 41.372L84.3753 41.088C84.3006 39.292 83.7526 32.968 80.0113 27.0213C75.2153 19.3987 67.2006 15.5307 56.1886 15.5307C55.7033 15.5307 55.2086 15.5387 54.7046 15.5547L54.6313 15.5573L54.5566 15.5493C53.9606 15.492 41.2566 14.2 38.0126 5.99465C37.0606 7.96532 36.2113 10.9346 37.6619 13.8333L38.3486 15.208L36.8459 15.528C36.7593 15.548 35.9499 15.712 34.7139 15.712C32.8246 15.712 29.6019 15.304 26.7486 12.948C26.8486 14.7107 27.3046 16.924 28.8126 18.2173L29.9299 19.1773L28.7579 20.0667C28.6046 20.184 13.5646 31.7267 14.0099 42.8507V65.7213C14.0099 67.164 15.1859 68.3387 16.6259 68.3387C18.0673 68.3387 19.2406 67.164 19.2406 65.7213V45.384L20.5526 45.5173C20.5646 45.5173 21.7113 45.6347 23.7499 45.6347C30.6526 45.6347 48.9526 44.2947 69.7526 31.8907L70.3433 31.5373ZM82.2499 70.716C79.4939 70.716 77.2579 68.476 77.2579 65.7213V58.5893C77.2579 40.5173 71.8539 35.3693 70.3606 34.2933C49.3059 46.6667 30.7806 48.012 23.7499 48.012C22.8819 48.012 22.1686 47.9933 21.6193 47.968V65.7213C21.6193 68.476 19.3793 70.716 16.6259 70.716C13.8726 70.716 11.6326 68.476 11.6326 65.7213V42.8987C11.2073 32.2667 22.7073 21.9427 26.2913 18.9933C23.6553 15.5587 24.4459 10.1587 24.4873 9.90532L24.9166 7.11198L26.6126 9.37332C29.0686 12.648 32.3739 13.3333 34.7139 13.3333H34.9099C33.1659 7.59598 37.3899 2.42798 37.5859 2.19198L39.4139 -1.73663e-05L39.6846 2.83998C40.4993 11.408 53.6513 13.056 54.7126 13.1747C83.8993 12.3227 86.5046 36.776 86.7393 40.716C87.0686 41.3947 87.2433 42.1427 87.2433 42.8987V65.7213C87.2433 68.476 85.0019 70.716 82.2499 70.716" fill="#300635"/>
<path d="M38.0243 62.1558C38.0243 63.4692 35.863 61.6825 32.319 61.6825C28.7737 61.6825 25.1857 63.4692 25.1857 62.1558C25.1857 60.8438 28.2977 59.0652 31.843 59.0652C35.387 59.0652 38.0243 60.8438 38.0243 62.1558Z" fill="#774A13"/>
<path d="M71.5503 62.1558C71.5503 63.4692 69.389 61.6825 65.8437 61.6825C62.297 61.6825 58.7117 63.4692 58.7117 62.1558C58.7117 60.8438 61.821 59.0652 65.3677 59.0652C68.913 59.0652 71.5503 60.8438 71.5503 62.1558Z" fill="#774A13"/>
<path d="M36.5998 70.4788C36.5998 72.4495 35.0011 74.0455 33.0305 74.0455C31.0625 74.0455 29.4651 72.4495 29.4651 70.4788C29.4651 68.5068 31.0625 66.9108 33.0305 66.9108C35.0011 66.9108 36.5998 68.5068 36.5998 70.4788Z" fill="#300635"/>
<path d="M67.9839 70.4788C67.9839 72.4495 66.3879 74.0455 64.4173 74.0455C62.4479 74.0455 60.8506 72.4495 60.8506 70.4788C60.8506 68.5068 62.4479 66.9108 64.4173 66.9108C66.3879 66.9108 67.9839 68.5068 67.9839 70.4788Z" fill="#300635"/>
<path d="M52.8042 82.3291C52.8042 77.9784 51.4602 71.1904 48.7295 71.1904C46.0015 71.1904 44.4828 77.5011 44.4828 81.8517C44.4828 82.1437 44.4988 82.4077 44.5255 82.6491C44.5255 82.6597 44.5242 82.6717 44.5242 82.6837C44.5242 84.9597 46.3695 86.8051 48.6455 86.8051C50.4135 86.8051 51.9188 85.6891 52.5015 84.1251C52.6922 83.7384 52.8042 83.1637 52.8042 82.3291Z" fill="#FC7C7C"/>
<path d="M36.2808 89.6558C36.2808 89.6558 47.6941 100.436 62.9114 89.3412Z" fill="#FFD7E1"/>
<path d="M49.0802 95.5165C40.8922 95.5165 35.5455 90.5992 35.4642 90.5219C34.9868 90.0712 34.9655 89.3179 35.4175 88.8405C35.8682 88.3645 36.6175 88.3432 37.0975 88.7925C37.5428 89.2099 48.0162 98.7299 62.2108 88.3792C62.7415 87.9912 63.4842 88.1099 63.8708 88.6405C64.2588 89.1712 64.1428 89.9139 63.6095 90.3019C58.2388 94.2179 53.2842 95.5165 49.0802 95.5165Z" fill="#300635"/>
<path d="M44.92 97.583C44.92 97.583 49.6747 101.15 54.192 97.583Z" fill="#FFD7E1"/>
<path d="M49.7613 100.346C47.3986 100.346 45.3226 99.37 44.2066 98.534C43.6826 98.142 43.5746 97.394 43.9693 96.87C44.3626 96.346 45.1053 96.2393 45.6293 96.63C45.8026 96.758 49.7346 99.5887 53.4559 96.65C53.9706 96.242 54.7199 96.3313 55.1253 96.8473C55.5319 97.362 55.4453 98.1087 54.9306 98.5167C53.2213 99.866 51.4199 100.346 49.7613 100.346Z" fill="#300635"/>
</svg>
