<svg width="115" height="221" viewBox="0 0 115 221" fill="none" xmlns="http://www.w3.org/2000/svg">
<path d="M99.4726 47.2998C99.5899 46.0412 99.6592 44.7705 99.6592 43.4825C99.6592 20.2078 80.0926 1.33983 55.9552 1.33983C31.8192 1.33983 12.2539 20.2078 12.2539 43.4825C12.2539 45.1265 12.3619 46.7478 12.5539 48.3438C5.84856 52.1052 1.33923 59.1012 1.33923 67.1158C1.33923 79.1052 11.4179 88.8225 23.8472 88.8225C30.0019 88.8225 35.5792 86.4385 39.6419 82.5772C44.6846 84.5358 50.1872 85.6238 55.9552 85.6238C62.3339 85.6238 68.3872 84.2945 73.8486 81.9278C77.9552 86.1678 83.8019 88.8225 90.2939 88.8225C102.726 88.8225 112.805 79.1052 112.805 67.1158C112.805 58.2825 107.329 50.6865 99.4726 47.2998Z" fill="#E8811A"/>
<path d="M74.1653 80.3326L74.8093 80.9966C78.804 85.1192 84.4467 87.4832 90.2947 87.4832C101.968 87.4832 111.465 78.3472 111.465 67.1166C111.465 59.1059 106.551 51.8072 98.9413 48.5272L98.0493 48.1419L98.1387 47.1752C98.2627 45.8659 98.3213 44.6566 98.3213 43.4819C98.3213 20.9806 79.316 2.67788 55.956 2.67788C32.596 2.67788 13.5907 20.9806 13.5907 43.4819C13.5907 44.9926 13.6893 46.5766 13.88 48.1886L13.9853 49.0766L13.2053 49.5139C6.712 53.1539 2.67733 59.9006 2.67733 67.1166C2.67733 78.3472 12.1747 87.4832 23.848 87.4832C29.4507 87.4832 34.732 85.3966 38.7213 81.6059L39.336 81.0232L40.1253 81.3299C45.1773 83.2912 50.5027 84.2872 55.956 84.2872C61.9867 84.2872 67.828 83.0792 73.316 80.7006L74.1653 80.3326ZM90.2947 90.1606C84.04 90.1606 77.9867 87.7472 73.5427 83.5086C67.9613 85.8006 62.0493 86.9619 55.956 86.9619C50.4507 86.9619 45.0667 86.0059 39.94 84.1192C35.5307 88.0219 29.852 90.1606 23.848 90.1606C10.6987 90.1606 0 79.8232 0 67.1166C0 59.2246 4.24267 51.8379 11.128 47.6299C10.9867 46.2139 10.9147 44.8232 10.9147 43.4819C10.9147 19.5072 31.1213 0.000546629 55.956 0.000546629C80.792 0.000546629 100.996 19.5072 100.996 43.4819C100.996 44.4499 100.96 45.4352 100.884 46.4712C108.971 50.3486 114.141 58.3512 114.141 67.1166C114.141 79.8232 103.443 90.1606 90.2947 90.1606" fill="#300635"/>
<path d="M102.216 218.323C102.216 218.323 103.325 113.55 79.5481 107.366H34.8507C34.8507 107.366 9.6454 115.927 14.8774 218.165" fill="#B9D848"/>
<path d="M102.216 219.513H102.203C101.545 219.505 101.021 218.967 101.027 218.311C101.031 218.049 101.273 191.857 98.6134 165.263C95.1588 130.708 88.5148 111.109 79.3921 108.555H35.0908C34.1521 109.008 28.6894 112.137 23.7814 125.473C18.7921 139.019 13.4041 166.087 16.0654 218.104C16.0988 218.76 15.5934 219.319 14.9374 219.352C14.2681 219.381 13.7241 218.88 13.6894 218.225C8.47345 116.263 33.4041 106.601 34.4681 106.241L34.6534 106.177H79.7014L79.8494 106.215C90.2414 108.919 97.3508 128.711 100.983 165.044C103.652 191.767 103.408 218.073 103.405 218.336C103.399 218.987 102.865 219.513 102.216 219.513Z" fill="#300635"/>
<path d="M91.091 219.115C91.2603 209.884 90.487 173.698 90.487 162.748C90.487 127.435 90.011 98.2684 56.9616 98.8084C25.3376 99.3231 23.4363 127.435 23.4363 162.748C23.4363 174.031 23.2003 210.112 24.043 219.115H91.091Z" fill="#B9D848"/>
<path d="M25.1404 217.926H89.9178C89.9711 211.868 89.7658 198.318 89.5818 186.272C89.4364 176.561 89.2964 167.392 89.2964 162.748C89.2964 129.072 89.2964 99.9889 57.8564 99.9889C57.5671 99.9889 57.2764 99.9916 56.9818 99.9969C26.9458 100.488 24.6244 126.314 24.6244 162.748C24.6244 164.432 24.6191 166.665 24.6124 169.28C24.5804 183.37 24.5204 209.086 25.1404 217.926ZM92.2591 220.305H22.9591L22.8591 219.226C22.1364 211.509 22.2031 184.033 22.2364 169.274C22.2418 166.661 22.2471 164.43 22.2471 162.748C22.2471 145.622 22.6298 129.261 27.2311 117.302C32.2338 104.302 41.9524 97.8636 56.9418 97.6183C57.2498 97.6129 57.5538 97.6116 57.8564 97.6116C73.2044 97.6116 82.5751 103.853 87.3511 117.254C91.6751 129.393 91.6751 146.349 91.6751 162.748C91.6751 167.373 91.8138 176.534 91.9604 186.234C92.1658 199.782 92.3764 213.793 92.2791 219.136L92.2591 220.305Z" fill="#300635"/>
<path d="M57.1991 109.903C57.1991 109.903 68.3738 109.031 67.4218 100.232C67.4218 100.232 72.4164 100.708 73.8431 102.611C73.8431 102.611 77.1711 108.793 68.6138 114.261C68.6138 114.261 62.9044 117.668 57.1991 109.903" fill="#FFD7E1"/>
<path d="M59.4281 110.74C61.3187 112.76 63.3761 113.817 65.4561 113.817C66.9814 113.817 68.0014 113.241 68.0107 113.236C75.0081 108.763 73.1614 103.967 72.8321 103.251C72.1747 102.491 70.3121 101.912 68.6641 101.608C68.6001 103.553 67.9627 105.268 66.7601 106.716C64.7281 109.167 61.5374 110.261 59.4281 110.74ZM65.4561 116.195C63.1241 116.195 59.6347 115.225 56.2414 110.605L54.9747 108.883L57.1067 108.717C57.1574 108.712 62.4001 108.256 64.9347 105.192C66.0241 103.879 66.4507 102.296 66.2414 100.361L66.0841 98.9134L67.5361 99.048C68.4561 99.1374 73.1361 99.6867 74.7934 101.899L74.8894 102.047C74.9281 102.117 78.6307 109.271 69.2521 115.264C69.0654 115.376 67.6281 116.195 65.4561 116.195Z" fill="#300635"/>
<path d="M57.1224 109.903C57.1224 109.903 45.9477 109.031 46.8984 100.232C46.8984 100.232 41.9064 100.708 40.481 102.611C40.481 102.611 37.1504 108.793 45.7104 114.261C45.7104 114.261 51.417 117.668 57.1224 109.903" fill="#FFD7E1"/>
<path d="M46.3502 113.258C46.3542 113.258 47.3649 113.817 48.8675 113.817C50.9449 113.817 53.0022 112.76 54.8929 110.74C52.7862 110.261 49.5969 109.168 47.5622 106.717C46.3609 105.269 45.7235 103.557 45.6582 101.61C44.0075 101.914 42.1435 102.493 41.4889 103.252C41.1715 103.944 39.2969 108.752 46.3502 113.261V113.258ZM48.8675 116.194C46.6929 116.194 45.2582 115.376 45.1009 115.282C35.6875 109.272 39.3955 102.118 39.4329 102.048L39.5289 101.898C41.1875 99.6862 45.8675 99.1369 46.7862 99.0489L48.2369 98.9129L48.0822 100.361C47.8715 102.3 48.3022 103.882 49.3915 105.2C51.9422 108.272 57.1622 108.713 57.2155 108.718L59.3462 108.884L58.0822 110.606C54.6875 115.226 51.1982 116.194 48.8675 116.194Z" fill="#300635"/>
<path d="M66.7278 101.413C66.7278 104.565 65.2825 107.049 61.9545 108.793L57.1998 109.903L53.2371 108.635C49.9091 107.841 47.4691 104.565 47.4691 101.413V85.0079C47.4691 81.8572 50.0238 79.3025 53.1745 79.3025H61.0198C64.1718 79.3025 66.7278 81.8572 66.7278 85.0079V101.413Z" fill="#FFD7E1"/>
<path d="M53.1743 80.49C50.685 80.49 48.657 82.518 48.657 85.0087V101.413C48.657 104.119 50.8357 106.842 53.5103 107.478L53.597 107.503L57.2503 108.67L61.5357 107.67C64.265 106.199 65.5383 104.207 65.5383 101.413V85.0087C65.5383 82.518 63.5117 80.49 61.0197 80.49H53.1743ZM57.1503 111.134L52.9157 109.781C49.1917 108.867 46.2783 105.202 46.2783 101.413V85.0087C46.2783 81.2074 49.3717 78.1127 53.1743 78.1127H61.0197C64.821 78.1127 67.917 81.2074 67.917 85.0087V101.413C67.917 105.129 66.0943 107.966 62.5077 109.846L62.3717 109.917L57.1503 111.134Z" fill="#300635"/>
<g opacity="0.5">
<g opacity="0.5">
<path opacity="0.5" d="M61.0194 79.3025H53.1741C50.0234 79.3025 47.4688 81.8572 47.4688 85.0079V92.8545C47.4688 96.0039 50.0234 98.5599 53.1741 98.5599H61.0194C64.1714 98.5599 66.7274 96.0039 66.7274 92.8545V85.0079C66.7274 81.8572 64.1714 79.3025 61.0194 79.3025Z" fill="#CCCCCC"/>
</g>
</g>
<path d="M33.6771 57.1906C33.6771 62.4412 29.4171 66.6999 24.1651 66.6999C18.9144 66.6999 14.6558 62.4412 14.6558 57.1906C14.6558 51.9386 18.9144 47.6799 24.1651 47.6799C29.4171 47.6799 33.6771 51.9386 33.6771 57.1906Z" fill="#FFD7E1"/>
<path d="M24.1653 48.8689C19.5787 48.8689 15.8454 52.6009 15.8454 57.1902C15.8454 61.7796 19.5787 65.5102 24.1653 65.5102C28.7533 65.5102 32.4867 61.7796 32.4867 57.1902C32.4867 52.6009 28.7533 48.8689 24.1653 48.8689ZM24.1653 67.8889C18.2654 67.8889 13.468 63.0902 13.468 57.1902C13.468 51.2889 18.2654 46.4902 24.1653 46.4902C30.0653 46.4902 34.8654 51.2889 34.8654 57.1902C34.8654 63.0902 30.0653 67.8889 24.1653 67.8889Z" fill="#300635"/>
<path d="M18.9347 56.2386C18.9347 56.2386 18.4601 52.4346 23.4521 52.1986Z" fill="#FFD7E1"/>
<path d="M18.9322 57.421C18.3416 57.421 17.8309 56.9877 17.7549 56.3877C17.7309 56.1904 17.5522 54.433 18.8202 52.9264C19.8096 51.7504 21.3482 51.1064 23.3962 51.009C24.0656 50.9717 24.6082 51.485 24.6389 52.1397C24.6709 52.7957 24.1656 53.353 23.5096 53.3837C22.1642 53.449 21.2056 53.8024 20.6576 54.437C20.0309 55.1624 20.1149 56.097 20.1176 56.1064C20.1816 56.753 19.7122 57.3384 19.0669 57.413C19.0202 57.417 18.9762 57.421 18.9322 57.421Z" fill="#300635"/>
<path d="M79.6456 57.1906C79.6456 62.4412 83.903 66.6999 89.1563 66.6999C94.4083 66.6999 98.667 62.4412 98.667 57.1906C98.667 51.9386 94.4083 47.6799 89.1563 47.6799C83.903 47.6799 79.6456 51.9386 79.6456 57.1906Z" fill="#FFD7E1"/>
<path d="M89.1561 48.8689C84.5681 48.8689 80.8334 52.6009 80.8334 57.1902C80.8334 61.7796 84.5681 65.5102 89.1561 65.5102C93.7441 65.5102 97.4774 61.7796 97.4774 57.1902C97.4774 52.6009 93.7441 48.8689 89.1561 48.8689ZM89.1561 67.8889C83.2574 67.8889 78.4561 63.0902 78.4561 57.1902C78.4561 51.2889 83.2574 46.4902 89.1561 46.4902C95.0547 46.4902 99.8547 51.2889 99.8547 57.1902C99.8547 63.0902 95.0547 67.8889 89.1561 67.8889Z" fill="#300635"/>
<path d="M94.3866 56.2386C94.3866 56.2386 94.8613 52.4346 89.8693 52.1986Z" fill="#FFD7E1"/>
<path d="M94.3879 57.4274C94.3399 57.4274 94.2906 57.4261 94.2399 57.4181C93.5906 57.3381 93.1319 56.7514 93.2053 56.1061C93.2093 56.0621 93.2813 55.1501 92.6639 54.4368C92.1159 53.8021 91.1559 53.4488 89.8119 53.3834C89.1573 53.3528 88.6506 52.7954 88.6826 52.1394C88.7133 51.4848 89.2533 50.9728 89.9266 51.0101C91.9733 51.1061 93.5119 51.7501 94.4999 52.9261C95.7693 54.4328 95.5906 56.1901 95.5666 56.3874C95.4906 56.9888 94.9786 57.4274 94.3879 57.4274Z" fill="#300635"/>
<path d="M88.7942 35.3012C86.0262 21.6612 72.6342 11.3092 56.5182 11.3092C40.4022 11.3092 27.0102 21.6612 24.2422 35.3012C23.9009 35.9292 23.7089 36.6212 23.7089 37.3506V64.0266C23.7089 64.2052 23.7195 64.3799 23.7409 64.5532C24.4275 80.1519 38.8355 92.6092 56.5182 92.6092C74.2035 92.6092 88.6115 80.1492 89.2955 64.5506C89.3169 64.3799 89.3275 64.2052 89.3275 64.0266V37.3506C89.3275 36.6212 89.1355 35.9292 88.7942 35.3012Z" fill="#FFD7E1"/>
<path d="M56.5181 12.4978C41.1994 12.4978 28.1141 22.1885 25.4061 35.5365L25.3727 35.7112L25.2861 35.8685C25.0287 36.3458 24.8954 36.8445 24.8954 37.3512V64.0258C24.8954 64.1512 24.9034 64.2778 24.9207 64.4058L24.9301 64.5005C25.5941 79.5965 39.4674 91.4205 56.5181 91.4205C73.5701 91.4205 87.4447 79.5938 88.1061 64.4965L88.1154 64.4005C88.1314 64.2778 88.1381 64.1525 88.1381 64.0258V37.3512C88.1381 36.8432 88.0074 36.3458 87.7487 35.8698L87.6634 35.7125L87.6274 35.5378C84.9207 22.1885 71.8367 12.4978 56.5181 12.4978ZM56.5181 93.7978C38.2087 93.7978 23.2994 80.9992 22.5567 64.6498C22.5314 64.4432 22.5181 64.2325 22.5181 64.0258V37.3512C22.5181 36.5032 22.7167 35.6792 23.1114 34.8992C26.1181 20.5298 40.1354 10.1205 56.5181 10.1205C72.8994 10.1205 86.9194 20.5298 89.9247 34.8992C90.3167 35.6792 90.5154 36.5032 90.5154 37.3512V64.0258C90.5154 64.2352 90.5034 64.4432 90.4821 64.6485C89.7367 80.9978 74.8274 93.7978 56.5181 93.7978Z" fill="#300635"/>
<path d="M47.9425 40.3181C47.9425 41.6288 45.7812 39.8421 42.2359 39.8421C38.6905 39.8421 35.1012 41.6288 35.1012 40.3181C35.1012 39.0035 38.2145 37.2248 41.7585 37.2248C45.3065 37.2248 47.9425 39.0035 47.9425 40.3181Z" fill="#300635"/>
<path d="M78.6145 39.2451C78.6145 40.5571 76.4532 38.7678 72.9065 38.7678C69.3612 38.7678 65.7745 40.5571 65.7745 39.2451C65.7745 37.9305 68.8852 36.1545 72.4332 36.1545C75.9772 36.1545 78.6145 37.9305 78.6145 39.2451Z" fill="#300635"/>
<path d="M61.0572 57.6932C61.0572 54.2465 59.7132 48.8692 56.9825 48.8692C54.2545 48.8692 52.7358 53.8678 52.7358 57.3158C52.7358 57.5478 52.7518 57.7558 52.7812 57.9465C52.7812 57.9558 52.7785 57.9652 52.7785 57.9732C52.7785 59.7785 54.6225 61.2398 56.8998 61.2398C58.6665 61.2398 60.1718 60.3558 60.7545 59.1172C60.9452 58.8105 61.0572 58.3572 61.0572 57.6932Z" fill="#FC7C7C"/>
<path d="M33.4217 53.8689C33.2977 53.8689 33.1724 53.8502 33.047 53.8089C32.4244 53.6022 32.087 52.9276 32.2937 52.3036C33.7284 48.0049 35.5577 45.8342 37.8884 45.6689C41.687 45.4196 44.627 51.0302 44.9484 51.6742C45.2417 52.2609 45.0044 52.9742 44.4164 53.2689C43.8297 53.5622 43.115 53.3249 42.8217 52.7369C42.0244 51.1516 39.7964 47.9142 38.055 48.0409C36.843 48.1262 35.6004 49.9089 34.5524 53.0556C34.383 53.5556 33.9204 53.8689 33.4217 53.8689Z" fill="#300635"/>
<path d="M69.0883 53.8689C68.9617 53.8689 68.8363 53.8502 68.711 53.8089C68.087 53.6022 67.7523 52.9276 67.959 52.3036C69.3923 48.0049 71.223 45.8342 73.5537 45.6689C77.351 45.4196 80.2897 51.0302 80.6123 51.6742C80.9057 52.2609 80.6683 52.9742 80.079 53.2689C79.495 53.5622 78.7803 53.3249 78.487 52.7369C77.6897 51.1516 75.467 47.9142 73.719 48.0409C72.5083 48.1262 71.2657 49.9089 70.215 53.0556C70.0483 53.5556 69.5857 53.8689 69.0883 53.8689Z" fill="#300635"/>
<path d="M40.3175 68.8481H71.7042C71.7042 68.8481 54.1095 96.9041 40.3175 68.8481Z" fill="white"/>
<path d="M42.2708 70.0369C45.9108 76.7356 50.0481 80.1289 54.5841 80.1289C61.0361 80.1289 66.9081 73.3756 69.4161 70.0369H42.2708ZM54.5841 82.5076C48.6948 82.5076 43.5348 78.0876 39.2508 69.3729L38.4094 67.6596H73.8521L72.7094 69.4809C72.3761 70.0116 64.4268 82.5076 54.5841 82.5076" fill="#300635"/>
<path d="M71.4842 143.166L63.8722 136.471L57.1869 142.535L50.3015 135.774L43.1669 142.194L37.4602 136.489L30.6429 142.626L30.0469 141.962L37.4922 135.261L43.1975 140.967L50.3282 134.55L57.2109 141.309L63.8615 135.277L71.4455 141.945L78.1509 135.225L84.1722 141.998L83.5069 142.589L78.1135 136.526L71.4842 143.166Z" fill="#F26B82"/>
<path d="M71.5181 144.184L63.8795 137.469L57.1661 143.555L50.2795 136.793L43.1395 143.219L37.4342 137.512L31.1382 143.179C30.6515 143.617 29.8982 143.577 29.4608 143.089C29.0208 142.601 29.0608 141.849 29.5475 141.411L37.5208 134.236L43.2262 139.943L50.3515 133.531L57.2315 140.287L63.8555 134.28L71.4128 140.927L78.1821 134.143L84.7261 141.504C85.1621 141.995 85.1181 142.747 84.6275 143.181C84.1381 143.619 83.3848 143.573 82.9501 143.084L78.0822 137.607L71.5181 144.184Z" fill="#300635"/>
<path d="M92.3749 36.421L98.5443 35.2304C93.4896 13.8264 75.1189 1.3397 55.9563 1.3397C36.6643 1.3397 20.3029 13.3984 14.5096 30.1224L14.2603 32.333C14.2603 32.333 20.5363 33.2517 21.2816 33.3744C25.6043 34.085 41.3963 35.4597 56.1056 21.2597C56.1056 21.2597 71.8616 40.285 92.3749 36.421Z" fill="#E8811A"/>
<path d="M56.2134 19.2947L57.1347 20.404C57.26 20.556 69.9467 35.6 86.832 35.6H86.8334C88.6027 35.6 90.384 35.4333 92.128 35.1053L96.9014 34.1853C91.832 15.28 75.5454 2.67734 55.956 2.67734C37.7507 2.67734 21.6427 13.8213 15.82 30.42L15.7347 31.1973C17.8387 31.5013 21.4534 32.0467 21.4974 32.0547C22.5707 32.2307 24.3254 32.4413 26.5907 32.4413C33.8934 32.4413 44.7787 30.3333 55.176 20.2973L56.2134 19.2947ZM86.8334 38.2773H86.832C71.212 38.2747 59.372 26.8067 56.0187 23.1773C45.288 33.0147 34.148 35.116 26.5907 35.116C24.1427 35.116 22.236 34.8867 21.064 34.6947C20.3907 34.584 14.94 33.784 14.164 33.6693H12.764L13.244 29.684C19.396 11.9307 36.5614 1.2454e-05 55.956 1.2454e-05C76.944 1.2454e-05 94.9907 14.3627 99.848 34.9253L100.167 36.2813L92.6294 37.7347C90.7174 38.0947 88.768 38.2773 86.8334 38.2773" fill="#300635"/>
</svg>
