<svg width="102" height="226" viewBox="0 0 102 226" fill="none" xmlns="http://www.w3.org/2000/svg">
<path d="M83.4078 224.093C84.8798 212.932 83.4385 198.818 83.4385 183.896C83.4385 148.581 82.9638 119.414 49.9145 119.954C18.2905 120.47 16.3878 148.581 16.3878 183.896C16.3878 199.406 15.9345 213.266 18.4611 224.093H83.4078Z" fill="#2F5944"/>
<path d="M19.4144 222.904H82.3584C83.157 215.885 82.8784 207.633 82.5837 198.921C82.4197 194.059 82.249 189.035 82.249 183.895C82.249 149.907 82.237 120.593 49.9344 121.143C19.8984 121.633 17.5784 147.461 17.5784 183.895C17.5784 185.985 17.569 188.044 17.561 190.073C17.5104 202.795 17.4664 213.84 19.4144 222.904ZM84.4504 225.281H17.5197L17.305 224.364C15.0837 214.86 15.1317 203.369 15.1837 190.063C15.1917 188.04 15.201 185.981 15.201 183.895C15.201 166.768 15.5824 150.408 20.1824 138.447C25.1864 125.449 34.905 119.011 49.893 118.765C50.2037 118.76 50.5037 118.759 50.8104 118.759C84.6264 118.759 84.6264 150.397 84.6264 183.895C84.6264 188.995 84.7957 194 84.9597 198.839C85.273 208.087 85.5677 216.82 84.5877 224.251L84.4504 225.281Z" fill="#300635"/>
<path d="M59.6786 122.56C59.6786 125.71 57.1253 128.266 53.9733 128.266H46.1279C42.9759 128.266 40.4226 125.71 40.4226 122.56V106.155C40.4226 103.003 42.9759 100.448 46.1279 100.448H53.9733C57.1253 100.448 59.6786 103.003 59.6786 106.155V122.56Z" fill="#FFD19F"/>
<path d="M46.1278 101.637C43.6371 101.637 41.6105 103.664 41.6105 106.156V122.56C41.6105 125.051 43.6371 127.077 46.1278 127.077H53.9731C56.4625 127.077 58.4891 125.051 58.4891 122.56V106.156C58.4891 103.664 56.4625 101.637 53.9731 101.637H46.1278ZM53.9731 129.455H46.1278C42.3238 129.455 39.2318 126.361 39.2318 122.56V106.156C39.2318 102.352 42.3238 99.2599 46.1278 99.2599H53.9731C57.7745 99.2599 60.8678 102.352 60.8678 106.156V122.56C60.8678 126.361 57.7745 129.455 53.9731 129.455" fill="#300635"/>
<g opacity="0.5">
<g opacity="0.5">
<path opacity="0.5" d="M53.9729 100.448H46.1276C42.9756 100.448 40.4222 103.003 40.4222 106.155V113.999C40.4222 117.151 42.9756 119.707 46.1276 119.707H53.9729C57.1249 119.707 59.6782 117.151 59.6782 113.999V106.155C59.6782 103.003 57.1249 100.448 53.9729 100.448Z" fill="#CCCCCC"/>
</g>
</g>
<path d="M26.6278 78.3364C26.6278 83.5884 22.3704 87.8471 17.1184 87.8471C11.8664 87.8471 7.60645 83.5884 7.60645 78.3364C7.60645 73.0844 11.8664 68.8257 17.1184 68.8257C22.3704 68.8257 26.6278 73.0844 26.6278 78.3364Z" fill="#FFD19F"/>
<path d="M17.1188 70.0148C12.5321 70.0148 8.79743 73.7481 8.79743 78.3361C8.79743 82.9255 12.5321 86.6575 17.1188 86.6575C21.7068 86.6575 25.4388 82.9255 25.4388 78.3361C25.4388 73.7481 21.7068 70.0148 17.1188 70.0148ZM17.1188 89.0361C11.2174 89.0361 6.41876 84.2348 6.41876 78.3361C6.41876 72.4375 11.2174 67.6375 17.1188 67.6375C23.0188 67.6375 27.8161 72.4375 27.8161 78.3361C27.8161 84.2348 23.0188 89.0361 17.1188 89.0361Z" fill="#300635"/>
<path d="M11.8883 77.3858C11.8883 77.3858 11.4123 73.5818 16.4043 73.3432Z" fill="#FFD7E1"/>
<path d="M11.8831 78.5656C11.2925 78.5656 10.7818 78.1336 10.7071 77.5322C10.6845 77.3362 10.5058 75.5802 11.7738 74.0722C12.7618 72.8989 14.2991 72.2536 16.3485 72.1562C17.0085 72.1282 17.5618 72.6322 17.5925 73.2869C17.6245 73.9429 17.1178 74.4989 16.4631 74.5309C15.1165 74.5936 14.1591 74.9482 13.6111 75.5829C12.9831 76.3109 13.0685 77.2442 13.0685 77.2522C13.1325 77.9002 12.6658 78.4856 12.0205 78.5589C11.9725 78.5642 11.9271 78.5656 11.8831 78.5656Z" fill="#300635"/>
<path d="M72.5979 78.3364C72.5979 83.5884 76.8552 87.8471 82.1086 87.8471C87.3606 87.8471 91.6206 83.5884 91.6206 78.3364C91.6206 73.0844 87.3606 68.8257 82.1086 68.8257C76.8552 68.8257 72.5979 73.0844 72.5979 78.3364Z" fill="#FFD19F"/>
<path d="M82.1083 70.0148C77.5203 70.0148 73.787 73.7481 73.787 78.3361C73.787 82.9255 77.5203 86.6575 82.1083 86.6575C86.6963 86.6575 90.4297 82.9255 90.4297 78.3361C90.4297 73.7481 86.6963 70.0148 82.1083 70.0148ZM82.1083 89.0361C76.2097 89.0361 71.4097 84.2348 71.4097 78.3361C71.4097 72.4375 76.2097 67.6375 82.1083 67.6375C88.0083 67.6375 92.807 72.4375 92.807 78.3361C92.807 84.2348 88.0083 89.0361 82.1083 89.0361Z" fill="#300635"/>
<path d="M87.3401 77.3858C87.3401 77.3858 87.8147 73.5818 82.8201 73.3432Z" fill="#FFD7E1"/>
<path d="M87.3414 78.5746C87.2921 78.5746 87.2414 78.5706 87.1921 78.5653C86.5441 78.4853 86.0854 77.896 86.1574 77.2506C86.1614 77.2093 86.2321 76.2973 85.6174 75.5826C85.0681 74.948 84.1094 74.5946 82.7654 74.5306C82.1107 74.4986 81.6027 73.9426 81.6334 73.2866C81.6667 72.632 82.2134 72.1306 82.8774 72.1573C84.9254 72.2533 86.4654 72.8986 87.4521 74.072C88.7201 75.58 88.5414 77.336 88.5187 77.532C88.4441 78.136 87.9321 78.5746 87.3414 78.5746Z" fill="#300635"/>
<path d="M81.7463 49.4016C78.9797 34.0829 65.5877 22.4576 49.4717 22.4576C33.3543 22.4576 19.961 34.0816 17.1943 49.4002C16.8543 50.1042 16.661 50.8816 16.661 51.7042V81.6589C16.661 81.8576 16.6703 82.0549 16.6943 82.2509C17.3783 99.7642 31.7863 113.756 49.4717 113.756C67.1543 113.756 81.5623 99.7629 82.2477 82.2469C82.269 82.0522 82.2797 81.8576 82.2797 81.6589V51.7042C82.2797 50.8816 82.089 50.1042 81.7463 49.4016Z" fill="#FFD19F"/>
<path d="M49.4717 23.6464C34.165 23.6464 21.0837 34.5651 18.365 49.6104L18.3343 49.7717L18.265 49.9157C17.9903 50.4864 17.849 51.0877 17.849 51.7037V81.6597C17.849 81.8091 17.8583 81.9624 17.8743 82.1171L17.881 82.2037C18.5463 99.2304 32.4223 112.568 49.4717 112.568C66.5183 112.568 80.3943 99.2291 81.0597 82.1997L81.065 82.1144C81.0823 81.9624 81.0917 81.8104 81.0917 81.6597V51.7037C81.0917 51.0877 80.9503 50.4891 80.6757 49.9197L80.6063 49.7731L80.5783 49.6131C77.8597 34.565 64.777 23.6464 49.4717 23.6464ZM49.4717 114.945C31.1543 114.945 16.245 100.625 15.5063 82.3384C15.485 82.1117 15.4717 81.8824 15.4717 81.6597V51.7037C15.4717 50.7811 15.6663 49.8864 16.053 49.0357C19.037 32.9371 33.065 21.2691 49.4717 21.2691C65.8757 21.2691 79.9037 32.9371 82.8877 49.0357C83.2743 49.8864 83.469 50.7811 83.469 51.7037V81.6597C83.469 81.8837 83.457 82.1117 83.433 82.3357C82.697 100.622 67.7863 114.945 49.4717 114.945Z" fill="#300635"/>
<path d="M40.8947 62.882C40.8947 64.1953 38.7334 62.4073 35.1881 62.4073C31.6441 62.4073 28.0534 64.1953 28.0534 62.882C28.0534 61.5686 31.1681 59.7913 34.7121 59.7913C38.2574 59.7913 40.8947 61.5686 40.8947 62.882Z" fill="#E2A854"/>
<path d="M71.5666 62.882C71.5666 64.1953 69.4066 62.4073 65.8599 62.4073C62.3146 62.4073 58.7266 64.1953 58.7266 62.882C58.7266 61.5686 61.8386 59.7913 65.3839 59.7913C68.9306 59.7913 71.5666 61.5686 71.5666 62.882Z" fill="#E2A854"/>
<path d="M54.0107 78.839C54.0107 75.3924 52.6641 70.015 49.9361 70.015C47.2054 70.015 45.6894 75.015 45.6894 78.4617C45.6894 78.6937 45.7054 78.903 45.7321 79.0937C45.7321 79.103 45.7307 79.111 45.7307 79.1204C45.7307 80.9244 47.5761 82.3857 49.8521 82.3857C51.6174 82.3857 53.1227 81.503 53.7081 80.2617C53.8974 79.9564 54.0107 79.5017 54.0107 78.839Z" fill="#FC7C7C"/>
<path d="M26.3766 75.0161C26.2513 75.0161 26.1246 74.9961 25.9993 74.9535C25.3753 74.7468 25.0379 74.0748 25.2459 73.4508C26.6806 69.1521 28.5086 66.9815 30.8406 66.8148C34.6406 66.5548 37.5779 72.1775 37.9006 72.8201C38.1939 73.4081 37.9566 74.1215 37.3699 74.4148C36.7833 74.7081 36.0673 74.4708 35.7739 73.8815C34.9766 72.2988 32.7499 69.0735 31.0073 69.1881C29.7953 69.2735 28.5513 71.0548 27.5033 74.2028C27.3366 74.7001 26.8739 75.0161 26.3766 75.0161Z" fill="#300635"/>
<path d="M62.0393 75.0161C61.914 75.0161 61.79 74.9961 61.6633 74.9535C61.0407 74.7468 60.7047 74.0748 60.9127 73.4508C62.3447 69.1521 64.1753 66.9815 66.5047 66.8148C70.306 66.5548 73.2433 72.1775 73.566 72.8201C73.8567 73.4081 73.6193 74.1215 73.0327 74.4148C72.446 74.7081 71.734 74.4708 71.438 73.8815C70.6433 72.2988 68.4193 69.0735 66.6727 69.1881C65.462 69.2735 64.2167 71.0548 63.1687 74.2028C63.002 74.7001 62.5367 75.0161 62.0393 75.0161Z" fill="#300635"/>
<path d="M33.2711 89.9953H64.6551C64.6551 89.9953 47.0605 118.051 33.2711 89.9953Z" fill="white"/>
<path d="M35.2229 91.1841C38.8616 97.8828 43.0016 101.275 47.5376 101.275C53.9882 101.275 59.8616 94.5215 62.3669 91.1841H35.2229ZM47.5376 103.653C41.6456 103.653 36.4869 99.2348 32.2042 90.5188L31.3616 88.8068H66.8042L65.6616 90.6255C65.3296 91.1575 57.3789 103.653 47.5376 103.653Z" fill="#300635"/>
<path d="M48.9638 139.925C48.3065 139.925 47.7745 139.393 47.7745 138.736V135.836C34.3798 134.965 34.2211 123.401 34.2211 123.282C34.2211 122.625 34.7545 122.093 35.4105 122.093C36.0651 122.093 36.5985 122.624 36.5998 123.28C36.6011 123.697 36.8131 133.293 48.9851 133.506L50.1531 133.526V138.736C50.1531 139.393 49.6198 139.925 48.9638 139.925Z" fill="#300635"/>
<path d="M54.6709 140.4C54.6495 140.4 54.6295 140.4 54.6082 140.399C53.9535 140.367 53.4495 139.81 53.4815 139.152L53.7709 133.37L54.7975 133.272C55.1709 133.238 63.9989 132.274 64.4202 123.462C64.4495 122.807 65.0069 122.298 65.6615 122.331C66.3189 122.363 66.8242 122.92 66.7935 123.576C66.3695 132.483 58.8389 134.883 56.0469 135.468L55.8575 139.271C55.8229 139.908 55.3002 140.4 54.6709 140.4Z" fill="#300635"/>
<path d="M20.8271 214.9L25.5818 195.879C25.5818 195.879 17.3405 194.611 16.8645 177.968C16.8645 177.968 16.3885 141.827 24.9485 131.842C24.9485 131.842 9.73246 135.646 3.5498 160.372C3.5498 160.372 -5.16754 206.182 11.0005 213.316C11.0005 213.316 13.6938 214.9 20.8271 214.9Z" fill="#2F5944"/>
<path d="M4.71112 160.627C4.44846 162.043 -3.47288 205.631 11.4805 212.227L11.6031 212.291C11.6165 212.297 13.9711 213.58 19.9018 213.703L24.1591 196.668C21.6191 195.599 16.0685 191.703 15.6765 178C15.6591 176.631 15.3591 147.561 21.8245 134.536C17.1445 137.219 8.84312 144.133 4.71112 160.627ZM21.7551 216.089H20.8271C14.0165 216.089 10.9911 214.657 10.4738 214.383C-6.30354 206.892 2.01912 162.057 2.38179 160.151L2.39646 160.085C8.67912 134.953 24.0111 130.851 24.6605 130.687L28.2765 129.783L25.8498 132.615C17.6778 142.151 18.0485 177.595 18.0538 177.952C18.4885 193.223 25.7058 194.693 25.7778 194.708L27.0285 194.931L26.7365 196.167L21.7551 216.089Z" fill="#300635"/>
<path d="M79.913 212.206L75.3544 195.564C75.3544 195.564 83.7184 194.612 84.193 177.968C84.193 177.968 84.6677 141.828 76.109 131.842C76.109 131.842 91.325 135.645 97.5077 160.373C97.5077 160.373 107.494 201.269 91.325 208.402C91.325 208.402 87.0464 212.206 79.913 212.206Z" fill="#2F5944"/>
<path d="M76.8128 196.382L80.8141 210.994C86.8368 210.701 90.5008 207.543 90.5381 207.511L90.6741 207.39L90.8448 207.313C105.919 200.662 96.4501 161.055 96.3528 160.654C92.2021 144.054 83.8954 137.163 79.2194 134.51C85.6981 147.521 85.3981 176.629 85.3821 177.983C84.9914 191.629 79.4234 195.373 76.8128 196.382ZM79.9128 213.395H79.0061L73.8408 194.538L75.2208 194.381C75.5061 194.342 82.5674 193.187 83.0048 177.933C83.0088 177.594 83.3781 142.147 75.2074 132.615L72.7794 129.783L76.3968 130.687C77.0474 130.851 92.3794 134.954 98.6607 160.085C99.0781 161.795 108.629 201.786 91.9648 209.417C91.1061 210.123 86.7488 213.395 79.9128 213.395Z" fill="#300635"/>
<path d="M51.5784 225.282C50.921 225.282 50.3877 224.75 50.3877 224.092V141.352C50.3877 140.696 50.921 140.163 51.5784 140.163C52.2344 140.163 52.7677 140.696 52.7677 141.352V224.092C52.7677 224.75 52.2344 225.282 51.5784 225.282Z" fill="#300635"/>
<g opacity="0.5">
<g opacity="0.5">
<path opacity="0.5" d="M20.8271 214.9L22.0685 209.938L22.0951 209.354C22.0951 209.354 5.92713 214.584 6.40313 183.199C6.40313 183.199 4.4458 156.756 22.0951 134.695C22.4325 134.274 22.4525 133.655 22.2631 132.928C17.6098 135.262 8.11646 142.107 3.5498 160.372C3.5498 160.372 -5.16754 206.182 11.0005 213.316C11.0005 213.316 13.6938 214.9 20.8271 214.9Z" fill="#CCCCCC"/>
</g>
</g>
<path d="M19.654 69.8755V46.2408C19.654 46.2408 46.41 30.6315 77.6273 44.9035L79.4113 68.9835L84.7633 66.7541L85.2086 14.1315L78.5193 19.0381L71.8313 7.88879L67.8166 16.8061L59.79 7.44345L54.438 15.0235L47.7486 2.53679L40.1673 13.2395L30.8033 4.76745L29.0193 14.5768L20.546 6.55146L18.3166 18.5915L12.0726 9.22612L14.302 66.7541L19.654 69.8755Z" fill="#263E6D"/>
<path d="M15.6122 65.968L18.3162 67.5467V45.472L18.9789 45.0853C19.5069 44.776 32.1055 37.5507 50.2522 37.5507C59.8829 37.5507 69.2802 39.6147 78.1829 43.6853L78.9042 44.0147L80.6082 67.036L83.4322 65.86L83.8482 16.788L78.1282 20.984L72.0002 10.7733L68.1722 19.2773L59.8909 9.61733L54.2829 17.5653L47.5909 5.07467L40.3882 15.2427L31.6882 7.37467L29.8922 17.2493L21.4135 9.216L19.0309 22.076L13.5935 13.92L15.6122 65.968ZM20.9909 72.2053L12.9935 67.54L10.5522 4.53467L17.6002 15.1067L19.6802 3.88533L28.1455 11.908L29.9175 2.16267L39.9482 11.2373L47.9082 -2.15189e-06L54.5948 12.484L59.6882 5.26934L67.4629 14.3373L71.6615 5.00533L78.9122 17.0907L86.5695 11.476L86.0935 67.6507L78.2135 70.932L76.3509 45.7947C68.0135 42.1013 59.2362 40.2267 50.2522 40.2267C35.1082 40.2267 23.7829 45.5867 20.9909 47.0373V72.2053Z" fill="#300635"/>
</svg>
