<svg width="162" height="162" viewBox="0 0 162 162" fill="none" xmlns="http://www.w3.org/2000/svg">
<path d="M161.136 80.5693C161.136 125.064 125.064 161.136 80.5667 161.136C36.0707 161.136 0 125.064 0 80.5693C0 36.072 36.0707 -5.68072e-07 80.5667 -5.68072e-07C125.064 -5.68072e-07 161.136 36.072 161.136 80.5693Z" fill="#FAFCFD"/>
<path d="M82.8418 34.5095C83.7151 34.8948 84.2498 35.3508 84.4431 35.8735C84.6351 36.4002 84.7311 36.8042 84.7311 37.0855C84.7311 37.5375 84.5751 37.9162 84.2578 38.2122C83.9431 38.5095 83.5764 38.6575 83.1551 38.6575C82.7698 38.6575 82.4378 38.5455 82.1578 38.3175C81.8764 38.0908 81.7031 37.7842 81.6338 37.3988C81.5284 37.3642 81.3258 37.3015 81.0284 37.2148C80.7311 37.1268 80.2951 37.0562 79.7151 37.0042C79.1391 36.9522 78.3751 36.9362 77.4298 36.9522C76.4844 36.9708 75.3284 37.0495 73.9644 37.1882C71.7924 37.3988 69.3418 37.7322 66.6111 38.1868C63.8791 38.6428 61.0244 39.2202 58.0484 39.9215C57.1391 40.1295 56.2271 40.3402 55.3178 40.5508C54.4084 40.7588 53.4978 40.9882 52.5871 41.2335C52.4124 41.7242 52.1484 42.4068 51.7991 43.2802C51.4484 44.1575 51.0551 45.1815 50.6164 46.3535C50.1804 47.5282 49.7058 48.8228 49.2004 50.2402C48.6911 51.6575 48.1751 53.1215 47.6484 54.6268C45.9324 59.5642 44.6378 63.7642 43.7631 67.2322C42.8871 70.6988 42.4498 73.3242 42.4498 75.1108C42.4498 75.5668 42.2924 75.9428 41.9778 76.2402C41.6618 76.5388 41.2938 76.6882 40.8724 76.6882C40.4204 76.6882 40.0418 76.5388 39.7431 76.2402C39.4458 75.9428 39.2978 75.5668 39.2978 75.1108C39.2978 71.0482 41.0844 63.8708 44.6538 53.5775C45.4604 51.3015 46.2218 49.1828 46.9404 47.2202C47.6578 45.2602 48.2804 43.6148 48.8058 42.2842C44.2524 43.5802 40.2084 44.9282 36.6711 46.3268C33.1364 47.7282 30.4564 49.0588 28.6364 50.3188C27.6538 51.0215 27.0418 51.5642 26.7978 51.9468C26.5524 52.3348 26.4458 52.5775 26.4818 52.6842C26.6564 53.1028 26.6404 53.5068 26.4284 53.8908C26.2191 54.2762 25.9218 54.5388 25.5364 54.6788C25.3964 54.7508 25.2218 54.7855 25.0124 54.7855C24.2764 54.7855 23.7684 54.4335 23.4871 53.7335C23.3138 53.1735 23.2964 52.4908 23.4351 51.6842C23.5764 50.8815 24.1884 49.9708 25.2738 48.9548C27.4804 46.9588 31.4204 44.8922 37.0924 42.7562C39.6138 41.8468 42.3364 40.9442 45.2591 40.0508C48.1831 39.1575 51.2738 38.3095 54.5311 37.5042C57.6124 36.7668 60.6231 36.1215 63.5658 35.5602C66.5058 35.0002 69.2018 34.5628 71.6538 34.2468C77.1858 33.5828 80.9151 33.6695 82.8418 34.5095Z" fill="#491448"/>
<path d="M65.718 58.0407C65.6126 58.0407 65.5233 58.0594 65.4553 58.094C64.9646 58.1634 64.29 58.4074 63.4326 58.8287C62.5753 59.2487 61.69 59.9327 60.782 60.878C59.87 61.8234 59.0993 62.874 58.4686 64.0274C57.8393 65.1834 57.3833 66.3927 57.1033 67.6527C58.6806 67.478 60.1406 66.9794 61.49 66.1554C62.8366 65.3327 63.966 64.238 64.878 62.874C65.542 61.894 65.9793 60.9807 66.19 60.142C66.4006 59.3007 66.4166 58.6887 66.2433 58.3034C66.2433 58.1287 66.0673 58.0407 65.718 58.0407ZM62.25 76.5287C59.066 76.5287 56.718 75.6194 55.2126 73.798C54.7566 73.238 54.3566 72.442 54.006 71.4074C53.654 70.3754 53.6366 69.0354 53.9513 67.3914C54.2686 65.7807 54.81 64.2314 55.5793 62.742C56.35 61.254 57.3313 59.898 58.522 58.6714C59.5366 57.6207 60.638 56.7634 61.8313 56.098C63.022 55.4327 64.126 55.0474 65.138 54.942C66.086 54.8367 66.9073 54.9674 67.6086 55.3367C68.3073 55.7047 68.834 56.2914 69.1846 57.0954C69.57 58.0767 69.6126 59.2407 69.3153 60.5874C69.0166 61.9367 68.414 63.2927 67.5033 64.658C66.9073 65.5354 66.2153 66.3407 65.43 67.074C64.6406 67.8114 63.7913 68.4394 62.882 68.9647C61.1646 70.0154 59.2406 70.6287 57.1033 70.8034C57.558 71.8194 58.2766 72.502 59.2566 72.8527C60.2366 73.2047 61.2353 73.3794 62.25 73.3794C65.2606 73.3794 68.0446 72.1007 70.6033 69.5434C71.0913 69.054 71.5286 68.5714 71.914 68.0994C72.3006 67.626 72.634 67.1967 72.9126 66.8114C73.2273 66.3927 73.49 65.9727 73.7006 65.5527C73.9126 65.1674 74.2273 64.9034 74.646 64.7647C75.0673 64.6234 75.4686 64.658 75.8553 64.8687C76.2406 65.078 76.494 65.3874 76.6166 65.7887C76.7406 66.1914 76.694 66.5847 76.4846 66.9687C76.4846 67.006 76.4073 67.1634 76.2473 67.442C76.0913 67.7234 75.862 68.082 75.566 68.5194C75.2686 68.958 74.8913 69.4567 74.438 70.0154C73.982 70.5767 73.4726 71.1367 72.9126 71.6967C71.338 73.2727 69.6473 74.4727 67.8446 75.294C66.0406 76.1194 64.1766 76.5287 62.25 76.5287Z" fill="#491448"/>
<path d="M90.6138 76.6879C89.1432 76.6879 88.0045 76.1452 87.1992 75.0585C86.4658 74.1132 86.0445 72.8345 85.9392 71.2225C85.4832 71.8199 85.0112 72.3719 84.5218 72.8799C84.0312 73.3865 83.5405 73.8505 83.0498 74.2705C81.8232 75.2852 80.6152 75.9705 79.4258 76.3199C78.1645 76.7385 76.9912 76.7572 75.9072 76.3719C75.1725 76.0919 74.5498 75.6545 74.0418 75.0585C73.5352 74.4639 73.1592 73.7465 72.9138 72.9052C72.4925 71.3665 72.5805 69.4919 73.1765 67.2852C73.6672 65.5359 74.3925 63.8892 75.3552 62.3479C76.3178 60.8065 77.4658 59.4252 78.7952 58.1999C80.0578 57.0439 81.3165 56.2025 82.5765 55.6759C83.8378 55.1519 84.9752 55.0119 85.9912 55.2572C86.2018 55.3265 86.4818 55.4492 86.8312 55.6239C87.1818 55.8012 87.5152 56.0905 87.8298 56.4919C88.1445 56.8945 88.3725 57.4452 88.5125 58.1452C88.6525 58.8479 88.6005 59.7385 88.3552 60.8252C88.2845 61.2439 88.0672 61.5772 87.6978 61.8239C87.3298 62.0692 86.9365 62.1372 86.5165 62.0332C86.0965 61.9625 85.7632 61.7439 85.5205 61.3759C85.2738 61.0092 85.2032 60.6145 85.3085 60.1945C85.4152 59.6345 85.4578 59.2225 85.4405 58.9599C85.4218 58.6972 85.3965 58.5305 85.3618 58.4625C85.2912 58.3559 85.2378 58.3039 85.2032 58.3039C84.9232 58.2332 84.3898 58.3479 83.6018 58.6452C82.8125 58.9412 81.9125 59.5639 80.8965 60.5092C79.8098 61.5252 78.8565 62.6892 78.0338 64.0012C77.2112 65.3159 76.6058 66.6919 76.2218 68.1252C75.8365 69.4919 75.7138 70.6559 75.8552 71.6172C75.9952 72.5825 76.3618 73.1679 76.9565 73.3799C77.3418 73.5185 77.8858 73.4932 78.5858 73.2985C79.2845 73.1065 80.1098 72.6252 81.0538 71.8545C81.8232 71.1892 82.7525 70.1732 83.8378 68.8079C84.9232 67.4412 86.0258 65.4985 87.1472 62.9785C87.3218 62.5945 87.5925 62.3212 87.9618 62.1625C88.3298 62.0065 88.7045 61.9972 89.0912 62.1372C89.4752 62.3145 89.7632 62.5772 89.9578 62.9265C90.1485 63.2759 90.1952 63.6452 90.0885 64.0279C89.3872 66.6559 89.0458 68.7025 89.0645 70.1732C89.0818 71.6452 89.2832 72.6252 89.6685 73.1159C89.7378 73.2199 89.8432 73.3185 89.9832 73.4052C90.1232 73.4932 90.3338 73.5359 90.6138 73.5359C91.2445 73.5359 92.0045 73.2052 92.8992 72.5372C93.7925 71.8745 94.7458 70.9265 95.7618 69.7012C96.6365 68.6505 97.3445 67.6972 97.8885 66.8399C98.4312 65.9812 98.7018 65.5359 98.7018 65.4985C98.9125 65.1145 99.2285 64.8692 99.6472 64.7652C100.069 64.6585 100.471 64.7105 100.857 64.9212C101.242 65.1665 101.486 65.4919 101.59 65.8919C101.697 66.2972 101.643 66.6919 101.433 67.0745C101.433 67.1105 101.347 67.2572 101.171 67.5225C100.995 67.7852 100.767 68.1345 100.487 68.5719C100.207 69.0092 99.8658 69.5012 99.4658 70.0439C99.0605 70.5865 98.6325 71.1372 98.1778 71.6972C97.6178 72.3985 97.0565 73.0199 96.4965 73.5612C95.9365 74.1052 95.3938 74.5865 94.8672 75.0065C93.3618 76.1279 91.9445 76.6879 90.6138 76.6879Z" fill="#491448"/>
<path d="M97.1269 76.7387C96.9163 76.7387 96.7056 76.688 96.4963 76.5827C96.1109 76.408 95.8309 76.1453 95.6563 75.7947C95.4803 75.444 95.4629 75.0773 95.6016 74.692C95.6016 74.656 95.7789 74.124 96.1283 73.088C96.4789 72.056 96.9416 70.692 97.5189 68.992C98.0989 67.2933 98.7709 65.324 99.5429 63.0827C100.312 60.8427 101.136 58.496 102.011 56.044C102.151 55.66 102.422 55.372 102.824 55.1787C103.227 54.9867 103.62 54.96 104.006 55.1C104.427 55.2747 104.734 55.556 104.926 55.9387C105.118 56.3253 105.128 56.7267 104.951 57.148L103.01 62.6627C103.603 61.8227 104.191 61.052 104.768 60.3533C105.346 59.6533 105.879 59.004 106.371 58.408C107.455 57.252 108.427 56.3947 109.286 55.8347C110.143 55.2747 110.974 54.9933 111.78 54.9933C112.202 54.9933 112.576 55.0907 112.91 55.284C113.243 55.476 113.548 55.7307 113.828 56.044C114.003 56.2907 114.16 56.624 114.302 57.044C114.44 57.4627 114.538 58.0413 114.591 58.776C114.643 59.5107 114.634 60.4387 114.564 61.56C114.494 62.6813 114.302 64.0827 113.987 65.7627L114.511 65.028C115.422 63.6267 116.298 62.3747 117.138 61.272C117.978 60.168 118.766 59.2147 119.502 58.408C120.587 57.252 121.558 56.3947 122.418 55.8347C123.274 55.2747 124.104 54.9933 124.911 54.9933C125.542 54.9933 126.042 55.108 126.408 55.336C126.776 55.564 127.066 55.8013 127.274 56.044C127.871 56.8507 128.071 57.9 127.879 59.1973C127.686 60.492 127.327 62.172 126.803 64.2387L126.278 66.34C126.032 67.356 125.822 68.2573 125.647 69.044C125.472 69.832 125.35 70.5413 125.278 71.1707C125.21 71.9413 125.21 72.476 125.278 72.7733C125.35 73.0707 125.419 73.256 125.488 73.324C125.558 73.3947 125.682 73.4467 125.858 73.484C126.032 73.5187 126.19 73.536 126.328 73.536C126.96 73.536 127.711 73.212 128.588 72.564C129.464 71.916 130.391 70.9813 131.372 69.7533C131.791 69.228 132.168 68.712 132.502 68.2053C132.834 67.6973 133.14 67.252 133.422 66.8667C133.735 66.4107 134.015 65.9733 134.262 65.552C134.47 65.1667 134.786 64.9133 135.207 64.7907C135.626 64.668 136.03 64.7107 136.415 64.9213C136.799 65.132 137.054 65.4467 137.176 65.8667C137.299 66.2867 137.255 66.692 137.044 67.0747C137.008 67.1107 136.914 67.2573 136.756 67.5227C136.599 67.7853 136.379 68.1347 136.099 68.572C135.819 69.0093 135.487 69.5013 135.1 70.044C134.715 70.5867 134.295 71.1373 133.84 71.6973C132.756 73.028 131.668 74.132 130.584 75.0067C129.079 76.128 127.659 76.688 126.328 76.688C124.859 76.688 123.739 76.2133 122.968 75.2693C122.583 74.744 122.328 74.14 122.207 73.456C122.084 72.7733 122.058 72.0227 122.128 71.1973C122.198 70.376 122.338 69.4907 122.548 68.5453C122.758 67.6 122.986 66.62 123.231 65.6027L123.756 63.4507C123.931 62.6813 124.098 61.9813 124.256 61.3493C124.414 60.7187 124.543 60.1427 124.648 59.616C124.718 59.2307 124.754 58.9333 124.754 58.7227V58.2C124.612 58.2333 124.368 58.356 124.019 58.5653C123.668 58.776 123.186 59.188 122.574 59.8C121.96 60.4133 121.21 61.272 120.316 62.3747C119.423 63.4773 118.363 64.94 117.138 66.76C116.403 67.8813 115.694 68.984 115.011 70.0693C114.327 71.156 113.74 72.1253 113.252 72.9853C112.762 73.8413 112.218 74.8147 111.623 75.8973C111.447 76.2853 111.167 76.548 110.782 76.688C110.396 76.8253 110.011 76.8093 109.626 76.6347C109.24 76.46 108.96 76.1893 108.786 75.82C108.61 75.452 108.595 75.0773 108.734 74.692C108.803 74.4813 108.908 74.096 109.048 73.536C109.188 72.976 109.355 72.3107 109.547 71.5413C109.74 70.7693 109.942 69.9213 110.154 68.992C110.363 68.064 110.554 67.0933 110.73 66.0773C110.974 64.8173 111.151 63.7387 111.256 62.8453C111.362 61.9547 111.431 61.2013 111.464 60.588C111.499 59.976 111.51 59.4853 111.492 59.116C111.474 58.7507 111.447 58.48 111.412 58.304C111.203 58.408 110.904 58.6013 110.519 58.8813C110.134 59.1613 109.635 59.616 109.023 60.2467C108.41 60.8773 107.692 61.7173 106.87 62.768C106.044 63.82 105.092 65.1507 104.006 66.76C103.271 67.8813 102.562 68.984 101.879 70.0693C101.196 71.156 100.608 72.1253 100.12 72.9853C99.6296 73.8413 99.0869 74.8147 98.4909 75.8973C98.3523 76.1787 98.1576 76.3893 97.9136 76.5293C97.6696 76.668 97.4069 76.7387 97.1269 76.7387Z" fill="#491448"/>
<path d="M61.5423 87.8558C62.3703 90.0198 62.4063 92.5971 61.6503 95.5878C60.9663 98.1091 59.8317 100.526 58.2437 102.832C56.9823 104.636 55.6663 106.112 54.297 107.266C52.7117 108.562 51.2343 109.212 49.865 109.212C48.8183 109.212 47.9797 109.005 47.3503 108.592C46.7183 108.176 46.261 107.753 45.9716 107.32C45.465 106.637 45.1063 105.698 44.8903 104.506C42.6196 107.644 40.313 109.212 37.969 109.212C36.9236 109.212 36.085 109.005 35.457 108.592C34.8237 108.176 34.365 107.753 34.077 107.32C32.8516 105.554 32.5637 102.797 33.2117 99.0478C33.681 96.1278 34.689 92.4158 36.2397 87.9091C36.3837 87.4785 36.6543 87.1625 37.0503 86.9638C37.4477 86.7678 37.8623 86.7398 38.293 86.8838C38.7263 87.0625 39.0423 87.3518 39.2397 87.7491C39.4383 88.1451 39.465 88.5585 39.321 88.9918C38.2396 92.0185 37.473 94.5425 37.0237 96.5598C36.573 98.5798 36.293 100.201 36.185 101.426C36.0757 102.653 36.0957 103.57 36.2397 104.184C36.3837 104.797 36.545 105.212 36.7277 105.428C36.797 105.572 36.9237 105.698 37.105 105.805C37.285 105.914 37.573 105.968 37.969 105.968C38.5823 105.968 39.3023 105.636 40.133 104.969C40.9597 104.302 41.8076 103.354 42.673 102.129C43.0343 101.625 43.3676 101.112 43.673 100.589C43.9796 100.066 44.2397 99.6065 44.4583 99.2105C44.709 98.7411 44.9263 98.2891 45.1063 97.8585L45.377 97.4798C45.9157 94.7758 46.837 91.5865 48.133 87.9091C48.277 87.4785 48.5477 87.1625 48.9463 86.9638C49.3423 86.7678 49.7557 86.7398 50.1877 86.8838C50.5837 87.0625 50.8917 87.3518 51.1077 87.7491C51.3237 88.1451 51.3423 88.5585 51.161 88.9918C50.1157 92.0185 49.3583 94.5425 48.8903 96.5598C48.4223 98.5798 48.141 100.201 48.053 101.426C47.961 102.653 47.9903 103.57 48.133 104.184C48.277 104.797 48.4223 105.212 48.5677 105.428C48.6757 105.572 48.8183 105.698 48.9997 105.805C49.1797 105.914 49.4663 105.968 49.865 105.968C50.441 105.968 51.2597 105.554 52.3237 104.725C53.3863 103.896 54.4597 102.67 55.5423 101.049C56.1183 100.22 56.6583 99.3011 57.1623 98.2891C57.6676 97.2825 58.081 96.2371 58.4063 95.1558C58.733 94.0731 58.9197 93.0105 58.973 91.9651C59.029 90.9198 58.8757 89.9465 58.5143 89.0451C58.3343 88.6118 58.3423 88.1985 58.5423 87.8025C58.737 87.4065 59.0357 87.1185 59.433 86.9371C59.8663 86.7571 60.2797 86.7571 60.6783 86.9371C61.073 87.1185 61.361 87.4238 61.5423 87.8558Z" fill="#491448"/>
<path d="M88.1425 85.0446C88.0692 85.0446 87.9692 85.1086 87.8452 85.2352C87.7185 85.3606 87.6025 85.5686 87.4932 85.8539C87.4559 85.9632 87.4199 86.1339 87.3865 86.3699C87.3492 86.6046 87.3585 86.8832 87.4119 87.2072C87.4665 87.5312 87.6025 87.8926 87.8185 88.2886C88.0345 88.6846 88.3759 89.1006 88.8439 89.5326L89.1145 89.6939C89.1879 88.9739 89.1972 88.2619 89.1439 87.5592C89.0879 86.8552 88.8985 86.1979 88.5745 85.5846C88.5025 85.5152 88.4412 85.4419 88.3865 85.3686C88.3319 85.2966 88.2852 85.2259 88.2505 85.1539L88.1425 85.0446ZM72.1385 93.1006C71.9945 93.5326 71.8772 94.0032 71.7865 94.5059C71.6972 95.0126 71.6519 95.5526 71.6519 96.1286C71.6519 97.8232 72.0479 99.2099 72.8412 100.291C73.4532 101.157 74.3372 101.698 75.4919 101.913C75.9959 100.941 76.3732 99.8672 76.6265 98.6952C76.8785 97.5259 77.0052 96.3446 77.0052 95.1552C77.0052 93.7139 76.8159 92.5072 76.4372 91.5326C76.0585 90.5592 75.5625 90.0726 74.9505 90.0726C74.4452 90.0726 73.9665 90.2899 73.5185 90.7219C73.0652 91.1552 72.6972 91.7326 72.4092 92.4512C72.3732 92.5966 72.2825 92.8112 72.1385 93.1006ZM68.4092 95.6952L67.9772 96.3979C67.4359 97.3366 67.0025 98.3286 66.6785 99.3712C66.3545 100.418 66.1905 101.393 66.1905 102.293C66.1905 102.689 66.2452 103.138 66.3545 103.643C66.4625 104.147 66.6599 104.599 66.9479 104.995C67.5252 105.642 68.4612 105.967 69.7599 105.967C71.0945 105.967 72.2825 105.535 73.3292 104.67C72.1385 104.203 71.0945 103.373 70.1919 102.183C69.6145 101.393 69.1732 100.473 68.8679 99.4246C68.5599 98.3819 68.4092 97.2832 68.4092 96.1286V95.6952ZM69.7599 109.211C68.3545 109.211 67.2265 108.986 66.3812 108.535C65.5332 108.086 64.9105 107.61 64.5145 107.103C63.4719 105.879 62.9479 104.274 62.9479 102.293C62.9479 101.102 63.1465 99.8419 63.5425 98.5086C63.9385 97.1739 64.4985 95.9112 65.2199 94.7232C65.8665 93.5699 66.6425 92.6312 67.5425 91.9112C68.2639 91.2979 68.9479 90.9192 69.5972 90.7766C69.7399 90.4152 69.8679 90.1632 69.9759 90.0192C71.2745 87.8926 72.9305 86.8299 74.9505 86.8299C76.7505 86.8299 78.1585 87.7859 79.1679 89.6939C79.8892 91.2086 80.2492 93.0272 80.2492 95.1552C80.2492 97.4619 79.8705 99.6072 79.1145 101.589C83.5465 100.257 86.5932 97.4086 88.2505 93.0472C87.6359 92.6859 87.1145 92.3072 86.6825 91.9112C85.4945 90.8299 84.7185 89.6406 84.3585 88.3432C84.0332 87.1192 84.0519 85.9472 84.4119 84.8286C84.7012 83.9992 85.1505 83.3059 85.7639 82.7459C86.3772 82.1872 87.0599 81.8739 87.8185 81.8006C89.3319 81.6912 90.5399 82.4499 91.4399 84.0726C92.3399 85.7312 92.6479 87.6926 92.3585 89.9632L92.1972 90.8832C92.8465 90.9566 93.5225 90.9112 94.2252 90.7486C94.9279 90.5859 95.6932 90.3432 96.5225 90.0192C97.1719 89.7312 97.7825 89.4232 98.3612 89.1006C98.9372 88.7752 99.4239 88.4686 99.8212 88.1819C100.289 87.8552 100.74 87.5312 101.172 87.2072C101.461 86.9566 101.795 86.8206 102.172 86.8019C102.552 86.7846 102.884 86.8832 103.173 87.0992C103.46 87.3152 103.668 87.5952 103.793 87.9379C103.92 88.2819 103.911 88.6312 103.768 88.9912C102.721 92.0179 101.964 94.5419 101.497 96.5606C101.027 98.5792 100.749 100.21 100.66 101.454C100.569 102.697 100.596 103.617 100.74 104.213C100.884 104.806 101.027 105.211 101.172 105.427C101.281 105.573 101.425 105.698 101.605 105.805C101.784 105.914 102.072 105.967 102.471 105.967C103.117 105.967 103.893 105.626 104.795 104.942C105.695 104.257 106.651 103.285 107.66 102.021C108.093 101.517 108.48 101.003 108.823 100.481C109.165 99.9592 109.481 99.4992 109.769 99.1019C110.093 98.6339 110.381 98.1832 110.633 97.7499C110.849 97.3526 111.173 97.0926 111.607 96.9659C112.04 96.8406 112.452 96.8846 112.851 97.1006C113.247 97.3166 113.507 97.6419 113.635 98.0739C113.761 98.5086 113.697 98.9219 113.445 99.3179C113.445 99.3539 113.364 99.5086 113.201 99.7779C113.039 100.047 112.815 100.409 112.525 100.859C112.237 101.31 111.895 101.814 111.5 102.373C111.103 102.931 110.671 103.501 110.201 104.075C109.084 105.446 107.965 106.581 106.849 107.481C105.299 108.635 103.839 109.211 102.471 109.211C101.425 109.211 100.587 109.006 99.9559 108.591C99.3252 108.177 98.8479 107.753 98.5225 107.319C97.3345 105.662 97.0625 102.906 97.7132 99.0472C97.9625 97.1739 98.4865 94.9206 99.2812 92.2912C98.8479 92.5072 98.3412 92.7406 97.7665 92.9912C95.4225 93.9659 93.2599 94.3259 91.2785 94.0726C90.7359 95.6606 89.9999 97.1099 89.0612 98.4259C88.1239 99.7406 87.0425 100.877 85.8172 101.833C84.5919 102.789 83.2572 103.554 81.8172 104.129C80.3759 104.706 78.8612 105.049 77.2759 105.158C76.4465 106.239 75.5452 107.122 74.5719 107.806C73.0932 108.745 71.4905 109.211 69.7599 109.211" fill="#491448"/>
<path d="M134.693 97.0472C135.089 97.2632 135.349 97.5885 135.477 98.0192C135.603 98.4525 135.54 98.8672 135.287 99.2645C135.287 99.3005 135.207 99.4539 135.044 99.7245C134.881 99.9939 134.657 100.354 134.368 100.803C134.08 101.255 133.728 101.77 133.315 102.346C132.899 102.923 132.456 103.501 131.989 104.075C129.179 107.501 126.493 109.211 123.935 109.211C122.852 109.211 122.043 108.889 121.5 108.239C120.997 107.734 120.733 107.139 120.717 106.455C120.697 105.771 120.724 105.067 120.797 104.347C120.871 103.734 120.896 103.138 120.88 102.562C120.86 101.986 120.708 101.535 120.42 101.21C120.24 101.03 119.996 100.859 119.689 100.697C119.383 100.534 118.923 100.418 118.311 100.345C117.409 100.418 116.635 100.401 115.987 100.291C115.553 100.221 115.192 100.021 114.905 99.6965C114.616 99.3712 114.491 98.9752 114.527 98.5085C114.561 98.0752 114.743 97.7059 115.067 97.3992C115.391 97.0925 115.769 96.9392 116.203 96.9392C116.599 96.9392 116.977 96.9499 117.337 96.9659C117.697 96.9845 118.04 97.0112 118.365 97.0472C119.409 96.9392 120.492 96.6872 121.609 96.2912C122.655 95.9312 123.581 95.5059 124.393 95.0192C125.204 94.5325 125.843 94.0365 126.312 93.5325C126.78 93.0272 127.024 92.6045 127.043 92.2619C127.06 91.9205 127.032 91.6765 126.961 91.5325C126.888 91.2445 126.763 90.9832 126.583 90.7485C126.401 90.5139 126.023 90.3432 125.448 90.2365C124.655 90.0925 123.744 90.1352 122.719 90.3699C121.689 90.6059 120.671 90.9472 119.663 91.3979C118.653 91.8485 117.743 92.3525 116.932 92.9112C116.121 93.4699 115.536 93.9832 115.175 94.4525L114.849 94.8312L111.065 108.075C110.993 108.437 110.813 108.726 110.527 108.942C110.237 109.158 109.895 109.266 109.499 109.266C109.428 109.266 109.355 109.255 109.281 109.239C109.209 109.222 109.139 109.211 109.065 109.211C108.633 109.069 108.309 108.806 108.093 108.429C107.876 108.05 107.84 107.643 107.984 107.211L117.717 72.6099C117.86 72.1779 118.12 71.8445 118.499 71.6085C118.879 71.3752 119.284 71.3312 119.716 71.4739C120.149 71.5819 120.481 71.8352 120.717 72.2312C120.951 72.6299 120.997 73.0432 120.851 73.4752L116.365 89.4232C117.013 89.0645 117.697 88.7219 118.419 88.3979C118.852 88.2179 119.355 88.0192 119.932 87.8019C120.509 87.5859 121.14 87.3965 121.827 87.2339C122.509 87.0725 123.212 86.9645 123.935 86.9085C124.655 86.8552 125.376 86.9032 126.096 87.0459C128.26 87.4779 129.611 88.7045 130.152 90.7219C130.295 91.3352 130.304 92.0725 130.177 92.9379C130.052 93.8032 129.575 94.7232 128.745 95.6952C128.06 96.4539 127.215 97.1365 126.205 97.7499C125.196 98.3619 124.131 98.8672 123.015 99.2645C123.699 100.094 124.051 101.003 124.068 101.995C124.087 102.987 124.06 103.878 123.988 104.67C123.988 104.853 123.979 105.067 123.96 105.319C123.943 105.573 123.935 105.789 123.935 105.967C124.655 105.967 125.501 105.626 126.475 104.942C127.447 104.257 128.456 103.285 129.501 102.021C129.936 101.479 130.323 100.95 130.665 100.426C131.007 99.9045 131.321 99.4445 131.609 99.0472C131.936 98.5792 132.223 98.1299 132.476 97.6952C132.692 97.2992 133.016 97.0392 133.448 96.9125C133.881 96.7872 134.295 96.8312 134.693 97.0472Z" fill="#491448"/>
</svg>
